# Converted from A_edit.usd; internal USD transforms baked; visual use only
v -0.0136363646 0.000250000012 0.116519514
v -0.0818181878 -0.000250000012 -0.119389585
v -0.0136363646 -0.000250000012 0.116519514
v -0.0818181878 0.000250000012 -0.119389585
v 0.0136363646 -0.000250000012 0.116519514
v 0.0136363646 0.000250000012 0.116519514
v 0.0818181878 0.000250000012 -0.119389585
v 0.0818181878 -0.000250000012 -0.119389585
v 0.0490909066 -0.000250000012 -0.119389585
v 0.0490909066 0.000250000012 -0.119389585
v 0.0300000014 0.000250000012 -0.0471168464
v 0.0300000014 -0.000250000012 -0.0471168464
v -0.0300000014 0.000250000012 -0.0471168464
v -0.0300000014 -0.000250000012 -0.0471168464
v -0.0490909142 0.000250000012 -0.119389585
v -0.0490909142 -0.000250000012 -0.119389585
v -0.0231818191 0.000250000012 -0.021207757
v -0.0231818191 -0.000250000012 -0.021207757
v 0.0231818191 -0.000250000012 -0.021207757
v 0.0231818191 0.000250000012 -0.021207757
v 0.00136363656 0.000250000012 0.061974063
v 0.00136363656 -0.000250000012 0.061974063
v -0.00136363632 -0.000250000012 0.061974063
v -0.00136363632 0.000250000012 0.061974063
f 1 2 3
f 1 4 2
f 1 3 5
f 1 5 6
f 7 5 8
f 7 6 5
f 9 10 7
f 9 7 8
f 11 9 12
f 11 10 9
f 13 11 12
f 14 13 12
f 15 14 16
f 15 13 14
f 2 4 15
f 2 15 16
f 17 18 19
f 17 19 20
f 21 19 22
f 21 20 19
f 23 24 21
f 23 21 22
f 17 23 18
f 17 24 23
f 14 2 16
f 18 2 14
f 12 9 8
f 19 14 12
f 19 18 14
f 19 12 8
f 3 18 23
f 3 2 18
f 5 23 22
f 5 22 19
f 5 3 23
f 5 19 8
f 11 7 10
f 20 7 11
f 13 15 4
f 17 11 13
f 17 20 11
f 17 13 4
f 6 20 21
f 6 21 24
f 6 7 20
f 1 24 17
f 1 17 4
f 1 6 24
