# Converted from B_edit.usd; internal USD transforms baked; visual use only
v 0.0804545282 0.000249999998 0.0433804242
v 0.0805152734 -0.000249999983 0.0463270642
v 0.0804545282 -0.000249999983 0.0433804242
v 0.0805152734 0.000249999998 0.0463270642
v 0.0802722772 0.000249999998 0.0405169141
v 0.0802722772 -0.000249999983 0.0405169141
v 0.0799685358 -0.000249999983 0.0377365377
v 0.0799685358 0.000249999998 0.0377365377
v 0.0795432733 0.000249999998 0.0350392911
v 0.0795432733 -0.000249999983 0.0350392911
v 0.0790566706 -0.000249999983 0.0326828458
v 0.0790566706 0.000249999998 0.0326828458
v 0.0785345758 0.000249999998 0.030619621
v 0.0785345758 -0.000249999983 0.030619621
v 0.0779327692 0.000249999998 0.028610935
v 0.0779327692 -0.000249999983 0.028610935
v 0.0772512506 0.000249999998 0.0266567953
v 0.0772512506 -0.000249999983 0.0266567953
v 0.0764900049 0.000249999998 0.0247571962
v 0.0764900049 -0.000249999983 0.0247571962
v 0.0756490473 0.000249999998 0.0229121397
v 0.0756490473 -0.000249999983 0.0229121397
v 0.0747283777 0.000249999998 0.0211216257
v 0.0747283777 -0.000249999983 0.0211216257
v 0.0737279963 0.000249999998 0.0193856543
v 0.0737279963 -0.000249999983 0.0193856543
v 0.0726478876 -0.000249999983 0.0177042273
v 0.0726478876 0.000249999998 0.0177042273
v 0.0714880671 0.000249999998 0.016077341
v 0.0714880671 -0.000249999983 0.016077341
v 0.0702485346 0.000249999998 0.014505
v 0.0702485346 -0.000249999983 0.014505
v 0.068929275 0.000249999998 0.0129871987
v 0.068929275 -0.000249999983 0.0129871987
v 0.0675303187 0.000249999998 0.0115239419
v 0.0675303187 -0.000249999983 0.0115239419
v 0.0655948939 0.000249999998 0.00965777485
v 0.0655948939 -0.000249999983 0.00965777485
v 0.0633729663 -0.000249999983 0.00767424101
v 0.0633729663 0.000249999998 0.00767424101
v 0.0611038318 0.000249999998 0.00581342788
v 0.0611038318 -0.000249999983 0.00581342788
v 0.0587875019 0.000249999998 0.00407533547
v 0.0587875019 -0.000249999983 0.00407533547
v 0.0564239612 0.000249999998 0.00245996545
v 0.0564239612 -0.000249999983 0.00245996545
v 0.0540132252 0.000249999998 0.000967312567
v 0.0540132252 -0.000249999983 0.000967312567
v 0.0515552937 0.000249999998 -0.000402613875
v 0.0515552937 -0.000249999983 -0.000402613875
v 0.0490501667 0.000249999998 -0.00164982532
v 0.0490501667 -0.000249999983 -0.00164982532
v 0.0464978291 0.000249999998 -0.00277431033
v 0.0464978291 -0.000249999983 -0.00277431033
v 0.043898296 0.000249999998 -0.00377607653
v 0.043898296 -0.000249999983 -0.00377607653
v 0.0412515523 0.000249999998 -0.00465512368
v 0.0412515523 -0.000249999983 -0.00465512368
v 0.0397544057 0.000249999998 -0.00509221931
v 0.0397544057 -0.000249999983 -0.00509221931
v 0.0382425496 0.000249999998 -0.00549111839
v 0.0382425496 -0.000249999983 -0.00549111839
v 0.0402489888 0.000249999998 -0.00621179481
v 0.0402489888 -0.000249999983 -0.00621179481
v 0.0422462575 0.000249999998 -0.00703316016
v 0.0422462575 -0.000249999983 -0.00703316016
v 0.0442343709 -0.000249999983 -0.00795521444
v 0.0442343709 0.000249999998 -0.00795521444
v 0.0462133442 0.000249999998 -0.00897795384
v 0.0462133442 -0.000249999983 -0.00897795384
v 0.0481831623 -0.000249999983 -0.0101013822
v 0.0481831623 0.000249999998 -0.0101013822
v 0.0501438252 0.000249999998 -0.0113254995
v 0.0501438252 -0.000249999983 -0.0113254995
v 0.0520953175 0.000249999998 -0.0126503018
v 0.0520953175 -0.000249999983 -0.0126503018
v 0.054037685 0.000249999998 -0.0140757893
v 0.054037685 -0.000249999983 -0.0140757893
v 0.055970882 -0.000249999983 -0.0156019696
v 0.055970882 0.000249999998 -0.0156019696
v 0.0578949237 0.000249999998 -0.0172288359
v 0.0578949237 -0.000249999983 -0.0172288359
v 0.0598098255 0.000249999998 -0.0189563864
v 0.0598098255 -0.000249999983 -0.0189563864
v 0.0617155566 0.000249999998 -0.0207846259
v 0.0617155566 -0.000249999983 -0.0207846259
v 0.0626586566 0.000249999998 -0.0217396773
v 0.0626586566 -0.000249999983 -0.0217396773
v 0.0636487689 0.000249999998 -0.0228320997
v 0.0636487689 -0.000249999983 -0.0228320997
v 0.0646188807 -0.000249999983 -0.0240102499
v 0.0646188807 0.000249999998 -0.0240102499
v 0.0655397487 0.000249999998 -0.0252434271
v 0.0655397487 -0.000249999983 -0.0252434271
v 0.0664113765 0.000249999998 -0.0265316351
v 0.0664113765 -0.000249999983 -0.0265316351
v 0.0672337641 0.000249999998 -0.0278748663
v 0.0672337641 -0.000249999983 -0.0278748663
v 0.068006927 0.000249999998 -0.0292731283
v 0.068006927 -0.000249999983 -0.0292731283
v 0.0687308497 0.000249999998 -0.0307264135
v 0.0687308497 -0.000249999983 -0.0307264135
v 0.0694055323 0.000249999998 -0.0322347295
v 0.0694055323 -0.000249999983 -0.0322347295
v 0.0700309901 0.000249999998 -0.0337980764
v 0.0700309901 -0.000249999983 -0.0337980764
v 0.0706072077 0.000249999998 -0.0354164464
v 0.0706072077 -0.000249999983 -0.0354164464
v 0.0711341853 0.000249999998 -0.0370898473
v 0.0711341853 -0.000249999983 -0.0370898473
v 0.0716119379 0.000249999998 -0.0388182713
v 0.0716119379 -0.000249999983 -0.0388182713
v 0.0720404505 0.000249999998 -0.0406017262
v 0.0720404505 -0.000249999983 -0.0406017262
v 0.072419723 0.000249999998 -0.0424402043
v 0.072419723 -0.000249999983 -0.0424402043
v 0.0727497706 0.000249999998 -0.0443337132
v 0.0727497706 -0.000249999983 -0.0443337132
v 0.0730305781 0.000249999998 -0.0462822529
v 0.0730305781 -0.000249999983 -0.0462822529
v 0.0733283991 0.000249999998 -0.0489659001
v 0.0733283991 -0.000249999983 -0.0489659001
v 0.0735588221 0.000249999998 -0.0521019398
v 0.0735588221 -0.000249999983 -0.0521019398
v 0.0736858973 0.000249999998 -0.0557961383
v 0.0736858973 -0.000249999983 -0.0557961383
v 0.0736779169 0.000249999998 -0.0589483753
v 0.0736779169 -0.000249999983 -0.0589483753
v 0.0735497584 0.000249999998 -0.0618145175
v 0.0735497584 -0.000249999983 -0.0618145175
v 0.0733314661 0.000249999998 -0.064352859
v 0.0733314661 -0.000249999983 -0.064352859
v 0.073015655 0.000249999998 -0.0668522029
v 0.073015655 -0.000249999983 -0.0668522029
v 0.0726023096 0.000249999998 -0.0693125376
v 0.0726023096 -0.000249999983 -0.0693125376
v 0.0720914606 -0.000249999983 -0.0717338557
v 0.0720914606 0.000249999998 -0.0717338557
v 0.0714830622 0.000249999998 -0.0741161646
v 0.0714830622 -0.000249999983 -0.0741161646
v 0.0707771601 0.000249999998 -0.0764594721
v 0.0707771601 -0.000249999983 -0.0764594721
v 0.0699737086 -0.000249999983 -0.0787637628
v 0.0699737086 0.000249999998 -0.0787637628
v 0.0690727534 0.000249999998 -0.0810290445
v 0.0690727534 -0.000249999983 -0.0810290445
v 0.068074264 0.000249999998 -0.0832553094
v 0.068074264 -0.000249999983 -0.0832553094
v 0.0669782557 0.000249999998 -0.0854425729
v 0.0669782557 -0.000249999983 -0.0854425729
v 0.0657847133 -0.000249999983 -0.0875908273
v 0.0657847133 0.000249999998 -0.0875908273
v 0.0644936519 0.000249999998 -0.0897000649
v 0.0644936519 -0.000249999983 -0.0897000649
v 0.0631050677 0.000249999998 -0.0917703011
v 0.0631050677 -0.000249999983 -0.0917703011
v 0.0616189532 0.000249999998 -0.0938015282
v 0.0616189532 -0.000249999983 -0.0938015282
v 0.0600353198 -0.000249999983 -0.095793731
v 0.0600353198 0.000249999998 -0.095793731
v 0.0583541522 0.000249999998 -0.0977469323
v 0.0583541522 -0.000249999983 -0.0977469323
v 0.0565754657 0.000249999998 -0.099661071
v 0.0565754657 -0.000249999983 -0.099661071
v 0.0548912616 0.000249999998 -0.101322875
v 0.0548912616 -0.000249999983 -0.101322875
v 0.0533079334 0.000249999998 -0.102748244
v 0.0533079334 -0.000249999983 -0.102748244
v 0.0516606251 -0.000249999983 -0.10410707
v 0.0516606251 0.000249999998 -0.10410707
v 0.0499493366 0.000249999998 -0.105399352
v 0.0499493366 -0.000249999983 -0.105399352
v 0.0481740528 -0.000249999983 -0.106625091
v 0.0481740528 0.000249999998 -0.106625091
v 0.0463347889 0.000249999998 -0.107784286
v 0.0463347889 -0.000249999983 -0.107784286
v 0.0444315297 0.000249999998 -0.108876937
v 0.0444315297 -0.000249999983 -0.108876937
v 0.0424642903 0.000249999998 -0.10990303
v 0.0424642903 -0.000249999983 -0.10990303
v 0.0404330708 0.000249999998 -0.110862594
v 0.0404330708 -0.000249999983 -0.110862594
v 0.038337856 0.000249999998 -0.111755599
v 0.038337856 -0.000249999983 -0.111755599
v 0.0361786611 -0.000249999983 -0.112582061
v 0.0361786611 0.000249999998 -0.112582061
v 0.0339554708 0.000249999998 -0.113341979
v 0.0339554708 -0.000249999983 -0.113341979
v 0.0316683004 -0.000249999983 -0.114035354
v 0.0316683004 0.000249999998 -0.114035354
v 0.0293171499 0.000249999998 -0.114662185
v 0.0293171499 -0.000249999983 -0.114662185
v 0.026902004 0.000249999998 -0.115222457
v 0.026902004 -0.000249999983 -0.115222457
v 0.0244228781 -0.000249999983 -0.115716201
v 0.0244228781 0.000249999998 -0.115716201
v 0.021879772 0.000249999998 -0.116143386
v 0.021879772 -0.000249999983 -0.116143386
v 0.0192726706 -0.000249999983 -0.116504027
v 0.0192726706 0.000249999998 -0.116504027
v 0.0156970023 -0.000249999983 -0.116881377
v 0.0156970023 0.000249999998 -0.116881377
v 0.0116944694 -0.000249999983 -0.117156692
v 0.0116944694 0.000249999998 -0.117156692
v 0.00864155191 0.000249999998 -0.117271148
v 0.00864155191 -0.000249999983 -0.117271148
v 0.00551528545 0.000249999998 -0.117309295
v 0.00551528545 -0.000249999983 -0.117309295
v -0.0653938136 -0.000249999983 -0.117309295
v -0.0653938136 0.000249999998 -0.117309295
v -0.0653938136 -0.000249999983 0.11587252
v -0.0653938136 0.000249999998 0.11587252
v 0.00278800581 -0.000249999983 0.11587252
v 0.00278800581 0.000249999998 0.11587252
v 0.00707737345 0.000249999998 0.115811774
v 0.00707737345 -0.000249999983 0.115811774
v 0.0112673148 0.000249999998 0.115629523
v 0.0112673148 -0.000249999983 0.115629523
v 0.0152675742 0.000249999998 0.115333884
v 0.0152675742 -0.000249999983 0.115333884
v 0.0191315726 0.000249999998 0.114927131
v 0.0191315726 -0.000249999983 0.114927131
v 0.0228641623 0.000249999998 0.114412658
v 0.0228641623 -0.000249999983 0.114412658
v 0.0264700277 0.000249999998 0.113793601
v 0.0264700277 -0.000249999983 0.113793601
v 0.0299537771 0.000249999998 0.113072799
v 0.0299537771 -0.000249999983 0.113072799
v 0.0333198507 -0.000249999983 0.112252822
v 0.0333198507 0.000249999998 0.112252822
v 0.0365725667 0.000249999998 0.111335914
v 0.0365725667 -0.000249999983 0.111335914
v 0.0397160909 0.000249999998 0.110324027
v 0.0397160909 -0.000249999983 0.110324027
v 0.0427544514 0.000249999998 0.109218803
v 0.0427544514 -0.000249999983 0.109218803
v 0.0456914936 0.000249999998 0.108021545
v 0.0456914936 -0.000249999983 0.108021545
v 0.0485308949 0.000249999998 0.106733253
v 0.0485308949 -0.000249999983 0.106733253
v 0.0512761341 -0.000249999983 0.105354583
v 0.0512761341 0.000249999998 0.105354583
v 0.0539305073 0.000249999998 0.103885863
v 0.0539305073 -0.000249999983 0.103885863
v 0.0564970813 -0.000249999983 0.102327087
v 0.0564970813 0.000249999998 0.102327087
v 0.0589783435 0.000249999998 0.100677505
v 0.0589783435 -0.000249999983 0.100677505
v 0.060546947 0.000249999998 0.0995265038
v 0.060546947 -0.000249999983 0.0995265038
v 0.0620988422 0.000249999998 0.098272712
v 0.0620988422 -0.000249999983 0.098272712
v 0.0635879626 -0.000249999983 0.0969483101
v 0.0635879626 0.000249999998 0.0969483101
v 0.0650143123 0.000249999998 0.0955532982
v 0.0650143123 -0.000249999983 0.0955532982
v 0.0663778987 0.000249999998 0.0940876687
v 0.0663778987 -0.000249999983 0.0940876687
v 0.0676787257 0.000249999998 0.0925514214
v 0.0676787257 -0.000249999983 0.0925514214
v 0.0689167628 0.000249999998 0.0909445565
v 0.0689167628 -0.000249999983 0.0909445565
v 0.0700920405 0.000249999998 0.0892670815
v 0.0700920405 -0.000249999983 0.0892670815
v 0.0712045588 0.000249999998 0.0875189965
v 0.0712045588 -0.000249999983 0.0875189965
v 0.0722543024 0.000249999998 0.0857002939
v 0.0722543024 -0.000249999983 0.0857002939
v 0.0732412714 0.000249999998 0.0838109811
v 0.0732412714 -0.000249999983 0.0838109811
v 0.074165481 0.000249999998 0.0818510507
v 0.074165481 -0.000249999983 0.0818510507
v 0.0750269159 0.000249999998 0.0798205026
v 0.0750269159 -0.000249999983 0.0798205026
v 0.0758255915 0.000249999998 0.0777193369
v 0.0758255915 -0.000249999983 0.0777193369
v 0.0765614923 0.000249999998 0.0755475687
v 0.0765614923 -0.000249999983 0.0755475687
v 0.0772346338 0.000249999998 0.0733051752
v 0.0772346338 -0.000249999983 0.0733051752
v 0.0778450006 0.000249999998 0.0709921717
v 0.0778450006 -0.000249999983 0.0709921717
v 0.0783925928 0.000249999998 0.0686085505
v 0.0783925928 -0.000249999983 0.0686085505
v 0.0788774256 0.000249999998 0.0661543193
v 0.0788774256 -0.000249999983 0.0661543193
v 0.0792994837 0.000249999998 0.0636294665
v 0.0792994837 -0.000249999983 0.0636294665
v 0.0797645868 0.000249999998 0.0601531596
v 0.0797645868 -0.000249999983 0.0601531596
v 0.0801456751 -0.000249999983 0.0562053524
v 0.0801456751 0.000249999998 0.0562053524
v 0.0803962702 0.000249999998 0.0520346332
v 0.0803962702 -0.000249999983 0.0520346332
v 0.0804855341 0.000249999998 0.0492143208
v 0.0804855341 -0.000249999983 0.0492143208
v 0.0477272602 0.000249999998 0.0496184536
v 0.0477880055 -0.000249999983 0.0463270642
v 0.0477272602 -0.000249999983 0.0496184536
v 0.0477880055 0.000249999998 0.0463270642
v 0.0475450093 0.000249999998 0.0527691608
v 0.0475450093 -0.000249999983 0.0527691608
v 0.0472562062 0.000249999998 0.0556577182
v 0.0472562062 -0.000249999983 0.0556577182
v 0.0469007832 0.000249999998 0.0581468616
v 0.0469007832 -0.000249999983 0.0581468616
v 0.0464549214 0.000249999998 0.0605312686
v 0.0464549214 -0.000249999983 0.0605312686
v 0.0459185902 -0.000249999983 0.0628109317
v 0.0459185902 0.000249999998 0.0628109317
v 0.0453585621 0.000249999998 0.0647730784
v 0.0453585621 -0.000249999983 0.0647730784
v 0.0447918812 0.000249999998 0.0664664683
v 0.0447918812 -0.000249999983 0.0664664683
v 0.0441658436 -0.000249999983 0.0680911326
v 0.0441658436 0.000249999998 0.0680911326
v 0.0434804799 0.000249999998 0.0696470866
v 0.0434804799 -0.000249999983 0.0696470866
v 0.0428128926 -0.000249999983 0.0709886851
v 0.0428128926 0.000249999998 0.0709886851
v 0.0421709553 0.000249999998 0.0721485285
v 0.0421709553 -0.000249999983 0.0721485285
v 0.0414900929 0.000249999998 0.0732632822
v 0.0414900929 -0.000249999983 0.0732632822
v 0.0407702901 0.000249999998 0.0743329539
v 0.0407702901 -0.000249999983 0.0743329539
v 0.0400115468 -0.000249999983 0.0753575358
v 0.0400115468 0.000249999998 0.0753575358
v 0.0392138478 0.000249999998 0.0763370356
v 0.0392138478 -0.000249999983 0.0763370356
v 0.0383772237 -0.000249999983 0.0772714457
v 0.0383772237 0.000249999998 0.0772714457
v 0.0375016744 0.000249999998 0.0781607584
v 0.0375016744 -0.000249999983 0.0781607584
v 0.0365871694 0.000249999998 0.0790049967
v 0.0365871694 -0.000249999983 0.0790049967
v 0.0356337239 0.000249999998 0.0798041452
v 0.0356337239 -0.000249999983 0.0798041452
v 0.0346414144 -0.000249999983 0.080558494
v 0.0346414144 0.000249999998 0.080558494
v 0.0336129262 0.000249999998 0.0812787851
v 0.0336129262 -0.000249999983 0.0812787851
v 0.0325496023 -0.000249999983 0.0819703897
v 0.0325496023 0.000249999998 0.0819703897
v 0.0314514272 0.000249999998 0.0826333002
v 0.0314514272 -0.000249999983 0.0826333002
v 0.0303184164 0.000249999998 0.0832675165
v 0.0303184164 -0.000249999983 0.0832675165
v 0.0291505544 0.000249999998 0.0838730386
v 0.0291505544 -0.000249999983 0.0838730386
v 0.027947872 0.000249999998 0.0844498742
v 0.027947872 -0.000249999983 0.0844498742
v 0.0267103384 0.000249999998 0.0849980081
v 0.0267103384 -0.000249999983 0.0849980081
v 0.025437969 0.000249999998 0.085517463
v 0.025437969 -0.000249999983 0.085517463
v 0.0241307486 0.000249999998 0.0860082162
v 0.0241307486 -0.000249999983 0.0860082162
v 0.0223335989 0.000249999998 0.0866179269
v 0.0223335989 -0.000249999983 0.0866179269
v 0.0202377737 -0.000249999983 0.0872428811
v 0.0202377737 0.000249999998 0.0872428811
v 0.0180635642 0.000249999998 0.0878032754
v 0.0180635642 -0.000249999983 0.0878032754
v 0.0158109549 0.000249999998 0.0882991098
v 0.0158109549 -0.000249999983 0.0882991098
v 0.0134799613 0.000249999998 0.0887303918
v 0.0134799613 -0.000249999983 0.0887303918
v 0.011070568 -0.000249999983 0.0890971139
v 0.011070568 0.000249999998 0.0890971139
v 0.00858279031 0.000249999998 0.0893992837
v 0.00858279031 -0.000249999983 0.0893992837
v 0.00601661296 -0.000249999983 0.0896368936
v 0.00601661296 0.000249999998 0.0896368936
v 0.00247311018 0.000249999998 0.0898532784
v 0.00247311018 -0.000249999983 0.0898532784
v -6.32667537e-05 0.000249999998 0.0899358895
v -6.32667537e-05 -0.000249999983 0.0899358895
v -0.00266653822 0.000249999998 0.0899634316
v -0.00266653822 -0.000249999983 0.0899634316
v -0.0340301702 -0.000249999983 0.0899634316
v -0.0340301702 0.000249999998 0.0899634316
v -0.0340301702 -0.000249999983 0.00678161139
v -0.0340301702 0.000249999998 0.00678161139
v 0.00142437362 0.000249999998 0.00678161139
v 0.00142437362 -0.000249999983 0.00678161139
v 0.00433622357 -0.000249999983 0.00684236045
v 0.00433622357 0.000249999998 0.00684236045
v 0.00720133585 -0.000249999983 0.00702461142
v 0.00720133585 0.000249999998 0.00702461142
v 0.0100197105 -0.000249999983 0.0073283605
v 0.0100197105 0.000249999998 0.0073283605
v 0.0127913627 -0.000249999983 0.0077536096
v 0.0127913627 0.000249999998 0.0077536096
v 0.0155162772 -0.000249999983 0.00830036062
v 0.0155162772 0.000249999998 0.00830036062
v 0.0181944693 -0.000249999983 0.00896860974
v 0.0181944693 0.000249999998 0.00896860974
v 0.020825939 -0.000249999983 0.00975836079
v 0.020825939 0.000249999998 0.00975836079
v 0.0234106558 -0.000249999983 0.0106696099
v 0.0234106558 0.000249999998 0.0106696099
v 0.0259486654 -0.000249999983 0.011702361
v 0.0259486654 0.000249999998 0.011702361
v 0.0284399221 -0.000249999983 0.0128566102
v 0.0284399221 0.000249999998 0.0128566102
v 0.0308844717 -0.000249999983 0.0141323613
v 0.0308844717 0.000249999998 0.0141323613
v 0.0332822683 0.000249999998 0.0155296105
v 0.0332822683 -0.000249999983 0.0155296105
v 0.0344504049 0.000249999998 0.0162787646
v 0.0344504049 -0.000249999983 0.0162787646
v 0.0355525624 0.000249999998 0.0170592192
v 0.0355525624 -0.000249999983 0.0170592192
v 0.0366368825 0.000249999998 0.0179070281
v 0.0366368825 -0.000249999983 0.0179070281
v 0.0375697743 -0.000249999983 0.018708969
v 0.0375697743 0.000249999998 0.018708969
v 0.03846191 0.000249999998 0.0195477732
v 0.03846191 -0.000249999983 0.0195477732
v 0.0393132893 0.000249999998 0.0204234427
v 0.0393132893 -0.000249999983 0.0204234427
v 0.040123943 0.000249999998 0.0213359755
v 0.040123943 -0.000249999983 0.0213359755
v 0.0408938405 0.000249999998 0.0222853716
v 0.0408938405 -0.000249999983 0.0222853716
v 0.041622997 0.000249999998 0.0232716311
v 0.041622997 -0.000249999983 0.0232716311
v 0.0423114125 0.000249999998 0.0242947558
v 0.0423114125 -0.000249999983 0.0242947558
v 0.0429590871 -0.000249999983 0.0253547438
v 0.0429590871 0.000249999998 0.0253547438
v 0.0435660206 0.000249999998 0.0264515951
v 0.0435660206 -0.000249999983 0.0264515951
v 0.044132198 0.000249999998 0.0275853117
v 0.044132198 -0.000249999983 0.0275853117
v 0.0446576344 0.000249999998 0.0287558916
v 0.0446576344 -0.000249999983 0.0287558916
v 0.0451423298 0.000249999998 0.0299633367
v 0.0451423298 -0.000249999983 0.0299633367
v 0.045586269 0.000249999998 0.0312076452
v 0.045586269 -0.000249999983 0.0312076452
v 0.0459894825 0.000249999998 0.0324888151
v 0.0459894825 -0.000249999983 0.0324888151
v 0.0463519398 -0.000249999983 0.0338068502
v 0.0463519398 0.000249999998 0.0338068502
v 0.0466736561 -0.000249999983 0.0351617505
v 0.0466736561 0.000249999998 0.0351617505
v 0.0469546162 0.000249999998 0.0365535123
v 0.0469546162 -0.000249999983 0.0365535123
v 0.0471948506 -0.000249999983 0.0379821431
v 0.0471948506 0.000249999998 0.0379821431
v 0.0473943287 -0.000249999983 0.0394476315
v 0.0473943287 0.000249999998 0.0394476315
v 0.0475530659 0.000249999998 0.040949989
v 0.0475530659 -0.000249999983 0.040949989
v 0.0476710621 0.000249999998 0.0424892079
v 0.0476710621 -0.000249999983 0.0424892079
v 0.0477587696 0.000249999998 0.044381683
v 0.0477587696 -0.000249999983 0.044381683
v 0.0422727162 0.000249999998 -0.0543210407
v 0.0423334614 -0.000249999983 -0.057309299
v 0.0422727162 -0.000249999983 -0.0543210407
v 0.0423334614 0.000249999998 -0.057309299
v 0.0420904652 0.000249999998 -0.0514618793
v 0.0420904652 -0.000249999983 -0.0514618793
v 0.0417867085 0.000249999998 -0.048731815
v 0.0417867085 -0.000249999983 -0.048731815
v 0.0414094502 0.000249999998 -0.0463851277
v 0.0414094502 -0.000249999983 -0.0463851277
v 0.0409857747 -0.000249999983 -0.0443625142
v 0.0409857747 0.000249999998 -0.0443625142
v 0.0404823872 0.000249999998 -0.0424246022
v 0.0404823872 -0.000249999983 -0.0424246022
v 0.0399611775 -0.000249999983 -0.0407528951
v 0.0399611775 0.000249999998 -0.0407528951
v 0.0394368855 0.000249999998 -0.039307018
v 0.0394368855 -0.000249999983 -0.039307018
v 0.0388602864 0.000249999998 -0.0379167058
v 0.0388602864 -0.000249999983 -0.0379167058
v 0.0382313802 0.000249999998 -0.0365819738
v 0.0382313802 -0.000249999983 -0.0365819738
v 0.0375501821 0.000249999998 -0.0353028066
v 0.0375501821 -0.000249999983 -0.0353028066
v 0.0368923757 -0.000249999983 -0.0341990697
v 0.0368923757 0.000249999998 -0.0341990697
v 0.0362641408 0.000249999998 -0.03324419
v 0.0362641408 -0.000249999983 -0.03324419
v 0.0356015737 -0.000249999983 -0.0323257711
v 0.0356015737 0.000249999998 -0.0323257711
v 0.0349047048 0.000249999998 -0.0314438131
v 0.0349047048 -0.000249999983 -0.0314438131
v 0.0341735189 0.000249999998 -0.030598316
v 0.0341735189 -0.000249999983 -0.030598316
v 0.033408016 0.000249999998 -0.0297892797
v 0.033408016 -0.000249999983 -0.0297892797
v 0.032608196 -0.000249999983 -0.0290167043
v 0.032608196 0.000249999998 -0.0290167043
v 0.0317740591 0.000249999998 -0.0282805822
v 0.0317740591 -0.000249999983 -0.0282805822
v 0.0309093893 0.000249999998 -0.027579418
v 0.0309093893 -0.000249999983 -0.027579418
v 0.029734081 0.000249999998 -0.026688854
v 0.029734081 -0.000249999983 -0.026688854
v 0.0283845175 -0.000249999983 -0.0257462118
v 0.0283845175 0.000249999998 -0.0257462118
v 0.0270060079 0.000249999998 -0.0248663061
v 0.0270060079 -0.000249999983 -0.0248663061
v 0.0255985525 0.000249999998 -0.0240491331
v 0.0255985525 -0.000249999983 -0.0240491331
v 0.0241621206 -0.000249999983 -0.023294689
v 0.0241621206 0.000249999998 -0.023294689
v 0.0226967581 -0.000249999983 -0.0226029814
v 0.0226967581 0.000249999998 -0.0226029814
v 0.0212024344 0.000249999998 -0.0219740027
v 0.0212024344 -0.000249999983 -0.0219740027
v 0.0196791495 0.000249999998 -0.0214077605
v 0.0196791495 -0.000249999983 -0.0214077605
v 0.0181269187 -0.000249999983 -0.0209042471
v 0.0181269187 0.000249999998 -0.0209042471
v 0.0165457267 0.000249999998 -0.0204634665
v 0.0165457267 -0.000249999983 -0.0204634665
v 0.0149355887 -0.000249999983 -0.0200854186
v 0.0149355887 0.000249999998 -0.0200854186
v 0.0132965049 0.000249999998 -0.0197701071
v 0.0132965049 -0.000249999983 -0.0197701071
v 0.0116284598 -0.000249999983 -0.0195175246
v 0.0116284598 0.000249999998 -0.0195175246
v 0.00993145363 -0.000249999983 -0.0193276747
v 0.00993145363 0.000249999998 -0.0193276747
v 0.0082055015 -0.000249999983 -0.0192005576
v 0.0082055015 0.000249999998 -0.0192005576
v 0.00686881632 0.000249999998 -0.019145748
v 0.00686881632 -0.000249999983 -0.019145748
v 0.00551528545 0.000249999998 -0.0191274794
v 0.00551528545 -0.000249999983 -0.0191274794
v -0.0340301702 -0.000249999983 -0.0191274794
v -0.0340301702 0.000249999998 -0.0191274794
v -0.0340301702 -0.000249999983 -0.0914002068
v -0.0340301702 0.000249999998 -0.0914002068
v 0.00687891764 -0.000249999983 -0.0914002068
v 0.00687891764 0.000249999998 -0.0914002068
v 0.00942853921 0.000249999998 -0.091339454
v 0.00942853921 -0.000249999983 -0.091339454
v 0.0116625938 0.000249999998 -0.0911808999
v 0.0116625938 -0.000249999983 -0.0911808999
v 0.0136241569 0.000249999998 -0.0909540475
v 0.0136241569 -0.000249999983 -0.0909540475
v 0.0155392264 0.000249999998 -0.0906474908
v 0.0155392264 -0.000249999983 -0.0906474908
v 0.0174077872 0.000249999998 -0.0902612069
v 0.0174077872 -0.000249999983 -0.0902612069
v 0.0192298392 0.000249999998 -0.0897952111
v 0.0192298392 -0.000249999983 -0.0897952111
v 0.0210054129 0.000249999998 -0.0892495034
v 0.0210054129 -0.000249999983 -0.0892495034
v 0.0227344626 0.000249999998 -0.0886240762
v 0.0227344626 -0.000249999983 -0.0886240762
v 0.0242508658 0.000249999998 -0.0879930337
v 0.0242508658 -0.000249999983 -0.0879930337
v 0.0255834158 0.000249999998 -0.0873698877
v 0.0255834158 -0.000249999983 -0.0873698877
v 0.0268854635 0.000249999998 -0.0866944421
v 0.0268854635 -0.000249999983 -0.0866944421
v 0.0281569937 0.000249999998 -0.0859666894
v 0.0281569937 -0.000249999983 -0.0859666894
v 0.0293980215 0.000249999998 -0.0851866449
v 0.0293980215 -0.000249999983 -0.0851866449
v 0.0306085317 0.000249999998 -0.0843542932
v 0.0306085317 -0.000249999983 -0.0843542932
v 0.0317885396 0.000249999998 -0.0834696344
v 0.0317885396 -0.000249999983 -0.0834696344
v 0.0327169607 0.000249999998 -0.0827134698
v 0.0327169607 -0.000249999983 -0.0827134698
v 0.0335395772 0.000249999998 -0.0819779276
v 0.0335395772 -0.000249999983 -0.0819779276
v 0.0343254201 0.000249999998 -0.0812080606
v 0.0343254201 -0.000249999983 -0.0812080606
v 0.0350744893 0.000249999998 -0.080403869
v 0.0350744893 -0.000249999983 -0.080403869
v 0.0357867849 0.000249999998 -0.0795653528
v 0.0357867849 -0.000249999983 -0.0795653528
v 0.0364622914 0.000249999998 -0.0786925196
v 0.0364622914 -0.000249999983 -0.0786925196
v 0.0371010396 0.000249999998 -0.0777853617
v 0.0371010396 -0.000249999983 -0.0777853617
v 0.0377030141 0.000249999998 -0.0768438791
v 0.0377030141 -0.000249999983 -0.0768438791
v 0.0382681996 0.000249999998 -0.0758680719
v 0.0382681996 -0.000249999983 -0.0758680719
v 0.0387966268 0.000249999998 -0.0748579401
v 0.0387966268 -0.000249999983 -0.0748579401
v 0.0392882649 0.000249999998 -0.0738134913
v 0.0392882649 -0.000249999983 -0.0738134913
v 0.0397431294 0.000249999998 -0.0727347178
v 0.0397431294 -0.000249999983 -0.0727347178
v 0.0401612355 0.000249999998 -0.0716216196
v 0.0401612355 -0.000249999983 -0.0716216196
v 0.0405425526 0.000249999998 -0.0704741969
v 0.0405425526 -0.000249999983 -0.0704741969
v 0.0408870961 0.000249999998 -0.0692924494
v 0.0408870961 -0.000249999983 -0.0692924494
v 0.0411948659 0.000249999998 -0.068076385
v 0.0411948659 -0.000249999983 -0.068076385
v 0.041465862 0.000249999998 -0.0668259959
v 0.041465862 -0.000249999983 -0.0668259959
v 0.0417000844 0.000249999998 -0.0655412822
v 0.0417000844 -0.000249999983 -0.0655412822
v 0.0418975331 0.000249999998 -0.0642222438
v 0.0418975331 -0.000249999983 -0.0642222438
v 0.0420582082 0.000249999998 -0.0628688922
v 0.0420582082 -0.000249999983 -0.0628688922
v 0.0421821095 -0.000249999983 -0.0614812045
v 0.0421821095 0.000249999998 -0.0614812045
v 0.042290096 0.000249999998 -0.0595775714
v 0.042290096 -0.000249999983 -0.0595775714
v 0.0423226277 0.000249999998 -0.0584535556
v 0.0423226277 -0.000249999983 -0.0584535556
f 1 2 3
f 1 4 2
f 5 3 6
f 5 1 3
f 7 5 6
f 8 5 7
f 9 7 10
f 9 8 7
f 11 9 10
f 12 9 11
f 13 11 14
f 13 12 11
f 15 14 16
f 15 13 14
f 17 16 18
f 17 15 16
f 19 18 20
f 19 17 18
f 21 19 20
f 21 20 22
f 23 21 22
f 23 22 24
f 25 24 26
f 25 23 24
f 27 25 26
f 28 25 27
f 29 27 30
f 29 28 27
f 31 30 32
f 31 29 30
f 33 32 34
f 33 31 32
f 35 34 36
f 35 33 34
f 37 36 38
f 37 35 36
f 39 37 38
f 40 37 39
f 41 39 42
f 41 40 39
f 43 42 44
f 43 41 42
f 45 44 46
f 45 43 44
f 47 46 48
f 47 45 46
f 49 48 50
f 49 47 48
f 51 50 52
f 51 49 50
f 53 52 54
f 53 51 52
f 55 54 56
f 55 53 54
f 57 56 58
f 57 55 56
f 59 58 60
f 59 57 58
f 61 60 62
f 61 59 60
f 63 62 64
f 63 61 62
f 65 64 66
f 65 63 64
f 67 65 66
f 68 65 67
f 69 67 70
f 69 68 67
f 71 69 70
f 72 69 71
f 73 71 74
f 73 72 71
f 75 74 76
f 75 73 74
f 77 76 78
f 77 75 76
f 79 77 78
f 80 77 79
f 81 79 82
f 81 80 79
f 83 82 84
f 83 81 82
f 85 84 86
f 85 83 84
f 87 86 88
f 87 85 86
f 89 87 88
f 89 88 90
f 91 89 90
f 92 89 91
f 93 92 91
f 93 91 94
f 95 94 96
f 95 93 94
f 97 96 98
f 97 95 96
f 99 98 100
f 99 97 98
f 101 100 102
f 101 99 100
f 103 102 104
f 103 101 102
f 105 104 106
f 105 103 104
f 107 106 108
f 107 105 106
f 109 108 110
f 109 107 108
f 111 110 112
f 111 109 110
f 113 112 114
f 113 111 112
f 115 114 116
f 115 113 114
f 117 116 118
f 117 115 116
f 119 118 120
f 119 117 118
f 121 120 122
f 121 119 120
f 123 122 124
f 123 121 122
f 125 124 126
f 125 123 124
f 127 126 128
f 127 125 126
f 129 128 130
f 129 127 128
f 131 130 132
f 131 129 130
f 133 132 134
f 133 131 132
f 135 134 136
f 135 133 134
f 137 135 136
f 138 135 137
f 139 138 137
f 139 137 140
f 141 139 140
f 141 140 142
f 143 141 142
f 144 141 143
f 145 144 143
f 145 143 146
f 147 145 146
f 147 146 148
f 149 147 148
f 149 148 150
f 151 149 150
f 152 149 151
f 153 152 151
f 153 151 154
f 155 153 154
f 155 154 156
f 157 155 156
f 157 156 158
f 159 157 158
f 160 157 159
f 161 160 159
f 161 159 162
f 163 162 164
f 163 161 162
f 165 164 166
f 165 163 164
f 167 166 168
f 167 165 166
f 169 167 168
f 170 167 169
f 171 169 172
f 171 170 169
f 173 171 172
f 174 171 173
f 175 173 176
f 175 174 173
f 177 176 178
f 177 175 176
f 179 178 180
f 179 177 178
f 181 180 182
f 181 179 180
f 183 182 184
f 183 181 182
f 185 183 184
f 186 183 185
f 187 186 185
f 187 185 188
f 189 187 188
f 190 187 189
f 191 190 189
f 191 189 192
f 193 191 192
f 193 192 194
f 195 193 194
f 196 193 195
f 197 196 195
f 197 195 198
f 199 197 198
f 200 197 199
f 201 200 199
f 202 200 201
f 203 202 201
f 204 202 203
f 205 204 203
f 205 203 206
f 207 205 206
f 207 206 208
f 207 208 209
f 207 209 210
f 211 212 210
f 211 210 209
f 213 214 212
f 213 212 211
f 215 213 216
f 215 214 213
f 217 216 218
f 217 215 216
f 219 218 220
f 219 217 218
f 221 219 220
f 221 220 222
f 223 221 222
f 223 222 224
f 225 224 226
f 225 223 224
f 227 226 228
f 227 225 226
f 229 227 228
f 230 227 229
f 231 229 232
f 231 230 229
f 233 232 234
f 233 231 232
f 235 234 236
f 235 233 234
f 237 236 238
f 237 235 236
f 239 238 240
f 239 237 238
f 241 239 240
f 242 239 241
f 243 241 244
f 243 242 241
f 245 243 244
f 246 243 245
f 247 245 248
f 247 246 245
f 249 248 250
f 249 247 248
f 251 250 252
f 251 249 250
f 253 251 252
f 254 251 253
f 255 253 256
f 255 254 253
f 257 256 258
f 257 255 256
f 259 258 260
f 259 257 258
f 261 260 262
f 261 259 260
f 263 262 264
f 263 261 262
f 265 264 266
f 265 263 264
f 267 266 268
f 267 265 266
f 269 268 270
f 269 267 268
f 271 269 270
f 271 270 272
f 273 271 272
f 273 272 274
f 275 273 274
f 275 274 276
f 277 275 276
f 277 276 278
f 279 277 278
f 279 278 280
f 281 279 280
f 281 280 282
f 283 281 282
f 283 282 284
f 285 283 284
f 285 284 286
f 287 285 286
f 287 286 288
f 289 288 290
f 289 287 288
f 291 289 290
f 292 289 291
f 293 291 294
f 293 292 291
f 295 294 296
f 295 293 294
f 4 296 2
f 4 295 296
f 297 298 299
f 297 300 298
f 301 299 302
f 301 297 299
f 303 302 304
f 303 301 302
f 305 303 304
f 305 304 306
f 307 306 308
f 307 305 306
f 309 307 308
f 310 307 309
f 311 309 312
f 311 310 309
f 313 312 314
f 313 311 312
f 315 313 314
f 316 313 315
f 317 315 318
f 317 316 315
f 319 317 318
f 320 317 319
f 321 319 322
f 321 320 319
f 323 322 324
f 323 321 322
f 325 324 326
f 325 323 324
f 327 325 326
f 328 325 327
f 329 327 330
f 329 328 327
f 331 329 330
f 332 329 331
f 333 331 334
f 333 332 331
f 335 334 336
f 335 333 334
f 337 336 338
f 337 335 336
f 339 337 338
f 340 337 339
f 341 339 342
f 341 340 339
f 343 341 342
f 344 341 343
f 345 343 346
f 345 344 343
f 347 346 348
f 347 345 346
f 349 348 350
f 349 347 348
f 351 350 352
f 351 349 350
f 353 352 354
f 353 351 352
f 355 353 354
f 355 354 356
f 357 355 356
f 357 356 358
f 359 357 358
f 359 358 360
f 361 359 360
f 362 359 361
f 363 362 361
f 363 361 364
f 365 363 364
f 365 364 366
f 367 365 366
f 367 366 368
f 369 367 368
f 370 367 369
f 371 370 369
f 371 369 372
f 373 371 372
f 374 371 373
f 375 373 376
f 375 374 373
f 377 376 378
f 377 375 376
f 379 378 380
f 379 377 378
f 379 380 381
f 379 381 382
f 381 383 384
f 382 381 384
f 385 384 383
f 386 385 383
f 387 385 386
f 388 385 387
f 389 388 387
f 390 388 389
f 391 390 389
f 392 390 391
f 393 392 391
f 394 392 393
f 395 394 393
f 396 394 395
f 397 396 395
f 398 396 397
f 399 398 397
f 400 398 399
f 401 400 399
f 402 400 401
f 403 402 401
f 404 402 403
f 405 404 403
f 406 404 405
f 407 406 405
f 408 406 407
f 409 407 410
f 409 408 407
f 411 410 412
f 411 409 410
f 413 412 414
f 413 411 412
f 415 414 416
f 415 413 414
f 417 415 416
f 418 415 417
f 419 417 420
f 419 418 417
f 421 420 422
f 421 419 420
f 423 422 424
f 423 421 422
f 425 424 426
f 425 423 424
f 427 426 428
f 427 425 426
f 429 428 430
f 429 427 428
f 431 429 430
f 432 429 431
f 433 431 434
f 433 432 431
f 435 434 436
f 435 433 434
f 437 436 438
f 437 435 436
f 439 438 440
f 439 437 438
f 441 440 442
f 441 439 440
f 443 442 444
f 443 441 442
f 445 443 444
f 446 443 445
f 447 446 445
f 448 446 447
f 449 448 447
f 449 447 450
f 451 449 450
f 452 449 451
f 453 452 451
f 454 452 453
f 455 454 453
f 455 453 456
f 457 455 456
f 457 456 458
f 459 457 458
f 459 458 460
f 300 459 460
f 300 460 298
f 461 462 463
f 461 464 462
f 465 463 466
f 465 461 463
f 467 466 468
f 467 465 466
f 469 468 470
f 469 467 468
f 471 469 470
f 472 469 471
f 473 472 471
f 473 471 474
f 475 473 474
f 476 473 475
f 477 475 478
f 477 476 475
f 479 478 480
f 479 477 478
f 481 480 482
f 481 479 480
f 483 482 484
f 483 481 482
f 485 483 484
f 486 483 485
f 487 485 488
f 487 486 485
f 489 487 488
f 490 487 489
f 491 489 492
f 491 490 489
f 493 492 494
f 493 491 492
f 495 494 496
f 495 493 494
f 497 495 496
f 498 495 497
f 499 497 500
f 499 498 497
f 501 500 502
f 501 499 500
f 503 502 504
f 503 501 502
f 505 503 504
f 506 503 505
f 507 505 508
f 507 506 505
f 509 508 510
f 509 507 508
f 511 509 510
f 512 509 511
f 513 512 511
f 514 512 513
f 515 513 516
f 515 514 513
f 517 516 518
f 517 515 516
f 519 517 518
f 520 517 519
f 521 519 522
f 521 520 519
f 523 521 522
f 524 521 523
f 525 524 523
f 525 523 526
f 527 525 526
f 528 525 527
f 529 528 527
f 530 528 529
f 531 530 529
f 532 530 531
f 533 532 531
f 533 531 534
f 535 533 534
f 535 534 536
f 535 536 537
f 535 537 538
f 538 537 539
f 538 539 540
f 541 542 540
f 541 540 539
f 543 541 544
f 543 542 541
f 545 544 546
f 545 543 544
f 547 546 548
f 547 545 546
f 549 548 550
f 549 547 548
f 551 549 550
f 551 550 552
f 553 552 554
f 553 551 552
f 555 554 556
f 555 553 554
f 557 556 558
f 557 555 556
f 559 558 560
f 559 557 558
f 561 560 562
f 561 559 560
f 563 562 564
f 563 561 562
f 565 564 566
f 565 563 564
f 567 566 568
f 567 565 566
f 569 568 570
f 569 567 568
f 571 570 572
f 571 569 570
f 573 572 574
f 573 571 572
f 575 574 576
f 575 573 574
f 577 576 578
f 577 575 576
f 579 578 580
f 579 577 578
f 581 580 582
f 581 579 580
f 583 582 584
f 583 581 582
f 585 584 586
f 585 583 584
f 587 586 588
f 587 585 586
f 589 588 590
f 589 587 588
f 591 590 592
f 591 589 590
f 593 592 594
f 593 591 592
f 595 594 596
f 595 593 594
f 597 596 598
f 597 595 596
f 599 598 600
f 599 597 598
f 601 599 600
f 601 600 602
f 603 601 602
f 603 602 604
f 605 603 604
f 605 604 606
f 607 605 606
f 607 606 608
f 609 607 608
f 609 608 610
f 611 609 610
f 611 610 612
f 613 611 612
f 614 611 613
f 615 614 613
f 615 613 616
f 617 615 616
f 617 616 618
f 464 617 618
f 464 618 462
f 331 248 245
f 331 250 248
f 331 245 334
f 336 245 244
f 336 334 245
f 330 252 250
f 330 250 331
f 338 244 241
f 338 336 244
f 327 252 330
f 327 253 252
f 327 256 253
f 339 241 240
f 339 338 241
f 326 256 327
f 326 258 256
f 342 339 240
f 324 260 258
f 324 262 260
f 324 258 326
f 343 240 238
f 343 342 240
f 322 262 324
f 322 264 262
f 322 266 264
f 346 238 236
f 346 343 238
f 319 268 266
f 319 266 322
f 348 346 236
f 318 268 319
f 318 270 268
f 318 272 270
f 350 236 234
f 350 348 236
f 352 234 232
f 352 350 234
f 315 274 272
f 315 272 318
f 354 352 232
f 314 274 315
f 314 276 274
f 314 278 276
f 356 232 229
f 356 354 232
f 358 356 229
f 358 229 228
f 312 280 278
f 312 278 314
f 360 228 226
f 360 358 228
f 309 280 312
f 309 282 280
f 309 284 282
f 361 360 226
f 308 286 284
f 308 284 309
f 364 226 224
f 364 361 226
f 306 288 286
f 306 290 288
f 306 286 308
f 366 224 222
f 366 364 224
f 304 290 306
f 304 291 290
f 368 222 220
f 368 366 222
f 302 291 304
f 302 294 291
f 369 220 218
f 369 368 220
f 372 218 216
f 372 369 218
f 299 294 302
f 299 296 294
f 373 372 216
f 298 3 2
f 298 2 296
f 298 296 299
f 376 216 213
f 376 373 216
f 460 6 3
f 460 3 298
f 458 7 6
f 458 6 460
f 378 376 213
f 456 7 458
f 456 10 7
f 380 378 213
f 453 10 456
f 453 11 10
f 451 11 453
f 451 14 11
f 450 14 451
f 450 16 14
f 450 18 16
f 447 20 18
f 447 18 450
f 445 20 447
f 445 22 20
f 445 24 22
f 444 24 445
f 444 26 24
f 442 27 26
f 442 30 27
f 442 26 444
f 440 32 30
f 440 30 442
f 438 32 440
f 438 34 32
f 438 36 34
f 436 36 438
f 436 38 36
f 434 38 436
f 431 39 38
f 431 38 434
f 430 39 431
f 430 42 39
f 428 42 430
f 44 42 428
f 44 428 426
f 424 44 426
f 46 44 424
f 46 424 422
f 381 380 213
f 48 46 422
f 48 422 420
f 50 420 417
f 50 48 420
f 211 381 213
f 52 50 417
f 52 416 414
f 52 417 416
f 54 414 412
f 54 52 414
f 56 412 410
f 56 54 412
f 58 56 410
f 58 410 407
f 60 58 407
f 62 403 401
f 62 405 403
f 62 407 405
f 62 60 407
f 399 62 401
f 397 62 399
f 496 74 71
f 497 496 71
f 497 71 70
f 494 76 74
f 494 74 496
f 500 70 67
f 500 497 70
f 492 78 76
f 492 76 494
f 502 67 66
f 502 500 67
f 489 78 492
f 504 66 64
f 504 502 66
f 488 79 78
f 488 78 489
f 485 79 488
f 485 82 79
f 505 504 64
f 505 64 62
f 484 82 485
f 484 84 82
f 508 505 62
f 482 84 484
f 482 86 84
f 510 508 62
f 480 86 482
f 480 88 86
f 480 90 88
f 480 91 90
f 511 510 62
f 478 94 91
f 478 96 94
f 478 91 480
f 513 511 62
f 516 513 62
f 475 96 478
f 475 98 96
f 475 100 98
f 475 102 100
f 518 516 62
f 474 102 475
f 474 104 102
f 474 106 104
f 519 518 62
f 519 62 397
f 471 106 474
f 471 108 106
f 471 110 108
f 471 112 110
f 522 519 397
f 522 397 395
f 470 112 471
f 470 114 112
f 470 116 114
f 523 522 395
f 523 395 393
f 526 523 393
f 468 116 470
f 468 118 116
f 468 120 118
f 527 393 391
f 527 526 393
f 466 120 468
f 466 122 120
f 466 124 122
f 529 527 391
f 531 391 389
f 531 529 391
f 463 124 466
f 463 126 124
f 534 531 389
f 534 389 387
f 536 534 387
f 536 387 386
f 462 126 463
f 462 128 126
f 618 128 462
f 616 130 128
f 616 128 618
f 613 130 616
f 613 132 130
f 612 134 132
f 612 132 613
f 610 136 134
f 610 134 612
f 608 137 136
f 608 136 610
f 606 140 137
f 606 137 608
f 604 142 140
f 604 140 606
f 383 381 211
f 602 142 604
f 602 143 142
f 600 143 602
f 600 146 143
f 598 146 600
f 598 148 146
f 596 150 148
f 596 148 598
f 594 150 596
f 594 151 150
f 592 151 594
f 592 154 151
f 590 154 592
f 590 156 154
f 588 156 590
f 588 158 156
f 586 158 588
f 586 159 158
f 584 159 586
f 584 162 159
f 582 162 584
f 582 164 162
f 580 164 582
f 166 164 580
f 578 166 580
f 168 166 578
f 168 578 576
f 169 168 576
f 169 576 574
f 537 536 386
f 537 386 383
f 172 574 572
f 172 169 574
f 173 172 572
f 176 572 570
f 176 173 572
f 178 570 568
f 178 176 570
f 180 568 566
f 180 178 568
f 182 566 564
f 182 180 566
f 184 564 562
f 184 182 564
f 185 562 560
f 185 184 562
f 188 185 560
f 189 560 558
f 189 188 560
f 192 558 556
f 192 189 558
f 194 192 556
f 194 556 554
f 195 194 554
f 195 554 552
f 198 195 552
f 198 552 550
f 199 198 550
f 199 550 548
f 201 199 548
f 201 548 546
f 203 201 546
f 203 546 544
f 206 203 544
f 206 544 541
f 208 206 541
f 539 208 541
f 209 383 211
f 209 539 537
f 209 537 383
f 209 208 539
f 214 382 212
f 379 382 214
f 377 379 214
f 375 214 215
f 375 377 214
f 374 375 215
f 371 215 217
f 371 374 215
f 370 217 219
f 370 371 217
f 367 219 221
f 367 370 219
f 365 221 223
f 365 367 221
f 363 223 225
f 363 365 223
f 362 363 225
f 359 225 227
f 359 362 225
f 357 227 230
f 357 359 227
f 355 230 231
f 355 357 230
f 353 355 231
f 351 231 233
f 351 353 231
f 349 233 235
f 349 351 233
f 347 349 235
f 345 235 237
f 345 347 235
f 344 237 239
f 344 345 237
f 341 344 239
f 340 239 242
f 340 341 239
f 337 340 242
f 337 242 243
f 335 243 246
f 335 337 243
f 384 212 382
f 333 335 246
f 332 246 247
f 332 247 249
f 332 333 246
f 329 332 249
f 251 329 249
f 328 329 251
f 254 328 251
f 255 328 254
f 255 325 328
f 257 325 255
f 257 323 325
f 259 323 257
f 261 323 259
f 261 321 323
f 263 321 261
f 265 321 263
f 265 320 321
f 267 320 265
f 267 317 320
f 269 317 267
f 271 317 269
f 271 316 317
f 385 538 384
f 273 313 316
f 273 316 271
f 275 313 273
f 277 311 313
f 277 313 275
f 279 310 311
f 279 311 277
f 281 310 279
f 283 307 310
f 283 310 281
f 285 305 307
f 285 307 283
f 287 305 285
f 289 303 305
f 289 305 287
f 292 301 303
f 292 303 289
f 535 538 385
f 535 385 388
f 533 388 390
f 533 535 388
f 532 533 390
f 532 390 392
f 293 297 301
f 293 301 292
f 530 532 392
f 528 530 392
f 528 392 394
f 295 300 297
f 295 297 293
f 525 528 394
f 4 300 295
f 524 525 394
f 524 394 396
f 521 524 396
f 521 396 398
f 1 459 300
f 1 300 4
f 520 521 398
f 5 457 459
f 5 459 1
f 8 455 457
f 8 457 5
f 61 404 406
f 61 406 408
f 61 520 398
f 61 515 517
f 61 517 520
f 61 398 400
f 61 400 402
f 61 402 404
f 9 455 8
f 9 454 455
f 59 61 408
f 514 515 61
f 57 408 409
f 57 59 408
f 12 452 454
f 12 454 9
f 512 514 61
f 55 409 411
f 55 57 409
f 13 452 12
f 13 449 452
f 53 411 413
f 53 55 411
f 15 449 13
f 509 512 61
f 17 448 449
f 17 449 15
f 51 53 413
f 51 413 415
f 51 415 418
f 19 448 17
f 19 446 448
f 507 509 61
f 210 384 538
f 210 212 384
f 49 418 419
f 49 51 418
f 21 446 19
f 47 419 421
f 47 49 419
f 23 443 446
f 23 446 21
f 45 421 423
f 45 47 421
f 506 507 61
f 506 61 63
f 25 443 23
f 25 441 443
f 43 423 425
f 43 425 427
f 43 45 423
f 28 441 25
f 41 43 427
f 41 427 429
f 29 439 441
f 29 441 28
f 40 429 432
f 40 41 429
f 31 437 439
f 31 439 29
f 37 432 433
f 37 433 435
f 37 40 432
f 33 437 31
f 35 435 437
f 35 37 435
f 35 437 33
f 503 506 63
f 503 63 65
f 540 210 538
f 501 503 65
f 501 65 68
f 499 68 69
f 499 501 68
f 498 69 72
f 498 499 69
f 495 72 73
f 495 498 72
f 493 73 75
f 493 495 73
f 491 493 75
f 77 490 491
f 77 491 75
f 487 490 77
f 80 486 487
f 80 487 77
f 81 483 486
f 81 486 80
f 83 483 81
f 83 481 483
f 85 481 83
f 85 479 481
f 87 479 85
f 89 479 87
f 92 479 89
f 92 477 479
f 93 477 92
f 95 476 477
f 95 477 93
f 97 476 95
f 99 476 97
f 101 473 476
f 101 476 99
f 103 473 101
f 105 472 473
f 105 473 103
f 107 472 105
f 109 472 107
f 111 469 472
f 111 472 109
f 113 469 111
f 115 467 469
f 115 469 113
f 117 467 115
f 119 465 467
f 119 467 117
f 121 465 119
f 207 210 540
f 207 540 542
f 123 461 465
f 123 465 121
f 205 207 542
f 205 542 543
f 204 205 543
f 204 543 545
f 125 461 123
f 125 464 461
f 202 545 547
f 202 204 545
f 127 615 617
f 127 617 464
f 127 464 125
f 129 614 615
f 129 615 127
f 200 202 547
f 200 547 549
f 131 611 614
f 131 614 129
f 197 549 551
f 197 200 549
f 133 609 611
f 133 611 131
f 196 197 551
f 196 551 553
f 135 607 609
f 135 609 133
f 193 196 553
f 193 553 555
f 138 605 607
f 138 607 135
f 191 193 555
f 191 555 557
f 139 605 138
f 139 603 605
f 190 557 559
f 190 191 557
f 141 603 139
f 141 601 603
f 187 190 559
f 144 601 141
f 144 599 601
f 186 187 559
f 186 559 561
f 183 561 563
f 183 186 561
f 145 599 144
f 145 597 599
f 181 563 565
f 181 183 563
f 147 597 145
f 147 595 597
f 179 181 565
f 179 565 567
f 149 595 147
f 149 593 595
f 177 567 569
f 177 179 567
f 152 591 593
f 152 593 149
f 175 569 571
f 175 177 569
f 153 589 591
f 153 591 152
f 174 175 571
f 155 589 153
f 155 587 589
f 171 571 573
f 171 174 571
f 157 587 155
f 157 585 587
f 170 171 573
f 170 573 575
f 160 585 157
f 160 583 585
f 167 170 575
f 167 575 577
f 161 583 160
f 161 581 583
f 165 167 577
f 165 577 579
f 163 581 161
f 163 165 579
f 163 579 581
