# Converted from E_edit.usd; internal USD transforms baked; visual use only
v 0.0627272716 0.000249999998 0.11516204
v 0.0627272716 -0.000249999998 0.11516204
v 0.0627272716 -0.000249999998 0.0892529516
v 0.0627272716 0.000249999998 0.0892529516
v -0.0449999997 -0.000249999998 0.0892529516
v -0.0449999997 0.000249999998 0.0892529516
v -0.0449999997 -0.000249999998 0.00607113232
v -0.0449999997 0.000249999998 0.00607113232
v 0.0477272717 0.000249999998 0.00607113232
v 0.0477272717 -0.000249999998 0.00607113232
v 0.0477272717 -0.000249999998 -0.0198379575
v 0.0477272717 0.000249999998 -0.0198379575
v -0.0449999997 -0.000249999998 -0.0198379575
v -0.0449999997 0.000249999998 -0.0198379575
v -0.0449999997 -0.000249999998 -0.0921106869
v -0.0449999997 0.000249999998 -0.0921106869
v 0.0559090953 -0.000249999998 -0.0921106869
v 0.0559090953 0.000249999998 -0.0921106869
v 0.0559090953 -0.000249999998 -0.118019775
v 0.0559090953 0.000249999998 -0.118019775
v -0.0763636316 -0.000249999998 -0.118019775
v -0.0763636316 0.000249999998 -0.118019775
v -0.0763636316 -0.000249999998 0.11516204
v -0.0763636316 0.000249999998 0.11516204
f 1 2 3
f 1 3 4
f 4 3 5
f 4 5 6
f 5 7 8
f 6 5 8
f 9 8 7
f 10 9 7
f 9 10 11
f 9 11 12
f 12 11 13
f 12 13 14
f 14 13 15
f 14 15 16
f 17 18 16
f 17 16 15
f 17 19 20
f 18 17 20
f 20 19 21
f 20 21 22
f 23 24 22
f 23 22 21
f 1 24 23
f 2 1 23
f 5 3 2
f 23 5 2
f 7 11 10
f 7 5 23
f 13 11 7
f 15 19 17
f 21 15 13
f 21 19 15
f 21 7 23
f 21 13 7
f 1 6 24
f 8 24 6
f 4 6 1
f 22 24 8
f 22 8 14
f 16 22 14
f 12 8 9
f 12 14 8
f 20 16 18
f 20 22 16
