# Converted from G_edit.usd; internal USD transforms baked; visual use only
v 0.0467104641 -0.000250000535 -0.118777268
v 0.0426195523 0.000249999447 -0.0996863637
v 0.0467104641 0.000249999447 -0.118777268
v 0.0426195523 -0.000250000535 -0.0996863637
v 0.0698922877 0.000249999447 -0.118777268
v 0.0698922877 -0.000250000535 -0.118777268
v 0.0698922877 0.000249999447 0.00122272896
v 0.0698922877 -0.000250000535 0.00122272896
v 0.000346824643 0.000249999447 0.00122272896
v 0.000346824643 -0.000250000535 0.00122272896
v 0.000346824643 0.000249999447 -0.0246863604
v 0.000346824643 -0.000250000535 -0.0246863604
v 0.0426195523 0.000249999447 -0.0246863604
v 0.0426195523 -0.000250000535 -0.0246863604
v 0.0426195523 0.000249999447 -0.0396863603
v 0.0426195523 -0.000250000535 -0.0396863603
v 0.0425588071 -0.000250000535 -0.0438052072
v 0.0425588071 0.000249999447 -0.0438052072
v 0.0423765561 -0.000250000535 -0.047753949
v 0.0423765561 0.000249999447 -0.047753949
v 0.0420874173 -0.000250000535 -0.0513833474
v 0.0420874173 0.000249999447 -0.0513833474
v 0.0416955258 -0.000250000535 -0.0547881249
v 0.0416955258 0.000249999447 -0.0547881249
v 0.0412071072 -0.000250000535 -0.0579794624
v 0.0412071072 0.000249999447 -0.0579794624
v 0.0406279752 0.000249999447 -0.0609682091
v 0.0406279752 -0.000250000535 -0.0609682091
v 0.0399635007 -0.000250000535 -0.0637648323
v 0.0399635007 0.000249999447 -0.0637648323
v 0.0392838284 -0.000250000535 -0.0661674964
v 0.0392838284 0.000249999447 -0.0661674964
v 0.0385267941 0.000249999447 -0.068461869
v 0.0385267941 -0.000250000535 -0.068461869
v 0.0376924283 -0.000250000535 -0.0706479575
v 0.0376924283 0.000249999447 -0.0706479575
v 0.0368753507 -0.000250000535 -0.0725228431
v 0.0368753507 0.000249999447 -0.0725228431
v 0.0360864255 -0.000250000535 -0.0741352469
v 0.0360864255 0.000249999447 -0.0741352469
v 0.0352467344 0.000249999447 -0.0756766135
v 0.0352467344 -0.000250000535 -0.0756766135
v 0.0343563077 -0.000250000535 -0.0771469199
v 0.0343563077 0.000249999447 -0.0771469199
v 0.0334151304 -0.000250000535 -0.0785461813
v 0.0334151304 0.000249999447 -0.0785461813
v 0.0325246885 -0.000250000535 -0.0797447745
v 0.0325246885 0.000249999447 -0.0797447745
v 0.0316912687 -0.000250000535 -0.0807758566
v 0.0316912687 0.000249999447 -0.0807758566
v 0.0308333128 -0.000250000535 -0.0817647177
v 0.0308333128 0.000249999447 -0.0817647177
v 0.0299509275 -0.000250000535 -0.0827114035
v 0.0299509275 0.000249999447 -0.0827114035
v 0.0290441435 -0.000250000535 -0.0836159063
v 0.0290441435 0.000249999447 -0.0836159063
v 0.0281129301 -0.000250000535 -0.0844782415
v 0.0281129301 0.000249999447 -0.0844782415
v 0.0271573027 0.000249999447 -0.0852983938
v 0.0271573027 -0.000250000535 -0.0852983938
v 0.0261772612 -0.000250000535 -0.0860763784
v 0.0261772612 0.000249999447 -0.0860763784
v 0.0251728056 -0.000250000535 -0.0868121877
v 0.0251728056 0.000249999447 -0.0868121877
v 0.0241439283 -0.000250000535 -0.0875058218
v 0.0241439283 0.000249999447 -0.0875058218
v 0.023090637 -0.000250000535 -0.0881572729
v 0.023090637 0.000249999447 -0.0881572729
v 0.022012924 -0.000250000535 -0.0887665563
v 0.022012924 0.000249999447 -0.0887665563
v 0.020910797 0.000249999447 -0.0893336568
v 0.020910797 -0.000250000535 -0.0893336568
v 0.0197842482 -0.000250000535 -0.0898585897
v 0.0197842482 0.000249999447 -0.0898585897
v 0.0186332854 -0.000250000535 -0.0903413473
v 0.0186332854 0.000249999447 -0.0903413473
v 0.0174579085 -0.000250000535 -0.0907819295
v 0.0174579085 0.000249999447 -0.0907819295
v 0.0162581099 0.000249999447 -0.0911803365
v 0.0162581099 -0.000250000535 -0.0911803365
v 0.0150338973 -0.000250000535 -0.0915365682
v 0.0150338973 0.000249999447 -0.0915365682
v 0.013785263 0.000249999447 -0.0918506246
v 0.013785263 -0.000250000535 -0.0918506246
v 0.0125122146 -0.000250000535 -0.0921225057
v 0.0125122146 0.000249999447 -0.0921225057
v 0.0112147521 -0.000250000535 -0.0923522115
v 0.0112147521 0.000249999447 -0.0923522115
v 0.00989286797 0.000249999447 -0.092539742
v 0.00989286797 -0.000250000535 -0.092539742
v 0.00854656976 -0.000250000535 -0.0926850972
v 0.00854656976 0.000249999447 -0.0926850972
v 0.00717585749 -0.000250000535 -0.0927882772
v 0.00717585749 0.000249999447 -0.0927882772
v 0.00578072353 0.000249999447 -0.0928492894
v 0.00578072353 -0.000250000535 -0.0928492894
v 0.00436122128 0.000249999447 -0.0928680959
v 0.00436122128 -0.000250000535 -0.0928680959
v 0.00293814085 -0.000250000535 -0.0928336873
v 0.00293814085 0.000249999447 -0.0928336873
v 0.00152838134 0.000249999447 -0.0927371297
v 0.00152838134 -0.000250000535 -0.0927371297
v 0.000131935119 -0.000250000535 -0.092578423
v 0.000131935119 0.000249999447 -0.092578423
v -0.00125119018 -0.000250000535 -0.0923575673
v -0.00125119018 0.000249999447 -0.0923575673
v -0.00262099455 -0.000250000535 -0.0920745549
v -0.00262099455 0.000249999447 -0.0920745549
v -0.00397748563 -0.000250000535 -0.0917293935
v -0.00397748563 0.000249999447 -0.0917293935
v -0.00532065578 -0.000250000535 -0.0913220754
v -0.00532065578 0.000249999447 -0.0913220754
v -0.00665051265 -0.000250000535 -0.0908526006
v -0.00665051265 0.000249999447 -0.0908526006
v -0.00796704096 -0.000250000535 -0.0903209768
v -0.00796704096 0.000249999447 -0.0903209768
v -0.00927025597 -0.000250000535 -0.0897272039
v -0.00927025597 0.000249999447 -0.0897272039
v -0.0105601577 -0.000250000535 -0.0890712743
v -0.0105601577 0.000249999447 -0.0890712743
v -0.0118367385 -0.000250000535 -0.0883531881
v -0.0118367385 0.000249999447 -0.0883531881
v -0.0130999984 -0.000250000535 -0.0875729604
v -0.0130999984 0.000249999447 -0.0875729604
v -0.0143499373 -0.000250000535 -0.0867305685
v -0.0143499373 0.000249999447 -0.0867305685
v -0.015586563 -0.000250000535 -0.0858260275
v -0.015586563 0.000249999447 -0.0858260275
v -0.0168098677 -0.000250000535 -0.0848593374
v -0.0168098677 0.000249999447 -0.0848593374
v -0.0180198516 -0.000250000535 -0.0838304983
v -0.0180198516 0.000249999447 -0.0838304983
v -0.0192165221 -0.000250000535 -0.0827394949
v -0.0192165221 0.000249999447 -0.0827394949
v -0.0203998717 -0.000250000535 -0.0815863424
v -0.0203998717 0.000249999447 -0.0815863424
v -0.0215699004 0.000249999447 -0.0803710409
v -0.0215699004 -0.000250000535 -0.0803710409
v -0.0227266081 -0.000250000535 -0.0790935904
v -0.0227266081 0.000249999447 -0.0790935904
v -0.0238700026 -0.000250000535 -0.0777539755
v -0.0238700026 0.000249999447 -0.0777539755
v -0.0253738173 -0.000250000535 -0.0758711554
v -0.0253738173 0.000249999447 -0.0758711554
v -0.0270371397 -0.000250000535 -0.0736206977
v -0.0270371397 0.000249999447 -0.0736206977
v -0.028094116 -0.000250000535 -0.0720449988
v -0.028094116 0.000249999447 -0.0720449988
v -0.0291366728 -0.000250000535 -0.0703206946
v -0.0291366728 0.000249999447 -0.0703206946
v -0.0300360639 -0.000250000535 -0.068679322
v -0.0300360639 0.000249999447 -0.068679322
v -0.0308985899 -0.000250000535 -0.0669531715
v -0.0308985899 0.000249999447 -0.0669531715
v -0.0317242506 0.000249999447 -0.0651422203
v -0.0317242506 -0.000250000535 -0.0651422203
v -0.032513046 -0.000250000535 -0.0632464912
v -0.032513046 0.000249999447 -0.0632464912
v -0.0332649763 -0.000250000535 -0.0612659691
v -0.0332649763 0.000249999447 -0.0612659691
v -0.0339800413 -0.000250000535 -0.0592006576
v -0.0339800413 0.000249999447 -0.0592006576
v -0.0348761136 0.000249999447 -0.0563150185
v -0.0348761136 -0.000250000535 -0.0563150185
v -0.0358606717 -0.000250000535 -0.0526702088
v -0.0358606717 0.000249999447 -0.0526702088
v -0.0367724149 -0.000250000535 -0.0487127579
v -0.0367724149 0.000249999447 -0.0487127579
v -0.0376048047 -0.000250000535 -0.0444234208
v -0.0376048047 0.000249999447 -0.0444234208
v -0.0383508183 -0.000250000535 -0.039782258
v -0.0383508183 0.000249999447 -0.039782258
v -0.0390029218 -0.000250000535 -0.0347686548
v -0.0390029218 0.000249999447 -0.0347686548
v -0.0395531575 -0.000250000535 -0.0293613196
v -0.0395531575 0.000249999447 -0.0293613196
v -0.0399931104 -0.000250000535 -0.0235383101
v -0.0399931104 0.000249999447 -0.0235383101
v -0.040313976 -0.000250000535 -0.0172770206
v -0.040313976 0.000249999447 -0.0172770206
v -0.0405065381 -0.000250000535 -0.0105541984
v -0.0405065381 0.000249999447 -0.0105541984
v -0.0405614278 -0.000250000535 -0.00330294011
v -0.0405614278 0.000249999447 -0.00330294011
v -0.0404867627 -0.000250000535 0.00440429708
v -0.0404867627 0.000249999447 0.00440429708
v -0.0402967526 -0.000250000535 0.0116149832
v -0.0402967526 0.000249999447 0.0116149832
v -0.0399990575 0.000249999447 0.0183517195
v -0.0399990575 -0.000250000535 0.0183517195
v -0.0396011006 -0.000250000535 0.0246365667
v -0.0396011006 0.000249999447 0.0246365667
v -0.0391100652 -0.000250000535 0.0304910436
v -0.0391100652 0.000249999447 0.0304910436
v -0.0385328748 -0.000250000535 0.0359360947
v -0.0385328748 0.000249999447 0.0359360947
v -0.0378761975 -0.000250000535 0.0409921631
v -0.0378761975 0.000249999447 0.0409921631
v -0.0371464154 -0.000250000535 0.0456790909
v -0.0371464154 0.000249999447 0.0456790909
v -0.0363496396 -0.000250000535 0.0500162033
v -0.0363496396 0.000249999447 0.0500162033
v -0.0354916684 -0.000250000535 0.0540222228
v -0.0354916684 0.000249999447 0.0540222228
v -0.0345779874 0.000249999447 0.0577153457
v -0.0345779874 -0.000250000535 0.0577153457
v -0.0336137617 -0.000250000535 0.0611131652
v -0.0336137617 0.000249999447 0.0611131652
v -0.0326037748 0.000249999447 0.0642326949
v -0.0326037748 -0.000250000535 0.0642326949
v -0.0315524366 -0.000250000535 0.067090338
v -0.0315524366 0.000249999447 0.067090338
v -0.0304637601 -0.000250000535 0.0697019026
v -0.0304637601 0.000249999447 0.0697019026
v -0.0294308698 -0.000250000535 0.0719038755
v -0.0294308698 0.000249999447 0.0719038755
v -0.0283477018 -0.000250000535 0.0739904005
v -0.0283477018 0.000249999447 0.0739904005
v -0.0272142485 0.000249999447 0.0759732267
v -0.0272142485 -0.000250000535 0.0759732267
v -0.0260305174 0.000249999447 0.0778523389
v -0.0260305174 -0.000250000535 0.0778523389
v -0.024796501 -0.000250000535 0.0796277524
v -0.024796501 0.000249999447 0.0796277524
v -0.0235121992 -0.000250000535 0.0812994519
v -0.0235121992 0.000249999447 0.0812994519
v -0.0223133391 0.000249999447 0.082715315
v -0.0223133391 -0.000250000535 0.082715315
v -0.0211995467 -0.000250000535 0.0839177609
v -0.0211995467 0.000249999447 0.0839177609
v -0.0200527571 0.000249999447 0.0850521756
v -0.0200527571 -0.000250000535 0.0850521756
v -0.0188729781 -0.000250000535 0.0861185437
v -0.0188729781 0.000249999447 0.0861185437
v -0.0176602095 -0.000250000535 0.0871168652
v -0.0176602095 0.000249999447 0.0871168652
v -0.0164144591 -0.000250000535 0.0880471478
v -0.0164144591 0.000249999447 0.0880471478
v -0.0151357039 0.000249999447 0.0889093915
v -0.0151357039 -0.000250000535 0.0889093915
v -0.0138239669 0.000249999447 0.0897035962
v -0.0138239669 -0.000250000535 0.0897035962
v -0.0124792403 -0.000250000535 0.0904297467
v -0.0124792403 0.000249999447 0.0904297467
v -0.0111015243 -0.000250000535 0.0910878582
v -0.0111015243 0.000249999447 0.0910878582
v -0.00969081109 0.000249999447 0.0916779309
v -0.00969081109 -0.000250000535 0.0916779309
v -0.00824711603 -0.000250000535 0.0921999646
v -0.00824711603 0.000249999447 0.0921999646
v -0.00677042384 -0.000250000535 0.0926539593
v -0.00677042384 0.000249999447 0.0926539593
v -0.00526074978 -0.000250000535 0.0930398998
v -0.00526074978 0.000249999447 0.0930398998
v -0.00371807859 0.000249999447 0.0933578015
v -0.00371807859 -0.000250000535 0.0933578015
v -0.00214241789 -0.000250000535 0.0936076641
v -0.00214241789 0.000249999447 0.0936076641
v -0.000533767696 -0.000250000535 0.0937894879
v -0.000533767696 0.000249999447 0.0937894879
v 0.001107872 -0.000250000535 0.0939032574
v 0.001107872 0.000249999447 0.0939032574
v 0.0027825012 -0.000250000535 0.093948988
v 0.0027825012 0.000249999447 0.093948988
v 0.00420695492 -0.000250000535 0.0939351635
v 0.00420695492 0.000249999447 0.0939351635
v 0.00555275722 -0.000250000535 0.0938776684
v 0.00555275722 0.000249999447 0.0938776684
v 0.00687380976 0.000249999447 0.0937768688
v 0.00687380976 -0.000250000535 0.0937768688
v 0.00817012018 0.000249999447 0.0936327801
v 0.00817012018 -0.000250000535 0.0936327801
v 0.0094416961 0.000249999447 0.0934453869
v 0.0094416961 -0.000250000535 0.0934453869
v 0.0106885223 -0.000250000535 0.0932146893
v 0.0106885223 0.000249999447 0.0932146893
v 0.0119106063 -0.000250000535 0.0929406872
v 0.0119106063 0.000249999447 0.0929406872
v 0.0131079482 -0.000250000535 0.0926233959
v 0.0131079482 0.000249999447 0.0926233959
v 0.014280548 -0.000250000535 0.0922628002
v 0.014280548 0.000249999447 0.0922628002
v 0.0154284056 0.000249999447 0.0918589154
v 0.0154284056 -0.000250000535 0.0918589154
v 0.0165515212 -0.000250000535 0.091411726
v 0.0165515212 0.000249999447 0.091411726
v 0.0176498946 0.000249999447 0.0909212323
v 0.0176498946 -0.000250000535 0.0909212323
v 0.0187235259 -0.000250000535 0.090387434
v 0.0187235259 0.000249999447 0.090387434
v 0.019772415 0.000249999447 0.0898103466
v 0.019772415 -0.000250000535 0.0898103466
v 0.0207965544 -0.000250000535 0.0891899548
v 0.0207965544 0.000249999447 0.0891899548
v 0.0217959593 0.000249999447 0.0885262585
v 0.0217959593 -0.000250000535 0.0885262585
v 0.0227706145 0.000249999447 0.0878192731
v 0.0227706145 -0.000250000535 0.0878192731
v 0.0237205351 -0.000250000535 0.0870689831
v 0.0237205351 0.000249999447 0.0870689831
v 0.024645706 -0.000250000535 0.0862753888
v 0.024645706 0.000249999447 0.0862753888
v 0.0255461348 0.000249999447 0.0854385053
v 0.0255461348 -0.000250000535 0.0854385053
v 0.026421829 -0.000250000535 0.0845583173
v 0.026421829 0.000249999447 0.0845583173
v 0.0272727659 -0.000250000535 0.0836348248
v 0.0272727659 0.000249999447 0.0836348248
v 0.0280989683 -0.000250000535 0.0826680356
v 0.0280989683 0.000249999447 0.0826680356
v 0.0289004362 -0.000250000535 0.0816579496
v 0.0289004362 0.000249999447 0.0816579496
v 0.0296771543 -0.000250000535 0.0806045591
v 0.0296771543 0.000249999447 0.0806045591
v 0.0304291074 0.000249999447 0.0795078718
v 0.0304291074 -0.000250000535 0.0795078718
v 0.0311538084 -0.000250000535 0.0783678876
v 0.0311538084 0.000249999447 0.0783678876
v 0.0318496549 -0.000250000535 0.0771845991
v 0.0318496549 0.000249999447 0.0771845991
v 0.0325166471 -0.000250000535 0.0759580137
v 0.0325166471 0.000249999447 0.0759580137
v 0.0331547544 -0.000250000535 0.0746881315
v 0.0331547544 0.000249999447 0.0746881315
v 0.0337640073 0.000249999447 0.0733749449
v 0.0337640073 -0.000250000535 0.0733749449
v 0.0343443754 -0.000250000535 0.0720184614
v 0.0343443754 0.000249999447 0.0720184614
v 0.034895889 0.000249999447 0.0706186735
v 0.034895889 -0.000250000535 0.0706186735
v 0.0355863492 -0.000250000535 0.0686849424
v 0.0355863492 0.000249999447 0.0686849424
v 0.0363017575 -0.000250000535 0.0664174788
v 0.0363017575 0.000249999447 0.0664174788
v 0.0369522245 -0.000250000535 0.0640525877
v 0.0369522245 0.000249999447 0.0640525877
v 0.0375377347 -0.000250000535 0.061590277
v 0.0375377347 0.000249999447 0.061590277
v 0.0380583035 -0.000250000535 0.0590305388
v 0.0380583035 0.000249999447 0.0590305388
v 0.0385139157 -0.000250000535 0.056373381
v 0.0385139157 0.000249999447 0.056373381
v 0.0389045865 -0.000250000535 0.0536187957
v 0.0389045865 0.000249999447 0.0536187957
v 0.0393244321 0.000249999447 0.0497944702
v 0.0393244321 -0.000250000535 0.0497944702
v 0.039645889 -0.000250000535 0.0455094055
v 0.039645889 0.000249999447 0.0455094055
v 0.0398306882 -0.000250000535 0.0411857361
v 0.0398306882 0.000249999447 0.0411857361
v 0.0398922879 -0.000250000535 0.0366772751
v 0.0398922879 0.000249999447 0.0366772751
v 0.0698922877 0.000249999447 0.0366772751
v 0.0698922877 -0.000250000535 0.0366772751
v 0.0698315272 -0.000250000535 0.040941214
v 0.0698315272 0.000249999447 0.040941214
v 0.0696492762 -0.000250000535 0.0451116852
v 0.0696492762 0.000249999447 0.0451116852
v 0.0693531794 0.000249999447 0.0491037429
v 0.0693531794 -0.000250000535 0.0491037429
v 0.068945373 -0.000250000535 0.0529675506
v 0.068945373 0.000249999447 0.0529675506
v 0.0684290309 -0.000250000535 0.0567075866
v 0.0684290309 0.000249999447 0.0567075866
v 0.0678070674 0.000249999447 0.0603282225
v 0.0678070674 -0.000250000535 0.0603282225
v 0.0670821376 -0.000250000535 0.0638337309
v 0.0670821376 0.000249999447 0.0638337309
v 0.066256576 -0.000250000535 0.0672282393
v 0.066256576 0.000249999447 0.0672282393
v 0.0653324733 -0.000250000535 0.0705157759
v 0.0653324733 0.000249999447 0.0705157759
v 0.0643115687 -0.000250000535 0.0737002088
v 0.0643115687 0.000249999447 0.0737002088
v 0.0631953425 -0.000250000535 0.0767852689
v 0.0631953425 0.000249999447 0.0767852689
v 0.0619849239 0.000249999447 0.079774542
v 0.0619849239 -0.000250000535 0.079774542
v 0.0606811366 -0.000250000535 0.0826714383
v 0.0606811366 0.000249999447 0.0826714383
v 0.0592845149 0.000249999447 0.0854792004
v 0.0592845149 -0.000250000535 0.0854792004
v 0.0577952571 -0.000250000535 0.0882008801
v 0.0577952571 0.000249999447 0.0882008801
v 0.0562132106 -0.000250000535 0.0908393383
v 0.0562132106 0.000249999447 0.0908393383
v 0.0545379329 0.000249999447 0.0933972454
v 0.0545379329 -0.000250000535 0.0933972454
v 0.0527686611 -0.000250000535 0.0958770275
v 0.0527686611 0.000249999447 0.0958770275
v 0.0509093014 -0.000250000535 0.0982692699
v 0.0509093014 0.000249999447 0.0982692699
v 0.0490891567 -0.000250000535 0.10040988
v 0.0490891567 0.000249999447 0.10040988
v 0.0473948361 -0.000250000535 0.102240919
v 0.0473948361 0.000249999447 0.102240919
v 0.0456472622 -0.000250000535 0.103981443
v 0.0456472622 0.000249999447 0.103981443
v 0.0438464657 -0.000250000535 0.105631452
v 0.0438464657 0.000249999447 0.105631452
v 0.0419924313 -0.000250000535 0.107190977
v 0.0419924313 0.000249999447 0.107190977
v 0.040085159 0.000249999447 0.108659986
v 0.040085159 -0.000250000535 0.108659986
v 0.0381246488 -0.000250000535 0.110038511
v 0.0381246488 0.000249999447 0.110038511
v 0.0361109006 -0.000250000535 0.111326521
v 0.0361109006 0.000249999447 0.111326521
v 0.0340439298 -0.000250000535 0.112524015
v 0.0340439298 0.000249999447 0.112524015
v 0.0319237058 -0.000250000535 0.113631025
v 0.0319237058 0.000249999447 0.113631025
v 0.0297502439 0.000249999447 0.11464752
v 0.0297502439 -0.000250000535 0.11464752
v 0.0275235441 -0.000250000535 0.115573515
v 0.0275235441 0.000249999447 0.115573515
v 0.025243614 -0.000250000535 0.11640901
v 0.025243614 0.000249999447 0.11640901
v 0.022910446 -0.000250000535 0.117154005
v 0.022910446 0.000249999447 0.117154005
v 0.0205240401 -0.000250000535 0.1178085
v 0.0205240401 0.000249999447 0.1178085
v 0.0180843962 -0.000250000535 0.11837248
v 0.0180843962 0.000249999447 0.11837248
v 0.0155915221 -0.000250000535 0.11884596
v 0.0155915221 0.000249999447 0.11884596
v 0.0130454024 -0.000250000535 0.119228941
v 0.0130454024 0.000249999447 0.119228941
v 0.0104460448 -0.000250000535 0.119521421
v 0.0104460448 0.000249999447 0.119521421
v 0.00779345697 -0.000250000535 0.119723402
v 0.00779345697 0.000249999447 0.119723402
v 0.00508763119 -0.000250000535 0.119834867
v 0.00508763119 0.000249999447 0.119834867
v 0.00223559569 -0.000250000535 0.119854688
v 0.00223559569 0.000249999447 0.119854688
v -0.000852294916 -0.000250000535 0.119760603
v -0.000852294916 0.000249999447 0.119760603
v -0.00383628842 -0.000250000535 0.119548261
v -0.00383628842 0.000249999447 0.119548261
v -0.0064733047 -0.000250000535 0.119255613
v -0.0064733047 0.000249999447 0.119255613
v -0.00906431573 -0.000250000535 0.118866758
v -0.00906431573 0.000249999447 0.118866758
v -0.0116093139 -0.000250000535 0.118381681
v -0.0116093139 0.000249999447 0.118381681
v -0.0141083068 -0.000250000535 0.117800413
v -0.0141083068 0.000249999447 0.117800413
v -0.0165612792 -0.000250000535 0.117122938
v -0.0165612792 0.000249999447 0.117122938
v -0.0189682463 -0.000250000535 0.116349256
v -0.0189682463 0.000249999447 0.116349256
v -0.021329193 -0.000250000535 0.115479368
v -0.021329193 0.000249999447 0.115479368
v -0.023644142 -0.000250000535 0.114513273
v -0.023644142 0.000249999447 0.114513273
v -0.0259130705 -0.000250000535 0.113450971
v -0.0259130705 0.000249999447 0.113450971
v -0.0281359861 -0.000250000535 0.112292463
v -0.0281359861 0.000249999447 0.112292463
v -0.0303128965 -0.000250000535 0.111037748
v -0.0303128965 0.000249999447 0.111037748
v -0.032443794 -0.000250000535 0.109686842
v -0.032443794 0.000249999447 0.109686842
v -0.0345286786 -0.000250000535 0.108239714
v -0.0345286786 0.000249999447 0.108239714
v -0.0365675504 -0.000250000535 0.106696394
v -0.0365675504 0.000249999447 0.106696394
v -0.0385604131 -0.000250000535 0.105056852
v -0.0385604131 0.000249999447 0.105056852
v -0.0405072629 -0.000250000535 0.103321119
v -0.0405072629 0.000249999447 0.103321119
v -0.0424081036 -0.000250000535 0.101489164
v -0.0424081036 0.000249999447 0.101489164
v -0.0442629315 -0.000250000535 0.099561018
v -0.0442629315 0.000249999447 0.099561018
v -0.0460717465 -0.000250000535 0.097536665
v -0.0460717465 0.000249999447 0.097536665
v -0.0478345524 -0.000250000535 0.0954161053
v -0.0478345524 0.000249999447 0.0954161053
v -0.0495513455 0.000249999447 0.0931993389
v -0.0495513455 -0.000250000535 0.0931993389
v -0.0512221294 -0.000250000535 0.0908863659
v -0.0512221294 0.000249999447 0.0908863659
v -0.0528469005 -0.000250000535 0.0884771863
v -0.0528469005 0.000249999447 0.0884771863
v -0.0544171711 -0.000250000535 0.085969679
v -0.0544171711 0.000249999447 0.085969679
v -0.0559246975 -0.000250000535 0.0833617841
v -0.0559246975 0.000249999447 0.0833617841
v -0.0576555744 -0.000250000535 0.0800905439
v -0.0576555744 0.000249999447 0.0800905439
v -0.0593142238 -0.000250000535 0.0766331693
v -0.0593142238 0.000249999447 0.0766331693
v -0.0608985896 0.000249999447 0.0729816648
v -0.0608985896 -0.000250000535 0.0729816648
v -0.0624062266 -0.000250000535 0.0691276915
v -0.0624062266 0.000249999447 0.0691276915
v -0.0638343043 -0.000250000535 0.0650625746
v -0.0638343043 0.000249999447 0.0650625746
v -0.065179626 -0.000250000535 0.060777304
v -0.065179626 0.000249999447 0.060777304
v -0.0664386439 -0.000250000535 0.0562625793
v -0.0664386439 0.000249999447 0.0562625793
v -0.0676074748 -0.000250000535 0.0515088104
v -0.0676074748 0.000249999447 0.0515088104
v -0.0686818995 -0.000250000535 0.046506102
v -0.0686818995 0.000249999447 0.046506102
v -0.0696573939 -0.000250000535 0.041244307
v -0.0696573939 0.000249999447 0.041244307
v -0.0705291438 0.000249999447 0.035712996
v -0.0705291438 -0.000250000535 0.035712996
v -0.0712920451 0.000249999447 0.0299014821
v -0.0712920451 -0.000250000535 0.0299014821
v -0.0719407191 -0.000250000535 0.0237988363
v -0.0719407191 0.000249999447 0.0237988363
v -0.0724695277 -0.000250000535 0.0173938566
v -0.0724695277 0.000249999447 0.0173938566
v -0.0728725657 -0.000250000535 0.0106751143
v -0.0728725657 0.000249999447 0.0106751143
v -0.0731436991 0.000249999447 0.00363092444
v -0.0731436991 -0.000250000535 0.00363092444
v -0.0732765497 -0.000250000535 -0.00375063679
v -0.0732765497 0.000249999447 -0.00375063679
v -0.0732706751 -0.000250000535 -0.0103277847
v -0.0732706751 0.000249999447 -0.0103277847
v -0.0731437144 -0.000250000535 -0.0161924201
v -0.0731437144 0.000249999447 -0.0161924201
v -0.072901504 0.000249999447 -0.0218071204
v -0.072901504 -0.000250000535 -0.0218071204
v -0.0725489649 0.000249999447 -0.0271802702
v -0.0725489649 -0.000250000535 -0.0271802702
v -0.0720908427 -0.000250000535 -0.0323200998
v -0.0720908427 0.000249999447 -0.0323200998
v -0.0715316691 -0.000250000535 -0.037234662
v -0.0715316691 0.000249999447 -0.037234662
v -0.0708758082 -0.000250000535 -0.0419318589
v -0.0708758082 0.000249999447 -0.0419318589
v -0.0701273798 -0.000250000535 -0.0464194077
v -0.0701273798 0.000249999447 -0.0464194077
v -0.0692903285 -0.000250000535 -0.0507048615
v -0.0692903285 0.000249999447 -0.0507048615
v -0.0683683467 -0.000250000535 -0.054795594
v -0.0683683467 0.000249999447 -0.054795594
v -0.0673648982 0.000249999447 -0.0586987961
v -0.0673648982 -0.000250000535 -0.0586987961
v -0.0662832331 -0.000250000535 -0.0624214637
v -0.0662832331 0.000249999447 -0.0624214637
v -0.0651263041 -0.000250000535 -0.0659704063
v -0.0651263041 0.000249999447 -0.0659704063
v -0.0638968425 -0.000250000535 -0.0693522269
v -0.0638968425 0.000249999447 -0.0693522269
v -0.0625972934 0.000249999447 -0.0725733191
v -0.0625972934 -0.000250000535 -0.0725733191
v -0.0612298236 0.000249999447 -0.0756398398
v -0.0612298236 -0.000250000535 -0.0756398398
v -0.05979631 -0.000250000535 -0.0785577322
v -0.05979631 0.000249999447 -0.0785577322
v -0.0582983318 -0.000250000535 -0.0813326803
v -0.0582983318 0.000249999447 -0.0813326803
v -0.0567371555 0.000249999447 -0.0839701315
v -0.0567371555 -0.000250000535 -0.0839701315
v -0.0551137424 0.000249999447 -0.0864752279
v -0.0551137424 -0.000250000535 -0.0864752279
v -0.0535877491 0.000249999447 -0.0886373525
v -0.0535877491 -0.000250000535 -0.0886373525
v -0.0520002514 -0.000250000535 -0.0907118917
v -0.0520002514 0.000249999447 -0.0907118917
v -0.0503527866 -0.000250000535 -0.0926993337
v -0.0503527866 0.000249999447 -0.0926993337
v -0.0481138455 -0.000250000535 -0.0952307973
v -0.0481138455 0.000249999447 -0.0952307973
v -0.0457195813 -0.000250000535 -0.0977612538
v -0.0457195813 0.000249999447 -0.0977612538
v -0.0433206021 -0.000250000535 -0.100120934
v -0.0433206021 0.000249999447 -0.100120934
v -0.0409164578 0.000249999447 -0.102316185
v -0.0409164578 -0.000250000535 -0.102316185
v -0.0385065305 -0.000250000535 -0.104353051
v -0.0385065305 0.000249999447 -0.104353051
v -0.0360900037 0.000249999447 -0.106237175
v -0.0360900037 -0.000250000535 -0.106237175
v -0.0336658628 -0.000250000535 -0.107973862
v -0.0336658628 0.000249999447 -0.107973862
v -0.0314586103 0.000249999447 -0.109426255
v -0.0314586103 -0.000250000535 -0.109426255
v -0.0292271726 -0.000250000535 -0.110773842
v -0.0292271726 0.000249999447 -0.110773842
v -0.0269715498 -0.000250000535 -0.11201664
v -0.0269715498 0.000249999447 -0.11201664
v -0.0246917418 0.000249999447 -0.113154633
v -0.0246917418 -0.000250000535 -0.113154633
v -0.0223877486 0.000249999447 -0.114187821
v -0.0223877486 -0.000250000535 -0.114187821
v -0.0200595702 -0.000250000535 -0.115116211
v -0.0200595702 0.000249999447 -0.115116211
v -0.0177072066 -0.000250000535 -0.115939804
v -0.0177072066 0.000249999447 -0.115939804
v -0.0153306578 -0.000250000535 -0.116658593
v -0.0153306578 0.000249999447 -0.116658593
v -0.0129299315 0.000249999447 -0.117272583
v -0.0129299315 -0.000250000535 -0.117272583
v -0.0105050124 -0.000250000535 -0.117781777
v -0.0105050124 0.000249999447 -0.117781777
v -0.00805590814 -0.000250000535 -0.118186165
v -0.00805590814 0.000249999447 -0.118186165
v -0.0055826263 -0.000250000535 -0.118485749
v -0.0055826263 0.000249999447 -0.118485749
v -0.00308515928 -0.000250000535 -0.118680542
v -0.00308515928 0.000249999447 -0.118680542
v -0.000563499446 0.000249999447 -0.118770531
v -0.000563499446 -0.000250000535 -0.118770531
v 0.00391252133 -0.000250000535 -0.11868216
v 0.00152300261 -0.000250000535 -0.11876706
v 0.00152300261 0.000249999447 -0.11876706
v 0.00391252133 0.000249999447 -0.11868216
v 0.00656217952 -0.000250000535 -0.118483864
v 0.00656217952 0.000249999447 -0.118483864
v 0.00917102807 -0.000250000535 -0.118176728
v 0.00917102807 0.000249999447 -0.118176728
v 0.011739067 0.000249999447 -0.117760773
v 0.011739067 -0.000250000535 -0.117760773
v 0.0142662963 -0.000250000535 -0.117235977
v 0.0142662963 0.000249999447 -0.117235977
v 0.0167527083 -0.000250000535 -0.116602356
v 0.0167527083 0.000249999447 -0.116602356
v 0.0191983107 -0.000250000535 -0.115859902
v 0.0191983107 0.000249999447 -0.115859902
v 0.0216031035 -0.000250000535 -0.115008622
v 0.0216031035 0.000249999447 -0.115008622
v 0.023967079 -0.000250000535 -0.1140485
v 0.023967079 0.000249999447 -0.1140485
v 0.026286331 -0.000250000535 -0.11298217
v 0.026286331 0.000249999447 -0.11298217
v 0.028502548 -0.000250000535 -0.111848481
v 0.028502548 0.000249999447 -0.111848481
v 0.0305963438 0.000249999447 -0.11066037
v 0.0305963438 -0.000250000535 -0.11066037
v 0.032567703 -0.000250000535 -0.109417847
v 0.032567703 0.000249999447 -0.109417847
v 0.0342372434 -0.000250000535 -0.108253052
v 0.0342372434 0.000249999447 -0.108253052
v 0.0356550443 0.000249999447 -0.107167046
v 0.0356550443 -0.000250000535 -0.107167046
v 0.0369925077 -0.000250000535 -0.106045342
v 0.0369925077 0.000249999447 -0.106045342
v 0.0382496488 -0.000250000535 -0.104887932
v 0.0382496488 0.000249999447 -0.104887932
v 0.0394264523 -0.000250000535 -0.103694825
v 0.0394264523 0.000249999447 -0.103694825
v 0.0404169003 -0.000250000535 -0.1025905
v 0.0404169003 0.000249999447 -0.1025905
v 0.04125267 -0.000250000535 -0.101571885
v 0.04125267 0.000249999447 -0.101571885
v 0.0419573056 -0.000250000535 -0.100638543
v 0.0419573056 0.000249999447 -0.100638543
v 0.000719329829 -5.44663462e-10 -0.118776253
v 0.000282424925 0.000124999455 -0.118777237
v 0.000282424925 -0.00012500055 -0.118777237
f 1 2 3
f 1 4 2
f 5 6 1
f 5 1 3
f 6 5 7
f 6 7 8
f 7 9 10
f 8 7 10
f 11 12 10
f 11 10 9
f 13 14 12
f 13 12 11
f 15 16 14
f 15 14 13
f 17 15 18
f 17 16 15
f 19 18 20
f 19 17 18
f 21 20 22
f 21 19 20
f 23 22 24
f 23 21 22
f 25 24 26
f 25 23 24
f 27 25 26
f 28 25 27
f 29 27 30
f 29 28 27
f 31 30 32
f 31 29 30
f 33 31 32
f 34 31 33
f 35 33 36
f 35 34 33
f 37 36 38
f 37 35 36
f 39 38 40
f 39 37 38
f 41 39 40
f 42 39 41
f 43 41 44
f 43 42 41
f 45 44 46
f 45 43 44
f 47 46 48
f 47 45 46
f 49 47 48
f 49 48 50
f 51 49 50
f 51 50 52
f 53 51 52
f 53 52 54
f 55 53 54
f 55 54 56
f 57 56 58
f 57 55 56
f 59 57 58
f 60 57 59
f 61 59 62
f 61 60 59
f 63 62 64
f 63 61 62
f 65 64 66
f 65 63 64
f 67 66 68
f 67 65 66
f 69 68 70
f 69 67 68
f 71 69 70
f 72 69 71
f 73 71 74
f 73 72 71
f 75 74 76
f 75 73 74
f 77 76 78
f 77 75 76
f 79 77 78
f 80 77 79
f 81 79 82
f 81 80 79
f 83 81 82
f 84 81 83
f 85 83 86
f 85 84 83
f 87 86 88
f 87 85 86
f 89 87 88
f 90 87 89
f 91 89 92
f 91 90 89
f 93 92 94
f 93 91 92
f 95 93 94
f 96 93 95
f 97 96 95
f 98 96 97
f 99 98 97
f 99 97 100
f 101 99 100
f 102 99 101
f 103 102 101
f 103 101 104
f 105 103 104
f 105 104 106
f 107 105 106
f 107 106 108
f 109 107 108
f 109 108 110
f 111 109 110
f 111 110 112
f 113 111 112
f 113 112 114
f 115 113 114
f 115 114 116
f 117 115 116
f 117 116 118
f 119 117 118
f 119 118 120
f 121 119 120
f 121 120 122
f 123 121 122
f 123 122 124
f 125 124 126
f 125 123 124
f 127 126 128
f 127 125 126
f 129 128 130
f 129 127 128
f 131 130 132
f 131 129 130
f 133 132 134
f 133 131 132
f 135 134 136
f 135 133 134
f 137 135 136
f 138 135 137
f 139 137 140
f 139 138 137
f 141 140 142
f 141 139 140
f 143 142 144
f 143 141 142
f 145 144 146
f 145 143 144
f 147 146 148
f 147 145 146
f 149 147 148
f 149 148 150
f 151 149 150
f 151 150 152
f 153 151 152
f 153 152 154
f 155 153 154
f 156 153 155
f 157 156 155
f 157 155 158
f 159 157 158
f 159 158 160
f 161 159 160
f 161 160 162
f 163 161 162
f 164 161 163
f 165 164 163
f 165 163 166
f 167 165 166
f 167 166 168
f 169 167 168
f 169 168 170
f 171 169 170
f 171 170 172
f 173 171 172
f 173 172 174
f 175 173 174
f 175 174 176
f 177 175 176
f 177 176 178
f 179 177 178
f 179 178 180
f 181 179 180
f 181 180 182
f 183 181 182
f 183 182 184
f 185 183 184
f 185 184 186
f 187 185 186
f 187 186 188
f 189 187 188
f 190 187 189
f 191 189 192
f 191 190 189
f 193 192 194
f 193 191 192
f 195 194 196
f 195 193 194
f 197 196 198
f 197 195 196
f 199 197 198
f 199 198 200
f 201 199 200
f 201 200 202
f 203 201 202
f 203 202 204
f 205 203 204
f 206 203 205
f 207 206 205
f 207 205 208
f 209 207 208
f 210 207 209
f 211 210 209
f 211 209 212
f 213 211 212
f 213 212 214
f 215 213 214
f 215 214 216
f 217 216 218
f 217 215 216
f 219 217 218
f 220 217 219
f 221 220 219
f 222 220 221
f 223 221 224
f 223 222 221
f 225 224 226
f 225 223 224
f 227 225 226
f 228 225 227
f 229 227 230
f 229 228 227
f 231 229 230
f 232 229 231
f 233 231 234
f 233 232 231
f 235 234 236
f 235 233 234
f 237 236 238
f 237 235 236
f 239 237 238
f 240 237 239
f 241 240 239
f 242 240 241
f 243 241 244
f 243 242 241
f 245 244 246
f 245 243 244
f 247 245 246
f 248 245 247
f 249 247 250
f 249 248 247
f 251 249 250
f 251 250 252
f 253 251 252
f 253 252 254
f 255 253 254
f 256 253 255
f 257 256 255
f 257 255 258
f 259 258 260
f 259 257 258
f 261 260 262
f 261 259 260
f 263 262 264
f 263 261 262
f 265 264 266
f 265 263 264
f 267 266 268
f 267 265 266
f 269 267 268
f 270 267 269
f 271 270 269
f 272 270 271
f 273 272 271
f 274 272 273
f 275 273 276
f 275 274 273
f 277 276 278
f 277 275 276
f 279 278 280
f 279 277 278
f 281 280 282
f 281 279 280
f 283 281 282
f 284 281 283
f 285 283 286
f 285 284 283
f 287 285 286
f 288 285 287
f 289 287 290
f 289 288 287
f 291 289 290
f 292 289 291
f 293 291 294
f 293 292 291
f 295 293 294
f 296 293 295
f 297 296 295
f 298 296 297
f 299 298 297
f 299 297 300
f 301 299 300
f 301 300 302
f 303 301 302
f 304 301 303
f 305 304 303
f 305 303 306
f 307 305 306
f 307 306 308
f 309 307 308
f 309 308 310
f 311 309 310
f 311 310 312
f 313 311 312
f 313 312 314
f 315 313 314
f 316 313 315
f 317 316 315
f 317 315 318
f 319 317 318
f 319 318 320
f 321 319 320
f 321 320 322
f 323 321 322
f 323 322 324
f 325 323 324
f 326 323 325
f 327 325 328
f 327 326 325
f 329 327 328
f 330 327 329
f 331 329 332
f 331 330 329
f 333 332 334
f 333 331 332
f 335 334 336
f 335 333 334
f 337 336 338
f 337 335 336
f 339 338 340
f 339 337 338
f 341 340 342
f 341 339 340
f 343 342 344
f 343 341 342
f 345 343 344
f 346 343 345
f 347 345 348
f 347 346 345
f 349 347 348
f 349 348 350
f 351 350 352
f 351 349 350
f 353 354 351
f 353 351 352
f 355 353 356
f 355 354 353
f 357 356 358
f 357 355 356
f 359 357 358
f 360 357 359
f 361 359 362
f 361 360 359
f 363 362 364
f 363 361 362
f 365 363 364
f 366 363 365
f 367 365 368
f 367 366 365
f 369 368 370
f 369 367 368
f 371 370 372
f 371 369 370
f 373 372 374
f 373 371 372
f 375 374 376
f 375 373 374
f 377 375 376
f 378 375 377
f 379 377 380
f 379 378 377
f 381 379 380
f 382 379 381
f 383 381 384
f 383 382 381
f 385 384 386
f 385 383 384
f 387 385 386
f 388 385 387
f 389 387 390
f 389 388 387
f 391 390 392
f 391 389 390
f 393 392 394
f 393 391 392
f 395 394 396
f 395 393 394
f 397 396 398
f 397 395 396
f 399 398 400
f 399 397 398
f 401 399 400
f 401 400 402
f 403 401 402
f 404 401 403
f 405 404 403
f 405 403 406
f 407 405 406
f 407 406 408
f 409 407 408
f 409 408 410
f 411 409 410
f 411 410 412
f 413 411 412
f 414 411 413
f 415 414 413
f 415 413 416
f 417 416 418
f 417 415 416
f 419 418 420
f 419 417 418
f 421 420 422
f 421 419 420
f 423 422 424
f 423 421 422
f 425 424 426
f 425 423 424
f 427 426 428
f 427 425 426
f 429 428 430
f 429 427 428
f 431 430 432
f 431 429 430
f 433 432 434
f 433 431 432
f 435 434 436
f 435 433 434
f 437 436 438
f 437 435 436
f 439 438 440
f 439 437 438
f 441 440 442
f 441 439 440
f 443 442 444
f 443 441 442
f 445 444 446
f 445 443 444
f 447 446 448
f 447 445 446
f 449 448 450
f 449 447 448
f 451 449 450
f 451 450 452
f 453 452 454
f 453 451 452
f 455 453 454
f 455 454 456
f 457 455 456
f 457 456 458
f 459 457 458
f 459 458 460
f 461 459 460
f 461 460 462
f 463 461 462
f 463 462 464
f 465 463 464
f 465 464 466
f 467 465 466
f 467 466 468
f 469 467 468
f 469 468 470
f 471 469 470
f 471 470 472
f 473 471 472
f 473 472 474
f 475 473 474
f 475 474 476
f 477 475 476
f 477 476 478
f 479 477 478
f 479 478 480
f 481 479 480
f 482 479 481
f 483 482 481
f 483 481 484
f 485 484 486
f 485 483 484
f 487 486 488
f 487 485 486
f 489 488 490
f 489 487 488
f 491 490 492
f 491 489 490
f 493 492 494
f 493 491 492
f 495 493 494
f 496 493 495
f 497 495 498
f 497 496 495
f 499 498 500
f 499 497 498
f 501 500 502
f 501 499 500
f 503 501 502
f 503 502 504
f 505 503 504
f 505 504 506
f 507 505 506
f 507 506 508
f 509 507 508
f 509 508 510
f 511 509 510
f 512 509 511
f 513 512 511
f 514 512 513
f 515 514 513
f 515 513 516
f 517 515 516
f 517 516 518
f 519 517 518
f 519 518 520
f 521 519 520
f 522 519 521
f 523 522 521
f 523 521 524
f 525 523 524
f 525 524 526
f 527 525 526
f 527 526 528
f 529 527 528
f 530 527 529
f 531 530 529
f 532 530 531
f 533 532 531
f 533 531 534
f 535 533 534
f 535 534 536
f 537 535 536
f 537 536 538
f 539 537 538
f 539 538 540
f 541 539 540
f 541 540 542
f 543 541 542
f 543 542 544
f 545 543 544
f 546 543 545
f 547 546 545
f 547 545 548
f 549 547 548
f 549 548 550
f 551 550 552
f 551 549 550
f 553 551 552
f 554 551 553
f 555 554 553
f 556 554 555
f 557 555 558
f 557 556 555
f 559 558 560
f 559 557 558
f 561 559 560
f 562 559 561
f 563 562 561
f 564 562 563
f 565 564 563
f 566 564 565
f 567 565 568
f 567 566 565
f 569 568 570
f 569 567 568
f 571 570 572
f 571 569 570
f 573 572 574
f 573 571 572
f 575 574 576
f 575 573 574
f 577 575 576
f 578 575 577
f 579 577 580
f 579 578 577
f 581 579 580
f 582 579 581
f 583 581 584
f 583 582 581
f 585 583 584
f 586 583 585
f 587 585 588
f 587 586 585
f 589 588 590
f 589 587 588
f 591 589 590
f 592 589 591
f 593 592 591
f 594 592 593
f 595 593 596
f 595 594 593
f 597 596 598
f 597 595 596
f 599 598 600
f 599 597 598
f 601 599 600
f 602 599 601
f 603 601 604
f 603 602 601
f 605 603 604
f 605 604 606
f 607 605 606
f 607 606 608
f 609 607 608
f 609 608 610
f 611 609 610
f 612 609 611
f 613 614 615
f 613 615 616
f 617 613 616
f 617 616 618
f 619 618 620
f 619 617 618
f 621 619 620
f 622 619 621
f 623 621 624
f 623 622 621
f 625 624 626
f 625 623 624
f 627 626 628
f 627 625 626
f 629 628 630
f 629 627 628
f 631 630 632
f 631 629 630
f 633 632 634
f 633 631 632
f 635 634 636
f 635 633 634
f 637 635 636
f 638 635 637
f 639 637 640
f 639 638 637
f 641 640 642
f 641 639 640
f 643 641 642
f 644 641 643
f 645 643 646
f 645 644 643
f 647 646 648
f 647 645 646
f 649 648 650
f 649 647 648
f 651 650 652
f 651 649 650
f 653 651 652
f 653 652 654
f 655 654 656
f 655 653 654
f 4 655 656
f 4 656 2
f 657 615 614
f 658 615 657
f 658 611 615
f 659 657 614
f 659 612 611
f 659 658 657
f 659 611 658
f 659 614 612
f 2 5 3
f 56 54 2
f 52 2 54
f 58 56 2
f 50 2 52
f 59 2 656
f 59 58 2
f 48 2 50
f 62 59 656
f 62 654 652
f 62 656 654
f 64 652 650
f 64 62 652
f 46 2 48
f 66 648 646
f 66 650 648
f 66 64 650
f 44 2 46
f 68 646 643
f 68 66 646
f 41 2 44
f 70 68 643
f 70 642 640
f 70 643 642
f 71 640 637
f 71 70 640
f 40 2 41
f 74 71 637
f 38 2 40
f 76 74 637
f 76 637 636
f 36 2 38
f 78 636 634
f 78 76 636
f 79 78 634
f 79 634 632
f 33 2 36
f 82 632 630
f 82 79 632
f 83 630 628
f 83 82 630
f 32 2 33
f 32 5 2
f 86 628 626
f 86 83 628
f 30 5 32
f 88 86 626
f 88 626 624
f 89 88 624
f 27 5 30
f 92 624 621
f 92 89 624
f 94 92 621
f 94 621 620
f 26 5 27
f 95 620 618
f 95 94 620
f 97 95 618
f 97 618 616
f 24 5 26
f 100 616 615
f 100 97 616
f 101 615 611
f 101 100 615
f 22 5 24
f 104 611 610
f 104 101 611
f 106 104 610
f 106 610 608
f 108 608 606
f 108 106 608
f 110 606 604
f 110 108 606
f 112 604 601
f 112 110 604
f 114 601 600
f 114 112 601
f 116 600 598
f 116 114 600
f 118 596 593
f 118 598 596
f 118 116 598
f 120 593 591
f 120 118 593
f 122 591 590
f 122 120 591
f 124 590 588
f 124 122 590
f 126 588 585
f 126 124 588
f 128 585 584
f 128 126 585
f 7 18 15
f 7 20 18
f 7 22 20
f 7 5 22
f 130 584 581
f 130 128 584
f 13 7 15
f 132 130 581
f 134 581 580
f 134 132 581
f 136 580 577
f 136 134 580
f 137 136 577
f 576 137 577
f 140 137 576
f 574 142 140
f 574 140 576
f 572 144 142
f 572 142 574
f 570 146 144
f 570 144 572
f 568 148 146
f 568 146 570
f 565 150 148
f 565 148 568
f 563 150 565
f 561 152 150
f 561 150 563
f 560 154 152
f 560 152 561
f 558 155 154
f 558 154 560
f 555 158 155
f 555 160 158
f 555 155 558
f 553 162 160
f 553 160 555
f 552 162 553
f 552 163 162
f 352 356 353
f 550 163 552
f 9 13 11
f 350 358 356
f 350 356 352
f 548 163 550
f 548 166 163
f 348 359 358
f 348 358 350
f 545 166 548
f 545 168 166
f 345 362 359
f 345 364 362
f 345 359 348
f 544 168 545
f 544 170 168
f 344 365 364
f 344 364 345
f 342 368 365
f 342 365 344
f 542 170 544
f 340 370 368
f 340 368 342
f 540 172 170
f 540 170 542
f 338 372 370
f 338 370 340
f 336 374 372
f 336 372 338
f 538 174 172
f 538 172 540
f 334 376 374
f 334 374 336
f 332 377 376
f 332 376 334
f 536 176 174
f 536 174 538
f 329 380 377
f 329 377 332
f 328 381 380
f 328 380 329
f 325 381 328
f 534 176 536
f 324 384 381
f 324 381 325
f 322 386 384
f 322 384 324
f 320 387 386
f 320 386 322
f 531 178 176
f 531 176 534
f 318 387 320
f 315 387 318
f 315 390 387
f 314 390 315
f 314 392 390
f 529 180 178
f 529 178 531
f 312 392 314
f 312 394 392
f 310 394 312
f 396 394 310
f 308 396 310
f 528 180 529
f 528 182 180
f 306 396 308
f 398 396 306
f 303 398 306
f 400 398 303
f 400 303 302
f 526 182 528
f 526 184 182
f 402 400 302
f 402 302 300
f 403 402 300
f 403 300 297
f 524 184 526
f 406 403 297
f 406 297 295
f 408 406 295
f 408 295 294
f 521 186 184
f 521 184 524
f 410 408 294
f 410 294 291
f 412 291 290
f 412 410 291
f 520 188 186
f 520 186 521
f 413 290 287
f 413 412 290
f 416 287 286
f 416 413 287
f 518 189 188
f 518 188 520
f 418 416 286
f 418 286 283
f 420 418 283
f 420 283 282
f 516 189 518
f 516 192 189
f 422 420 282
f 422 282 280
f 424 422 280
f 424 280 278
f 513 192 516
f 513 194 192
f 426 424 278
f 426 276 273
f 426 278 276
f 428 426 273
f 428 273 271
f 511 194 513
f 511 196 194
f 430 271 269
f 430 428 271
f 510 198 196
f 510 196 511
f 432 269 268
f 432 430 269
f 434 432 268
f 434 266 264
f 434 268 266
f 508 200 198
f 508 198 510
f 436 434 264
f 436 264 262
f 506 200 508
f 438 436 262
f 438 262 260
f 504 200 506
f 504 202 200
f 440 438 260
f 440 260 258
f 442 440 258
f 442 258 255
f 502 204 202
f 502 202 504
f 444 442 255
f 444 255 254
f 500 204 502
f 500 205 204
f 446 444 254
f 446 254 252
f 498 208 205
f 498 205 500
f 448 446 252
f 448 252 250
f 450 448 250
f 450 250 247
f 495 209 208
f 495 208 498
f 452 450 247
f 452 247 246
f 494 209 495
f 494 212 209
f 454 452 246
f 492 212 494
f 492 214 212
f 456 454 246
f 456 246 244
f 490 216 214
f 490 214 492
f 458 456 244
f 458 244 241
f 488 216 490
f 488 218 216
f 460 458 241
f 460 241 239
f 486 218 488
f 462 460 239
f 462 239 238
f 484 218 486
f 484 219 218
f 464 462 238
f 464 238 236
f 481 221 219
f 481 219 484
f 466 236 234
f 466 464 236
f 480 224 221
f 480 221 481
f 468 234 231
f 468 466 234
f 478 226 224
f 478 224 480
f 470 231 230
f 470 468 231
f 476 227 226
f 476 226 478
f 472 470 230
f 472 230 227
f 474 227 476
f 474 472 227
f 9 7 13
f 135 578 579
f 133 135 579
f 133 579 582
f 138 575 578
f 138 578 135
f 131 133 582
f 139 575 138
f 139 573 575
f 129 131 582
f 129 582 583
f 141 573 139
f 141 571 573
f 127 129 583
f 127 583 586
f 143 571 141
f 143 569 571
f 125 586 587
f 125 127 586
f 123 125 587
f 123 587 589
f 145 569 143
f 145 567 569
f 121 123 589
f 121 589 592
f 147 567 145
f 147 566 567
f 119 121 592
f 119 592 594
f 149 566 147
f 149 562 564
f 149 564 566
f 117 119 594
f 117 594 595
f 117 595 597
f 151 562 149
f 151 559 562
f 115 117 597
f 115 597 599
f 153 559 151
f 153 557 559
f 113 115 599
f 113 599 602
f 156 557 153
f 156 556 557
f 111 113 602
f 111 602 603
f 157 556 156
f 109 111 603
f 109 603 605
f 107 605 607
f 107 109 605
f 159 556 157
f 159 554 556
f 105 607 609
f 105 107 607
f 161 551 554
f 161 554 159
f 103 609 612
f 103 105 609
f 102 612 614
f 102 103 612
f 164 547 549
f 164 549 551
f 164 551 161
f 99 614 613
f 99 102 614
f 165 546 547
f 165 547 164
f 98 613 617
f 98 99 613
f 96 617 619
f 96 98 617
f 93 619 622
f 93 96 619
f 167 546 165
f 167 543 546
f 91 93 622
f 91 622 623
f 90 91 623
f 169 543 167
f 169 539 541
f 169 541 543
f 87 90 623
f 87 623 625
f 85 87 625
f 85 625 627
f 171 539 169
f 171 537 539
f 84 627 629
f 84 85 627
f 81 629 631
f 81 84 629
f 80 631 633
f 80 81 631
f 173 537 171
f 173 535 537
f 77 633 635
f 77 80 633
f 75 635 638
f 75 77 635
f 73 75 638
f 175 535 173
f 175 532 533
f 175 533 535
f 72 638 639
f 72 73 638
f 69 72 639
f 69 639 641
f 69 641 644
f 67 644 645
f 67 69 644
f 177 532 175
f 177 530 532
f 65 645 647
f 65 647 649
f 65 67 645
f 63 649 651
f 63 65 649
f 61 651 653
f 61 63 651
f 655 61 653
f 60 61 655
f 179 527 530
f 179 530 177
f 4 60 655
f 57 60 4
f 55 57 4
f 53 55 4
f 181 525 527
f 181 527 179
f 51 53 4
f 49 51 4
f 6 4 1
f 47 49 4
f 45 47 4
f 183 525 181
f 183 522 523
f 183 523 525
f 43 45 4
f 42 43 4
f 39 42 4
f 185 522 183
f 185 519 522
f 37 39 4
f 35 37 4
f 34 35 4
f 187 519 185
f 187 517 519
f 31 34 4
f 31 4 6
f 29 31 6
f 190 517 187
f 190 515 517
f 28 29 6
f 25 28 6
f 191 515 190
f 191 514 515
f 23 25 6
f 21 23 6
f 193 512 514
f 193 514 191
f 195 512 193
f 195 509 512
f 197 507 509
f 197 509 195
f 199 507 197
f 199 503 505
f 199 505 507
f 201 501 503
f 201 503 199
f 14 10 12
f 203 499 501
f 203 501 201
f 206 497 499
f 206 499 203
f 207 496 497
f 207 497 206
f 210 493 496
f 210 496 207
f 211 491 493
f 211 493 210
f 213 489 491
f 213 491 211
f 215 487 489
f 215 489 213
f 217 487 215
f 217 483 485
f 217 485 487
f 220 483 217
f 220 482 483
f 222 482 220
f 222 479 482
f 223 479 222
f 223 477 479
f 225 477 223
f 225 475 477
f 228 475 225
f 228 473 475
f 471 228 229
f 471 473 228
f 469 229 232
f 469 471 229
f 467 232 233
f 467 469 232
f 8 14 16
f 8 16 17
f 8 17 19
f 8 19 21
f 8 21 6
f 465 467 233
f 465 233 235
f 463 235 237
f 463 465 235
f 461 237 240
f 461 463 237
f 459 240 242
f 459 461 240
f 457 242 243
f 457 459 242
f 455 243 245
f 455 457 243
f 453 455 245
f 451 245 248
f 451 453 245
f 449 248 249
f 449 451 248
f 447 449 249
f 447 249 251
f 445 447 251
f 445 251 253
f 443 253 256
f 443 445 253
f 355 349 351
f 355 351 354
f 441 256 257
f 441 443 256
f 357 347 349
f 357 349 355
f 439 257 259
f 439 441 257
f 360 346 347
f 360 347 357
f 437 259 261
f 437 439 259
f 361 346 360
f 435 261 263
f 435 437 261
f 433 435 263
f 433 263 265
f 433 265 267
f 363 343 346
f 363 346 361
f 431 267 270
f 431 433 267
f 366 343 363
f 366 341 343
f 429 431 270
f 429 270 272
f 367 341 366
f 367 339 341
f 427 429 272
f 427 272 274
f 369 339 367
f 369 337 339
f 425 427 274
f 425 274 275
f 425 275 277
f 371 337 369
f 371 335 337
f 423 425 277
f 423 277 279
f 373 335 371
f 373 333 335
f 421 279 281
f 421 423 279
f 375 333 373
f 375 331 333
f 419 421 281
f 419 281 284
f 417 284 285
f 417 419 284
f 378 331 375
f 378 330 331
f 415 417 285
f 415 285 288
f 379 330 378
f 379 327 330
f 414 288 289
f 414 415 288
f 382 327 379
f 382 323 326
f 382 326 327
f 411 289 292
f 411 414 289
f 383 323 382
f 383 321 323
f 409 292 293
f 409 411 292
f 385 321 383
f 385 319 321
f 407 293 296
f 407 409 293
f 388 316 317
f 388 319 385
f 388 317 319
f 405 296 298
f 405 407 296
f 389 313 316
f 389 316 388
f 404 298 299
f 404 405 298
f 391 311 313
f 391 313 389
f 401 404 299
f 401 299 301
f 399 301 304
f 399 401 301
f 393 311 391
f 393 309 311
f 397 304 305
f 397 399 304
f 395 305 307
f 395 307 309
f 395 397 305
f 395 309 393
f 8 10 14
