# Converted from H_edit.usd; internal USD transforms baked; visual use only
v 0.0702272639 0.000249999998 0.117251014
v 0.0702272639 -0.000249999998 0.117251014
v 0.0702272639 -0.000249999998 -0.115930801
v 0.0702272639 0.000249999998 -0.115930801
v 0.0388636281 -0.000249999998 -0.115930801
v 0.0388636281 0.000249999998 -0.115930801
v 0.0388636281 -0.000249999998 -0.0177489813
v 0.0388636281 0.000249999998 -0.0177489813
v -0.0388636395 -0.000249999998 -0.0177489813
v -0.0388636395 0.000249999998 -0.0177489813
v -0.0388636395 -0.000249999998 -0.115930801
v -0.0388636395 0.000249999998 -0.115930801
v -0.0702272715 -0.000249999998 -0.115930801
v -0.0702272715 0.000249999998 -0.115930801
v -0.0702272715 -0.000249999998 0.117251014
v -0.0702272715 0.000249999998 0.117251014
v -0.0388636395 -0.000249999998 0.117251014
v -0.0388636395 0.000249999998 0.117251014
v -0.0388636395 -0.000249999998 0.00816010851
v -0.0388636395 0.000249999998 0.00816010851
v 0.0388636281 0.000249999998 0.00816010851
v 0.0388636281 -0.000249999998 0.00816010851
v 0.0388636281 -0.000249999998 0.117251014
v 0.0388636281 0.000249999998 0.117251014
f 1 2 3
f 1 3 4
f 4 3 5
f 4 5 6
f 7 8 6
f 7 6 5
f 8 7 9
f 8 9 10
f 10 9 11
f 10 11 12
f 12 11 13
f 12 13 14
f 15 16 14
f 15 14 13
f 17 18 16
f 17 16 15
f 18 17 19
f 18 19 20
f 21 20 19
f 22 21 19
f 23 24 21
f 23 21 22
f 2 1 24
f 2 24 23
f 22 2 23
f 19 17 15
f 19 7 22
f 3 2 22
f 3 22 7
f 9 7 19
f 5 3 7
f 13 11 9
f 13 19 15
f 13 9 19
f 20 16 18
f 21 24 1
f 21 10 20
f 14 16 20
f 14 20 10
f 8 10 21
f 12 14 10
f 4 6 8
f 4 21 1
f 4 8 21
