# Converted from I_edit.usd; internal USD transforms baked; visual use only
v 0.015681816 0.000249999998 0.116590911
v 0.015681816 -0.000249999998 0.116590911
v 0.015681816 -0.000249999998 -0.116590911
v 0.015681816 0.000249999998 -0.116590911
v -0.015681816 -0.000249999998 -0.116590911
v -0.015681816 0.000249999998 -0.116590911
v -0.015681816 -0.000249999998 0.116590911
v -0.015681816 0.000249999998 0.116590911
f 1 2 3
f 1 3 4
f 4 3 5
f 4 5 6
f 7 8 6
f 7 6 5
f 2 1 8
f 2 8 7
f 5 2 7
f 5 3 2
f 4 6 8
f 4 8 1
