# Converted from sink_boundary.usdc; internal USD transforms baked; visual use only
# Removed 16 zero-area triangles for MuJoCo compatibility
v -0.165000021 -0.199999988 0
v 0.165000021 -0.199999988 0
v -0.165000021 0.199999988 0
v 0.165000021 0.199999988 0
v -0.165000021 0.199999988 0
v -0.165000021 -0.199999988 0
v 0.165000021 -0.199999988 0
v 0.165000021 0.199999988 0
v -0.165000021 0.199999988 0
v -0.165000021 -0.199999988 0
v 0.165000021 -0.199999988 0
v 0.165000021 0.199999988 0
v -0.185000032 0.219999999 0
v -0.185000032 -0.219999999 0
v 0.185000032 -0.219999999 0
v 0.185000032 0.219999999 0
f 11 12 16
f 11 16 15
f 9 10 14
f 9 14 13
f 12 9 13
f 12 13 16
f 10 11 15
f 10 15 14
