# https://github.com/mikedh/trimesh
mtllib material.mtl
usemtl Material.003
v -0.05777824 -0.00000000 0.09175303
v -0.05854464 0.00477286 0.09757440
v -0.05816144 0.00063944 0.09466371
v -0.05844196 0.00238643 0.09679448
v -0.05844196 0.00238643 0.09679448
v -0.06735943 -0.00000000 0.08217184
v -0.07318080 0.00477286 0.08293824
v -0.07027011 0.00063944 0.08255503
v -0.07240088 0.00238643 0.08283556
v -0.07240088 0.00238643 0.08283556
v -0.06284937 -0.00000000 0.09039422
v -0.06586272 0.00477286 0.09561352
v -0.06586272 0.00477286 0.09561352
v -0.06435605 0.00063944 0.09300387
v -0.06545901 0.00238643 0.09491427
v -0.06545901 0.00238643 0.09491427
v -0.06545901 0.00238643 0.09491427
v -0.06600063 -0.00000000 0.08724295
v -0.07121993 0.00477286 0.09025632
v -0.06861028 0.00063944 0.08874964
v -0.07052068 0.00238643 0.08985261
v -0.07052068 0.00238643 0.08985261
v -0.06735943 0.01200000 0.08217184
v -0.07318080 0.00722714 0.08293824
v -0.07027011 0.01136056 0.08255504
v -0.07240088 0.00961357 0.08283556
v -0.07240088 0.00961357 0.08283556
v -0.05777824 0.01200000 0.09175303
v -0.05854464 0.00722714 0.09757440
v -0.05816144 0.01136056 0.09466371
v -0.05844196 0.00961357 0.09679448
v -0.05844196 0.00961357 0.09679448
v -0.06600063 0.01200000 0.08724295
v -0.07121993 0.00722714 0.09025632
v -0.06861028 0.01136056 0.08874964
v -0.07052068 0.00961357 0.08985261
v -0.07052068 0.00961357 0.08985261
v -0.06284937 0.01200000 0.09039422
v -0.06586272 0.00722714 0.09561352
v -0.06586272 0.00722714 0.09561352
v -0.06435605 0.01136056 0.09300387
v -0.06545901 0.00961357 0.09491427
v -0.06545901 0.00961357 0.09491427
v -0.06545901 0.00961357 0.09491427
v -0.06735943 -0.00000000 -0.08217184
v -0.07318080 0.00477286 -0.08293824
v -0.07027011 0.00063944 -0.08255504
v -0.07240088 0.00238643 -0.08283556
v -0.07240088 0.00238643 -0.08283556
v -0.05777824 -0.00000000 -0.09175303
v -0.05854464 0.00477286 -0.09757440
v -0.05816144 0.00063944 -0.09466371
v -0.05844196 0.00238643 -0.09679448
v -0.05844196 0.00238643 -0.09679448
v -0.06600063 -0.00000000 -0.08724295
v -0.07121993 0.00477286 -0.09025632
v -0.06861028 0.00063944 -0.08874964
v -0.07052068 0.00238643 -0.08985261
v -0.07052068 0.00238643 -0.08985261
v -0.06284937 -0.00000000 -0.09039422
v -0.06586272 0.00477286 -0.09561352
v -0.06435605 0.00063944 -0.09300387
v -0.06545901 0.00238643 -0.09491427
v -0.06545901 0.00238643 -0.09491427
v -0.05777824 0.01200000 -0.09175303
v -0.05854464 0.00722714 -0.09757440
v -0.05816144 0.01136056 -0.09466371
v -0.05844196 0.00961357 -0.09679448
v -0.05844196 0.00961357 -0.09679448
v -0.06735943 0.01200000 -0.08217184
v -0.07318080 0.00722714 -0.08293824
v -0.07027011 0.01136056 -0.08255503
v -0.07240088 0.00961357 -0.08283556
v -0.07240088 0.00961357 -0.08283556
v -0.06284937 0.01200000 -0.09039422
v -0.06586272 0.00722714 -0.09561352
v -0.06435605 0.01136056 -0.09300387
v -0.06545901 0.00961357 -0.09491427
v -0.06545901 0.00961357 -0.09491427
v -0.06600063 0.01200000 -0.08724295
v -0.07121993 0.00722714 -0.09025632
v -0.06861028 0.01136056 -0.08874964
v -0.07052068 0.00961357 -0.08985261
v -0.07052068 0.00961357 -0.08985261
v 0.06735943 -0.00000000 0.08217184
v 0.07318080 0.00477286 0.08293824
v 0.07027011 0.00063944 0.08255504
v 0.07240088 0.00238643 0.08283556
v 0.05777824 -0.00000000 0.09175303
v 0.05854464 0.00477286 0.09757440
v 0.05816144 0.00063944 0.09466371
v 0.05844196 0.00238643 0.09679448
v 0.06600063 -0.00000000 0.08724295
v 0.07121993 0.00477286 0.09025632
v 0.06861028 0.00063944 0.08874964
v 0.07052068 0.00238643 0.08985261
v 0.06284937 -0.00000000 0.09039422
v 0.06586272 0.00477286 0.09561352
v 0.06435605 0.00063944 0.09300387
v 0.06545901 0.00238643 0.09491427
v 0.05777824 0.01200000 0.09175303
v 0.05854464 0.00722714 0.09757440
v 0.05816144 0.01136056 0.09466371
v 0.05844196 0.00961357 0.09679448
v 0.06735943 0.01200000 0.08217184
v 0.07318080 0.00722714 0.08293824
v 0.07027011 0.01136056 0.08255503
v 0.07240088 0.00961357 0.08283556
v 0.06284937 0.01200000 0.09039422
v 0.06586272 0.00722714 0.09561352
v 0.06435605 0.01136056 0.09300387
v 0.06545901 0.00961357 0.09491427
v 0.06600063 0.01200000 0.08724295
v 0.07121993 0.00722714 0.09025632
v 0.06861028 0.01136056 0.08874964
v 0.07052068 0.00961357 0.08985261
v 0.05777824 -0.00000000 -0.09175303
v 0.05854464 0.00477286 -0.09757440
v 0.05816144 0.00063944 -0.09466371
v 0.05844196 0.00238643 -0.09679448
v 0.06735943 -0.00000000 -0.08217184
v 0.07318080 0.00477286 -0.08293824
v 0.07027011 0.00063944 -0.08255503
v 0.07240088 0.00238643 -0.08283556
v 0.06284937 -0.00000000 -0.09039422
v 0.06586272 0.00477286 -0.09561352
v 0.06435605 0.00063944 -0.09300387
v 0.06545901 0.00238643 -0.09491427
v 0.06600063 -0.00000000 -0.08724295
v 0.07121993 0.00477286 -0.09025632
v 0.06861028 0.00063944 -0.08874964
v 0.07052068 0.00238643 -0.08985261
v 0.06735943 0.01200000 -0.08217184
v 0.07318080 0.00722714 -0.08293824
v 0.07027011 0.01136056 -0.08255504
v 0.07240088 0.00961357 -0.08283556
v 0.05777824 0.01200000 -0.09175303
v 0.05854464 0.00722714 -0.09757440
v 0.05816144 0.01136056 -0.09466371
v 0.05844196 0.00961357 -0.09679448
v 0.06600063 0.01200000 -0.08724295
v 0.07121993 0.00722714 -0.09025632
v 0.06861028 0.01136056 -0.08874964
v 0.07052068 0.00961357 -0.08985261
v 0.06284937 0.01200000 -0.09039422
v 0.06586272 0.00722714 -0.09561352
v 0.06435605 0.01136056 -0.09300387
v 0.06545901 0.00961357 -0.09491427
vn -0.01511803 -0.99326981 0.11483259
vn -0.12891768 -0.15651280 0.97922621
vn -0.05861132 -0.89351214 0.44519745
vn -0.08233143 -0.77597273 0.62537018
vn -0.12396435 -0.31306408 0.94160699
vn -0.11483258 -0.99326981 0.01511797
vn -0.97922616 -0.15651316 0.12891766
vn -0.44519748 -0.89351214 0.05861109
vn -0.62537032 -0.77597263 0.08233127
vn -0.94160699 -0.31306396 0.12396464
vn -0.06074751 -0.99259203 0.10521786
vn -0.25577232 -0.15300586 0.95455211
vn -0.69878046 -0.15300611 0.69878108
vn -0.22777468 -0.89021058 0.39451719
vn -0.31041879 -0.78393845 0.53766223
vn -0.24601497 -0.31064140 0.91813864
vn -0.67212443 -0.31064048 0.67212443
vn -0.10521786 -0.99259203 0.06074750
vn -0.85510964 -0.15827164 0.49369787
vn -0.39451760 -0.89021043 0.22777455
vn -0.53766248 -0.78393808 0.31041929
vn -0.82034351 -0.32049244 0.47362552
vn -0.11483258 0.99326982 0.01511799
vn -0.97922620 0.15651304 0.12891748
vn -0.44519765 0.89351204 0.05861131
vn -0.94160693 0.31306430 0.12396422
vn -0.62537066 0.77597236 0.08233125
vn -0.01511799 0.99326982 0.11483257
vn -0.12891801 0.15651309 0.97922612
vn -0.05861119 0.89351211 0.44519754
vn -0.12396509 0.31306362 0.94160705
vn -0.08233130 0.77597246 0.62537052
vn -0.10521789 0.99259203 0.06074748
vn -0.85510964 0.15827142 0.49369794
vn -0.39451770 0.89021037 0.22777461
vn -0.82034328 0.32049297 0.47362555
vn -0.53766266 0.78393792 0.31041940
vn -0.06074753 0.99259204 0.10521782
vn -0.25577165 0.15300636 0.95455221
vn -0.69878030 0.15300596 0.69878127
vn -0.22777485 0.89021054 0.39451718
vn -0.24601369 0.31064034 0.91813934
vn -0.67212394 0.31064095 0.67212469
vn -0.31041909 0.78393819 0.53766244
vn -0.11483258 -0.99326982 -0.01511799
vn -0.97922620 -0.15651301 -0.12891748
vn -0.44519753 -0.89351210 -0.05861129
vn -0.62537046 -0.77597252 -0.08233122
vn -0.94160695 -0.31306425 -0.12396422
vn -0.01511799 -0.99326982 -0.11483257
vn -0.12891801 -0.15651307 -0.97922613
vn -0.05861117 -0.89351217 -0.44519741
vn -0.08233127 -0.77597263 -0.62537032
vn -0.12396509 -0.31306356 -0.94160706
vn -0.10521789 -0.99259203 -0.06074748
vn -0.85510965 -0.15827139 -0.49369794
vn -0.39451759 -0.89021044 -0.22777455
vn -0.53766248 -0.78393808 -0.31041930
vn -0.82034330 -0.32049292 -0.47362556
vn -0.06074753 -0.99259204 -0.10521782
vn -0.49369768 -0.15827063 -0.85510994
vn -0.22777479 -0.89021061 -0.39451707
vn -0.31041899 -0.78393835 -0.53766226
vn -0.47362514 -0.32049053 -0.82034447
vn -0.01511803 0.99326981 -0.11483259
vn -0.12891768 0.15651283 -0.97922621
vn -0.05861134 0.89351208 -0.44519757
vn -0.12396435 0.31306413 -0.94160697
vn -0.08233145 0.77597256 -0.62537038
vn -0.11483258 0.99326981 -0.01511797
vn -0.97922615 0.15651319 -0.12891766
vn -0.44519760 0.89351208 -0.05861111
vn -0.94160697 0.31306402 -0.12396463
vn -0.62537052 0.77597246 -0.08233130
vn -0.06074751 0.99259203 -0.10521786
vn -0.49369807 0.15827050 -0.85510974
vn -0.22777474 0.89021052 -0.39451730
vn -0.47362597 0.32049090 -0.82034384
vn -0.31041889 0.78393829 -0.53766241
vn -0.10521786 0.99259203 -0.06074750
vn -0.85510964 0.15827167 -0.49369787
vn -0.39451772 0.89021037 -0.22777462
vn -0.82034349 0.32049249 -0.47362551
vn -0.53766266 0.78393792 -0.31041939
vn 0.11483258 -0.99326982 0.01511799
vn 0.97922620 -0.15651301 0.12891748
vn 0.44519753 -0.89351210 0.05861129
vn 0.82359013 -0.55672512 0.10842714
vn 0.01511799 -0.99326982 0.11483257
vn 0.12891801 -0.15651307 0.97922613
vn 0.05861117 -0.89351217 0.44519741
vn 0.10842766 -0.55672488 0.82359022
vn 0.10521789 -0.99259203 0.06074748
vn 0.85510965 -0.15827139 0.49369794
vn 0.39451759 -0.89021044 0.22777455
vn 0.72054066 -0.55476265 0.41600428
vn 0.06074753 -0.99259204 0.10521782
vn 0.49369768 -0.15827063 0.85510994
vn 0.22777479 -0.89021061 0.39451707
vn 0.41600406 -0.55476172 0.72054150
vn 0.01511803 0.99326981 0.11483259
vn 0.12891768 0.15651283 0.97922621
vn 0.05861134 0.89351208 0.44519757
vn 0.10842733 0.55672509 0.82359012
vn 0.11483258 0.99326981 0.01511797
vn 0.97922615 0.15651319 0.12891766
vn 0.44519760 0.89351208 0.05861111
vn 0.82359018 0.55672498 0.10842741
vn 0.06074751 0.99259203 0.10521786
vn 0.49369807 0.15827050 0.85510974
vn 0.22777474 0.89021052 0.39451730
vn 0.41600446 0.55476185 0.72054117
vn 0.10521786 0.99259203 0.06074750
vn 0.85510964 0.15827167 0.49369787
vn 0.39451772 0.89021037 0.22777462
vn 0.72054086 0.55476237 0.41600431
vn 0.01511803 -0.99326981 -0.11483259
vn 0.12891768 -0.15651280 -0.97922621
vn 0.05861132 -0.89351214 -0.44519745
vn 0.10842732 -0.55672517 -0.82359007
vn 0.11483258 -0.99326981 -0.01511797
vn 0.97922616 -0.15651316 -0.12891766
vn 0.44519748 -0.89351214 -0.05861109
vn 0.82359013 -0.55672506 -0.10842740
vn 0.06074751 -0.99259203 -0.10521786
vn 0.49369808 -0.15827047 -0.85510974
vn 0.22777468 -0.89021058 -0.39451719
vn 0.41600444 -0.55476191 -0.72054113
vn 0.10521786 -0.99259203 -0.06074750
vn 0.85510964 -0.15827164 -0.49369787
vn 0.39451760 -0.89021043 -0.22777455
vn 0.72054082 -0.55476244 -0.41600428
vn 0.11483258 0.99326982 -0.01511799
vn 0.97922620 0.15651304 -0.12891748
vn 0.44519765 0.89351204 -0.05861131
vn 0.82359018 0.55672504 -0.10842715
vn 0.01511799 0.99326982 -0.11483257
vn 0.12891801 0.15651309 -0.97922612
vn 0.05861119 0.89351211 -0.44519754
vn 0.10842766 0.55672481 -0.82359027
vn 0.10521789 0.99259203 -0.06074748
vn 0.85510964 0.15827142 -0.49369794
vn 0.39451770 0.89021037 -0.22777461
vn 0.72054070 0.55476258 -0.41600431
vn 0.06074753 0.99259204 -0.10521782
vn 0.49369768 0.15827066 -0.85510993
vn 0.22777485 0.89021054 -0.39451718
vn 0.41600409 0.55476165 -0.72054154
vt 0.15169993 0.74282980
vt 0.47443467 0.97500002
vt 0.15087265 0.74643391
vt 0.15001029 0.74999028
vt 0.37499633 0.97507805
vt 0.13514516 0.73036408
vt 0.47443467 0.01875001
vt 0.13006759 0.73079807
vt 0.12502269 0.73124778
vt 0.37500000 0.01875228
vt 0.14284138 0.74090326
vt 0.47443467 1.00000000
vt 0.47443467 0.00000000
vt 0.14014868 0.74417078
vt 0.13754621 0.74742794
vt 0.37500000 0.99931043
vt 0.37500000 0.00025856
vt 0.13743770 0.73684454
vt 0.47443467 0.00937504
vt 0.13288224 0.73872054
vt 0.12842935 0.74059027
vt 0.37500000 0.00937504
vt 0.86485493 0.73036402
vt 0.52556533 0.01875001
vt 0.86993253 0.73079801
vt 0.62500000 0.01875228
vt 0.87497735 0.73124772
vt 0.84830016 0.74282974
vt 0.52556527 0.97500002
vt 0.84912723 0.74643385
vt 0.62500370 0.97507811
vt 0.84998971 0.74999022
vt 0.86256236 0.73684448
vt 0.52556533 0.00937504
vt 0.86711764 0.73872048
vt 0.62500000 0.00937498
vt 0.87157059 0.74059021
vt 0.85715860 0.74090308
vt 0.52556533 1.00000000
vt 0.52556539 0.00000000
vt 0.85985148 0.74417078
vt 0.62500000 0.99931043
vt 0.62500000 0.00025856
vt 0.86245388 0.74742800
vt 0.13514517 0.51963603
vt 0.47443467 0.23124999
vt 0.13006759 0.51920205
vt 0.12502269 0.51875222
vt 0.37500000 0.23124778
vt 0.15169993 0.50717032
vt 0.47443467 0.27499998
vt 0.15087266 0.50356609
vt 0.15001030 0.50000972
vt 0.37499636 0.27500665
vt 0.13743775 0.51315546
vt 0.47443467 0.24062502
vt 0.13288224 0.51127952
vt 0.12842935 0.50940961
vt 0.37500000 0.24079740
vt 0.14284143 0.50909698
vt 0.47443464 0.26249999
vt 0.14014868 0.50582922
vt 0.13754621 0.50257206
vt 0.37500000 0.26237071
vt 0.84829998 0.50717014
vt 0.52556533 0.27499998
vt 0.84912723 0.50356609
vt 0.62500370 0.27500665
vt 0.84998977 0.50000972
vt 0.86485481 0.51963603
vt 0.52556533 0.23124999
vt 0.86993253 0.51920211
vt 0.62500000 0.23124772
vt 0.87497735 0.51875222
vt 0.85715878 0.50909698
vt 0.52556533 0.26249999
vt 0.85985142 0.50582922
vt 0.62500000 0.26237071
vt 0.86245382 0.50257212
vt 0.86256230 0.51315540
vt 0.52556533 0.24062502
vt 0.86711788 0.51127946
vt 0.62500000 0.24079740
vt 0.87157059 0.50940955
vt 0.36762604 0.73239768
vt 0.47443467 0.73125005
vt 0.37128580 0.73166513
vt 0.42471424 0.73124778
vt 0.36040053 0.75428647
vt 0.47273028 0.76666659
vt 0.36324832 0.76028651
vt 0.39314839 0.76664650
vt 0.36734861 0.74076843
vt 0.47420633 0.74062496
vt 0.37066537 0.74101156
vt 0.42403385 0.74072832
vt 0.36534712 0.74885225
vt 0.47358251 0.75749600
vt 0.36823320 0.75305921
vt 0.42220151 0.75738984
vt 0.63959944 0.75428647
vt 0.52726966 0.76666665
vt 0.63675165 0.76028657
vt 0.60685158 0.76664656
vt 0.63237393 0.73239768
vt 0.52556533 0.73125005
vt 0.62871432 0.73166513
vt 0.57528573 0.73124772
vt 0.63465285 0.74885243
vt 0.52641749 0.75749606
vt 0.63176692 0.75305915
vt 0.57779849 0.75738984
vt 0.63265145 0.74076843
vt 0.52579367 0.74062490
vt 0.62933469 0.74101162
vt 0.57596618 0.74072838
vt 0.36040053 0.49571359
vt 0.47273028 0.48333335
vt 0.36324832 0.48971337
vt 0.39314839 0.48335344
vt 0.36762604 0.51760256
vt 0.47443467 0.51875007
vt 0.37128580 0.51833510
vt 0.42471424 0.51875234
vt 0.36534715 0.50114769
vt 0.47358251 0.49250400
vt 0.36823314 0.49694085
vt 0.42220157 0.49261022
vt 0.36734861 0.50923169
vt 0.47420633 0.50937498
vt 0.37066534 0.50898844
vt 0.42403382 0.50927162
vt 0.63237399 0.51760256
vt 0.52556533 0.51875007
vt 0.62871432 0.51833498
vt 0.57528579 0.51875234
vt 0.63959950 0.49571359
vt 0.52726966 0.48333335
vt 0.63675159 0.48971337
vt 0.60685158 0.48335344
vt 0.63265145 0.50923169
vt 0.52579367 0.50937498
vt 0.62933469 0.50898850
vt 0.57596618 0.50927156
vt 0.63465279 0.50114763
vt 0.52641755 0.49250400
vt 0.63176692 0.49694097
vt 0.57779849 0.49261022
f 11/11/11 1/1/1 3/3/3
f 11/11/11 3/3/3 14/14/14
f 14/14/14 3/3/3 4/4/4
f 14/14/14 4/4/4 15/15/15
f 16/16/16 5/5/5 2/2/2
f 16/16/16 2/2/2 12/12/12
f 28/28/28 38/38/38 41/41/41
f 28/28/28 41/41/41 30/30/30
f 30/30/30 41/41/41 44/44/44
f 30/30/30 44/44/44 32/32/32
f 31/31/31 42/42/42 39/39/39
f 31/31/31 39/39/39 29/29/29
f 18/18/18 11/11/11 14/14/14
f 18/18/18 14/14/14 20/20/20
f 20/20/20 14/14/14 15/15/15
f 20/20/20 15/15/15 21/21/21
f 22/22/22 17/17/17 13/13/13
f 22/22/22 13/13/13 19/19/19
f 38/38/38 33/33/33 35/35/35
f 38/38/38 35/35/35 41/41/41
f 41/41/41 35/35/35 37/37/37
f 41/41/41 37/37/37 44/44/44
f 43/43/43 36/36/36 34/34/34
f 43/43/43 34/34/34 40/40/40
f 6/6/6 18/18/18 20/20/20
f 6/6/6 20/20/20 8/8/8
f 8/8/8 20/20/20 21/21/21
f 8/8/8 21/21/21 9/9/9
f 10/10/10 22/22/22 19/19/19
f 10/10/10 19/19/19 7/7/7
f 33/33/33 23/23/23 25/25/25
f 33/33/33 25/25/25 35/35/35
f 35/35/35 25/25/25 27/27/27
f 35/35/35 27/27/27 37/37/37
f 36/36/36 26/26/26 24/24/24
f 36/36/36 24/24/24 34/34/34
f 75/75/75 65/65/65 67/67/67
f 75/75/75 67/67/67 77/77/77
f 77/77/77 67/67/67 69/69/69
f 77/77/77 69/69/69 79/79/79
f 78/78/78 68/68/68 66/66/66
f 78/78/78 66/66/66 76/76/76
f 50/50/50 60/60/60 62/62/62
f 50/50/50 62/62/62 52/52/52
f 52/52/52 62/62/62 63/63/63
f 52/52/52 63/63/63 53/53/53
f 54/54/54 64/64/64 61/61/61
f 54/54/54 61/61/61 51/51/51
f 80/80/80 75/75/75 77/77/77
f 80/80/80 77/77/77 82/82/82
f 82/82/82 77/77/77 79/79/79
f 82/82/82 79/79/79 84/84/84
f 83/83/83 78/78/78 76/76/76
f 83/83/83 76/76/76 81/81/81
f 60/60/60 55/55/55 57/57/57
f 60/60/60 57/57/57 62/62/62
f 62/62/62 57/57/57 58/58/58
f 62/62/62 58/58/58 63/63/63
f 64/64/64 59/59/59 56/56/56
f 64/64/64 56/56/56 61/61/61
f 70/70/70 80/80/80 82/82/82
f 70/70/70 82/82/82 72/72/72
f 72/72/72 82/82/82 84/84/84
f 72/72/72 84/84/84 74/74/74
f 73/73/73 83/83/83 81/81/81
f 73/73/73 81/81/81 71/71/71
f 55/55/55 45/45/45 47/47/47
f 55/55/55 47/47/47 57/57/57
f 57/57/57 47/47/47 48/48/48
f 57/57/57 48/48/48 58/58/58
f 59/59/59 49/49/49 46/46/46
f 59/59/59 46/46/46 56/56/56
f 141/141/141 133/133/133 135/135/135
f 141/141/141 135/135/135 143/143/143
f 143/143/143 135/135/135 136/136/136
f 143/143/143 136/136/136 144/144/144
f 144/144/144 136/136/136 134/134/134
f 144/144/144 134/134/134 142/142/142
f 121/121/121 129/129/129 131/131/131
f 121/121/121 131/131/131 123/123/123
f 123/123/123 131/131/131 132/132/132
f 123/123/123 132/132/132 124/124/124
f 124/124/124 132/132/132 130/130/130
f 124/124/124 130/130/130 122/122/122
f 145/145/145 141/141/141 143/143/143
f 145/145/145 143/143/143 147/147/147
f 147/147/147 143/143/143 144/144/144
f 147/147/147 144/144/144 148/148/148
f 148/148/148 144/144/144 142/142/142
f 148/148/148 142/142/142 146/146/146
f 129/129/129 125/125/125 127/127/127
f 129/129/129 127/127/127 131/131/131
f 131/131/131 127/127/127 128/128/128
f 131/131/131 128/128/128 132/132/132
f 132/132/132 128/128/128 126/126/126
f 132/132/132 126/126/126 130/130/130
f 137/137/137 145/145/145 147/147/147
f 137/137/137 147/147/147 139/139/139
f 139/139/139 147/147/147 148/148/148
f 139/139/139 148/148/148 140/140/140
f 140/140/140 148/148/148 146/146/146
f 140/140/140 146/146/146 138/138/138
f 125/125/125 117/117/117 119/119/119
f 125/125/125 119/119/119 127/127/127
f 127/127/127 119/119/119 120/120/120
f 127/127/127 120/120/120 128/128/128
f 128/128/128 120/120/120 118/118/118
f 128/128/128 118/118/118 126/126/126
f 109/109/109 101/101/101 103/103/103
f 109/109/109 103/103/103 111/111/111
f 111/111/111 103/103/103 104/104/104
f 111/111/111 104/104/104 112/112/112
f 112/112/112 104/104/104 102/102/102
f 112/112/112 102/102/102 110/110/110
f 89/89/89 97/97/97 99/99/99
f 89/89/89 99/99/99 91/91/91
f 91/91/91 99/99/99 100/100/100
f 91/91/91 100/100/100 92/92/92
f 92/92/92 100/100/100 98/98/98
f 92/92/92 98/98/98 90/90/90
f 113/113/113 109/109/109 111/111/111
f 113/113/113 111/111/111 115/115/115
f 115/115/115 111/111/111 112/112/112
f 115/115/115 112/112/112 116/116/116
f 116/116/116 112/112/112 110/110/110
f 116/116/116 110/110/110 114/114/114
f 97/97/97 93/93/93 95/95/95
f 97/97/97 95/95/95 99/99/99
f 99/99/99 95/95/95 96/96/96
f 99/99/99 96/96/96 100/100/100
f 100/100/100 96/96/96 94/94/94
f 100/100/100 94/94/94 98/98/98
f 105/105/105 113/113/113 115/115/115
f 105/105/105 115/115/115 107/107/107
f 107/107/107 115/115/115 116/116/116
f 107/107/107 116/116/116 108/108/108
f 108/108/108 116/116/116 114/114/114
f 108/108/108 114/114/114 106/106/106
f 93/93/93 85/85/85 87/87/87
f 93/93/93 87/87/87 95/95/95
f 95/95/95 87/87/87 88/88/88
f 95/95/95 88/88/88 96/96/96
f 96/96/96 88/88/88 86/86/86
f 96/96/96 86/86/86 94/94/94
f 7/7/7 46/46/46 49/49/49
f 7/7/7 49/49/49 10/10/10
f 9/9/9 48/48/48 47/47/47
f 9/9/9 47/47/47 8/8/8
f 8/8/8 47/47/47 45/45/45
f 8/8/8 45/45/45 6/6/6
f 51/51/51 118/118/118 120/120/120
f 51/51/51 120/120/120 54/54/54
f 53/53/53 120/120/120 119/119/119
f 53/53/53 119/119/119 52/52/52
f 52/52/52 119/119/119 117/117/117
f 52/52/52 117/117/117 50/50/50
f 122/122/122 86/86/86 88/88/88
f 122/122/122 88/88/88 124/124/124
f 124/124/124 88/88/88 87/87/87
f 124/124/124 87/87/87 123/123/123
f 123/123/123 87/87/87 85/85/85
f 123/123/123 85/85/85 121/121/121
f 90/90/90 2/2/2 5/5/5
f 90/90/90 5/5/5 92/92/92
f 92/92/92 4/4/4 3/3/3
f 92/92/92 3/3/3 91/91/91
f 91/91/91 3/3/3 1/1/1
f 91/91/91 1/1/1 89/89/89
f 23/23/23 70/70/70 72/72/72
f 23/23/23 72/72/72 25/25/25
f 25/25/25 72/72/72 74/74/74
f 25/25/25 74/74/74 27/27/27
f 26/26/26 73/73/73 71/71/71
f 26/26/26 71/71/71 24/24/24
f 101/101/101 28/28/28 30/30/30
f 101/101/101 30/30/30 103/103/103
f 103/103/103 30/30/30 32/32/32
f 103/103/103 32/32/32 104/104/104
f 104/104/104 31/31/31 29/29/29
f 104/104/104 29/29/29 102/102/102
f 106/106/106 134/134/134 136/136/136
f 106/106/106 136/136/136 108/108/108
f 108/108/108 136/136/136 135/135/135
f 108/108/108 135/135/135 107/107/107
f 107/107/107 135/135/135 133/133/133
f 107/107/107 133/133/133 105/105/105
f 138/138/138 66/66/66 68/68/68
f 138/138/138 68/68/68 140/140/140
f 140/140/140 69/69/69 67/67/67
f 140/140/140 67/67/67 139/139/139
f 139/139/139 67/67/67 65/65/65
f 139/139/139 65/65/65 137/137/137
f 6/6/6 45/45/45 55/55/55
f 55/55/55 60/60/60 50/50/50
f 50/50/50 117/117/117 125/125/125
f 125/125/125 129/129/129 121/121/121
f 121/121/121 85/85/85 93/93/93
f 93/93/93 97/97/97 89/89/89
f 89/89/89 1/1/1 11/11/11
f 11/11/11 18/18/18 6/6/6
f 6/6/6 55/55/55 50/50/50
f 50/50/50 125/125/125 121/121/121
f 121/121/121 93/93/93 89/89/89
f 89/89/89 11/11/11 6/6/6
f 6/6/6 50/50/50 121/121/121
f 121/121/121 89/89/89 6/6/6
f 2/2/2 29/29/29 39/39/39
f 2/2/2 39/39/39 12/12/12
f 90/90/90 102/102/102 29/29/29
f 90/90/90 29/29/29 2/2/2
f 19/19/19 34/34/34 24/24/24
f 19/19/19 24/24/24 7/7/7
f 7/7/7 24/24/24 71/71/71
f 7/7/7 71/71/71 46/46/46
f 13/13/13 40/40/40 34/34/34
f 13/13/13 34/34/34 19/19/19
f 105/105/105 133/133/133 141/141/141
f 141/141/141 145/145/145 137/137/137
f 137/137/137 65/65/65 75/75/75
f 75/75/75 80/80/80 70/70/70
f 70/70/70 23/23/23 33/33/33
f 33/33/33 38/38/38 28/28/28
f 28/28/28 101/101/101 109/109/109
f 109/109/109 113/113/113 105/105/105
f 105/105/105 141/141/141 137/137/137
f 137/137/137 75/75/75 70/70/70
f 70/70/70 33/33/33 28/28/28
f 28/28/28 109/109/109 105/105/105
f 105/105/105 137/137/137 70/70/70
f 70/70/70 28/28/28 105/105/105
f 81/81/81 56/56/56 46/46/46
f 81/81/81 46/46/46 71/71/71
f 51/51/51 66/66/66 138/138/138
f 51/51/51 138/138/138 118/118/118
f 66/66/66 51/51/51 61/61/61
f 66/66/66 61/61/61 76/76/76
f 76/76/76 61/61/61 56/56/56
f 76/76/76 56/56/56 81/81/81
f 114/114/114 94/94/94 86/86/86
f 114/114/114 86/86/86 106/106/106
f 122/122/122 134/134/134 106/106/106
f 122/122/122 106/106/106 86/86/86
f 102/102/102 90/90/90 98/98/98
f 102/102/102 98/98/98 110/110/110
f 110/110/110 98/98/98 94/94/94
f 110/110/110 94/94/94 114/114/114
f 146/146/146 126/126/126 118/118/118
f 146/146/146 118/118/118 138/138/138
f 134/134/134 122/122/122 130/130/130
f 134/134/134 130/130/130 142/142/142
f 142/142/142 130/130/130 126/126/126
f 142/142/142 126/126/126 146/146/146

