# https://github.com/mikedh/trimesh
v 0.00000000 0.00400000 -0.00000000
v 0.04650000 0.00400000 -0.00000000
v 0.04650000 0.00000000 0.00000000
v 0.00000000 0.00000000 0.00000000
v 0.04640044 0.00400000 0.00304125
v 0.04640044 0.00000000 0.00304125
v 0.04610219 0.00400000 0.00606947
v 0.04610219 0.00000000 0.00606947
v 0.04560652 0.00400000 0.00907170
v 0.04560652 0.00000000 0.00907170
v 0.04491555 0.00400000 0.01203509
v 0.04491555 0.00000000 0.01203509
v 0.04403225 0.00400000 0.01494694
v 0.04403225 0.00000000 0.01494694
v 0.04296040 0.00400000 0.01779478
v 0.04296040 0.00000000 0.01779478
v 0.04170458 0.00400000 0.02056642
v 0.04170458 0.00000000 0.02056642
v 0.04027018 0.00400000 0.02325000
v 0.04027018 0.00000000 0.02325000
v 0.03866334 0.00400000 0.02583402
v 0.03866334 0.00000000 0.02583402
v 0.03689093 0.00400000 0.02830741
v 0.03689093 0.00000000 0.02830741
v 0.03496055 0.00400000 0.03065958
v 0.03496055 0.00000000 0.03065958
v 0.03288047 0.00400000 0.03288047
v 0.03288047 0.00000000 0.03288047
v 0.03065958 0.00400000 0.03496055
v 0.03065958 0.00000000 0.03496055
v 0.02830741 0.00400000 0.03689093
v 0.02830741 0.00000000 0.03689093
v 0.02583402 0.00400000 0.03866334
v 0.02583402 0.00000000 0.03866334
v 0.02325000 0.00400000 0.04027018
v 0.02325000 0.00000000 0.04027018
v 0.02056642 0.00400000 0.04170458
v 0.02056642 0.00000000 0.04170458
v 0.01779478 0.00400000 0.04296040
v 0.01779478 0.00000000 0.04296040
v 0.01494694 0.00400000 0.04403225
v 0.01494694 0.00000000 0.04403225
v 0.01203509 0.00400000 0.04491555
v 0.01203509 0.00000000 0.04491555
v 0.00907170 0.00400000 0.04560652
v 0.00907170 0.00000000 0.04560652
v 0.00606947 0.00400000 0.04610219
v 0.00606947 0.00000000 0.04610219
v 0.00304125 0.00400000 0.04640044
v 0.00304125 0.00000000 0.04640044
v 0.00000000 0.00400000 0.04650000
v 0.00000000 0.00000000 0.04650000
v -0.00304125 0.00400000 0.04640044
v -0.00304125 0.00000000 0.04640044
v -0.00606947 0.00400000 0.04610219
v -0.00606947 0.00000000 0.04610219
v -0.00907170 0.00400000 0.04560652
v -0.00907170 0.00000000 0.04560652
v -0.01203509 0.00400000 0.04491555
v -0.01203509 0.00000000 0.04491555
v -0.01494694 0.00400000 0.04403225
v -0.01494694 0.00000000 0.04403225
v -0.01779478 0.00400000 0.04296040
v -0.01779478 0.00000000 0.04296040
v -0.02056642 0.00400000 0.04170458
v -0.02056642 0.00000000 0.04170458
v -0.02325000 0.00400000 0.04027018
v -0.02325000 0.00000000 0.04027018
v -0.02583402 0.00400000 0.03866334
v -0.02583402 0.00000000 0.03866334
v -0.02830741 0.00400000 0.03689093
v -0.02830741 0.00000000 0.03689093
v -0.03065958 0.00400000 0.03496055
v -0.03065958 0.00000000 0.03496055
v -0.03288047 0.00400000 0.03288047
v -0.03288047 0.00000000 0.03288047
v -0.03496055 0.00400000 0.03065958
v -0.03496055 0.00000000 0.03065958
v -0.03689093 0.00400000 0.02830741
v -0.03689093 0.00000000 0.02830741
v -0.03866334 0.00400000 0.02583402
v -0.03866334 0.00000000 0.02583402
v -0.04027018 0.00400000 0.02325000
v -0.04027018 0.00000000 0.02325000
v -0.04170458 0.00400000 0.02056642
v -0.04170458 0.00000000 0.02056642
v -0.04296040 0.00400000 0.01779478
v -0.04296040 0.00000000 0.01779478
v -0.04403225 0.00400000 0.01494694
v -0.04403225 0.00000000 0.01494694
v -0.04491555 0.00400000 0.01203509
v -0.04491555 0.00000000 0.01203509
v -0.04560652 0.00400000 0.00907170
v -0.04560652 0.00000000 0.00907170
v -0.04610219 0.00400000 0.00606947
v -0.04610219 0.00000000 0.00606947
v -0.04640044 0.00400000 0.00304125
v -0.04640044 0.00000000 0.00304125
v -0.04650000 0.00400000 0.00000000
v -0.04650000 0.00000000 0.00000000
v -0.04640044 0.00400000 -0.00304125
v -0.04640044 0.00000000 -0.00304125
v -0.04610219 0.00400000 -0.00606947
v -0.04610219 -0.00000000 -0.00606947
v -0.04560652 0.00400000 -0.00907170
v -0.04560652 -0.00000000 -0.00907170
v -0.04491555 0.00400000 -0.01203509
v -0.04491555 -0.00000000 -0.01203509
v -0.04403225 0.00400000 -0.01494694
v -0.04403225 -0.00000000 -0.01494694
v -0.04296040 0.00400000 -0.01779478
v -0.04296040 -0.00000000 -0.01779478
v -0.04170458 0.00400000 -0.02056642
v -0.04170458 -0.00000000 -0.02056642
v -0.04027018 0.00400000 -0.02325000
v -0.04027018 -0.00000000 -0.02325000
v -0.03866334 0.00400000 -0.02583402
v -0.03866334 -0.00000000 -0.02583402
v -0.03689093 0.00400000 -0.02830741
v -0.03689093 -0.00000000 -0.02830741
v -0.03496055 0.00400000 -0.03065958
v -0.03496055 -0.00000000 -0.03065958
v -0.03288047 0.00400000 -0.03288047
v -0.03288047 -0.00000000 -0.03288047
v -0.03065958 0.00400000 -0.03496055
v -0.03065958 -0.00000000 -0.03496055
v -0.02830741 0.00400000 -0.03689093
v -0.02830741 -0.00000000 -0.03689093
v -0.02583402 0.00400000 -0.03866334
v -0.02583402 -0.00000000 -0.03866334
v -0.02325000 0.00400000 -0.04027018
v -0.02325000 -0.00000000 -0.04027018
v -0.02056642 0.00400000 -0.04170458
v -0.02056642 -0.00000000 -0.04170458
v -0.01779478 0.00400000 -0.04296040
v -0.01779478 -0.00000000 -0.04296040
v -0.01494694 0.00400000 -0.04403225
v -0.01494694 -0.00000000 -0.04403225
v -0.01203509 0.00400000 -0.04491555
v -0.01203509 -0.00000000 -0.04491555
v -0.00907170 0.00400000 -0.04560652
v -0.00907170 -0.00000000 -0.04560652
v -0.00606947 0.00400000 -0.04610219
v -0.00606947 -0.00000000 -0.04610219
v -0.00304125 0.00400000 -0.04640044
v -0.00304125 -0.00000000 -0.04640044
v -0.00000000 0.00400000 -0.04650000
v -0.00000000 -0.00000000 -0.04650000
v 0.00304125 0.00400000 -0.04640044
v 0.00304125 -0.00000000 -0.04640044
v 0.00606947 0.00400000 -0.04610219
v 0.00606947 -0.00000000 -0.04610219
v 0.00907170 0.00400000 -0.04560652
v 0.00907170 -0.00000000 -0.04560652
v 0.01203509 0.00400000 -0.04491555
v 0.01203509 -0.00000000 -0.04491555
v 0.01494694 0.00400000 -0.04403225
v 0.01494694 -0.00000000 -0.04403225
v 0.01779478 0.00400000 -0.04296040
v 0.01779478 -0.00000000 -0.04296040
v 0.02056642 0.00400000 -0.04170458
v 0.02056642 -0.00000000 -0.04170458
v 0.02325000 0.00400000 -0.04027018
v 0.02325000 -0.00000000 -0.04027018
v 0.02583402 0.00400000 -0.03866334
v 0.02583402 -0.00000000 -0.03866334
v 0.02830741 0.00400000 -0.03689093
v 0.02830741 -0.00000000 -0.03689093
v 0.03065958 0.00400000 -0.03496055
v 0.03065958 -0.00000000 -0.03496055
v 0.03288047 0.00400000 -0.03288047
v 0.03288047 -0.00000000 -0.03288047
v 0.03496055 0.00400000 -0.03065958
v 0.03496055 -0.00000000 -0.03065958
v 0.03689093 0.00400000 -0.02830741
v 0.03689093 -0.00000000 -0.02830741
v 0.03866334 0.00400000 -0.02583402
v 0.03866334 -0.00000000 -0.02583402
v 0.04027018 0.00400000 -0.02325000
v 0.04027018 -0.00000000 -0.02325000
v 0.04170458 0.00400000 -0.02056642
v 0.04170458 -0.00000000 -0.02056642
v 0.04296040 0.00400000 -0.01779478
v 0.04296040 -0.00000000 -0.01779478
v 0.04403225 0.00400000 -0.01494694
v 0.04403225 -0.00000000 -0.01494694
v 0.04491555 0.00400000 -0.01203509
v 0.04491555 -0.00000000 -0.01203509
v 0.04560652 0.00400000 -0.00907170
v 0.04560652 -0.00000000 -0.00907170
v 0.04610219 0.00400000 -0.00606947
v 0.04610219 -0.00000000 -0.00606947
v 0.04640044 0.00400000 -0.00304125
v 0.04640044 0.00000000 -0.00304125
vn -0.00000000 1.00000000 -0.00000000
vn 0.71432310 0.69981606 0.00000000
vn 0.71432310 -0.69981606 0.00000000
vn 0.00000000 -1.00000000 0.00000000
vn 0.71279368 0.69981606 0.04671897
vn 0.71279368 -0.69981606 0.04671897
vn 0.70821196 0.69981606 0.09323787
vn 0.70821196 -0.69981606 0.09323787
vn 0.70059758 0.69981606 0.13935752
vn 0.70059758 -0.69981606 0.13935752
vn 0.68998313 0.69981606 0.18488042
vn 0.68998313 -0.69981606 0.18488042
vn 0.67641406 0.69981606 0.22961163
vn 0.67641406 -0.69981606 0.22961163
vn 0.65994849 0.69981606 0.27335961
vn 0.65994849 -0.69981606 0.27335961
vn 0.64065691 0.69981606 0.31593703
vn 0.64065691 -0.69981606 0.31593703
vn 0.61862195 0.69981606 0.35716155
vn 0.61862195 -0.69981606 0.35716155
vn 0.59393795 0.69981606 0.39685665
vn 0.59393795 -0.69981606 0.39685665
vn 0.56671062 0.69981606 0.43485235
vn 0.56671062 -0.69981606 0.43485235
vn 0.53705654 0.69981606 0.47098594
vn 0.53705654 -0.69981606 0.47098594
vn 0.50510271 0.69981606 0.50510271
vn 0.50510271 -0.69981606 0.50510271
vn 0.47098594 0.69981606 0.53705654
vn 0.47098594 -0.69981606 0.53705654
vn 0.43485235 0.69981606 0.56671062
vn 0.43485235 -0.69981606 0.56671062
vn 0.39685665 0.69981606 0.59393795
vn 0.39685665 -0.69981606 0.59393795
vn 0.35716155 0.69981606 0.61862195
vn 0.35716155 -0.69981606 0.61862195
vn 0.31593703 0.69981606 0.64065691
vn 0.31593703 -0.69981606 0.64065691
vn 0.27335961 0.69981606 0.65994849
vn 0.27335961 -0.69981606 0.65994849
vn 0.22961163 0.69981606 0.67641406
vn 0.22961163 -0.69981606 0.67641406
vn 0.18488042 0.69981606 0.68998313
vn 0.18488042 -0.69981606 0.68998313
vn 0.13935752 0.69981606 0.70059758
vn 0.13935752 -0.69981606 0.70059758
vn 0.09323787 0.69981606 0.70821196
vn 0.09323787 -0.69981606 0.70821196
vn 0.04671897 0.69981606 0.71279368
vn 0.04671897 -0.69981606 0.71279368
vn -0.00000000 0.69981606 0.71432310
vn -0.00000000 -0.69981606 0.71432310
vn -0.04671897 0.69981606 0.71279368
vn -0.04671897 -0.69981606 0.71279368
vn -0.09323787 0.69981606 0.70821196
vn -0.09323787 -0.69981606 0.70821196
vn -0.13935752 0.69981606 0.70059758
vn -0.13935752 -0.69981606 0.70059758
vn -0.18488042 0.69981606 0.68998313
vn -0.18488042 -0.69981606 0.68998313
vn -0.22961163 0.69981606 0.67641406
vn -0.22961163 -0.69981606 0.67641406
vn -0.27335961 0.69981606 0.65994849
vn -0.27335961 -0.69981606 0.65994849
vn -0.31593703 0.69981606 0.64065691
vn -0.31593703 -0.69981606 0.64065691
vn -0.35716155 0.69981606 0.61862195
vn -0.35716155 -0.69981606 0.61862195
vn -0.39685665 0.69981606 0.59393795
vn -0.39685665 -0.69981606 0.59393795
vn -0.43485235 0.69981606 0.56671062
vn -0.43485235 -0.69981606 0.56671062
vn -0.47098594 0.69981606 0.53705654
vn -0.47098594 -0.69981606 0.53705654
vn -0.50510271 0.69981606 0.50510271
vn -0.50510271 -0.69981606 0.50510271
vn -0.53705654 0.69981606 0.47098594
vn -0.53705654 -0.69981606 0.47098594
vn -0.56671062 0.69981606 0.43485235
vn -0.56671062 -0.69981606 0.43485235
vn -0.59393795 0.69981606 0.39685665
vn -0.59393795 -0.69981606 0.39685665
vn -0.61862195 0.69981606 0.35716155
vn -0.61862195 -0.69981606 0.35716155
vn -0.64065691 0.69981606 0.31593703
vn -0.64065691 -0.69981606 0.31593703
vn -0.65994849 0.69981606 0.27335961
vn -0.65994849 -0.69981606 0.27335961
vn -0.67641406 0.69981606 0.22961163
vn -0.67641406 -0.69981606 0.22961163
vn -0.68998313 0.69981606 0.18488042
vn -0.68998313 -0.69981606 0.18488042
vn -0.70059758 0.69981606 0.13935752
vn -0.70059758 -0.69981606 0.13935752
vn -0.70821196 0.69981606 0.09323787
vn -0.70821196 -0.69981606 0.09323787
vn -0.71279368 0.69981606 0.04671897
vn -0.71279368 -0.69981606 0.04671897
vn -0.71432310 0.69981606 -0.00000000
vn -0.71432310 -0.69981606 -0.00000000
vn -0.71279368 0.69981606 -0.04671897
vn -0.71279368 -0.69981606 -0.04671897
vn -0.70821196 0.69981606 -0.09323787
vn -0.70821196 -0.69981606 -0.09323787
vn -0.70059758 0.69981606 -0.13935752
vn -0.70059758 -0.69981606 -0.13935752
vn -0.68998313 0.69981606 -0.18488042
vn -0.68998313 -0.69981606 -0.18488042
vn -0.67641406 0.69981606 -0.22961163
vn -0.67641406 -0.69981606 -0.22961163
vn -0.65994849 0.69981606 -0.27335961
vn -0.65994849 -0.69981606 -0.27335961
vn -0.64065691 0.69981606 -0.31593703
vn -0.64065691 -0.69981606 -0.31593703
vn -0.61862195 0.69981606 -0.35716155
vn -0.61862195 -0.69981606 -0.35716155
vn -0.59393795 0.69981606 -0.39685665
vn -0.59393795 -0.69981606 -0.39685665
vn -0.56671062 0.69981606 -0.43485235
vn -0.56671062 -0.69981606 -0.43485235
vn -0.53705654 0.69981606 -0.47098594
vn -0.53705654 -0.69981606 -0.47098594
vn -0.50510271 0.69981606 -0.50510271
vn -0.50510271 -0.69981606 -0.50510271
vn -0.47098594 0.69981606 -0.53705654
vn -0.47098594 -0.69981606 -0.53705654
vn -0.43485235 0.69981606 -0.56671062
vn -0.43485235 -0.69981606 -0.56671062
vn -0.39685665 0.69981606 -0.59393795
vn -0.39685665 -0.69981606 -0.59393795
vn -0.35716155 0.69981606 -0.61862195
vn -0.35716155 -0.69981606 -0.61862195
vn -0.31593703 0.69981606 -0.64065691
vn -0.31593703 -0.69981606 -0.64065691
vn -0.27335961 0.69981606 -0.65994849
vn -0.27335961 -0.69981606 -0.65994849
vn -0.22961163 0.69981606 -0.67641406
vn -0.22961163 -0.69981606 -0.67641406
vn -0.18488042 0.69981606 -0.68998313
vn -0.18488042 -0.69981606 -0.68998313
vn -0.13935752 0.69981606 -0.70059758
vn -0.13935752 -0.69981606 -0.70059758
vn -0.09323787 0.69981606 -0.70821196
vn -0.09323787 -0.69981606 -0.70821196
vn -0.04671897 0.69981606 -0.71279368
vn -0.04671897 -0.69981606 -0.71279368
vn -0.00000000 0.69981606 -0.71432310
vn -0.00000000 -0.69981606 -0.71432310
vn 0.04671897 0.69981606 -0.71279368
vn 0.04671897 -0.69981606 -0.71279368
vn 0.09323787 0.69981606 -0.70821196
vn 0.09323787 -0.69981606 -0.70821196
vn 0.13935752 0.69981606 -0.70059758
vn 0.13935752 -0.69981606 -0.70059758
vn 0.18488042 0.69981606 -0.68998313
vn 0.18488042 -0.69981606 -0.68998313
vn 0.22961163 0.69981606 -0.67641406
vn 0.22961163 -0.69981606 -0.67641406
vn 0.27335961 0.69981606 -0.65994849
vn 0.27335961 -0.69981606 -0.65994849
vn 0.31593703 0.69981606 -0.64065691
vn 0.31593703 -0.69981606 -0.64065691
vn 0.35716155 0.69981606 -0.61862195
vn 0.35716155 -0.69981606 -0.61862195
vn 0.39685665 0.69981606 -0.59393795
vn 0.39685665 -0.69981606 -0.59393795
vn 0.43485235 0.69981606 -0.56671062
vn 0.43485235 -0.69981606 -0.56671062
vn 0.47098594 0.69981606 -0.53705654
vn 0.47098594 -0.69981606 -0.53705654
vn 0.50510271 0.69981606 -0.50510271
vn 0.50510271 -0.69981606 -0.50510271
vn 0.53705654 0.69981606 -0.47098594
vn 0.53705654 -0.69981606 -0.47098594
vn 0.56671062 0.69981606 -0.43485235
vn 0.56671062 -0.69981606 -0.43485235
vn 0.59393795 0.69981606 -0.39685665
vn 0.59393795 -0.69981606 -0.39685665
vn 0.61862195 0.69981606 -0.35716155
vn 0.61862195 -0.69981606 -0.35716155
vn 0.64065691 0.69981606 -0.31593703
vn 0.64065691 -0.69981606 -0.31593703
vn 0.65994849 0.69981606 -0.27335961
vn 0.65994849 -0.69981606 -0.27335961
vn 0.67641406 0.69981606 -0.22961163
vn 0.67641406 -0.69981606 -0.22961163
vn 0.68998313 0.69981606 -0.18488042
vn 0.68998313 -0.69981606 -0.18488042
vn 0.70059758 0.69981606 -0.13935752
vn 0.70059758 -0.69981606 -0.13935752
vn 0.70821196 0.69981606 -0.09323787
vn 0.70821196 -0.69981606 -0.09323787
vn 0.71279368 0.69981606 -0.04671897
vn 0.71279368 -0.69981606 -0.04671897
f 2//2 1//1 5//5
f 2//2 5//5 3//3
f 3//3 5//5 6//6
f 3//3 6//6 4//4
f 5//5 1//1 7//7
f 5//5 7//7 6//6
f 6//6 7//7 8//8
f 6//6 8//8 4//4
f 7//7 1//1 9//9
f 7//7 9//9 8//8
f 8//8 9//9 10//10
f 8//8 10//10 4//4
f 9//9 1//1 11//11
f 9//9 11//11 10//10
f 10//10 11//11 12//12
f 10//10 12//12 4//4
f 11//11 1//1 13//13
f 11//11 13//13 12//12
f 12//12 13//13 14//14
f 12//12 14//14 4//4
f 13//13 1//1 15//15
f 13//13 15//15 14//14
f 14//14 15//15 16//16
f 14//14 16//16 4//4
f 15//15 1//1 17//17
f 15//15 17//17 16//16
f 16//16 17//17 18//18
f 16//16 18//18 4//4
f 17//17 1//1 19//19
f 17//17 19//19 18//18
f 18//18 19//19 20//20
f 18//18 20//20 4//4
f 19//19 1//1 21//21
f 19//19 21//21 20//20
f 20//20 21//21 22//22
f 20//20 22//22 4//4
f 21//21 1//1 23//23
f 21//21 23//23 22//22
f 22//22 23//23 24//24
f 22//22 24//24 4//4
f 23//23 1//1 25//25
f 23//23 25//25 24//24
f 24//24 25//25 26//26
f 24//24 26//26 4//4
f 25//25 1//1 27//27
f 25//25 27//27 26//26
f 26//26 27//27 28//28
f 26//26 28//28 4//4
f 27//27 1//1 29//29
f 27//27 29//29 28//28
f 28//28 29//29 30//30
f 28//28 30//30 4//4
f 29//29 1//1 31//31
f 29//29 31//31 30//30
f 30//30 31//31 32//32
f 30//30 32//32 4//4
f 31//31 1//1 33//33
f 31//31 33//33 32//32
f 32//32 33//33 34//34
f 32//32 34//34 4//4
f 33//33 1//1 35//35
f 33//33 35//35 34//34
f 34//34 35//35 36//36
f 34//34 36//36 4//4
f 35//35 1//1 37//37
f 35//35 37//37 36//36
f 36//36 37//37 38//38
f 36//36 38//38 4//4
f 37//37 1//1 39//39
f 37//37 39//39 38//38
f 38//38 39//39 40//40
f 38//38 40//40 4//4
f 39//39 1//1 41//41
f 39//39 41//41 40//40
f 40//40 41//41 42//42
f 40//40 42//42 4//4
f 41//41 1//1 43//43
f 41//41 43//43 42//42
f 42//42 43//43 44//44
f 42//42 44//44 4//4
f 43//43 1//1 45//45
f 43//43 45//45 44//44
f 44//44 45//45 46//46
f 44//44 46//46 4//4
f 45//45 1//1 47//47
f 45//45 47//47 46//46
f 46//46 47//47 48//48
f 46//46 48//48 4//4
f 47//47 1//1 49//49
f 47//47 49//49 48//48
f 48//48 49//49 50//50
f 48//48 50//50 4//4
f 49//49 1//1 51//51
f 49//49 51//51 50//50
f 50//50 51//51 52//52
f 50//50 52//52 4//4
f 51//51 1//1 53//53
f 51//51 53//53 52//52
f 52//52 53//53 54//54
f 52//52 54//54 4//4
f 53//53 1//1 55//55
f 53//53 55//55 54//54
f 54//54 55//55 56//56
f 54//54 56//56 4//4
f 55//55 1//1 57//57
f 55//55 57//57 56//56
f 56//56 57//57 58//58
f 56//56 58//58 4//4
f 57//57 1//1 59//59
f 57//57 59//59 58//58
f 58//58 59//59 60//60
f 58//58 60//60 4//4
f 59//59 1//1 61//61
f 59//59 61//61 60//60
f 60//60 61//61 62//62
f 60//60 62//62 4//4
f 61//61 1//1 63//63
f 61//61 63//63 62//62
f 62//62 63//63 64//64
f 62//62 64//64 4//4
f 63//63 1//1 65//65
f 63//63 65//65 64//64
f 64//64 65//65 66//66
f 64//64 66//66 4//4
f 65//65 1//1 67//67
f 65//65 67//67 66//66
f 66//66 67//67 68//68
f 66//66 68//68 4//4
f 67//67 1//1 69//69
f 67//67 69//69 68//68
f 68//68 69//69 70//70
f 68//68 70//70 4//4
f 69//69 1//1 71//71
f 69//69 71//71 70//70
f 70//70 71//71 72//72
f 70//70 72//72 4//4
f 71//71 1//1 73//73
f 71//71 73//73 72//72
f 72//72 73//73 74//74
f 72//72 74//74 4//4
f 73//73 1//1 75//75
f 73//73 75//75 74//74
f 74//74 75//75 76//76
f 74//74 76//76 4//4
f 75//75 1//1 77//77
f 75//75 77//77 76//76
f 76//76 77//77 78//78
f 76//76 78//78 4//4
f 77//77 1//1 79//79
f 77//77 79//79 78//78
f 78//78 79//79 80//80
f 78//78 80//80 4//4
f 79//79 1//1 81//81
f 79//79 81//81 80//80
f 80//80 81//81 82//82
f 80//80 82//82 4//4
f 81//81 1//1 83//83
f 81//81 83//83 82//82
f 82//82 83//83 84//84
f 82//82 84//84 4//4
f 83//83 1//1 85//85
f 83//83 85//85 84//84
f 84//84 85//85 86//86
f 84//84 86//86 4//4
f 85//85 1//1 87//87
f 85//85 87//87 86//86
f 86//86 87//87 88//88
f 86//86 88//88 4//4
f 87//87 1//1 89//89
f 87//87 89//89 88//88
f 88//88 89//89 90//90
f 88//88 90//90 4//4
f 89//89 1//1 91//91
f 89//89 91//91 90//90
f 90//90 91//91 92//92
f 90//90 92//92 4//4
f 91//91 1//1 93//93
f 91//91 93//93 92//92
f 92//92 93//93 94//94
f 92//92 94//94 4//4
f 93//93 1//1 95//95
f 93//93 95//95 94//94
f 94//94 95//95 96//96
f 94//94 96//96 4//4
f 95//95 1//1 97//97
f 95//95 97//97 96//96
f 96//96 97//97 98//98
f 96//96 98//98 4//4
f 97//97 1//1 99//99
f 97//97 99//99 98//98
f 98//98 99//99 100//100
f 98//98 100//100 4//4
f 99//99 1//1 101//101
f 99//99 101//101 100//100
f 100//100 101//101 102//102
f 100//100 102//102 4//4
f 101//101 1//1 103//103
f 101//101 103//103 102//102
f 102//102 103//103 104//104
f 102//102 104//104 4//4
f 103//103 1//1 105//105
f 103//103 105//105 104//104
f 104//104 105//105 106//106
f 104//104 106//106 4//4
f 105//105 1//1 107//107
f 105//105 107//107 106//106
f 106//106 107//107 108//108
f 106//106 108//108 4//4
f 107//107 1//1 109//109
f 107//107 109//109 108//108
f 108//108 109//109 110//110
f 108//108 110//110 4//4
f 109//109 1//1 111//111
f 109//109 111//111 110//110
f 110//110 111//111 112//112
f 110//110 112//112 4//4
f 111//111 1//1 113//113
f 111//111 113//113 112//112
f 112//112 113//113 114//114
f 112//112 114//114 4//4
f 113//113 1//1 115//115
f 113//113 115//115 114//114
f 114//114 115//115 116//116
f 114//114 116//116 4//4
f 115//115 1//1 117//117
f 115//115 117//117 116//116
f 116//116 117//117 118//118
f 116//116 118//118 4//4
f 117//117 1//1 119//119
f 117//117 119//119 118//118
f 118//118 119//119 120//120
f 118//118 120//120 4//4
f 119//119 1//1 121//121
f 119//119 121//121 120//120
f 120//120 121//121 122//122
f 120//120 122//122 4//4
f 121//121 1//1 123//123
f 121//121 123//123 122//122
f 122//122 123//123 124//124
f 122//122 124//124 4//4
f 123//123 1//1 125//125
f 123//123 125//125 124//124
f 124//124 125//125 126//126
f 124//124 126//126 4//4
f 125//125 1//1 127//127
f 125//125 127//127 126//126
f 126//126 127//127 128//128
f 126//126 128//128 4//4
f 127//127 1//1 129//129
f 127//127 129//129 128//128
f 128//128 129//129 130//130
f 128//128 130//130 4//4
f 129//129 1//1 131//131
f 129//129 131//131 130//130
f 130//130 131//131 132//132
f 130//130 132//132 4//4
f 131//131 1//1 133//133
f 131//131 133//133 132//132
f 132//132 133//133 134//134
f 132//132 134//134 4//4
f 133//133 1//1 135//135
f 133//133 135//135 134//134
f 134//134 135//135 136//136
f 134//134 136//136 4//4
f 135//135 1//1 137//137
f 135//135 137//137 136//136
f 136//136 137//137 138//138
f 136//136 138//138 4//4
f 137//137 1//1 139//139
f 137//137 139//139 138//138
f 138//138 139//139 140//140
f 138//138 140//140 4//4
f 139//139 1//1 141//141
f 139//139 141//141 140//140
f 140//140 141//141 142//142
f 140//140 142//142 4//4
f 141//141 1//1 143//143
f 141//141 143//143 142//142
f 142//142 143//143 144//144
f 142//142 144//144 4//4
f 143//143 1//1 145//145
f 143//143 145//145 144//144
f 144//144 145//145 146//146
f 144//144 146//146 4//4
f 145//145 1//1 147//147
f 145//145 147//147 146//146
f 146//146 147//147 148//148
f 146//146 148//148 4//4
f 147//147 1//1 149//149
f 147//147 149//149 148//148
f 148//148 149//149 150//150
f 148//148 150//150 4//4
f 149//149 1//1 151//151
f 149//149 151//151 150//150
f 150//150 151//151 152//152
f 150//150 152//152 4//4
f 151//151 1//1 153//153
f 151//151 153//153 152//152
f 152//152 153//153 154//154
f 152//152 154//154 4//4
f 153//153 1//1 155//155
f 153//153 155//155 154//154
f 154//154 155//155 156//156
f 154//154 156//156 4//4
f 155//155 1//1 157//157
f 155//155 157//157 156//156
f 156//156 157//157 158//158
f 156//156 158//158 4//4
f 157//157 1//1 159//159
f 157//157 159//159 158//158
f 158//158 159//159 160//160
f 158//158 160//160 4//4
f 159//159 1//1 161//161
f 159//159 161//161 160//160
f 160//160 161//161 162//162
f 160//160 162//162 4//4
f 161//161 1//1 163//163
f 161//161 163//163 162//162
f 162//162 163//163 164//164
f 162//162 164//164 4//4
f 163//163 1//1 165//165
f 163//163 165//165 164//164
f 164//164 165//165 166//166
f 164//164 166//166 4//4
f 165//165 1//1 167//167
f 165//165 167//167 166//166
f 166//166 167//167 168//168
f 166//166 168//168 4//4
f 167//167 1//1 169//169
f 167//167 169//169 168//168
f 168//168 169//169 170//170
f 168//168 170//170 4//4
f 169//169 1//1 171//171
f 169//169 171//171 170//170
f 170//170 171//171 172//172
f 170//170 172//172 4//4
f 171//171 1//1 173//173
f 171//171 173//173 172//172
f 172//172 173//173 174//174
f 172//172 174//174 4//4
f 173//173 1//1 175//175
f 173//173 175//175 174//174
f 174//174 175//175 176//176
f 174//174 176//176 4//4
f 175//175 1//1 177//177
f 175//175 177//177 176//176
f 176//176 177//177 178//178
f 176//176 178//178 4//4
f 177//177 1//1 179//179
f 177//177 179//179 178//178
f 178//178 179//179 180//180
f 178//178 180//180 4//4
f 179//179 1//1 181//181
f 179//179 181//181 180//180
f 180//180 181//181 182//182
f 180//180 182//182 4//4
f 181//181 1//1 183//183
f 181//181 183//183 182//182
f 182//182 183//183 184//184
f 182//182 184//184 4//4
f 183//183 1//1 185//185
f 183//183 185//185 184//184
f 184//184 185//185 186//186
f 184//184 186//186 4//4
f 185//185 1//1 187//187
f 185//185 187//187 186//186
f 186//186 187//187 188//188
f 186//186 188//188 4//4
f 187//187 1//1 189//189
f 187//187 189//189 188//188
f 188//188 189//189 190//190
f 188//188 190//190 4//4
f 189//189 1//1 191//191
f 189//189 191//191 190//190
f 190//190 191//191 192//192
f 190//190 192//192 4//4
f 191//191 1//1 193//193
f 191//191 193//193 192//192
f 192//192 193//193 194//194
f 192//192 194//194 4//4
f 193//193 1//1 2//2
f 193//193 2//2 194//194
f 194//194 2//2 3//3
f 194//194 3//3 4//4

