# https://github.com/mikedh/trimesh
mtllib material.mtl
usemtl Material.002
v -0.07303834 0.01827036 0.08072849
v -0.05572848 0.01827036 0.09803834
v -0.07243655 0.01827036 0.08529951
v -0.07072183 0.01827036 0.08943921
v -0.06799407 0.01827036 0.09299409
v -0.06443923 0.01827036 0.09572181
v -0.06029950 0.01827036 0.09743655
v -0.05572848 0.01827036 -0.09803834
v -0.07303834 0.01827036 -0.08072849
v -0.06029950 0.01827036 -0.09743655
v -0.06443924 0.01827036 -0.09572181
v -0.06799407 0.01827036 -0.09299409
v -0.07072183 0.01827036 -0.08943921
v -0.07243655 0.01827036 -0.08529951
v 0.05572848 0.01827036 0.09803834
v 0.07303834 0.01827036 0.08072849
v 0.06029950 0.01827036 0.09743655
v 0.06443924 0.01827036 0.09572181
v 0.06799407 0.01827036 0.09299409
v 0.07072183 0.01827036 0.08943921
v 0.07243655 0.01827036 0.08529951
v 0.07303834 0.01827036 -0.08072849
v 0.05572848 0.01827036 -0.09803834
v 0.07243655 0.01827036 -0.08529951
v 0.07072183 0.01827036 -0.08943921
v 0.06799407 0.01827036 -0.09299409
v 0.06443923 0.01827036 -0.09572181
v 0.06029950 0.01827036 -0.09743655
vn 0.00000000 1.00000000 0.00000000
vn 0.00000000 1.00000000 0.00000000
vn 0.00000000 1.00000000 0.00000000
vn 0.00000000 1.00000000 0.00000000
vn 0.00000000 1.00000000 0.00000000
vn 0.00000000 1.00000000 0.00000000
vn 0.00000000 1.00000000 0.00000000
vn 0.00000000 1.00000000 0.00000000
vn 0.00000000 1.00000000 0.00000000
vn 0.00000000 1.00000000 0.00000000
vn 0.00000000 1.00000000 0.00000000
vn 0.00000000 1.00000000 0.00000000
vn 0.00000000 1.00000000 0.00000000
vn 0.00000000 1.00000000 0.00000000
vn 0.00000000 1.00000000 0.00000000
vn 0.00000000 1.00000000 0.00000000
vn 0.00000000 1.00000000 0.00000000
vn 0.00000000 1.00000000 0.00000000
vn 0.00000000 1.00000000 0.00000000
vn 0.00000000 1.00000000 0.00000000
vn 0.00000000 1.00000000 0.00000000
vn 0.00000000 1.00000000 0.00000000
vn 0.00000000 1.00000000 0.00000000
vn 0.00000000 1.00000000 0.00000000
vn 0.00000000 1.00000000 0.00000000
vn 0.00000000 1.00000000 0.00000000
vn 0.00000000 1.00000000 0.00000000
vn 0.00000000 1.00000000 0.00000000
vt 0.22681129 0.18936020
vt 0.29199904 0.12547529
vt 0.22907764 0.17249012
vt 0.23553514 0.15721184
vt 0.24580765 0.14409196
vt 0.25919497 0.13402480
vt 0.27478489 0.12769628
vt 0.29199904 0.84912932
vt 0.22681129 0.78524435
vt 0.27478489 0.84690833
vt 0.25919491 0.84057981
vt 0.24580765 0.83051264
vt 0.23553514 0.81739277
vt 0.22907764 0.80211449
vt 0.71173835 0.12547529
vt 0.77692592 0.18936020
vt 0.72895241 0.12769628
vt 0.74454236 0.13402480
vt 0.75792962 0.14409196
vt 0.76820219 0.15721184
vt 0.77465981 0.17249012
vt 0.77692592 0.78524435
vt 0.71173835 0.84912932
vt 0.77465981 0.80211449
vt 0.76820219 0.81739277
vt 0.75792962 0.83051264
vt 0.74454236 0.84057981
vt 0.72895241 0.84690833
f 16/16/16 22/22/22 24/24/24
f 24/24/24 25/25/25 26/26/26
f 26/26/26 27/27/27 28/28/28
f 28/28/28 23/23/23 8/8/8
f 8/8/8 10/10/10 11/11/11
f 11/11/11 12/12/12 13/13/13
f 13/13/13 14/14/14 9/9/9
f 9/9/9 1/1/1 3/3/3
f 3/3/3 4/4/4 5/5/5
f 5/5/5 6/6/6 7/7/7
f 7/7/7 2/2/2 15/15/15
f 15/15/15 17/17/17 18/18/18
f 18/18/18 19/19/19 20/20/20
f 20/20/20 21/21/21 16/16/16
f 16/16/16 24/24/24 26/26/26
f 26/26/26 28/28/28 8/8/8
f 8/8/8 11/11/11 13/13/13
f 13/13/13 9/9/9 3/3/3
f 3/3/3 5/5/5 7/7/7
f 7/7/7 15/15/15 18/18/18
f 18/18/18 20/20/20 16/16/16
f 16/16/16 26/26/26 8/8/8
f 8/8/8 13/13/13 3/3/3
f 3/3/3 7/7/7 18/18/18
f 18/18/18 16/16/16 8/8/8
f 8/8/8 3/3/3 18/18/18

