# https://github.com/mikedh/trimesh
mtllib material.mtl
usemtl Material.004
v -0.05572848 0.01327086 0.09803834
v -0.05585703 0.01523252 0.10000000
v -0.05579276 0.01353367 0.09901917
v -0.05583981 0.01425169 0.09973719
v -0.05583981 0.01425169 0.09973719
v -0.07303834 0.01327086 0.08072849
v -0.07500000 0.01523252 0.08085703
v -0.07401916 0.01353367 0.08079275
v -0.07473719 0.01425169 0.08083981
v -0.07473719 0.01425169 0.08083981
v -0.06029950 0.01327086 0.09743655
v -0.06081160 0.01523252 0.09934772
v -0.06055555 0.01353367 0.09839213
v -0.06074299 0.01425169 0.09909166
v -0.06074299 0.01425169 0.09909166
v -0.06443924 0.01327086 0.09572181
v -0.06542852 0.01523252 0.09743533
v -0.06493388 0.01353367 0.09657857
v -0.06529598 0.01425169 0.09720576
v -0.06529598 0.01425169 0.09720576
v -0.06799407 0.01327086 0.09299409
v -0.06939316 0.01523252 0.09439316
v -0.06939316 0.01523252 0.09439316
v -0.06869362 0.01353367 0.09369363
v -0.06920572 0.01425169 0.09420572
v -0.06920572 0.01425169 0.09420572
v -0.06920572 0.01425169 0.09420572
v -0.07072183 0.01327086 0.08943921
v -0.07243533 0.01523252 0.09042852
v -0.07157858 0.01353367 0.08993386
v -0.07220577 0.01425169 0.09029597
v -0.07220577 0.01425169 0.09029597
v -0.07243655 0.01327086 0.08529951
v -0.07434772 0.01523252 0.08581160
v -0.07339214 0.01353367 0.08555555
v -0.07409167 0.01425169 0.08574300
v -0.07409167 0.01425169 0.08574300
v -0.07303834 0.01827036 0.08072849
v -0.07500000 0.01630870 0.08085703
v -0.07401916 0.01800755 0.08079275
v -0.07473719 0.01728953 0.08083981
v -0.07473719 0.01728953 0.08083981
v -0.05572848 0.01827036 0.09803834
v -0.05585703 0.01630870 0.10000000
v -0.05579276 0.01800755 0.09901917
v -0.05583981 0.01728953 0.09973719
v -0.05583981 0.01728953 0.09973719
v -0.07243655 0.01827036 0.08529951
v -0.07434772 0.01630870 0.08581160
v -0.07339214 0.01800755 0.08555555
v -0.07409167 0.01728953 0.08574300
v -0.07409167 0.01728953 0.08574300
v -0.07072183 0.01827036 0.08943921
v -0.07243533 0.01630870 0.09042852
v -0.07157858 0.01800755 0.08993386
v -0.07220577 0.01728953 0.09029597
v -0.07220577 0.01728953 0.09029597
v -0.06799407 0.01827036 0.09299409
v -0.06939316 0.01630870 0.09439316
v -0.06939316 0.01630870 0.09439316
v -0.06869362 0.01800755 0.09369363
v -0.06920572 0.01728953 0.09420572
v -0.06920572 0.01728953 0.09420572
v -0.06920572 0.01728953 0.09420572
v -0.06443923 0.01827036 0.09572181
v -0.06542852 0.01630870 0.09743533
v -0.06493387 0.01800755 0.09657857
v -0.06529598 0.01728953 0.09720576
v -0.06529598 0.01728953 0.09720576
v -0.06029950 0.01827036 0.09743655
v -0.06081160 0.01630870 0.09934772
v -0.06055555 0.01800755 0.09839213
v -0.06074299 0.01728953 0.09909166
v -0.06074299 0.01728953 0.09909166
v -0.07303834 0.01327086 -0.08072849
v -0.07500000 0.01523252 -0.08085703
v -0.07401916 0.01353367 -0.08079275
v -0.07473719 0.01425169 -0.08083981
v -0.07473719 0.01425169 -0.08083981
v -0.05572848 0.01327086 -0.09803834
v -0.05585703 0.01523252 -0.10000000
v -0.05579276 0.01353367 -0.09901917
v -0.05583981 0.01425169 -0.09973719
v -0.05583981 0.01425169 -0.09973719
v -0.07243655 0.01327086 -0.08529951
v -0.07434772 0.01523252 -0.08581160
v -0.07339214 0.01353367 -0.08555555
v -0.07409167 0.01425169 -0.08574300
v -0.07409167 0.01425169 -0.08574300
v -0.07072183 0.01327086 -0.08943921
v -0.07243533 0.01523252 -0.09042852
v -0.07157858 0.01353367 -0.08993386
v -0.07220577 0.01425169 -0.09029597
v -0.07220577 0.01425169 -0.09029597
v -0.06799407 0.01327086 -0.09299409
v -0.06939316 0.01523252 -0.09439316
v -0.06939316 0.01523252 -0.09439316
v -0.06869362 0.01353367 -0.09369363
v -0.06920572 0.01425169 -0.09420572
v -0.06920572 0.01425169 -0.09420572
v -0.06920572 0.01425169 -0.09420572
v -0.06443923 0.01327086 -0.09572181
v -0.06542852 0.01523252 -0.09743533
v -0.06493387 0.01353367 -0.09657857
v -0.06529598 0.01425169 -0.09720576
v -0.06529598 0.01425169 -0.09720576
v -0.06029950 0.01327086 -0.09743655
v -0.06081160 0.01523252 -0.09934772
v -0.06055555 0.01353367 -0.09839213
v -0.06074299 0.01425169 -0.09909166
v -0.06074299 0.01425169 -0.09909166
v -0.05572848 0.01827036 -0.09803834
v -0.05585703 0.01630870 -0.10000000
v -0.05579276 0.01800755 -0.09901917
v -0.05583981 0.01728953 -0.09973719
v -0.05583981 0.01728953 -0.09973719
v -0.07303834 0.01827036 -0.08072849
v -0.07500000 0.01630870 -0.08085703
v -0.07401916 0.01800755 -0.08079275
v -0.07473719 0.01728953 -0.08083981
v -0.07473719 0.01728953 -0.08083981
v -0.06029950 0.01827036 -0.09743655
v -0.06081160 0.01630870 -0.09934772
v -0.06055555 0.01800755 -0.09839213
v -0.06074299 0.01728953 -0.09909166
v -0.06074299 0.01728953 -0.09909166
v -0.06443924 0.01827036 -0.09572181
v -0.06542852 0.01630870 -0.09743533
v -0.06493388 0.01800755 -0.09657857
v -0.06529598 0.01728953 -0.09720576
v -0.06529598 0.01728953 -0.09720576
v -0.06799407 0.01827036 -0.09299409
v -0.06939316 0.01630870 -0.09439316
v -0.06939316 0.01630870 -0.09439316
v -0.06869362 0.01800755 -0.09369363
v -0.06920572 0.01728953 -0.09420572
v -0.06920572 0.01728953 -0.09420572
v -0.06920572 0.01728953 -0.09420572
v -0.07072183 0.01827036 -0.08943921
v -0.07243533 0.01630870 -0.09042852
v -0.07157858 0.01800755 -0.08993386
v -0.07220577 0.01728953 -0.09029597
v -0.07220577 0.01728953 -0.09029597
v -0.07243655 0.01827036 -0.08529951
v -0.07434772 0.01630870 -0.08581160
v -0.07339214 0.01800755 -0.08555555
v -0.07409167 0.01728953 -0.08574300
v -0.07409167 0.01728953 -0.08574300
v 0.07303834 0.01327086 0.08072849
v 0.07500000 0.01523252 0.08085703
v 0.07401916 0.01353367 0.08079275
v 0.07473719 0.01425169 0.08083981
v 0.07473719 0.01425169 0.08083981
v 0.05572848 0.01327086 0.09803834
v 0.05585703 0.01523252 0.10000000
v 0.05579276 0.01353367 0.09901917
v 0.05583981 0.01425169 0.09973719
v 0.05583981 0.01425169 0.09973719
v 0.07243655 0.01327086 0.08529951
v 0.07434772 0.01523252 0.08581160
v 0.07339214 0.01353367 0.08555555
v 0.07409167 0.01425169 0.08574300
v 0.07409167 0.01425169 0.08574300
v 0.07072183 0.01327086 0.08943921
v 0.07243533 0.01523252 0.09042852
v 0.07157858 0.01353367 0.08993386
v 0.07220577 0.01425169 0.09029597
v 0.07220577 0.01425169 0.09029597
v 0.06799407 0.01327086 0.09299409
v 0.06939316 0.01523252 0.09439316
v 0.06939316 0.01523252 0.09439316
v 0.06869362 0.01353367 0.09369363
v 0.06920572 0.01425169 0.09420572
v 0.06920572 0.01425169 0.09420572
v 0.06920572 0.01425169 0.09420572
v 0.06443923 0.01327086 0.09572181
v 0.06542852 0.01523252 0.09743533
v 0.06493387 0.01353367 0.09657857
v 0.06529598 0.01425169 0.09720576
v 0.06529598 0.01425169 0.09720576
v 0.06029950 0.01327086 0.09743655
v 0.06081160 0.01523252 0.09934772
v 0.06055555 0.01353367 0.09839213
v 0.06074299 0.01425169 0.09909166
v 0.06074299 0.01425169 0.09909166
v 0.05572848 0.01827036 0.09803834
v 0.05585703 0.01630870 0.10000000
v 0.05579276 0.01800755 0.09901917
v 0.05583981 0.01728953 0.09973719
v 0.05583981 0.01728953 0.09973719
v 0.07303834 0.01827036 0.08072849
v 0.07500000 0.01630870 0.08085703
v 0.07401916 0.01800755 0.08079275
v 0.07473719 0.01728953 0.08083981
v 0.07473719 0.01728953 0.08083981
v 0.06029950 0.01827036 0.09743655
v 0.06081160 0.01630870 0.09934772
v 0.06055555 0.01800755 0.09839213
v 0.06074299 0.01728953 0.09909166
v 0.06074299 0.01728953 0.09909166
v 0.06443924 0.01827036 0.09572181
v 0.06542852 0.01630870 0.09743533
v 0.06493388 0.01800755 0.09657857
v 0.06529598 0.01728953 0.09720576
v 0.06529598 0.01728953 0.09720576
v 0.06799407 0.01827036 0.09299409
v 0.06939316 0.01630870 0.09439316
v 0.06939316 0.01630870 0.09439316
v 0.06869362 0.01800755 0.09369363
v 0.06920572 0.01728953 0.09420572
v 0.06920572 0.01728953 0.09420572
v 0.06920572 0.01728953 0.09420572
v 0.07072183 0.01827036 0.08943921
v 0.07243533 0.01630870 0.09042852
v 0.07157858 0.01800755 0.08993386
v 0.07220577 0.01728953 0.09029597
v 0.07220577 0.01728953 0.09029597
v 0.07243655 0.01827036 0.08529951
v 0.07434772 0.01630870 0.08581160
v 0.07339214 0.01800755 0.08555555
v 0.07409167 0.01728953 0.08574300
v 0.07409167 0.01728953 0.08574300
v 0.05572848 0.01327086 -0.09803834
v 0.05585703 0.01523252 -0.10000000
v 0.05579276 0.01353367 -0.09901917
v 0.05583981 0.01425169 -0.09973719
v 0.05583981 0.01425169 -0.09973719
v 0.07303834 0.01327086 -0.08072849
v 0.07500000 0.01523252 -0.08085703
v 0.07401916 0.01353367 -0.08079275
v 0.07473719 0.01425169 -0.08083981
v 0.07473719 0.01425169 -0.08083981
v 0.06029950 0.01327086 -0.09743655
v 0.06081160 0.01523252 -0.09934772
v 0.06055555 0.01353367 -0.09839213
v 0.06074299 0.01425169 -0.09909166
v 0.06074299 0.01425169 -0.09909166
v 0.06443924 0.01327086 -0.09572181
v 0.06542852 0.01523252 -0.09743533
v 0.06493388 0.01353367 -0.09657857
v 0.06529598 0.01425169 -0.09720576
v 0.06529598 0.01425169 -0.09720576
v 0.06799407 0.01327086 -0.09299409
v 0.06939316 0.01523252 -0.09439316
v 0.06939316 0.01523252 -0.09439316
v 0.06869362 0.01353367 -0.09369363
v 0.06920572 0.01425169 -0.09420572
v 0.06920572 0.01425169 -0.09420572
v 0.06920572 0.01425169 -0.09420572
v 0.07072183 0.01327086 -0.08943921
v 0.07243533 0.01523252 -0.09042852
v 0.07157858 0.01353367 -0.08993386
v 0.07220577 0.01425169 -0.09029597
v 0.07220577 0.01425169 -0.09029597
v 0.07243655 0.01327086 -0.08529951
v 0.07434772 0.01523252 -0.08581160
v 0.07339214 0.01353367 -0.08555555
v 0.07409167 0.01425169 -0.08574300
v 0.07409167 0.01425169 -0.08574300
v 0.07303834 0.01827036 -0.08072849
v 0.07500000 0.01630870 -0.08085703
v 0.07401916 0.01800755 -0.08079275
v 0.07473719 0.01728953 -0.08083981
v 0.07473719 0.01728953 -0.08083981
v 0.05572848 0.01827036 -0.09803834
v 0.05585703 0.01630870 -0.10000000
v 0.05579276 0.01800755 -0.09901917
v 0.05583981 0.01728953 -0.09973719
v 0.05583981 0.01728953 -0.09973719
v 0.07243655 0.01827036 -0.08529951
v 0.07434772 0.01630870 -0.08581160
v 0.07339214 0.01800755 -0.08555555
v 0.07409167 0.01728953 -0.08574300
v 0.07409167 0.01728953 -0.08574300
v 0.07072183 0.01827036 -0.08943921
v 0.07243533 0.01630870 -0.09042852
v 0.07157858 0.01800755 -0.08993386
v 0.07220577 0.01728953 -0.09029597
v 0.07220577 0.01728953 -0.09029597
v 0.06799407 0.01827036 -0.09299409
v 0.06939316 0.01630870 -0.09439316
v 0.06939316 0.01630870 -0.09439316
v 0.06869362 0.01800755 -0.09369363
v 0.06920572 0.01728953 -0.09420572
v 0.06920572 0.01728953 -0.09420572
v 0.06920572 0.01728953 -0.09420572
v 0.06443923 0.01827036 -0.09572181
v 0.06542852 0.01630870 -0.09743533
v 0.06493387 0.01800755 -0.09657857
v 0.06529598 0.01728953 -0.09720576
v 0.06529598 0.01728953 -0.09720576
v 0.06029950 0.01827036 -0.09743655
v 0.06081160 0.01630870 -0.09934772
v 0.06055555 0.01800755 -0.09839213
v 0.06074299 0.01728953 -0.09909166
v 0.06074299 0.01728953 -0.09909166
vn -0.00886805 -0.99076526 0.13529805
vn -0.06484783 -0.13009118 0.98937912
vn -0.03317980 -0.86176715 0.50621782
vn -0.04619764 -0.70786490 0.70483548
vn -0.06316662 -0.25933614 0.96371922
vn -0.13529898 -0.99076513 0.00886797
vn -0.98937919 -0.13009084 0.06484740
vn -0.50621624 -0.86176810 0.03317907
vn -0.70483155 -0.70786885 0.04619713
vn -0.96371932 -0.25933592 0.06316599
vn -0.03624573 -0.99014550 0.13527059
vn -0.25661628 -0.13019321 0.95770445
vn -0.13278271 -0.85836951 0.49555074
vn -0.18222538 -0.71013748 0.68007255
vn -0.24985463 -0.26090617 0.93247018
vn -0.07002095 -0.99014556 0.12127997
vn -0.49574402 -0.13019042 0.85865495
vn -0.25651561 -0.85836950 0.44429894
vn -0.35203057 -0.71013698 0.60973761
vn -0.48268224 -0.26090125 0.83603134
vn -0.09902385 -0.99014568 0.09902425
vn -0.78671500 -0.12909493 0.60366714
vn -0.60366676 -0.12909344 0.78671553
vn -0.36276898 -0.85836919 0.36276851
vn -0.76632163 -0.25881689 0.58801784
vn -0.58801802 -0.25881603 0.76632178
vn -0.49784888 -0.71013632 0.49784827
vn -0.12128114 -0.99014540 0.07002119
vn -0.85865444 -0.13019207 0.49574448
vn -0.44429758 -0.85837038 0.25651501
vn -0.83603051 -0.26090394 0.48268221
vn -0.60973374 -0.71014045 0.35203027
vn -0.13526984 -0.99014561 0.03624565
vn -0.95770501 -0.13018962 0.25661601
vn -0.49555064 -0.85836965 0.13278216
vn -0.93247191 -0.26089943 0.24985520
vn -0.68007240 -0.71013783 0.18222457
vn -0.25774978 0.96606399 0.01689415
vn -0.98937919 0.13009084 0.06484740
vn -0.50621592 0.86176830 0.03317882
vn -0.70483217 0.70786828 0.04619654
vn -0.96371933 0.25933592 0.06316600
vn -0.01689406 0.96606449 0.25774793
vn -0.06484752 0.13009095 0.98937917
vn -0.03317979 0.86176719 0.50621776
vn -0.04619785 0.70786485 0.70483552
vn -0.06316597 0.25933658 0.96371915
vn -0.24800128 0.96647792 0.06645143
vn -0.95770493 0.13018978 0.25661622
vn -0.49555044 0.85836972 0.13278247
vn -0.68007252 0.71013745 0.18222559
vn -0.93247187 0.26089912 0.24985567
vn -0.22235392 0.96647728 0.12837604
vn -0.85865468 0.13019203 0.49574405
vn -0.44429761 0.85837047 0.25651466
vn -0.60973456 0.71014006 0.35202963
vn -0.83603102 0.26090401 0.48268130
vn -0.18154869 0.96647820 0.18154881
vn -0.78671470 0.12909455 0.60366761
vn -0.60366652 0.12909364 0.78671568
vn -0.36276848 0.85836933 0.36276869
vn -0.49784847 0.71013594 0.49784923
vn -0.76632078 0.25881769 0.58801860
vn -0.58801762 0.25881561 0.76632223
vn -0.12837484 0.96647784 0.22235217
vn -0.49574392 0.13019070 0.85865497
vn -0.25651496 0.85837015 0.44429805
vn -0.35203029 0.71013851 0.60973598
vn -0.48268213 0.26090071 0.83603157
vn -0.06645212 0.96647759 0.24800239
vn -0.25661681 0.13019315 0.95770431
vn -0.13278262 0.85836950 0.49555078
vn -0.18222531 0.71013733 0.68007272
vn -0.24985574 0.26090627 0.93246985
vn -0.13529908 -0.99076512 -0.00886815
vn -0.98937919 -0.13009084 -0.06484740
vn -0.50621596 -0.86176828 -0.03317882
vn -0.70483194 -0.70786851 -0.04619652
vn -0.96371933 -0.25933592 -0.06316600
vn -0.00886810 -0.99076525 -0.13529810
vn -0.06484752 -0.13009095 -0.98937917
vn -0.03317979 -0.86176716 -0.50621780
vn -0.04619783 -0.70786508 -0.70483529
vn -0.06316597 -0.25933658 -0.96371915
vn -0.13526993 -0.99014561 -0.03624530
vn -0.95770493 -0.13018978 -0.25661622
vn -0.49555046 -0.85836971 -0.13278248
vn -0.93247187 -0.26089912 -0.24985567
vn -0.68007230 -0.71013768 -0.18222553
vn -0.12128096 -0.99014540 -0.07002156
vn -0.85865468 -0.13019203 -0.49574405
vn -0.44429764 -0.85837045 -0.25651467
vn -0.83603102 -0.26090401 -0.48268130
vn -0.60973436 -0.71014029 -0.35202952
vn -0.09902410 -0.99014567 -0.09902417
vn -0.78671470 -0.12909455 -0.60366761
vn -0.60366652 -0.12909364 -0.78671568
vn -0.36276850 -0.85836931 -0.36276871
vn -0.76632078 -0.25881769 -0.58801860
vn -0.58801762 -0.25881561 -0.76632223
vn -0.49784830 -0.71013617 -0.49784906
vn -0.07002083 -0.99014558 -0.12127986
vn -0.49574392 -0.13019070 -0.85865497
vn -0.25651498 -0.85837013 -0.44429807
vn -0.35203018 -0.71013874 -0.60973578
vn -0.48268213 -0.26090071 -0.83603157
vn -0.03624569 -0.99014550 -0.13527061
vn -0.25661681 -0.13019315 -0.95770431
vn -0.13278263 -0.85836949 -0.49555080
vn -0.18222525 -0.71013756 -0.68007250
vn -0.24985574 -0.26090627 -0.93246985
vn -0.01689397 0.96606451 -0.25774785
vn -0.06484783 0.13009118 -0.98937912
vn -0.03317979 0.86176717 -0.50621778
vn -0.04619765 0.70786467 -0.70483571
vn -0.06316662 0.25933614 -0.96371922
vn -0.25774960 0.96606405 -0.01689381
vn -0.98937919 0.13009084 -0.06484740
vn -0.50621621 0.86176813 -0.03317906
vn -0.70483178 0.70786862 -0.04619715
vn -0.96371932 0.25933592 -0.06316599
vn -0.06645220 0.96647758 -0.24800240
vn -0.25661628 0.13019321 -0.95770445
vn -0.13278270 0.85836953 -0.49555072
vn -0.18222544 0.71013725 -0.68007277
vn -0.24985463 0.26090617 -0.93247018
vn -0.12837500 0.96647780 -0.22235225
vn -0.49574402 0.13019042 -0.85865495
vn -0.25651560 0.85836951 -0.44429892
vn -0.35203068 0.71013675 -0.60973781
vn -0.48268224 0.26090125 -0.83603134
vn -0.18154827 0.96647824 -0.18154900
vn -0.78671500 0.12909493 -0.60366714
vn -0.60366676 0.12909344 -0.78671553
vn -0.36276897 0.85836921 -0.36276849
vn -0.49784904 0.71013609 -0.49784843
vn -0.76632163 0.25881689 -0.58801784
vn -0.58801802 0.25881603 -0.76632178
vn -0.22235425 0.96647729 -0.12837536
vn -0.85865444 0.13019207 -0.49574448
vn -0.44429755 0.85837040 -0.25651500
vn -0.60973394 0.71014022 -0.35203038
vn -0.83603051 0.26090394 -0.48268221
vn -0.24800111 0.96647792 -0.06645208
vn -0.95770501 0.13018962 -0.25661601
vn -0.49555062 0.85836967 -0.13278215
vn -0.68007262 0.71013760 -0.18222463
vn -0.93247191 0.26089943 -0.24985520
vn 0.13529908 -0.99076512 0.00886815
vn 0.98937919 -0.13009084 0.06484740
vn 0.50621596 -0.86176828 0.03317882
vn 0.70483194 -0.70786851 0.04619652
vn 0.96371933 -0.25933592 0.06316600
vn 0.00886810 -0.99076525 0.13529810
vn 0.06484752 -0.13009095 0.98937917
vn 0.03317979 -0.86176716 0.50621780
vn 0.04619783 -0.70786508 0.70483529
vn 0.06316597 -0.25933658 0.96371915
vn 0.13526993 -0.99014561 0.03624530
vn 0.95770493 -0.13018978 0.25661622
vn 0.49555046 -0.85836971 0.13278248
vn 0.68007230 -0.71013768 0.18222553
vn 0.93247187 -0.26089912 0.24985567
vn 0.12128096 -0.99014540 0.07002156
vn 0.85865468 -0.13019203 0.49574405
vn 0.44429764 -0.85837045 0.25651467
vn 0.60973436 -0.71014029 0.35202952
vn 0.83603102 -0.26090401 0.48268130
vn 0.09902410 -0.99014567 0.09902417
vn 0.78671470 -0.12909455 0.60366761
vn 0.60366652 -0.12909364 0.78671568
vn 0.36276850 -0.85836931 0.36276871
vn 0.49784830 -0.71013617 0.49784906
vn 0.76632078 -0.25881769 0.58801860
vn 0.58801762 -0.25881561 0.76632223
vn 0.07002083 -0.99014558 0.12127986
vn 0.49574392 -0.13019070 0.85865497
vn 0.25651498 -0.85837013 0.44429807
vn 0.35203018 -0.71013874 0.60973578
vn 0.48268213 -0.26090071 0.83603157
vn 0.03624569 -0.99014550 0.13527061
vn 0.25661681 -0.13019315 0.95770431
vn 0.13278263 -0.85836949 0.49555080
vn 0.18222525 -0.71013756 0.68007250
vn 0.24985574 -0.26090627 0.93246985
vn 0.01689402 0.96606450 0.25774790
vn 0.06484783 0.13009118 0.98937912
vn 0.03317969 0.86176721 0.50621773
vn 0.04619772 0.70786478 0.70483560
vn 0.06316662 0.25933614 0.96371922
vn 0.25774960 0.96606405 0.01689381
vn 0.98937919 0.13009084 0.06484740
vn 0.50621621 0.86176813 0.03317906
vn 0.70483178 0.70786862 0.04619715
vn 0.96371932 0.25933592 0.06316599
vn 0.06645219 0.96647758 0.24800241
vn 0.25661628 0.13019321 0.95770445
vn 0.13278269 0.85836953 0.49555072
vn 0.18222544 0.71013725 0.68007277
vn 0.24985463 0.26090617 0.93247018
vn 0.12837500 0.96647780 0.22235225
vn 0.49574402 0.13019042 0.85865495
vn 0.25651560 0.85836951 0.44429892
vn 0.35203068 0.71013675 0.60973781
vn 0.48268224 0.26090125 0.83603134
vn 0.18154827 0.96647824 0.18154900
vn 0.78671500 0.12909493 0.60366714
vn 0.60366676 0.12909344 0.78671553
vn 0.36276897 0.85836921 0.36276849
vn 0.76632163 0.25881689 0.58801784
vn 0.58801802 0.25881603 0.76632178
vn 0.49784904 0.71013609 0.49784843
vn 0.22235425 0.96647729 0.12837536
vn 0.85865444 0.13019207 0.49574448
vn 0.44429755 0.85837040 0.25651500
vn 0.83603051 0.26090394 0.48268221
vn 0.60973394 0.71014022 0.35203038
vn 0.24800111 0.96647792 0.06645208
vn 0.95770501 0.13018962 0.25661601
vn 0.49555062 0.85836967 0.13278215
vn 0.68007262 0.71013760 0.18222463
vn 0.93247191 0.26089943 0.24985520
vn 0.00886805 -0.99076526 -0.13529805
vn 0.06484783 -0.13009118 -0.98937912
vn 0.03317980 -0.86176715 -0.50621782
vn 0.04619764 -0.70786490 -0.70483548
vn 0.06316662 -0.25933614 -0.96371922
vn 0.13529898 -0.99076513 -0.00886797
vn 0.98937919 -0.13009084 -0.06484740
vn 0.50621624 -0.86176810 -0.03317907
vn 0.70483155 -0.70786885 -0.04619713
vn 0.96371932 -0.25933592 -0.06316599
vn 0.03624573 -0.99014550 -0.13527059
vn 0.25661628 -0.13019321 -0.95770445
vn 0.13278271 -0.85836951 -0.49555074
vn 0.18222538 -0.71013748 -0.68007255
vn 0.24985463 -0.26090617 -0.93247018
vn 0.07002095 -0.99014556 -0.12127997
vn 0.49574402 -0.13019042 -0.85865495
vn 0.25651561 -0.85836950 -0.44429894
vn 0.35203057 -0.71013698 -0.60973761
vn 0.48268224 -0.26090125 -0.83603134
vn 0.09902385 -0.99014568 -0.09902425
vn 0.78671500 -0.12909493 -0.60366714
vn 0.60366676 -0.12909344 -0.78671553
vn 0.36276898 -0.85836919 -0.36276851
vn 0.49784888 -0.71013632 -0.49784827
vn 0.76632163 -0.25881689 -0.58801784
vn 0.58801802 -0.25881603 -0.76632178
vn 0.12128114 -0.99014540 -0.07002119
vn 0.85865444 -0.13019207 -0.49574448
vn 0.44429758 -0.85837038 -0.25651501
vn 0.60973374 -0.71014045 -0.35203027
vn 0.83603051 -0.26090394 -0.48268221
vn 0.13526984 -0.99014561 -0.03624565
vn 0.95770501 -0.13018962 -0.25661601
vn 0.49555064 -0.85836965 -0.13278216
vn 0.68007240 -0.71013783 -0.18222457
vn 0.93247191 -0.26089943 -0.24985520
vn 0.25774978 0.96606399 -0.01689415
vn 0.98937919 0.13009084 -0.06484740
vn 0.50621592 0.86176830 -0.03317882
vn 0.70483217 0.70786828 -0.04619654
vn 0.96371933 0.25933592 -0.06316600
vn 0.01689406 0.96606449 -0.25774793
vn 0.06484752 0.13009095 -0.98937917
vn 0.03317979 0.86176719 -0.50621776
vn 0.04619785 0.70786485 -0.70483552
vn 0.06316597 0.25933658 -0.96371915
vn 0.24800128 0.96647792 -0.06645143
vn 0.95770493 0.13018978 -0.25661622
vn 0.49555044 0.85836972 -0.13278247
vn 0.68007252 0.71013745 -0.18222559
vn 0.93247187 0.26089912 -0.24985567
vn 0.22235392 0.96647728 -0.12837604
vn 0.85865468 0.13019203 -0.49574405
vn 0.44429761 0.85837047 -0.25651466
vn 0.83603102 0.26090401 -0.48268130
vn 0.60973456 0.71014006 -0.35202963
vn 0.18154869 0.96647820 -0.18154881
vn 0.78671470 0.12909455 -0.60366761
vn 0.60366652 0.12909364 -0.78671568
vn 0.36276848 0.85836933 -0.36276869
vn 0.76632078 0.25881769 -0.58801860
vn 0.58801762 0.25881561 -0.76632223
vn 0.49784847 0.71013594 -0.49784923
vn 0.12837484 0.96647784 -0.22235217
vn 0.49574392 0.13019070 -0.85865497
vn 0.25651496 0.85837015 -0.44429805
vn 0.35203029 0.71013851 -0.60973598
vn 0.48268213 0.26090071 -0.83603157
vn 0.06645212 0.96647759 -0.24800239
vn 0.25661681 0.13019315 -0.95770431
vn 0.13278262 0.85836950 -0.49555078
vn 0.18222531 0.71013733 -0.68007272
vn 0.24985574 0.26090627 -0.93246985
vt 0.71354032 0.12371278
vt 0.76181173 0.19858921
vt 0.71378237 0.12009287
vt 0.71395952 0.11744291
vt 0.76415193 0.19869184
vt 0.77872801 0.18759769
vt 0.74731475 0.57477027
vt 0.74183506 0.21161854
vt 0.22041357 0.18894935
vt 0.74965507 0.57479280
vt 0.73075449 0.12593377
vt 0.76181173 0.18721914
vt 0.73171872 0.12240708
vt 0.73242462 0.11982530
vt 0.76415205 0.18743974
vt 0.74634445 0.13226229
vt 0.76181173 0.17693460
vt 0.74820715 0.12910032
vt 0.74957085 0.12678558
vt 0.76415205 0.17729753
vt 0.75973177 0.14232945
vt 0.74731475 0.60759306
vt 0.76181173 0.16843623
vt 0.76236624 0.13974768
vt 0.74965507 0.60720170
vt 0.76415205 0.16891694
vt 0.76429462 0.13785768
vt 0.77000421 0.15544933
vt 0.74731475 0.59764618
vt 0.77323067 0.15362370
vt 0.74965507 0.59739250
vt 0.77559257 0.15228730
vt 0.77646178 0.17072761
vt 0.74731475 0.58645093
vt 0.78006041 0.16978258
vt 0.74965507 0.58635235
vt 0.78269488 0.16909081
vt 0.22681129 0.18936020
vt 0.74474692 0.57477027
vt 0.22311759 0.18912303
vt 0.22041357 0.18894935
vt 0.74240661 0.57479280
vt 0.29199904 0.12547529
vt 0.75924379 0.19858921
vt 0.29175705 0.12185538
vt 0.29157978 0.11920542
vt 0.75690347 0.19869184
vt 0.22907764 0.17249012
vt 0.74474692 0.58645093
vt 0.22547895 0.17154509
vt 0.22284451 0.17085332
vt 0.74240661 0.58635235
vt 0.23553514 0.15721184
vt 0.74474692 0.59764618
vt 0.23230869 0.15538621
vt 0.22994673 0.15404981
vt 0.74240661 0.59739250
vt 0.24580765 0.14409196
vt 0.74474692 0.60759306
vt 0.75924379 0.16843623
vt 0.24317321 0.14151019
vt 0.24124473 0.13962018
vt 0.74240661 0.60720170
vt 0.75690347 0.16891694
vt 0.25919497 0.13402480
vt 0.75924379 0.17693460
vt 0.25733221 0.13086283
vt 0.25596854 0.12854809
vt 0.75690347 0.17729753
vt 0.27478489 0.12769628
vt 0.75924379 0.18721914
vt 0.27382064 0.12416959
vt 0.27311477 0.12158781
vt 0.75690347 0.18743974
vt 0.77872801 0.78348184
vt 0.74731475 0.19858927
vt 0.74183506 0.58946401
vt 0.22041357 0.78565526
vt 0.74965507 0.19869190
vt 0.71354032 0.84736681
vt 0.76181173 0.78130597
vt 0.71378237 0.85098672
vt 0.71395952 0.85363668
vt 0.76415205 0.78132844
vt 0.77646178 0.80035198
vt 0.74731475 0.18721920
vt 0.78006041 0.80129701
vt 0.74965507 0.18743974
vt 0.78269488 0.80198878
vt 0.77000421 0.81563026
vt 0.74731475 0.17693460
vt 0.77323067 0.81745589
vt 0.74965507 0.17729753
vt 0.77559257 0.81879228
vt 0.75973177 0.82875013
vt 0.74731475 0.16843623
vt 0.76181173 0.81412876
vt 0.76236624 0.83133191
vt 0.74965507 0.16891694
vt 0.76415205 0.81373739
vt 0.76429462 0.83322191
vt 0.74634445 0.83881730
vt 0.76181173 0.80418181
vt 0.74820715 0.84197927
vt 0.74957085 0.84429401
vt 0.76415205 0.80392814
vt 0.73075449 0.84514582
vt 0.76181173 0.79298657
vt 0.73171872 0.84867251
vt 0.73242462 0.85125422
vt 0.76415205 0.79288793
vt 0.29199904 0.84912932
vt 0.75924397 0.78130597
vt 0.29175693 0.85274923
vt 0.29157978 0.85539919
vt 0.75690347 0.78132844
vt 0.22681129 0.78524435
vt 0.74474692 0.19858927
vt 0.22311759 0.78548157
vt 0.22041357 0.78565526
vt 0.74240661 0.19869190
vt 0.27478489 0.84690833
vt 0.75924397 0.79298657
vt 0.27382064 0.85043502
vt 0.27311477 0.85301673
vt 0.75690347 0.79288793
vt 0.25919491 0.84057981
vt 0.75924397 0.80418181
vt 0.25733221 0.84374177
vt 0.25596854 0.84605652
vt 0.75690347 0.80392814
vt 0.24580765 0.83051264
vt 0.74474692 0.16843623
vt 0.75924397 0.81412864
vt 0.24317321 0.83309442
vt 0.24124473 0.83498442
vt 0.74240661 0.16891688
vt 0.75690347 0.81373739
vt 0.23553514 0.81739277
vt 0.74474692 0.17693460
vt 0.23230869 0.81921840
vt 0.22994673 0.82055479
vt 0.74240661 0.17729753
vt 0.22907764 0.80211449
vt 0.74474692 0.18721914
vt 0.22547895 0.80305952
vt 0.22284451 0.80375129
vt 0.74240661 0.18743974
vt 0.22861338 0.18759769
vt 0.75456321 0.19858927
vt 0.22491962 0.18736053
vt 0.22221559 0.18718684
vt 0.75690347 0.19869190
vt 0.29380110 0.12371278
vt 0.76181161 0.45845973
vt 0.29355896 0.12009287
vt 0.29338184 0.11744291
vt 0.76415193 0.45848227
vt 0.23087966 0.17072761
vt 0.75456321 0.18721920
vt 0.22728094 0.16978258
vt 0.22464654 0.16909081
vt 0.75690347 0.18743974
vt 0.23733714 0.15544933
vt 0.75456321 0.17693460
vt 0.23411068 0.15362370
vt 0.23174873 0.15228730
vt 0.75690347 0.17729753
vt 0.24760970 0.14232945
vt 0.75456321 0.16843623
vt 0.76181161 0.49128252
vt 0.24497524 0.13974768
vt 0.24304673 0.13785768
vt 0.75690347 0.16891694
vt 0.76415193 0.49089110
vt 0.26099697 0.13226229
vt 0.76181161 0.48133564
vt 0.25913423 0.12910032
vt 0.25777054 0.12678558
vt 0.76415193 0.48108196
vt 0.27658695 0.12593377
vt 0.76181161 0.47014034
vt 0.27562264 0.12240708
vt 0.27491677 0.11982530
vt 0.76415193 0.47004175
vt 0.71173835 0.12547529
vt 0.75924379 0.45845973
vt 0.71198034 0.12185538
vt 0.71215749 0.11920542
vt 0.75690347 0.45848227
vt 0.77692592 0.18936020
vt 0.75199533 0.19858927
vt 0.78061980 0.18912303
vt 0.74240661 0.21262515
vt 0.74965507 0.19869190
vt 0.72895241 0.12769628
vt 0.75924379 0.47014034
vt 0.72991669 0.12416959
vt 0.73062253 0.12158781
vt 0.75690347 0.47004175
vt 0.74454236 0.13402480
vt 0.75924379 0.48133564
vt 0.74640518 0.13086283
vt 0.74776876 0.12854809
vt 0.75690347 0.48108196
vt 0.75792962 0.14409196
vt 0.75199533 0.16843623
vt 0.75924379 0.49128252
vt 0.76056409 0.14151019
vt 0.74965507 0.16891694
vt 0.75690347 0.49089110
vt 0.76249260 0.13962018
vt 0.76820219 0.15721184
vt 0.75199533 0.17693460
vt 0.77142870 0.15538621
vt 0.74965507 0.17729753
vt 0.77379060 0.15404981
vt 0.77465981 0.17249012
vt 0.75199533 0.18721920
vt 0.77825832 0.17154509
vt 0.74086642 0.20115978
vt 0.74965507 0.18743974
vt 0.29380110 0.84736681
vt 0.76181173 0.52143550
vt 0.29355896 0.85098672
vt 0.29338184 0.85363668
vt 0.76415205 0.52153808
vt 0.22861338 0.78348184
vt 0.75456321 0.57477027
vt 0.22491962 0.78371906
vt 0.22221559 0.78389275
vt 0.75690347 0.57479280
vt 0.27658695 0.84514582
vt 0.76181173 0.51006538
vt 0.27562264 0.84867251
vt 0.27491677 0.85125422
vt 0.76415205 0.51028597
vt 0.26099697 0.83881730
vt 0.76181173 0.49978077
vt 0.25913417 0.84197927
vt 0.25777054 0.84429401
vt 0.76415205 0.50014371
vt 0.24760970 0.82875013
vt 0.75456321 0.60759306
vt 0.76181173 0.49128246
vt 0.24497524 0.83133191
vt 0.24304673 0.83322191
vt 0.75690347 0.60720170
vt 0.76415205 0.49176311
vt 0.23733714 0.81563026
vt 0.75456321 0.59764618
vt 0.23411068 0.81745589
vt 0.23174873 0.81879228
vt 0.75690347 0.59739250
vt 0.23087966 0.80035198
vt 0.75456321 0.58645093
vt 0.22728094 0.80129701
vt 0.22464654 0.80198878
vt 0.75690347 0.58635235
vt 0.77692592 0.78524435
vt 0.75199533 0.57477027
vt 0.78061980 0.78548157
vt 0.74240661 0.59069073
vt 0.74965507 0.57479280
vt 0.71173835 0.84912932
vt 0.75924397 0.52143550
vt 0.71198034 0.85274923
vt 0.71215749 0.85539919
vt 0.75690359 0.52153808
vt 0.77465981 0.80211449
vt 0.75199533 0.58645093
vt 0.77825832 0.80305952
vt 0.74086642 0.60215616
vt 0.74965507 0.58635235
vt 0.76820219 0.81739277
vt 0.75199533 0.59764618
vt 0.77142870 0.81921840
vt 0.74965507 0.59739250
vt 0.77379060 0.82055479
vt 0.75792962 0.83051264
vt 0.75199533 0.60759306
vt 0.75924397 0.49128246
vt 0.76056409 0.83309442
vt 0.74965507 0.60720170
vt 0.75690359 0.49176311
vt 0.76249260 0.83498442
vt 0.74454236 0.84057981
vt 0.75924397 0.49978077
vt 0.74640518 0.84374177
vt 0.74776876 0.84605652
vt 0.75690359 0.50014371
vt 0.72895241 0.84690833
vt 0.75924397 0.51006538
vt 0.72991669 0.85043502
vt 0.73062253 0.85301673
vt 0.75690359 0.51028597
f 11/11/11 1/1/1 3/3/3
f 11/11/11 3/3/3 13/13/13
f 13/13/13 3/3/3 4/4/4
f 13/13/13 4/4/4 14/14/14
f 15/15/15 5/5/5 2/2/2
f 15/15/15 2/2/2 12/12/12
f 43/43/43 70/70/70 72/72/72
f 43/43/43 72/72/72 45/45/45
f 45/45/45 72/72/72 73/73/73
f 45/45/45 73/73/73 46/46/46
f 47/47/47 74/74/74 71/71/71
f 47/47/47 71/71/71 44/44/44
f 16/16/16 11/11/11 13/13/13
f 16/16/16 13/13/13 18/18/18
f 18/18/18 13/13/13 14/14/14
f 18/18/18 14/14/14 19/19/19
f 20/20/20 15/15/15 12/12/12
f 20/20/20 12/12/12 17/17/17
f 70/70/70 65/65/65 67/67/67
f 70/70/70 67/67/67 72/72/72
f 72/72/72 67/67/67 68/68/68
f 72/72/72 68/68/68 73/73/73
f 74/74/74 69/69/69 66/66/66
f 74/74/74 66/66/66 71/71/71
f 21/21/21 16/16/16 18/18/18
f 21/21/21 18/18/18 24/24/24
f 24/24/24 18/18/18 19/19/19
f 24/24/24 19/19/19 27/27/27
f 26/26/26 20/20/20 17/17/17
f 26/26/26 17/17/17 23/23/23
f 65/65/65 58/58/58 61/61/61
f 65/65/65 61/61/61 67/67/67
f 67/67/67 61/61/61 62/62/62
f 67/67/67 62/62/62 68/68/68
f 69/69/69 64/64/64 60/60/60
f 69/69/69 60/60/60 66/66/66
f 28/28/28 21/21/21 24/24/24
f 28/28/28 24/24/24 30/30/30
f 30/30/30 24/24/24 27/27/27
f 30/30/30 27/27/27 32/32/32
f 31/31/31 25/25/25 22/22/22
f 31/31/31 22/22/22 29/29/29
f 58/58/58 53/53/53 55/55/55
f 58/58/58 55/55/55 61/61/61
f 61/61/61 55/55/55 56/56/56
f 61/61/61 56/56/56 62/62/62
f 63/63/63 57/57/57 54/54/54
f 63/63/63 54/54/54 59/59/59
f 33/33/33 28/28/28 30/30/30
f 33/33/33 30/30/30 35/35/35
f 35/35/35 30/30/30 32/32/32
f 35/35/35 32/32/32 37/37/37
f 36/36/36 31/31/31 29/29/29
f 36/36/36 29/29/29 34/34/34
f 53/53/53 48/48/48 50/50/50
f 53/53/53 50/50/50 55/55/55
f 55/55/55 50/50/50 51/51/51
f 55/55/55 51/51/51 56/56/56
f 57/57/57 52/52/52 49/49/49
f 57/57/57 49/49/49 54/54/54
f 6/6/6 33/33/33 35/35/35
f 6/6/6 35/35/35 8/8/8
f 8/8/8 35/35/35 37/37/37
f 8/8/8 37/37/37 9/9/9
f 10/10/10 36/36/36 34/34/34
f 10/10/10 34/34/34 7/7/7
f 48/48/48 38/38/38 40/40/40
f 48/48/48 40/40/40 50/50/50
f 50/50/50 40/40/40 41/41/41
f 50/50/50 41/41/41 51/51/51
f 52/52/52 42/42/42 39/39/39
f 52/52/52 39/39/39 49/49/49
f 122/122/122 112/112/112 114/114/114
f 122/122/122 114/114/114 124/124/124
f 124/124/124 114/114/114 115/115/115
f 124/124/124 115/115/115 125/125/125
f 126/126/126 116/116/116 113/113/113
f 126/126/126 113/113/113 123/123/123
f 80/80/80 107/107/107 109/109/109
f 80/80/80 109/109/109 82/82/82
f 82/82/82 109/109/109 110/110/110
f 82/82/82 110/110/110 83/83/83
f 84/84/84 111/111/111 108/108/108
f 84/84/84 108/108/108 81/81/81
f 127/127/127 122/122/122 124/124/124
f 127/127/127 124/124/124 129/129/129
f 129/129/129 124/124/124 125/125/125
f 129/129/129 125/125/125 130/130/130
f 131/131/131 126/126/126 123/123/123
f 131/131/131 123/123/123 128/128/128
f 107/107/107 102/102/102 104/104/104
f 107/107/107 104/104/104 109/109/109
f 109/109/109 104/104/104 105/105/105
f 109/109/109 105/105/105 110/110/110
f 111/111/111 106/106/106 103/103/103
f 111/111/111 103/103/103 108/108/108
f 132/132/132 127/127/127 129/129/129
f 132/132/132 129/129/129 135/135/135
f 135/135/135 129/129/129 130/130/130
f 135/135/135 130/130/130 136/136/136
f 138/138/138 131/131/131 128/128/128
f 138/138/138 128/128/128 134/134/134
f 102/102/102 95/95/95 98/98/98
f 102/102/102 98/98/98 104/104/104
f 104/104/104 98/98/98 101/101/101
f 104/104/104 101/101/101 105/105/105
f 106/106/106 100/100/100 97/97/97
f 106/106/106 97/97/97 103/103/103
f 139/139/139 132/132/132 135/135/135
f 139/139/139 135/135/135 141/141/141
f 141/141/141 135/135/135 136/136/136
f 141/141/141 136/136/136 142/142/142
f 143/143/143 137/137/137 133/133/133
f 143/143/143 133/133/133 140/140/140
f 95/95/95 90/90/90 92/92/92
f 95/95/95 92/92/92 98/98/98
f 98/98/98 92/92/92 94/94/94
f 98/98/98 94/94/94 101/101/101
f 99/99/99 93/93/93 91/91/91
f 99/99/99 91/91/91 96/96/96
f 144/144/144 139/139/139 141/141/141
f 144/144/144 141/141/141 146/146/146
f 146/146/146 141/141/141 142/142/142
f 146/146/146 142/142/142 147/147/147
f 148/148/148 143/143/143 140/140/140
f 148/148/148 140/140/140 145/145/145
f 90/90/90 85/85/85 87/87/87
f 90/90/90 87/87/87 92/92/92
f 92/92/92 87/87/87 89/89/89
f 92/92/92 89/89/89 94/94/94
f 93/93/93 88/88/88 86/86/86
f 93/93/93 86/86/86 91/91/91
f 117/117/117 144/144/144 146/146/146
f 117/117/117 146/146/146 119/119/119
f 119/119/119 146/146/146 147/147/147
f 119/119/119 147/147/147 120/120/120
f 121/121/121 148/148/148 145/145/145
f 121/121/121 145/145/145 118/118/118
f 85/85/85 75/75/75 77/77/77
f 85/85/85 77/77/77 87/87/87
f 87/87/87 77/77/77 78/78/78
f 87/87/87 78/78/78 89/89/89
f 88/88/88 79/79/79 76/76/76
f 88/88/88 76/76/76 86/86/86
f 270/270/270 260/260/260 262/262/262
f 270/270/270 262/262/262 272/272/272
f 272/272/272 262/262/262 263/263/263
f 272/272/272 263/263/263 273/273/273
f 274/274/274 264/264/264 261/261/261
f 274/274/274 261/261/261 271/271/271
f 228/228/228 255/255/255 257/257/257
f 228/228/228 257/257/257 230/230/230
f 230/230/230 257/257/257 258/258/258
f 230/230/230 258/258/258 231/231/231
f 232/232/232 259/259/259 256/256/256
f 232/232/232 256/256/256 229/229/229
f 275/275/275 270/270/270 272/272/272
f 275/275/275 272/272/272 277/277/277
f 277/277/277 272/272/272 273/273/273
f 277/277/277 273/273/273 279/279/279
f 278/278/278 274/274/274 271/271/271
f 278/278/278 271/271/271 276/276/276
f 255/255/255 250/250/250 252/252/252
f 255/255/255 252/252/252 257/257/257
f 257/257/257 252/252/252 253/253/253
f 257/257/257 253/253/253 258/258/258
f 259/259/259 254/254/254 251/251/251
f 259/259/259 251/251/251 256/256/256
f 280/280/280 275/275/275 277/277/277
f 280/280/280 277/277/277 283/283/283
f 283/283/283 277/277/277 279/279/279
f 283/283/283 279/279/279 286/286/286
f 284/284/284 278/278/278 276/276/276
f 284/284/284 276/276/276 281/281/281
f 250/250/250 243/243/243 246/246/246
f 250/250/250 246/246/246 252/252/252
f 252/252/252 246/246/246 247/247/247
f 252/252/252 247/247/247 253/253/253
f 254/254/254 248/248/248 244/244/244
f 254/254/254 244/244/244 251/251/251
f 287/287/287 280/280/280 283/283/283
f 287/287/287 283/283/283 289/289/289
f 289/289/289 283/283/283 286/286/286
f 289/289/289 286/286/286 290/290/290
f 291/291/291 285/285/285 282/282/282
f 291/291/291 282/282/282 288/288/288
f 243/243/243 238/238/238 240/240/240
f 243/243/243 240/240/240 246/246/246
f 246/246/246 240/240/240 241/241/241
f 246/246/246 241/241/241 247/247/247
f 249/249/249 242/242/242 239/239/239
f 249/249/249 239/239/239 245/245/245
f 292/292/292 287/287/287 289/289/289
f 292/292/292 289/289/289 294/294/294
f 294/294/294 289/289/289 290/290/290
f 294/294/294 290/290/290 295/295/295
f 296/296/296 291/291/291 288/288/288
f 296/296/296 288/288/288 293/293/293
f 238/238/238 233/233/233 235/235/235
f 238/238/238 235/235/235 240/240/240
f 240/240/240 235/235/235 236/236/236
f 240/240/240 236/236/236 241/241/241
f 242/242/242 237/237/237 234/234/234
f 242/242/242 234/234/234 239/239/239
f 265/265/265 292/292/292 294/294/294
f 265/265/265 294/294/294 267/267/267
f 267/267/267 294/294/294 295/295/295
f 267/267/267 295/295/295 268/268/268
f 269/269/269 296/296/296 293/293/293
f 269/269/269 293/293/293 266/266/266
f 233/233/233 223/223/223 225/225/225
f 233/233/233 225/225/225 235/235/235
f 235/235/235 225/225/225 226/226/226
f 235/235/235 226/226/226 236/236/236
f 237/237/237 227/227/227 224/224/224
f 237/237/237 224/224/224 234/234/234
f 196/196/196 186/186/186 188/188/188
f 196/196/196 188/188/188 198/198/198
f 198/198/198 188/188/188 189/189/189
f 198/198/198 189/189/189 199/199/199
f 200/200/200 190/190/190 187/187/187
f 200/200/200 187/187/187 197/197/197
f 154/154/154 181/181/181 183/183/183
f 154/154/154 183/183/183 156/156/156
f 156/156/156 183/183/183 184/184/184
f 156/156/156 184/184/184 157/157/157
f 158/158/158 185/185/185 182/182/182
f 158/158/158 182/182/182 155/155/155
f 201/201/201 196/196/196 198/198/198
f 201/201/201 198/198/198 203/203/203
f 203/203/203 198/198/198 199/199/199
f 203/203/203 199/199/199 204/204/204
f 205/205/205 200/200/200 197/197/197
f 205/205/205 197/197/197 202/202/202
f 181/181/181 176/176/176 178/178/178
f 181/181/181 178/178/178 183/183/183
f 183/183/183 178/178/178 179/179/179
f 183/183/183 179/179/179 184/184/184
f 185/185/185 180/180/180 177/177/177
f 185/185/185 177/177/177 182/182/182
f 206/206/206 201/201/201 203/203/203
f 206/206/206 203/203/203 209/209/209
f 209/209/209 203/203/203 204/204/204
f 209/209/209 204/204/204 212/212/212
f 211/211/211 205/205/205 202/202/202
f 211/211/211 202/202/202 208/208/208
f 176/176/176 169/169/169 172/172/172
f 176/176/176 172/172/172 178/178/178
f 178/178/178 172/172/172 173/173/173
f 178/178/178 173/173/173 179/179/179
f 180/180/180 175/175/175 171/171/171
f 180/180/180 171/171/171 177/177/177
f 213/213/213 206/206/206 209/209/209
f 213/213/213 209/209/209 215/215/215
f 215/215/215 209/209/209 212/212/212
f 215/215/215 212/212/212 217/217/217
f 216/216/216 210/210/210 207/207/207
f 216/216/216 207/207/207 214/214/214
f 169/169/169 164/164/164 166/166/166
f 169/169/169 166/166/166 172/172/172
f 172/172/172 166/166/166 167/167/167
f 172/172/172 167/167/167 173/173/173
f 174/174/174 168/168/168 165/165/165
f 174/174/174 165/165/165 170/170/170
f 218/218/218 213/213/213 215/215/215
f 218/218/218 215/215/215 220/220/220
f 220/220/220 215/215/215 217/217/217
f 220/220/220 217/217/217 221/221/221
f 222/222/222 216/216/216 214/214/214
f 222/222/222 214/214/214 219/219/219
f 164/164/164 159/159/159 161/161/161
f 164/164/164 161/161/161 166/166/166
f 166/166/166 161/161/161 162/162/162
f 166/166/166 162/162/162 167/167/167
f 168/168/168 163/163/163 160/160/160
f 168/168/168 160/160/160 165/165/165
f 191/191/191 218/218/218 220/220/220
f 191/191/191 220/220/220 193/193/193
f 193/193/193 220/220/220 221/221/221
f 193/193/193 221/221/221 194/194/194
f 195/195/195 222/222/222 219/219/219
f 195/195/195 219/219/219 192/192/192
f 159/159/159 149/149/149 151/151/151
f 159/159/159 151/151/151 161/161/161
f 161/161/161 151/151/151 152/152/152
f 161/161/161 152/152/152 162/162/162
f 163/163/163 153/153/153 150/150/150
f 163/163/163 150/150/150 160/160/160
f 7/7/7 76/76/76 79/79/79
f 7/7/7 79/79/79 10/10/10
f 9/9/9 78/78/78 77/77/77
f 9/9/9 77/77/77 8/8/8
f 8/8/8 77/77/77 75/75/75
f 8/8/8 75/75/75 6/6/6
f 81/81/81 224/224/224 227/227/227
f 81/81/81 227/227/227 84/84/84
f 83/83/83 226/226/226 225/225/225
f 83/83/83 225/225/225 82/82/82
f 82/82/82 225/225/225 223/223/223
f 82/82/82 223/223/223 80/80/80
f 229/229/229 150/150/150 153/153/153
f 229/229/229 153/153/153 232/232/232
f 231/231/231 152/152/152 151/151/151
f 231/231/231 151/151/151 230/230/230
f 230/230/230 151/151/151 149/149/149
f 230/230/230 149/149/149 228/228/228
f 155/155/155 2/2/2 5/5/5
f 155/155/155 5/5/5 158/158/158
f 157/157/157 4/4/4 3/3/3
f 157/157/157 3/3/3 156/156/156
f 156/156/156 3/3/3 1/1/1
f 156/156/156 1/1/1 154/154/154
f 38/38/38 117/117/117 119/119/119
f 38/38/38 119/119/119 40/40/40
f 40/40/40 119/119/119 120/120/120
f 40/40/40 120/120/120 41/41/41
f 42/42/42 121/121/121 118/118/118
f 42/42/42 118/118/118 39/39/39
f 186/186/186 43/43/43 45/45/45
f 186/186/186 45/45/45 188/188/188
f 188/188/188 45/45/45 46/46/46
f 188/188/188 46/46/46 189/189/189
f 190/190/190 47/47/47 44/44/44
f 190/190/190 44/44/44 187/187/187
f 192/192/192 261/261/261 264/264/264
f 192/192/192 264/264/264 195/195/195
f 194/194/194 263/263/263 262/262/262
f 194/194/194 262/262/262 193/193/193
f 193/193/193 262/262/262 260/260/260
f 193/193/193 260/260/260 191/191/191
f 266/266/266 113/113/113 116/116/116
f 266/266/266 116/116/116 269/269/269
f 268/268/268 115/115/115 114/114/114
f 268/268/268 114/114/114 267/267/267
f 267/267/267 114/114/114 112/112/112
f 267/267/267 112/112/112 265/265/265
f 6/6/6 75/75/75 85/85/85
f 85/85/85 90/90/90 95/95/95
f 95/95/95 102/102/102 107/107/107
f 107/107/107 80/80/80 223/223/223
f 223/223/223 233/233/233 238/238/238
f 238/238/238 243/243/243 250/250/250
f 250/250/250 255/255/255 228/228/228
f 228/228/228 149/149/149 159/159/159
f 159/159/159 164/164/164 169/169/169
f 169/169/169 176/176/176 181/181/181
f 181/181/181 154/154/154 1/1/1
f 1/1/1 11/11/11 16/16/16
f 16/16/16 21/21/21 28/28/28
f 28/28/28 33/33/33 6/6/6
f 6/6/6 85/85/85 95/95/95
f 95/95/95 107/107/107 223/223/223
f 223/223/223 238/238/238 250/250/250
f 250/250/250 228/228/228 159/159/159
f 159/159/159 169/169/169 181/181/181
f 181/181/181 1/1/1 16/16/16
f 16/16/16 28/28/28 6/6/6
f 6/6/6 95/95/95 223/223/223
f 223/223/223 250/250/250 159/159/159
f 159/159/159 181/181/181 16/16/16
f 16/16/16 6/6/6 223/223/223
f 223/223/223 159/159/159 16/16/16
f 2/2/2 44/44/44 71/71/71
f 2/2/2 71/71/71 12/12/12
f 155/155/155 187/187/187 44/44/44
f 155/155/155 44/44/44 2/2/2
f 34/34/34 49/49/49 39/39/39
f 34/34/34 39/39/39 7/7/7
f 7/7/7 39/39/39 118/118/118
f 7/7/7 118/118/118 76/76/76
f 12/12/12 71/71/71 66/66/66
f 12/12/12 66/66/66 17/17/17
f 17/17/17 66/66/66 60/60/60
f 17/17/17 60/60/60 23/23/23
f 22/22/22 59/59/59 54/54/54
f 22/22/22 54/54/54 29/29/29
f 29/29/29 54/54/54 49/49/49
f 29/29/29 49/49/49 34/34/34
f 145/145/145 86/86/86 76/76/76
f 145/145/145 76/76/76 118/118/118
f 81/81/81 113/113/113 266/266/266
f 81/81/81 266/266/266 224/224/224
f 113/113/113 81/81/81 108/108/108
f 113/113/113 108/108/108 123/123/123
f 140/140/140 91/91/91 86/86/86
f 140/140/140 86/86/86 145/145/145
f 133/133/133 96/96/96 91/91/91
f 133/133/133 91/91/91 140/140/140
f 128/128/128 103/103/103 97/97/97
f 128/128/128 97/97/97 134/134/134
f 123/123/123 108/108/108 103/103/103
f 123/123/123 103/103/103 128/128/128
f 219/219/219 160/160/160 150/150/150
f 219/219/219 150/150/150 192/192/192
f 229/229/229 261/261/261 192/192/192
f 229/229/229 192/192/192 150/150/150
f 187/187/187 155/155/155 182/182/182
f 187/187/187 182/182/182 197/197/197
f 214/214/214 165/165/165 160/160/160
f 214/214/214 160/160/160 219/219/219
f 207/207/207 170/170/170 165/165/165
f 207/207/207 165/165/165 214/214/214
f 202/202/202 177/177/177 171/171/171
f 202/202/202 171/171/171 208/208/208
f 197/197/197 182/182/182 177/177/177
f 197/197/197 177/177/177 202/202/202
f 293/293/293 234/234/234 224/224/224
f 293/293/293 224/224/224 266/266/266
f 261/261/261 229/229/229 256/256/256
f 261/261/261 256/256/256 271/271/271
f 288/288/288 239/239/239 234/234/234
f 288/288/288 234/234/234 293/293/293
f 282/282/282 245/245/245 239/239/239
f 282/282/282 239/239/239 288/288/288
f 276/276/276 251/251/251 244/244/244
f 276/276/276 244/244/244 281/281/281
f 271/271/271 256/256/256 251/251/251
f 271/271/271 251/251/251 276/276/276

