# https://github.com/mikedh/trimesh
v 0.00000000 -0.00000000 0.00000000
v 0.04600000 -0.00000000 0.00000000
v 0.04600000 0.01800000 0.00000000
v 0.00000000 0.01800000 0.00000000
v 0.04577850 -0.00000000 -0.00450879
v 0.04577850 0.01800000 -0.00450879
v 0.04511612 -0.00000000 -0.00897415
v 0.04511612 0.01800000 -0.00897415
v 0.04401926 -0.00000000 -0.01335310
v 0.04401926 0.01800000 -0.01335310
v 0.04249846 -0.00000000 -0.01760344
v 0.04249846 0.01800000 -0.01760344
v 0.04056838 -0.00000000 -0.02168425
v 0.04056838 0.01800000 -0.02168425
v 0.03824760 -0.00000000 -0.02555623
v 0.03824760 0.01800000 -0.02555623
v 0.03555848 -0.00000000 -0.02918209
v 0.03555848 0.01800000 -0.02918209
v 0.03252691 -0.00000000 -0.03252691
v 0.03252691 0.01800000 -0.03252691
v 0.02918209 -0.00000000 -0.03555848
v 0.02918209 0.01800000 -0.03555848
v 0.02555623 -0.00000000 -0.03824760
v 0.02555623 0.01800000 -0.03824760
v 0.02168425 -0.00000000 -0.04056838
v 0.02168425 0.01800000 -0.04056838
v 0.01760344 -0.00000000 -0.04249846
v 0.01760344 0.01800000 -0.04249846
v 0.01335310 -0.00000000 -0.04401926
v 0.01335310 0.01800000 -0.04401926
v 0.00897415 -0.00000000 -0.04511612
v 0.00897415 0.01800000 -0.04511612
v 0.00450879 -0.00000000 -0.04577850
v 0.00450879 0.01800000 -0.04577850
v 0.00000000 -0.00000000 -0.04600000
v 0.00000000 0.01800000 -0.04600000
v -0.00450879 -0.00000000 -0.04577850
v -0.00450879 0.01800000 -0.04577850
v -0.00897415 -0.00000000 -0.04511612
v -0.00897415 0.01800000 -0.04511612
v -0.01335310 -0.00000000 -0.04401926
v -0.01335310 0.01800000 -0.04401926
v -0.01760344 -0.00000000 -0.04249846
v -0.01760344 0.01800000 -0.04249846
v -0.02168425 -0.00000000 -0.04056838
v -0.02168425 0.01800000 -0.04056838
v -0.02555623 -0.00000000 -0.03824760
v -0.02555623 0.01800000 -0.03824760
v -0.02918209 -0.00000000 -0.03555848
v -0.02918209 0.01800000 -0.03555848
v -0.03252691 -0.00000000 -0.03252691
v -0.03252691 0.01800000 -0.03252691
v -0.03555848 -0.00000000 -0.02918209
v -0.03555848 0.01800000 -0.02918209
v -0.03824760 -0.00000000 -0.02555623
v -0.03824760 0.01800000 -0.02555623
v -0.04056838 -0.00000000 -0.02168425
v -0.04056838 0.01800000 -0.02168425
v -0.04249846 -0.00000000 -0.01760344
v -0.04249846 0.01800000 -0.01760344
v -0.04401926 -0.00000000 -0.01335310
v -0.04401926 0.01800000 -0.01335310
v -0.04511612 -0.00000000 -0.00897415
v -0.04511612 0.01800000 -0.00897415
v -0.04577850 -0.00000000 -0.00450879
v -0.04577850 0.01800000 -0.00450879
v -0.04600000 -0.00000000 -0.00000000
v -0.04600000 0.01800000 -0.00000000
v -0.04577850 -0.00000000 0.00450879
v -0.04577850 0.01800000 0.00450879
v -0.04511612 -0.00000000 0.00897415
v -0.04511612 0.01800000 0.00897415
v -0.04401926 -0.00000000 0.01335310
v -0.04401926 0.01800000 0.01335310
v -0.04249846 -0.00000000 0.01760344
v -0.04249846 0.01800000 0.01760344
v -0.04056838 -0.00000000 0.02168425
v -0.04056838 0.01800000 0.02168425
v -0.03824760 -0.00000000 0.02555623
v -0.03824760 0.01800000 0.02555623
v -0.03555848 -0.00000000 0.02918209
v -0.03555848 0.01800000 0.02918209
v -0.03252691 -0.00000000 0.03252691
v -0.03252691 0.01800000 0.03252691
v -0.02918209 -0.00000000 0.03555848
v -0.02918209 0.01800000 0.03555848
v -0.02555623 -0.00000000 0.03824760
v -0.02555623 0.01800000 0.03824760
v -0.02168425 -0.00000000 0.04056838
v -0.02168425 0.01800000 0.04056838
v -0.01760344 -0.00000000 0.04249846
v -0.01760344 0.01800000 0.04249846
v -0.01335310 -0.00000000 0.04401926
v -0.01335310 0.01800000 0.04401926
v -0.00897415 -0.00000000 0.04511612
v -0.00897415 0.01800000 0.04511612
v -0.00450879 -0.00000000 0.04577850
v -0.00450879 0.01800000 0.04577850
v -0.00000000 -0.00000000 0.04600000
v -0.00000000 0.01800000 0.04600000
v 0.00450879 -0.00000000 0.04577850
v 0.00450879 0.01800000 0.04577850
v 0.00897415 -0.00000000 0.04511612
v 0.00897415 0.01800000 0.04511612
v 0.01335310 -0.00000000 0.04401926
v 0.01335310 0.01800000 0.04401926
v 0.01760344 -0.00000000 0.04249846
v 0.01760344 0.01800000 0.04249846
v 0.02168425 -0.00000000 0.04056838
v 0.02168425 0.01800000 0.04056838
v 0.02555623 -0.00000000 0.03824760
v 0.02555623 0.01800000 0.03824760
v 0.02918209 -0.00000000 0.03555848
v 0.02918209 0.01800000 0.03555848
v 0.03252691 -0.00000000 0.03252691
v 0.03252691 0.01800000 0.03252691
v 0.03555848 -0.00000000 0.02918209
v 0.03555848 0.01800000 0.02918209
v 0.03824760 -0.00000000 0.02555623
v 0.03824760 0.01800000 0.02555623
v 0.04056838 -0.00000000 0.02168425
v 0.04056838 0.01800000 0.02168425
v 0.04249846 -0.00000000 0.01760344
v 0.04249846 0.01800000 0.01760344
v 0.04401926 -0.00000000 0.01335310
v 0.04401926 0.01800000 0.01335310
v 0.04511612 -0.00000000 0.00897415
v 0.04511612 0.01800000 0.00897415
v 0.04577850 -0.00000000 0.00450879
v 0.04577850 0.01800000 0.00450879
v 0.00000000 0.02600000 0.00000000
v 0.03200000 0.02600000 0.00000000
v 0.03200000 0.03400000 0.00000000
v 0.00000000 0.03400000 0.00000000
v 0.03184591 0.02600000 -0.00313655
v 0.03184591 0.03400000 -0.00313655
v 0.03138513 0.02600000 -0.00624289
v 0.03138513 0.03400000 -0.00624289
v 0.03062209 0.02600000 -0.00928911
v 0.03062209 0.03400000 -0.00928911
v 0.02956415 0.02600000 -0.01224587
v 0.02956415 0.03400000 -0.01224587
v 0.02822148 0.02600000 -0.01508470
v 0.02822148 0.03400000 -0.01508470
v 0.02660703 0.02600000 -0.01777825
v 0.02660703 0.03400000 -0.01777825
v 0.02473633 0.02600000 -0.02030059
v 0.02473633 0.03400000 -0.02030059
v 0.02262742 0.02600000 -0.02262742
v 0.02262742 0.03400000 -0.02262742
v 0.02030059 0.02600000 -0.02473633
v 0.02030059 0.03400000 -0.02473633
v 0.01777825 0.02600000 -0.02660703
v 0.01777825 0.03400000 -0.02660703
v 0.01508470 0.02600000 -0.02822148
v 0.01508470 0.03400000 -0.02822148
v 0.01224587 0.02600000 -0.02956415
v 0.01224587 0.03400000 -0.02956415
v 0.00928911 0.02600000 -0.03062209
v 0.00928911 0.03400000 -0.03062209
v 0.00624289 0.02600000 -0.03138513
v 0.00624289 0.03400000 -0.03138513
v 0.00313655 0.02600000 -0.03184591
v 0.00313655 0.03400000 -0.03184591
v 0.00000000 0.02600000 -0.03200000
v 0.00000000 0.03400000 -0.03200000
v -0.00313655 0.02600000 -0.03184591
v -0.00313655 0.03400000 -0.03184591
v -0.00624289 0.02600000 -0.03138513
v -0.00624289 0.03400000 -0.03138513
v -0.00928911 0.02600000 -0.03062209
v -0.00928911 0.03400000 -0.03062209
v -0.01224587 0.02600000 -0.02956415
v -0.01224587 0.03400000 -0.02956415
v -0.01508470 0.02600000 -0.02822148
v -0.01508470 0.03400000 -0.02822148
v -0.01777825 0.02600000 -0.02660703
v -0.01777825 0.03400000 -0.02660703
v -0.02030059 0.02600000 -0.02473633
v -0.02030059 0.03400000 -0.02473633
v -0.02262742 0.02600000 -0.02262742
v -0.02262742 0.03400000 -0.02262742
v -0.02473633 0.02600000 -0.02030059
v -0.02473633 0.03400000 -0.02030059
v -0.02660703 0.02600000 -0.01777825
v -0.02660703 0.03400000 -0.01777825
v -0.02822148 0.02600000 -0.01508470
v -0.02822148 0.03400000 -0.01508470
v -0.02956415 0.02600000 -0.01224587
v -0.02956415 0.03400000 -0.01224587
v -0.03062209 0.02600000 -0.00928911
v -0.03062209 0.03400000 -0.00928911
v -0.03138513 0.02600000 -0.00624289
v -0.03138513 0.03400000 -0.00624289
v -0.03184591 0.02600000 -0.00313655
v -0.03184591 0.03400000 -0.00313655
v -0.03200000 0.02600000 -0.00000000
v -0.03200000 0.03400000 -0.00000000
v -0.03184591 0.02600000 0.00313655
v -0.03184591 0.03400000 0.00313655
v -0.03138513 0.02600000 0.00624289
v -0.03138513 0.03400000 0.00624289
v -0.03062209 0.02600000 0.00928911
v -0.03062209 0.03400000 0.00928911
v -0.02956415 0.02600000 0.01224587
v -0.02956415 0.03400000 0.01224587
v -0.02822148 0.02600000 0.01508470
v -0.02822148 0.03400000 0.01508470
v -0.02660703 0.02600000 0.01777825
v -0.02660703 0.03400000 0.01777825
v -0.02473633 0.02600000 0.02030059
v -0.02473633 0.03400000 0.02030059
v -0.02262742 0.02600000 0.02262742
v -0.02262742 0.03400000 0.02262742
v -0.02030059 0.02600000 0.02473633
v -0.02030059 0.03400000 0.02473633
v -0.01777825 0.02600000 0.02660703
v -0.01777825 0.03400000 0.02660703
v -0.01508470 0.02600000 0.02822148
v -0.01508470 0.03400000 0.02822148
v -0.01224587 0.02600000 0.02956415
v -0.01224587 0.03400000 0.02956415
v -0.00928911 0.02600000 0.03062209
v -0.00928911 0.03400000 0.03062209
v -0.00624289 0.02600000 0.03138513
v -0.00624289 0.03400000 0.03138513
v -0.00313655 0.02600000 0.03184591
v -0.00313655 0.03400000 0.03184591
v -0.00000000 0.02600000 0.03200000
v -0.00000000 0.03400000 0.03200000
v 0.00313655 0.02600000 0.03184591
v 0.00313655 0.03400000 0.03184591
v 0.00624289 0.02600000 0.03138513
v 0.00624289 0.03400000 0.03138513
v 0.00928911 0.02600000 0.03062209
v 0.00928911 0.03400000 0.03062209
v 0.01224587 0.02600000 0.02956415
v 0.01224587 0.03400000 0.02956415
v 0.01508470 0.02600000 0.02822148
v 0.01508470 0.03400000 0.02822148
v 0.01777825 0.02600000 0.02660703
v 0.01777825 0.03400000 0.02660703
v 0.02030059 0.02600000 0.02473633
v 0.02030059 0.03400000 0.02473633
v 0.02262742 0.02600000 0.02262742
v 0.02262742 0.03400000 0.02262742
v 0.02473633 0.02600000 0.02030059
v 0.02473633 0.03400000 0.02030059
v 0.02660703 0.02600000 0.01777825
v 0.02660703 0.03400000 0.01777825
v 0.02822148 0.02600000 0.01508470
v 0.02822148 0.03400000 0.01508470
v 0.02956415 0.02600000 0.01224587
v 0.02956415 0.03400000 0.01224587
v 0.03062209 0.02600000 0.00928911
v 0.03062209 0.03400000 0.00928911
v 0.03138513 0.02600000 0.00624289
v 0.03138513 0.03400000 0.00624289
v 0.03184591 0.02600000 0.00313655
v 0.03184591 0.03400000 0.00313655
v 0.04766568 0.03935682 -0.00581886
v 0.08486568 0.10335682 -0.00581886
v 0.05233432 0.03664318 -0.00581886
v 0.08953432 0.10064318 -0.00581886
v 0.04766568 0.03935682 0.00581886
v 0.08486568 0.10335682 0.00581886
v 0.05233432 0.03664318 0.00581886
v 0.08953432 0.10064318 0.00581886
v 0.04790074 0.03928452 0.00187641
v 0.08465246 0.10328452 0.00641301
v 0.05252299 0.03658085 0.00257279
v 0.08927471 0.10058085 0.00710939
v 0.04624585 0.03941915 0.01338353
v 0.08299757 0.10341915 0.01792012
v 0.05086810 0.03671548 0.01407991
v 0.08761983 0.10071548 0.01861651
v 0.04693392 0.03919818 0.00955852
v 0.08104309 0.10319818 0.01852001
v 0.05145347 0.03659387 0.01095538
v 0.08556264 0.10059387 0.01991687
v 0.04365218 0.03940613 0.02056436
v 0.07776135 0.10340613 0.02952585
v 0.04817173 0.03680182 0.02196121
v 0.08228090 0.10080182 0.03092271
v 0.04477870 0.03914988 0.01708094
v 0.07261647 0.10314988 0.03024666
v 0.04915756 0.03680864 0.01920324
v 0.07699533 0.10080864 0.03236897
v 0.03994309 0.03919136 0.02710379
v 0.06778086 0.10319136 0.04026951
v 0.04432195 0.03685012 0.02922610
v 0.07215972 0.10085012 0.04239182
v 0.04155061 0.03918381 0.02411248
v 0.06355749 0.10318381 0.04115825
v 0.04562527 0.03703269 0.02692848
v 0.06763215 0.10103269 0.04397426
v 0.03527643 0.03896731 0.03302561
v 0.05728332 0.10296731 0.05007138
v 0.03935109 0.03681619 0.03584161
v 0.06135798 0.10081619 0.05288739
v 0.03736661 0.03921215 0.03044060
v 0.05611319 0.10321215 0.05094669
v 0.04095700 0.03706620 0.03385585
v 0.05970358 0.10106620 0.05436195
v 0.02975367 0.03893380 0.03826904
v 0.04850025 0.10293380 0.05877514
v 0.03334407 0.03678785 0.04168429
v 0.05209065 0.10078785 0.06219039
v 0.03228635 0.03921936 0.03601020
v 0.04786267 0.10321936 0.05947169
v 0.03528760 0.03704847 0.03993955
v 0.05086391 0.10104847 0.06340104
v 0.02349093 0.03895153 0.04258018
v 0.03906724 0.10295153 0.06604168
v 0.02649217 0.03678064 0.04650953
v 0.04206848 0.10078064 0.06997103
v 0.02642085 0.03921183 0.04070716
v 0.03845160 0.10321183 0.06654635
v 0.02875069 0.03701781 0.04505666
v 0.04078143 0.10101781 0.07089585
v 0.01664836 0.03898219 0.04582601
v 0.02867911 0.10298219 0.07166520
v 0.01897820 0.03678817 0.05017551
v 0.03100894 0.10078817 0.07601470
v 0.01990687 0.03919023 0.04441895
v 0.02809582 0.10319023 0.07199959
v 0.02149914 0.03697765 0.04908041
v 0.02968809 0.10097765 0.07666105
v 0.00940256 0.03902235 0.04792735
v 0.01759151 0.10302235 0.07550799
v 0.01099483 0.03680977 0.05258881
v 0.01918378 0.10080977 0.08016945
v 0.01289665 0.03915660 0.04705329
v 0.01704217 0.10315660 0.07569625
v 0.01370482 0.03693201 0.05190695
v 0.01785033 0.10093201 0.08054992
v 0.00193863 0.03906799 0.04883726
v 0.00608414 0.10306799 0.07748022
v 0.00274679 0.03684340 0.05369092
v 0.00689231 0.10084340 0.08233388
v 0.00555591 0.03911437 0.04854070
v 0.00555591 0.10311437 0.07754070
v 0.00555591 0.03688563 0.05345930
v 0.00555591 0.10088563 0.08245930
v -0.00555591 0.03911437 0.04854070
v -0.00555591 0.10311437 0.07754070
v -0.00555591 0.03688563 0.05345930
v -0.00555591 0.10088563 0.08245930
v -0.00193863 0.03906799 0.04883726
v -0.00608414 0.10306799 0.07748022
v -0.00274679 0.03684340 0.05369092
v -0.00689231 0.10084340 0.08233388
v -0.01289665 0.03915660 0.04705329
v -0.01704217 0.10315660 0.07569625
v -0.01370482 0.03693201 0.05190695
v -0.01785033 0.10093201 0.08054992
v -0.00940256 0.03902235 0.04792735
v -0.01759151 0.10302235 0.07550799
v -0.01099483 0.03680977 0.05258881
v -0.01918378 0.10080977 0.08016945
v -0.01990687 0.03919023 0.04441895
v -0.02809582 0.10319023 0.07199959
v -0.02149914 0.03697765 0.04908041
v -0.02968809 0.10097765 0.07666105
v -0.01664836 0.03898219 0.04582601
v -0.02867911 0.10298219 0.07166520
v -0.01897820 0.03678817 0.05017551
v -0.03100894 0.10078817 0.07601470
v -0.02642085 0.03921183 0.04070716
v -0.03845160 0.10321183 0.06654635
v -0.02875069 0.03701781 0.04505666
v -0.04078143 0.10101781 0.07089585
v -0.02349093 0.03895153 0.04258018
v -0.03906724 0.10295153 0.06604168
v -0.02649217 0.03678064 0.04650953
v -0.04206848 0.10078064 0.06997103
v -0.03228635 0.03921936 0.03601020
v -0.04786266 0.10321936 0.05947169
v -0.03528760 0.03704847 0.03993955
v -0.05086391 0.10104847 0.06340104
v -0.02975367 0.03893320 0.03826869
v -0.04849200 0.10293320 0.05877478
v -0.03334418 0.03678763 0.04168405
v -0.05208251 0.10078763 0.06219015
v -0.03736649 0.03921237 0.03044084
v -0.05610482 0.10321237 0.05094693
v -0.04095701 0.03706680 0.03385621
v -0.05969534 0.10106680 0.05436230
v -0.03527474 0.03892876 0.03300040
v -0.05671478 0.10292876 0.05004617
v -0.03936020 0.03680813 0.03582386
v -0.06080024 0.10080813 0.05286964
v -0.04154150 0.03919187 0.02413023
v -0.06298154 0.10319187 0.04117601
v -0.04562696 0.03707124 0.02695370
v -0.06706700 0.10107124 0.04399947
v -0.03991384 0.03895161 0.02692061
v -0.06374637 0.10295161 0.04008633
v -0.04438632 0.03684020 0.02908829
v -0.06821885 0.10084020 0.04225402
v -0.04471433 0.03915980 0.01721874
v -0.06854686 0.10315980 0.03038446
v -0.04918682 0.03704839 0.01938642
v -0.07301935 0.10104839 0.03255215
v -0.04358271 0.03913582 0.02030998
v -0.07216335 0.10313582 0.02927148
v -0.04825549 0.03684686 0.02175420
v -0.07683613 0.10084686 0.03071569
v -0.04685016 0.03915314 0.00976553
v -0.07543081 0.10315314 0.01872703
v -0.05152294 0.03686418 0.01120975
v -0.08010359 0.10086418 0.02017124
v -0.04622474 0.03936880 0.01332316
v -0.08162436 0.10336880 0.01785975
v -0.05088864 0.03673930 0.01402581
v -0.08628826 0.10073930 0.01856241
v -0.04788019 0.03926070 0.00193050
v -0.08327981 0.10326070 0.00646710
v -0.05254409 0.03663120 0.00263316
v -0.08794371 0.10063120 0.00716976
v -0.04766489 0.03935546 0.00581674
v -0.08481489 0.10335546 0.00581674
v -0.05233511 0.03664454 0.00581674
v -0.08948511 0.10064454 0.00581674
v -0.04766489 0.03935546 -0.00581674
v -0.08481489 0.10335546 -0.00581674
v -0.05233511 0.03664454 -0.00581674
v -0.08948511 0.10064454 -0.00581674
v -0.04788019 0.03926070 -0.00193050
v -0.08327981 0.10326070 -0.00646710
v -0.05254409 0.03663120 -0.00263316
v -0.08794371 0.10063120 -0.00716976
v -0.04622474 0.03936880 -0.01332316
v -0.08162436 0.10336880 -0.01785975
v -0.05088864 0.03673930 -0.01402581
v -0.08628826 0.10073930 -0.01856241
v -0.04685016 0.03915314 -0.00976553
v -0.07543081 0.10315314 -0.01872703
v -0.05152294 0.03686418 -0.01120975
v -0.08010359 0.10086418 -0.02017124
v -0.04358271 0.03913582 -0.02030998
v -0.07216335 0.10313582 -0.02927148
v -0.04825549 0.03684686 -0.02175420
v -0.07683613 0.10084686 -0.03071569
v -0.04471433 0.03915980 -0.01721874
v -0.06854686 0.10315980 -0.03038446
v -0.04918682 0.03704839 -0.01938642
v -0.07301935 0.10104839 -0.03255215
v -0.03991384 0.03895161 -0.02692061
v -0.06374637 0.10295161 -0.04008633
v -0.04438632 0.03684020 -0.02908829
v -0.06821885 0.10084020 -0.04225402
v -0.04154150 0.03919187 -0.02413023
v -0.06298154 0.10319187 -0.04117601
v -0.04562696 0.03707124 -0.02695370
v -0.06706700 0.10107124 -0.04399947
v -0.03527474 0.03892876 -0.03300040
v -0.05671478 0.10292876 -0.05004617
v -0.03936020 0.03680813 -0.03582386
v -0.06080024 0.10080813 -0.05286964
v -0.03736649 0.03921237 -0.03044084
v -0.05610482 0.10321237 -0.05094693
v -0.04095701 0.03706680 -0.03385621
v -0.05969534 0.10106680 -0.05436230
v -0.02975367 0.03893320 -0.03826869
v -0.04849200 0.10293320 -0.05877478
v -0.03334418 0.03678763 -0.04168405
v -0.05208251 0.10078763 -0.06219015
v -0.03228635 0.03921936 -0.03601020
v -0.04786266 0.10321936 -0.05947169
v -0.03528760 0.03704847 -0.03993955
v -0.05086391 0.10104847 -0.06340104
v -0.02349093 0.03895153 -0.04258018
v -0.03906724 0.10295153 -0.06604168
v -0.02649217 0.03678064 -0.04650953
v -0.04206848 0.10078064 -0.06997103
v -0.02642085 0.03921183 -0.04070716
v -0.03845160 0.10321183 -0.06654635
v -0.02875069 0.03701781 -0.04505666
v -0.04078143 0.10101781 -0.07089585
v -0.01664836 0.03898219 -0.04582601
v -0.02867911 0.10298219 -0.07166520
v -0.01897820 0.03678817 -0.05017551
v -0.03100894 0.10078817 -0.07601470
v -0.01990687 0.03919023 -0.04441895
v -0.02809582 0.10319023 -0.07199959
v -0.02149914 0.03697765 -0.04908041
v -0.02968809 0.10097765 -0.07666105
v -0.00940256 0.03902235 -0.04792735
v -0.01759151 0.10302235 -0.07550799
v -0.01099483 0.03680977 -0.05258881
v -0.01918378 0.10080977 -0.08016945
v -0.01289665 0.03915660 -0.04705329
v -0.01704217 0.10315660 -0.07569625
v -0.01370482 0.03693201 -0.05190695
v -0.01785033 0.10093201 -0.08054992
v -0.00193863 0.03906799 -0.04883726
v -0.00608414 0.10306799 -0.07748022
v -0.00274679 0.03684340 -0.05369092
v -0.00689231 0.10084340 -0.08233388
v -0.00555591 0.03911437 -0.04854070
v -0.00555591 0.10311437 -0.07754070
v -0.00555591 0.03688563 -0.05345930
v -0.00555591 0.10088563 -0.08245930
v 0.00555591 0.03911437 -0.04854070
v 0.00555591 0.10311437 -0.07754070
v 0.00555591 0.03688563 -0.05345930
v 0.00555591 0.10088563 -0.08245930
v 0.00193863 0.03906799 -0.04883726
v 0.00608414 0.10306799 -0.07748022
v 0.00274679 0.03684340 -0.05369092
v 0.00689231 0.10084340 -0.08233388
v 0.01289665 0.03915660 -0.04705329
v 0.01704217 0.10315660 -0.07569625
v 0.01370482 0.03693201 -0.05190695
v 0.01785033 0.10093201 -0.08054992
v 0.00940256 0.03902235 -0.04792735
v 0.01759151 0.10302235 -0.07550799
v 0.01099483 0.03680977 -0.05258881
v 0.01918378 0.10080977 -0.08016945
v 0.01990687 0.03919023 -0.04441895
v 0.02809582 0.10319023 -0.07199959
v 0.02149914 0.03697765 -0.04908041
v 0.02968809 0.10097765 -0.07666105
v 0.01664836 0.03898219 -0.04582601
v 0.02867911 0.10298219 -0.07166520
v 0.01897820 0.03678817 -0.05017551
v 0.03100894 0.10078817 -0.07601470
v 0.02642085 0.03921183 -0.04070716
v 0.03845160 0.10321183 -0.06654635
v 0.02875069 0.03701781 -0.04505666
v 0.04078143 0.10101781 -0.07089585
v 0.02349093 0.03895153 -0.04258018
v 0.03906724 0.10295153 -0.06604168
v 0.02649217 0.03678064 -0.04650953
v 0.04206848 0.10078064 -0.06997103
v 0.03228635 0.03921936 -0.03601020
v 0.04786267 0.10321936 -0.05947169
v 0.03528760 0.03704847 -0.03993955
v 0.05086391 0.10104847 -0.06340104
v 0.02975367 0.03893380 -0.03826904
v 0.04850025 0.10293380 -0.05877514
v 0.03334407 0.03678785 -0.04168429
v 0.05209065 0.10078785 -0.06219039
v 0.03736661 0.03921215 -0.03044060
v 0.05611319 0.10321215 -0.05094669
v 0.04095700 0.03706620 -0.03385585
v 0.05970358 0.10106620 -0.05436195
v 0.03527643 0.03896731 -0.03302561
v 0.05728332 0.10296731 -0.05007138
v 0.03935109 0.03681619 -0.03584161
v 0.06135798 0.10081619 -0.05288739
v 0.04155061 0.03918381 -0.02411248
v 0.06355749 0.10318381 -0.04115825
v 0.04562527 0.03703269 -0.02692848
v 0.06763215 0.10103269 -0.04397426
v 0.03994309 0.03919136 -0.02710379
v 0.06778086 0.10319136 -0.04026951
v 0.04432195 0.03685012 -0.02922610
v 0.07215972 0.10085012 -0.04239182
v 0.04477870 0.03914988 -0.01708094
v 0.07261647 0.10314988 -0.03024666
v 0.04915756 0.03680864 -0.01920324
v 0.07699533 0.10080864 -0.03236897
v 0.04365218 0.03940613 -0.02056436
v 0.07776135 0.10340613 -0.02952585
v 0.04817173 0.03680182 -0.02196121
v 0.08228090 0.10080182 -0.03092271
v 0.04693392 0.03919818 -0.00955852
v 0.08104309 0.10319818 -0.01852001
v 0.05145347 0.03659387 -0.01095538
v 0.08556264 0.10059387 -0.01991687
v 0.04624585 0.03941915 -0.01338353
v 0.08299757 0.10341915 -0.01792012
v 0.05086810 0.03671548 -0.01407991
v 0.08761983 0.10071548 -0.01861651
v 0.04790074 0.03928452 -0.00187641
v 0.08465246 0.10328452 -0.00641301
v 0.05252299 0.03658085 -0.00257279
v 0.08927471 0.10058085 -0.00710939
v 0.07760000 0.09800000 -0.03100000
v 0.07760000 0.09800000 0.03100000
v 0.07760000 0.10600000 -0.03100000
v 0.07760000 0.10600000 0.03100000
v 0.09000000 0.09800000 -0.03100000
v 0.09000000 0.09800000 0.03100000
v 0.09000000 0.10600000 -0.03100000
v 0.09000000 0.10600000 0.03100000
v -0.08970000 0.09800000 -0.01800000
v -0.08970000 0.09800000 0.01800000
v -0.08970000 0.10600000 -0.01800000
v -0.08970000 0.10600000 0.01800000
v -0.07870000 0.09800000 -0.01800000
v -0.07870000 0.09800000 0.01800000
v -0.07870000 0.10600000 -0.01800000
v -0.07870000 0.10600000 0.01800000
vn 0.00000000 -1.00000000 0.00000000
vn 0.71782099 -0.69622772 0.00000000
vn 0.71782099 0.69622772 0.00000000
vn 0.00000000 1.00000000 0.00000000
vn 0.71436448 -0.69622772 -0.07035876
vn 0.71436448 0.69622772 -0.07035876
vn 0.70402826 -0.69622772 -0.14003993
vn 0.70402826 0.69622772 -0.14003993
vn 0.68691185 -0.69622772 -0.20837243
vn 0.68691185 0.69622772 -0.20837243
vn 0.66318012 -0.69622772 -0.27469820
vn 0.66318012 0.69622772 -0.27469820
vn 0.63306159 -0.69622772 -0.33837847
vn 0.63306159 0.69622772 -0.33837847
vn 0.59684634 -0.69622772 -0.39879997
vn 0.59684634 0.69622772 -0.39879997
vn 0.55488313 -0.69622772 -0.45538081
vn 0.55488313 0.69622772 -0.45538081
vn 0.50757609 -0.69622772 -0.50757609
vn 0.50757609 0.69622772 -0.50757609
vn 0.45538081 -0.69622772 -0.55488313
vn 0.45538081 0.69622772 -0.55488313
vn 0.39879997 -0.69622772 -0.59684634
vn 0.39879997 0.69622772 -0.59684634
vn 0.33837847 -0.69622772 -0.63306159
vn 0.33837847 0.69622772 -0.63306159
vn 0.27469820 -0.69622772 -0.66318012
vn 0.27469820 0.69622772 -0.66318012
vn 0.20837243 -0.69622772 -0.68691185
vn 0.20837243 0.69622772 -0.68691185
vn 0.14003993 -0.69622772 -0.70402826
vn 0.14003993 0.69622772 -0.70402826
vn 0.07035876 -0.69622772 -0.71436448
vn 0.07035876 0.69622772 -0.71436448
vn 0.00000000 -0.69622772 -0.71782099
vn 0.00000000 0.69622772 -0.71782099
vn -0.07035876 -0.69622772 -0.71436448
vn -0.07035876 0.69622772 -0.71436448
vn -0.14003993 -0.69622772 -0.70402826
vn -0.14003993 0.69622772 -0.70402826
vn -0.20837243 -0.69622772 -0.68691185
vn -0.20837243 0.69622772 -0.68691185
vn -0.27469820 -0.69622772 -0.66318012
vn -0.27469820 0.69622772 -0.66318012
vn -0.33837847 -0.69622772 -0.63306159
vn -0.33837847 0.69622772 -0.63306159
vn -0.39879997 -0.69622772 -0.59684634
vn -0.39879997 0.69622772 -0.59684634
vn -0.45538081 -0.69622772 -0.55488313
vn -0.45538081 0.69622772 -0.55488313
vn -0.50757609 -0.69622772 -0.50757609
vn -0.50757609 0.69622772 -0.50757609
vn -0.55488313 -0.69622772 -0.45538081
vn -0.55488313 0.69622772 -0.45538081
vn -0.59684634 -0.69622772 -0.39879997
vn -0.59684634 0.69622772 -0.39879997
vn -0.63306159 -0.69622772 -0.33837847
vn -0.63306159 0.69622772 -0.33837847
vn -0.66318012 -0.69622772 -0.27469820
vn -0.66318012 0.69622772 -0.27469820
vn -0.68691185 -0.69622772 -0.20837243
vn -0.68691185 0.69622772 -0.20837243
vn -0.70402826 -0.69622772 -0.14003993
vn -0.70402826 0.69622772 -0.14003993
vn -0.71436448 -0.69622772 -0.07035876
vn -0.71436448 0.69622772 -0.07035876
vn -0.71782099 -0.69622772 0.00000000
vn -0.71782099 0.69622772 0.00000000
vn -0.71436448 -0.69622772 0.07035876
vn -0.71436448 0.69622772 0.07035876
vn -0.70402826 -0.69622772 0.14003993
vn -0.70402826 0.69622772 0.14003993
vn -0.68691185 -0.69622772 0.20837243
vn -0.68691185 0.69622772 0.20837243
vn -0.66318012 -0.69622772 0.27469820
vn -0.66318012 0.69622772 0.27469820
vn -0.63306159 -0.69622772 0.33837847
vn -0.63306159 0.69622772 0.33837847
vn -0.59684634 -0.69622772 0.39879997
vn -0.59684634 0.69622772 0.39879997
vn -0.55488313 -0.69622772 0.45538081
vn -0.55488313 0.69622772 0.45538081
vn -0.50757609 -0.69622772 0.50757609
vn -0.50757609 0.69622772 0.50757609
vn -0.45538081 -0.69622772 0.55488313
vn -0.45538081 0.69622772 0.55488313
vn -0.39879997 -0.69622772 0.59684634
vn -0.39879997 0.69622772 0.59684634
vn -0.33837847 -0.69622772 0.63306159
vn -0.33837847 0.69622772 0.63306159
vn -0.27469820 -0.69622772 0.66318012
vn -0.27469820 0.69622772 0.66318012
vn -0.20837243 -0.69622772 0.68691185
vn -0.20837243 0.69622772 0.68691185
vn -0.14003993 -0.69622772 0.70402826
vn -0.14003993 0.69622772 0.70402826
vn -0.07035876 -0.69622772 0.71436448
vn -0.07035876 0.69622772 0.71436448
vn -0.00000000 -0.69622772 0.71782099
vn 0.00000000 0.69622772 0.71782099
vn 0.07035876 -0.69622772 0.71436448
vn 0.07035876 0.69622772 0.71436448
vn 0.14003993 -0.69622772 0.70402826
vn 0.14003993 0.69622772 0.70402826
vn 0.20837243 -0.69622772 0.68691185
vn 0.20837243 0.69622772 0.68691185
vn 0.27469820 -0.69622772 0.66318012
vn 0.27469820 0.69622772 0.66318012
vn 0.33837847 -0.69622772 0.63306159
vn 0.33837847 0.69622772 0.63306159
vn 0.39879997 -0.69622772 0.59684634
vn 0.39879997 0.69622772 0.59684634
vn 0.45538081 -0.69622772 0.55488313
vn 0.45538081 0.69622772 0.55488313
vn 0.50757609 -0.69622772 0.50757609
vn 0.50757609 0.69622772 0.50757609
vn 0.55488313 -0.69622772 0.45538081
vn 0.55488313 0.69622772 0.45538081
vn 0.59684634 -0.69622772 0.39879997
vn 0.59684634 0.69622772 0.39879997
vn 0.63306159 -0.69622772 0.33837847
vn 0.63306159 0.69622772 0.33837847
vn 0.66318012 -0.69622772 0.27469820
vn 0.66318012 0.69622772 0.27469820
vn 0.68691185 -0.69622772 0.20837243
vn 0.68691185 0.69622772 0.20837243
vn 0.70402826 -0.69622772 0.14003993
vn 0.70402826 0.69622772 0.14003993
vn 0.71436448 -0.69622772 0.07035876
vn 0.71436448 0.69622772 0.07035876
vn 0.00000000 -1.00000000 0.00000000
vn 0.71782099 -0.69622772 0.00000000
vn 0.71782099 0.69622772 0.00000000
vn 0.00000000 1.00000000 0.00000000
vn 0.71436448 -0.69622772 -0.07035876
vn 0.71436448 0.69622772 -0.07035876
vn 0.70402826 -0.69622772 -0.14003993
vn 0.70402826 0.69622772 -0.14003993
vn 0.68691185 -0.69622772 -0.20837243
vn 0.68691185 0.69622772 -0.20837243
vn 0.66318012 -0.69622772 -0.27469820
vn 0.66318012 0.69622772 -0.27469820
vn 0.63306159 -0.69622772 -0.33837847
vn 0.63306159 0.69622772 -0.33837847
vn 0.59684634 -0.69622772 -0.39879997
vn 0.59684634 0.69622772 -0.39879997
vn 0.55488313 -0.69622772 -0.45538081
vn 0.55488313 0.69622772 -0.45538081
vn 0.50757609 -0.69622772 -0.50757609
vn 0.50757609 0.69622772 -0.50757609
vn 0.45538081 -0.69622772 -0.55488313
vn 0.45538081 0.69622772 -0.55488313
vn 0.39879997 -0.69622772 -0.59684634
vn 0.39879997 0.69622772 -0.59684634
vn 0.33837847 -0.69622772 -0.63306159
vn 0.33837847 0.69622772 -0.63306159
vn 0.27469820 -0.69622772 -0.66318012
vn 0.27469820 0.69622772 -0.66318012
vn 0.20837243 -0.69622772 -0.68691185
vn 0.20837243 0.69622772 -0.68691185
vn 0.14003993 -0.69622772 -0.70402826
vn 0.14003993 0.69622772 -0.70402826
vn 0.07035876 -0.69622772 -0.71436448
vn 0.07035876 0.69622772 -0.71436448
vn 0.00000000 -0.69622772 -0.71782099
vn -0.00000000 0.69622772 -0.71782099
vn -0.07035876 -0.69622772 -0.71436448
vn -0.07035876 0.69622772 -0.71436448
vn -0.14003993 -0.69622772 -0.70402826
vn -0.14003993 0.69622772 -0.70402826
vn -0.20837243 -0.69622772 -0.68691185
vn -0.20837243 0.69622772 -0.68691185
vn -0.27469820 -0.69622772 -0.66318012
vn -0.27469820 0.69622772 -0.66318012
vn -0.33837847 -0.69622772 -0.63306159
vn -0.33837847 0.69622772 -0.63306159
vn -0.39879997 -0.69622772 -0.59684634
vn -0.39879997 0.69622772 -0.59684634
vn -0.45538081 -0.69622772 -0.55488313
vn -0.45538081 0.69622772 -0.55488313
vn -0.50757609 -0.69622772 -0.50757609
vn -0.50757609 0.69622772 -0.50757609
vn -0.55488313 -0.69622772 -0.45538081
vn -0.55488313 0.69622772 -0.45538081
vn -0.59684634 -0.69622772 -0.39879997
vn -0.59684634 0.69622772 -0.39879997
vn -0.63306159 -0.69622772 -0.33837847
vn -0.63306159 0.69622772 -0.33837847
vn -0.66318012 -0.69622772 -0.27469820
vn -0.66318012 0.69622772 -0.27469820
vn -0.68691185 -0.69622772 -0.20837243
vn -0.68691185 0.69622772 -0.20837243
vn -0.70402826 -0.69622772 -0.14003993
vn -0.70402826 0.69622772 -0.14003993
vn -0.71436448 -0.69622772 -0.07035876
vn -0.71436448 0.69622772 -0.07035876
vn -0.71782099 -0.69622772 -0.00000000
vn -0.71782099 0.69622772 0.00000000
vn -0.71436448 -0.69622772 0.07035876
vn -0.71436448 0.69622772 0.07035876
vn -0.70402826 -0.69622772 0.14003993
vn -0.70402826 0.69622772 0.14003993
vn -0.68691185 -0.69622772 0.20837243
vn -0.68691185 0.69622772 0.20837243
vn -0.66318012 -0.69622772 0.27469820
vn -0.66318012 0.69622772 0.27469820
vn -0.63306159 -0.69622772 0.33837847
vn -0.63306159 0.69622772 0.33837847
vn -0.59684634 -0.69622772 0.39879997
vn -0.59684634 0.69622772 0.39879997
vn -0.55488313 -0.69622772 0.45538081
vn -0.55488313 0.69622772 0.45538081
vn -0.50757609 -0.69622772 0.50757609
vn -0.50757609 0.69622772 0.50757609
vn -0.45538081 -0.69622772 0.55488313
vn -0.45538081 0.69622772 0.55488313
vn -0.39879997 -0.69622772 0.59684634
vn -0.39879997 0.69622772 0.59684634
vn -0.33837847 -0.69622772 0.63306159
vn -0.33837847 0.69622772 0.63306159
vn -0.27469820 -0.69622772 0.66318012
vn -0.27469820 0.69622772 0.66318012
vn -0.20837243 -0.69622772 0.68691185
vn -0.20837243 0.69622772 0.68691185
vn -0.14003993 -0.69622772 0.70402826
vn -0.14003993 0.69622772 0.70402826
vn -0.07035876 -0.69622772 0.71436448
vn -0.07035876 0.69622772 0.71436448
vn -0.00000000 -0.69622772 0.71782099
vn -0.00000000 0.69622772 0.71782099
vn 0.07035876 -0.69622772 0.71436448
vn 0.07035876 0.69622772 0.71436448
vn 0.14003993 -0.69622772 0.70402826
vn 0.14003993 0.69622772 0.70402826
vn 0.20837243 -0.69622772 0.68691185
vn 0.20837243 0.69622772 0.68691185
vn 0.27469820 -0.69622772 0.66318012
vn 0.27469820 0.69622772 0.66318012
vn 0.33837847 -0.69622772 0.63306159
vn 0.33837847 0.69622772 0.63306159
vn 0.39879997 -0.69622772 0.59684634
vn 0.39879997 0.69622772 0.59684634
vn 0.45538081 -0.69622772 0.55488313
vn 0.45538081 0.69622772 0.55488313
vn 0.50757609 -0.69622772 0.50757609
vn 0.50757609 0.69622772 0.50757609
vn 0.55488313 -0.69622772 0.45538081
vn 0.55488313 0.69622772 0.45538081
vn 0.59684634 -0.69622772 0.39879997
vn 0.59684634 0.69622772 0.39879997
vn 0.63306159 -0.69622772 0.33837847
vn 0.63306159 0.69622772 0.33837847
vn 0.66318012 -0.69622772 0.27469820
vn 0.66318012 0.69622772 0.27469820
vn 0.68691185 -0.69622772 0.20837243
vn 0.68691185 0.69622772 0.20837243
vn 0.70402826 -0.69622772 0.14003993
vn 0.70402826 0.69622772 0.14003993
vn 0.71436448 -0.69622772 0.07035876
vn 0.71436448 0.69622772 0.07035876
vn -0.78928881 -0.20902115 -0.57735027
vn -0.20902115 0.78928881 -0.57735027
vn 0.20902115 -0.78928881 -0.57735027
vn 0.78928881 0.20902115 -0.57735027
vn -0.78928881 -0.20902115 0.57735027
vn -0.20902115 0.78928881 0.57735027
vn 0.20902115 -0.78928881 0.57735027
vn 0.78928881 0.20902115 0.57735027
vn -0.69898271 -0.21734685 -0.68131015
vn -0.12504885 0.78211006 -0.61046428
vn 0.28940935 -0.79548213 -0.53240061
vn 0.86334322 0.20397478 -0.46155474
vn -0.86334322 -0.20397478 0.46155474
vn -0.28940935 0.79548213 0.53240061
vn 0.12504885 -0.78211006 0.61046428
vn 0.69898271 0.21734685 0.68131015
vn -0.58775986 -0.23766825 -0.77333831
vn -0.04877038 0.77365301 -0.63172975
vn 0.37867124 -0.79455751 -0.47464349
vn 0.91766073 0.21676374 -0.33303493
vn -0.91766073 -0.21676374 0.33303493
vn -0.37867124 0.79455751 0.47464349
vn 0.04877038 -0.77365301 0.63172975
vn 0.58775986 0.23766825 0.77333831
vn -0.44359401 -0.27209331 -0.85392598
vn 0.00899529 0.76842530 -0.63987627
vn 0.49275272 -0.77272874 -0.40010630
vn 0.94534202 0.26778987 -0.18605659
vn -0.94534202 -0.26778987 0.18605659
vn -0.49275272 0.77272874 0.40010630
vn -0.00899529 -0.76842530 0.63987627
vn 0.44359401 0.27209331 0.85392598
vn -0.28543527 -0.28798389 -0.91410720
vn 0.07866842 0.77089540 -0.63208509
vn 0.58586272 -0.74796449 -0.31195192
vn 0.94996642 0.31091480 -0.02992980
vn -0.94996642 -0.31091480 0.02992980
vn -0.58586272 0.74796449 0.31195192
vn -0.07866842 -0.77089540 0.63208509
vn 0.28543527 0.28798389 0.91410720
vn -0.13662005 -0.28544829 -0.94860647
vn 0.17363513 0.77374933 -0.60923134
vn 0.63112619 -0.74432514 -0.21831127
vn 0.94138136 0.31487247 0.12106386
vn -0.94138136 -0.31487247 -0.12106386
vn -0.63112619 0.74432514 0.21831127
vn -0.17363513 -0.77374933 0.60923134
vn 0.13662005 0.28544829 0.94860647
vn 0.01291500 -0.28226803 -0.95924865
vn 0.27014476 0.77463835 -0.57180175
vn 0.65468097 -0.74647610 -0.11902211
vn 0.91191073 0.31043028 0.26842479
vn -0.91191073 -0.31043028 -0.26842479
vn -0.65468097 0.74647610 0.11902211
vn -0.27014476 -0.77463835 0.57180175
vn -0.01291500 0.28226803 0.95924865
vn 0.16308496 -0.28081868 -0.94580345
vn 0.36137089 0.77400350 -0.51993236
vn 0.66128094 -0.74997329 -0.01573461
vn 0.85956688 0.30484889 0.41013648
vn -0.85956688 -0.30484889 -0.41013648
vn -0.66128094 0.74997329 0.01573461
vn -0.36137089 -0.77400350 0.51993236
vn -0.16308496 0.28081868 0.94580345
vn 0.30993208 -0.28127572 -0.90819936
vn 0.44468854 0.77190117 -0.45433543
vn 0.65041279 -0.75439878 0.08857583
vn 0.78516925 0.29877811 0.54243976
vn -0.78516925 -0.29877811 -0.54243976
vn -0.65041279 0.75439878 -0.08857583
vn -0.44468854 -0.77190117 0.45433543
vn -0.30993208 0.28127572 0.90819936
vn 0.44934826 -0.28360844 -0.84714367
vn 0.51749821 0.76851616 -0.37626922
vn 0.62216160 -0.75929975 0.19073237
vn 0.69031154 0.29282485 0.66160682
vn -0.69031154 -0.29282485 -0.66160682
vn -0.62216160 0.75929975 -0.19073237
vn -0.51749821 -0.76851616 0.37626922
vn -0.44934826 0.28360844 0.84714367
vn 0.57735027 -0.28759137 -0.76417136
vn 0.57735027 0.76417136 -0.28759137
vn 0.57735027 -0.76417136 0.28759137
vn 0.57735027 0.28759137 0.76417136
vn -0.57735027 -0.28759137 -0.76417136
vn -0.57735027 0.76417136 -0.28759137
vn -0.57735027 -0.76417136 0.28759137
vn -0.57735027 0.28759137 0.76417136
vn 0.69031154 -0.29282485 -0.66160682
vn 0.62216160 0.75929975 -0.19073237
vn 0.51749821 -0.76851616 0.37626922
vn 0.44934826 0.28360844 0.84714367
vn -0.44934826 -0.28360844 -0.84714367
vn -0.51749821 0.76851616 -0.37626922
vn -0.62216160 -0.75929975 0.19073237
vn -0.69031154 0.29282485 0.66160682
vn 0.78516925 -0.29877811 -0.54243976
vn 0.65041279 0.75439878 -0.08857583
vn 0.44468854 -0.77190117 0.45433543
vn 0.30993208 0.28127572 0.90819936
vn -0.30993208 -0.28127572 -0.90819936
vn -0.44468854 0.77190117 -0.45433543
vn -0.65041279 -0.75439878 0.08857583
vn -0.78516925 0.29877811 0.54243976
vn 0.85956688 -0.30484889 -0.41013648
vn 0.66128094 0.74997329 0.01573461
vn 0.36137089 -0.77400350 0.51993236
vn 0.16308496 0.28081868 0.94580345
vn -0.16308496 -0.28081868 -0.94580345
vn -0.36137089 0.77400350 -0.51993236
vn -0.66128094 -0.74997329 -0.01573461
vn -0.85956688 0.30484889 0.41013648
vn 0.91191071 -0.31043032 -0.26842481
vn 0.65468101 0.74647607 0.11902209
vn 0.27014473 -0.77463836 0.57180174
vn 0.01291503 0.28226803 0.95924865
vn -0.01291503 -0.28226803 -0.95924865
vn -0.27014473 0.77463836 -0.57180174
vn -0.65468101 -0.74647607 -0.11902209
vn -0.91191071 0.31043032 0.26842481
vn 0.94134304 -0.31497509 -0.12109487
vn 0.63121453 0.74425616 0.21829104
vn 0.17357066 -0.77376862 0.60922520
vn -0.13655785 0.28546263 0.94861111
vn 0.13655785 -0.28546263 -0.94861111
vn -0.17357066 0.77376862 -0.60922520
vn -0.63121453 -0.74425616 -0.21829104
vn -0.94134304 0.31497509 0.12109487
vn 0.94766072 -0.31803516 0.02815686
vn 0.59203530 0.74353125 0.31089466
vn 0.07405340 -0.77149739 0.63190812
vn -0.28157202 0.29006902 0.91464592
vn 0.28157202 -0.29006902 -0.91464592
vn -0.07405340 0.77149739 -0.63190812
vn -0.59203530 -0.74353125 -0.31089466
vn -0.94766072 0.31803516 -0.02815686
vn 0.93201728 -0.31662965 0.17632201
vn 0.53634384 0.74591372 0.39490253
vn -0.02434977 -0.76811817 0.63984496
vn -0.42002321 0.29442520 0.85842548
vn 0.42002321 -0.29442520 -0.85842548
vn 0.02434977 0.76811817 -0.63984496
vn -0.53634384 -0.74591372 -0.39490253
vn -0.93201728 0.31662965 -0.17632201
vn 0.90400754 -0.27909289 0.32384799
vn 0.43696808 0.76673816 0.47028873
vn -0.09518961 -0.76854919 0.63266981
vn -0.56222907 0.27728186 0.77911055
vn 0.56222907 -0.27728186 -0.77911055
vn 0.09518961 0.76854919 -0.63266981
vn -0.43696808 -0.76673816 -0.47028873
vn -0.90400754 0.27909289 -0.32384799
vn 0.86057662 -0.21768880 0.46045572
vn 0.30275880 0.79080626 0.53194226
vn -0.13672192 -0.77996408 0.61070709
vn -0.69453974 0.22853098 0.68219363
vn 0.69453974 -0.22853098 -0.68219363
vn 0.13672192 0.77996408 -0.61070709
vn -0.30275880 -0.79080626 -0.53194226
vn -0.86057662 0.21768880 -0.46045572
vn 0.78916657 -0.20948218 0.57735027
vn 0.20948218 0.78916657 0.57735027
vn -0.20948218 -0.78916657 0.57735027
vn -0.78916657 0.20948218 0.57735027
vn 0.78916657 -0.20948218 -0.57735027
vn 0.20948218 0.78916657 -0.57735027
vn -0.20948218 -0.78916657 -0.57735027
vn -0.78916657 0.20948218 -0.57735027
vn 0.69453974 -0.22853098 0.68219363
vn 0.13672192 0.77996408 0.61070709
vn -0.30275880 -0.79080626 0.53194226
vn -0.86057662 0.21768880 0.46045572
vn 0.86057662 -0.21768880 -0.46045572
vn 0.30275880 0.79080626 -0.53194226
vn -0.13672192 -0.77996408 -0.61070709
vn -0.69453974 0.22853098 -0.68219363
vn 0.56222907 -0.27728186 0.77911055
vn 0.09518961 0.76854919 0.63266981
vn -0.43696808 -0.76673816 0.47028873
vn -0.90400754 0.27909289 0.32384799
vn 0.90400754 -0.27909289 -0.32384799
vn 0.43696808 0.76673816 -0.47028873
vn -0.09518961 -0.76854919 -0.63266981
vn -0.56222907 0.27728186 -0.77911055
vn 0.42002321 -0.29442520 0.85842548
vn 0.02434977 0.76811817 0.63984496
vn -0.53634384 -0.74591372 0.39490253
vn -0.93201728 0.31662965 0.17632201
vn 0.93201728 -0.31662965 -0.17632201
vn 0.53634384 0.74591372 -0.39490253
vn -0.02434977 -0.76811817 -0.63984496
vn -0.42002321 0.29442520 -0.85842548
vn 0.28157202 -0.29006902 0.91464592
vn -0.07405340 0.77149739 0.63190812
vn -0.59203530 -0.74353125 0.31089466
vn -0.94766072 0.31803516 0.02815686
vn 0.94766072 -0.31803516 -0.02815686
vn 0.59203530 0.74353125 -0.31089466
vn 0.07405340 -0.77149739 -0.63190812
vn -0.28157202 0.29006902 -0.91464592
vn 0.13655785 -0.28546263 0.94861111
vn -0.17357066 0.77376862 0.60922520
vn -0.63121453 -0.74425616 0.21829104
vn -0.94134304 0.31497509 -0.12109487
vn 0.94134304 -0.31497509 0.12109487
vn 0.63121453 0.74425616 -0.21829104
vn 0.17357066 -0.77376862 -0.60922520
vn -0.13655785 0.28546263 -0.94861111
vn -0.01291503 -0.28226803 0.95924865
vn -0.27014473 0.77463836 0.57180174
vn -0.65468101 -0.74647607 0.11902209
vn -0.91191071 0.31043032 -0.26842481
vn 0.91191071 -0.31043032 0.26842481
vn 0.65468101 0.74647607 -0.11902209
vn 0.27014473 -0.77463836 -0.57180174
vn 0.01291503 0.28226803 -0.95924865
vn -0.16308496 -0.28081868 0.94580345
vn -0.36137089 0.77400350 0.51993236
vn -0.66128094 -0.74997329 0.01573461
vn -0.85956688 0.30484889 -0.41013648
vn 0.85956688 -0.30484889 0.41013648
vn 0.66128094 0.74997329 -0.01573461
vn 0.36137089 -0.77400350 -0.51993236
vn 0.16308496 0.28081868 -0.94580345
vn -0.30993208 -0.28127572 0.90819936
vn -0.44468854 0.77190117 0.45433543
vn -0.65041279 -0.75439878 -0.08857583
vn -0.78516925 0.29877811 -0.54243976
vn 0.78516925 -0.29877811 0.54243976
vn 0.65041279 0.75439878 0.08857583
vn 0.44468854 -0.77190117 -0.45433543
vn 0.30993208 0.28127572 -0.90819936
vn -0.44934826 -0.28360844 0.84714367
vn -0.51749821 0.76851616 0.37626922
vn -0.62216160 -0.75929975 -0.19073237
vn -0.69031154 0.29282485 -0.66160682
vn 0.69031154 -0.29282485 0.66160682
vn 0.62216160 0.75929975 0.19073237
vn 0.51749821 -0.76851616 -0.37626922
vn 0.44934826 0.28360844 -0.84714367
vn -0.57735027 -0.28759137 0.76417136
vn -0.57735027 0.76417136 0.28759137
vn -0.57735027 -0.76417136 -0.28759137
vn -0.57735027 0.28759137 -0.76417136
vn 0.57735027 -0.28759137 0.76417136
vn 0.57735027 0.76417136 0.28759137
vn 0.57735027 -0.76417136 -0.28759137
vn 0.57735027 0.28759137 -0.76417136
vn -0.69031154 -0.29282485 0.66160682
vn -0.62216160 0.75929975 0.19073237
vn -0.51749821 -0.76851616 -0.37626922
vn -0.44934826 0.28360844 -0.84714367
vn 0.44934826 -0.28360844 0.84714367
vn 0.51749821 0.76851616 0.37626922
vn 0.62216160 -0.75929975 -0.19073237
vn 0.69031154 0.29282485 -0.66160682
vn -0.78516925 -0.29877811 0.54243976
vn -0.65041279 0.75439878 0.08857583
vn -0.44468854 -0.77190117 -0.45433543
vn -0.30993208 0.28127572 -0.90819936
vn 0.30993208 -0.28127572 0.90819936
vn 0.44468854 0.77190117 0.45433543
vn 0.65041279 -0.75439878 -0.08857583
vn 0.78516925 0.29877811 -0.54243976
vn -0.85956688 -0.30484889 0.41013648
vn -0.66128094 0.74997329 -0.01573461
vn -0.36137089 -0.77400350 -0.51993236
vn -0.16308496 0.28081868 -0.94580345
vn 0.16308496 -0.28081868 0.94580345
vn 0.36137089 0.77400350 0.51993236
vn 0.66128094 -0.74997329 0.01573461
vn 0.85956688 0.30484889 -0.41013648
vn -0.91191073 -0.31043028 0.26842479
vn -0.65468097 0.74647610 -0.11902211
vn -0.27014476 -0.77463835 -0.57180175
vn -0.01291500 0.28226803 -0.95924865
vn 0.01291500 -0.28226803 0.95924865
vn 0.27014476 0.77463835 0.57180175
vn 0.65468097 -0.74647610 0.11902211
vn 0.91191073 0.31043028 -0.26842479
vn -0.94138136 -0.31487247 0.12106386
vn -0.63112619 0.74432514 -0.21831127
vn -0.17363513 -0.77374933 -0.60923134
vn 0.13662005 0.28544829 -0.94860647
vn -0.13662005 -0.28544829 0.94860647
vn 0.17363513 0.77374933 0.60923134
vn 0.63112619 -0.74432514 0.21831127
vn 0.94138136 0.31487247 -0.12106386
vn -0.94996642 -0.31091480 -0.02992980
vn -0.58586272 0.74796449 -0.31195192
vn -0.07866842 -0.77089540 -0.63208509
vn 0.28543527 0.28798389 -0.91410720
vn -0.28543527 -0.28798389 0.91410720
vn 0.07866842 0.77089540 0.63208509
vn 0.58586272 -0.74796449 0.31195192
vn 0.94996642 0.31091480 0.02992980
vn -0.94534202 -0.26778987 -0.18605659
vn -0.49275272 0.77272874 -0.40010630
vn -0.00899529 -0.76842530 -0.63987627
vn 0.44359401 0.27209331 -0.85392598
vn -0.44359401 -0.27209331 0.85392598
vn 0.00899529 0.76842530 0.63987627
vn 0.49275272 -0.77272874 0.40010630
vn 0.94534202 0.26778987 0.18605659
vn -0.91766073 -0.21676374 -0.33303493
vn -0.37867124 0.79455751 -0.47464349
vn 0.04877038 -0.77365301 -0.63172975
vn 0.58775986 0.23766825 -0.77333831
vn -0.58775986 -0.23766825 0.77333831
vn -0.04877038 0.77365301 0.63172975
vn 0.37867124 -0.79455751 0.47464349
vn 0.91766073 0.21676374 0.33303493
vn -0.86334322 -0.20397478 -0.46155474
vn -0.28940935 0.79548213 -0.53240061
vn 0.12504885 -0.78211006 -0.61046428
vn 0.69898271 0.21734685 -0.68131015
vn -0.69898271 -0.21734685 0.68131015
vn -0.12504885 0.78211006 0.61046428
vn 0.28940935 -0.79548213 0.53240061
vn 0.86334322 0.20397478 0.46155474
vn -0.57735027 -0.57735027 -0.57735027
vn -0.57735027 -0.57735027 0.57735027
vn -0.57735027 0.57735027 -0.57735027
vn -0.57735027 0.57735027 0.57735027
vn 0.57735027 -0.57735027 -0.57735027
vn 0.57735027 -0.57735027 0.57735027
vn 0.57735027 0.57735027 -0.57735027
vn 0.57735027 0.57735027 0.57735027
vn -0.57735027 -0.57735027 -0.57735027
vn -0.57735027 -0.57735027 0.57735027
vn -0.57735027 0.57735027 -0.57735027
vn -0.57735027 0.57735027 0.57735027
vn 0.57735027 -0.57735027 -0.57735027
vn 0.57735027 -0.57735027 0.57735027
vn 0.57735027 0.57735027 -0.57735027
vn 0.57735027 0.57735027 0.57735027
f 2//2 1//1 5//5
f 2//2 5//5 3//3
f 3//3 5//5 6//6
f 3//3 6//6 4//4
f 5//5 1//1 7//7
f 5//5 7//7 6//6
f 6//6 7//7 8//8
f 6//6 8//8 4//4
f 7//7 1//1 9//9
f 7//7 9//9 8//8
f 8//8 9//9 10//10
f 8//8 10//10 4//4
f 9//9 1//1 11//11
f 9//9 11//11 10//10
f 10//10 11//11 12//12
f 10//10 12//12 4//4
f 11//11 1//1 13//13
f 11//11 13//13 12//12
f 12//12 13//13 14//14
f 12//12 14//14 4//4
f 13//13 1//1 15//15
f 13//13 15//15 14//14
f 14//14 15//15 16//16
f 14//14 16//16 4//4
f 15//15 1//1 17//17
f 15//15 17//17 16//16
f 16//16 17//17 18//18
f 16//16 18//18 4//4
f 17//17 1//1 19//19
f 17//17 19//19 18//18
f 18//18 19//19 20//20
f 18//18 20//20 4//4
f 19//19 1//1 21//21
f 19//19 21//21 20//20
f 20//20 21//21 22//22
f 20//20 22//22 4//4
f 21//21 1//1 23//23
f 21//21 23//23 22//22
f 22//22 23//23 24//24
f 22//22 24//24 4//4
f 23//23 1//1 25//25
f 23//23 25//25 24//24
f 24//24 25//25 26//26
f 24//24 26//26 4//4
f 25//25 1//1 27//27
f 25//25 27//27 26//26
f 26//26 27//27 28//28
f 26//26 28//28 4//4
f 27//27 1//1 29//29
f 27//27 29//29 28//28
f 28//28 29//29 30//30
f 28//28 30//30 4//4
f 29//29 1//1 31//31
f 29//29 31//31 30//30
f 30//30 31//31 32//32
f 30//30 32//32 4//4
f 31//31 1//1 33//33
f 31//31 33//33 32//32
f 32//32 33//33 34//34
f 32//32 34//34 4//4
f 33//33 1//1 35//35
f 33//33 35//35 34//34
f 34//34 35//35 36//36
f 34//34 36//36 4//4
f 35//35 1//1 37//37
f 35//35 37//37 36//36
f 36//36 37//37 38//38
f 36//36 38//38 4//4
f 37//37 1//1 39//39
f 37//37 39//39 38//38
f 38//38 39//39 40//40
f 38//38 40//40 4//4
f 39//39 1//1 41//41
f 39//39 41//41 40//40
f 40//40 41//41 42//42
f 40//40 42//42 4//4
f 41//41 1//1 43//43
f 41//41 43//43 42//42
f 42//42 43//43 44//44
f 42//42 44//44 4//4
f 43//43 1//1 45//45
f 43//43 45//45 44//44
f 44//44 45//45 46//46
f 44//44 46//46 4//4
f 45//45 1//1 47//47
f 45//45 47//47 46//46
f 46//46 47//47 48//48
f 46//46 48//48 4//4
f 47//47 1//1 49//49
f 47//47 49//49 48//48
f 48//48 49//49 50//50
f 48//48 50//50 4//4
f 49//49 1//1 51//51
f 49//49 51//51 50//50
f 50//50 51//51 52//52
f 50//50 52//52 4//4
f 51//51 1//1 53//53
f 51//51 53//53 52//52
f 52//52 53//53 54//54
f 52//52 54//54 4//4
f 53//53 1//1 55//55
f 53//53 55//55 54//54
f 54//54 55//55 56//56
f 54//54 56//56 4//4
f 55//55 1//1 57//57
f 55//55 57//57 56//56
f 56//56 57//57 58//58
f 56//56 58//58 4//4
f 57//57 1//1 59//59
f 57//57 59//59 58//58
f 58//58 59//59 60//60
f 58//58 60//60 4//4
f 59//59 1//1 61//61
f 59//59 61//61 60//60
f 60//60 61//61 62//62
f 60//60 62//62 4//4
f 61//61 1//1 63//63
f 61//61 63//63 62//62
f 62//62 63//63 64//64
f 62//62 64//64 4//4
f 63//63 1//1 65//65
f 63//63 65//65 64//64
f 64//64 65//65 66//66
f 64//64 66//66 4//4
f 65//65 1//1 67//67
f 65//65 67//67 66//66
f 66//66 67//67 68//68
f 66//66 68//68 4//4
f 67//67 1//1 69//69
f 67//67 69//69 68//68
f 68//68 69//69 70//70
f 68//68 70//70 4//4
f 69//69 1//1 71//71
f 69//69 71//71 70//70
f 70//70 71//71 72//72
f 70//70 72//72 4//4
f 71//71 1//1 73//73
f 71//71 73//73 72//72
f 72//72 73//73 74//74
f 72//72 74//74 4//4
f 73//73 1//1 75//75
f 73//73 75//75 74//74
f 74//74 75//75 76//76
f 74//74 76//76 4//4
f 75//75 1//1 77//77
f 75//75 77//77 76//76
f 76//76 77//77 78//78
f 76//76 78//78 4//4
f 77//77 1//1 79//79
f 77//77 79//79 78//78
f 78//78 79//79 80//80
f 78//78 80//80 4//4
f 79//79 1//1 81//81
f 79//79 81//81 80//80
f 80//80 81//81 82//82
f 80//80 82//82 4//4
f 81//81 1//1 83//83
f 81//81 83//83 82//82
f 82//82 83//83 84//84
f 82//82 84//84 4//4
f 83//83 1//1 85//85
f 83//83 85//85 84//84
f 84//84 85//85 86//86
f 84//84 86//86 4//4
f 85//85 1//1 87//87
f 85//85 87//87 86//86
f 86//86 87//87 88//88
f 86//86 88//88 4//4
f 87//87 1//1 89//89
f 87//87 89//89 88//88
f 88//88 89//89 90//90
f 88//88 90//90 4//4
f 89//89 1//1 91//91
f 89//89 91//91 90//90
f 90//90 91//91 92//92
f 90//90 92//92 4//4
f 91//91 1//1 93//93
f 91//91 93//93 92//92
f 92//92 93//93 94//94
f 92//92 94//94 4//4
f 93//93 1//1 95//95
f 93//93 95//95 94//94
f 94//94 95//95 96//96
f 94//94 96//96 4//4
f 95//95 1//1 97//97
f 95//95 97//97 96//96
f 96//96 97//97 98//98
f 96//96 98//98 4//4
f 97//97 1//1 99//99
f 97//97 99//99 98//98
f 98//98 99//99 100//100
f 98//98 100//100 4//4
f 99//99 1//1 101//101
f 99//99 101//101 100//100
f 100//100 101//101 102//102
f 100//100 102//102 4//4
f 101//101 1//1 103//103
f 101//101 103//103 102//102
f 102//102 103//103 104//104
f 102//102 104//104 4//4
f 103//103 1//1 105//105
f 103//103 105//105 104//104
f 104//104 105//105 106//106
f 104//104 106//106 4//4
f 105//105 1//1 107//107
f 105//105 107//107 106//106
f 106//106 107//107 108//108
f 106//106 108//108 4//4
f 107//107 1//1 109//109
f 107//107 109//109 108//108
f 108//108 109//109 110//110
f 108//108 110//110 4//4
f 109//109 1//1 111//111
f 109//109 111//111 110//110
f 110//110 111//111 112//112
f 110//110 112//112 4//4
f 111//111 1//1 113//113
f 111//111 113//113 112//112
f 112//112 113//113 114//114
f 112//112 114//114 4//4
f 113//113 1//1 115//115
f 113//113 115//115 114//114
f 114//114 115//115 116//116
f 114//114 116//116 4//4
f 115//115 1//1 117//117
f 115//115 117//117 116//116
f 116//116 117//117 118//118
f 116//116 118//118 4//4
f 117//117 1//1 119//119
f 117//117 119//119 118//118
f 118//118 119//119 120//120
f 118//118 120//120 4//4
f 119//119 1//1 121//121
f 119//119 121//121 120//120
f 120//120 121//121 122//122
f 120//120 122//122 4//4
f 121//121 1//1 123//123
f 121//121 123//123 122//122
f 122//122 123//123 124//124
f 122//122 124//124 4//4
f 123//123 1//1 125//125
f 123//123 125//125 124//124
f 124//124 125//125 126//126
f 124//124 126//126 4//4
f 125//125 1//1 127//127
f 125//125 127//127 126//126
f 126//126 127//127 128//128
f 126//126 128//128 4//4
f 127//127 1//1 129//129
f 127//127 129//129 128//128
f 128//128 129//129 130//130
f 128//128 130//130 4//4
f 129//129 1//1 2//2
f 129//129 2//2 130//130
f 130//130 2//2 3//3
f 130//130 3//3 4//4
f 132//132 131//131 135//135
f 132//132 135//135 133//133
f 133//133 135//135 136//136
f 133//133 136//136 134//134
f 135//135 131//131 137//137
f 135//135 137//137 136//136
f 136//136 137//137 138//138
f 136//136 138//138 134//134
f 137//137 131//131 139//139
f 137//137 139//139 138//138
f 138//138 139//139 140//140
f 138//138 140//140 134//134
f 139//139 131//131 141//141
f 139//139 141//141 140//140
f 140//140 141//141 142//142
f 140//140 142//142 134//134
f 141//141 131//131 143//143
f 141//141 143//143 142//142
f 142//142 143//143 144//144
f 142//142 144//144 134//134
f 143//143 131//131 145//145
f 143//143 145//145 144//144
f 144//144 145//145 146//146
f 144//144 146//146 134//134
f 145//145 131//131 147//147
f 145//145 147//147 146//146
f 146//146 147//147 148//148
f 146//146 148//148 134//134
f 147//147 131//131 149//149
f 147//147 149//149 148//148
f 148//148 149//149 150//150
f 148//148 150//150 134//134
f 149//149 131//131 151//151
f 149//149 151//151 150//150
f 150//150 151//151 152//152
f 150//150 152//152 134//134
f 151//151 131//131 153//153
f 151//151 153//153 152//152
f 152//152 153//153 154//154
f 152//152 154//154 134//134
f 153//153 131//131 155//155
f 153//153 155//155 154//154
f 154//154 155//155 156//156
f 154//154 156//156 134//134
f 155//155 131//131 157//157
f 155//155 157//157 156//156
f 156//156 157//157 158//158
f 156//156 158//158 134//134
f 157//157 131//131 159//159
f 157//157 159//159 158//158
f 158//158 159//159 160//160
f 158//158 160//160 134//134
f 159//159 131//131 161//161
f 159//159 161//161 160//160
f 160//160 161//161 162//162
f 160//160 162//162 134//134
f 161//161 131//131 163//163
f 161//161 163//163 162//162
f 162//162 163//163 164//164
f 162//162 164//164 134//134
f 163//163 131//131 165//165
f 163//163 165//165 164//164
f 164//164 165//165 166//166
f 164//164 166//166 134//134
f 165//165 131//131 167//167
f 165//165 167//167 166//166
f 166//166 167//167 168//168
f 166//166 168//168 134//134
f 167//167 131//131 169//169
f 167//167 169//169 168//168
f 168//168 169//169 170//170
f 168//168 170//170 134//134
f 169//169 131//131 171//171
f 169//169 171//171 170//170
f 170//170 171//171 172//172
f 170//170 172//172 134//134
f 171//171 131//131 173//173
f 171//171 173//173 172//172
f 172//172 173//173 174//174
f 172//172 174//174 134//134
f 173//173 131//131 175//175
f 173//173 175//175 174//174
f 174//174 175//175 176//176
f 174//174 176//176 134//134
f 175//175 131//131 177//177
f 175//175 177//177 176//176
f 176//176 177//177 178//178
f 176//176 178//178 134//134
f 177//177 131//131 179//179
f 177//177 179//179 178//178
f 178//178 179//179 180//180
f 178//178 180//180 134//134
f 179//179 131//131 181//181
f 179//179 181//181 180//180
f 180//180 181//181 182//182
f 180//180 182//182 134//134
f 181//181 131//131 183//183
f 181//181 183//183 182//182
f 182//182 183//183 184//184
f 182//182 184//184 134//134
f 183//183 131//131 185//185
f 183//183 185//185 184//184
f 184//184 185//185 186//186
f 184//184 186//186 134//134
f 185//185 131//131 187//187
f 185//185 187//187 186//186
f 186//186 187//187 188//188
f 186//186 188//188 134//134
f 187//187 131//131 189//189
f 187//187 189//189 188//188
f 188//188 189//189 190//190
f 188//188 190//190 134//134
f 189//189 131//131 191//191
f 189//189 191//191 190//190
f 190//190 191//191 192//192
f 190//190 192//192 134//134
f 191//191 131//131 193//193
f 191//191 193//193 192//192
f 192//192 193//193 194//194
f 192//192 194//194 134//134
f 193//193 131//131 195//195
f 193//193 195//195 194//194
f 194//194 195//195 196//196
f 194//194 196//196 134//134
f 195//195 131//131 197//197
f 195//195 197//197 196//196
f 196//196 197//197 198//198
f 196//196 198//198 134//134
f 197//197 131//131 199//199
f 197//197 199//199 198//198
f 198//198 199//199 200//200
f 198//198 200//200 134//134
f 199//199 131//131 201//201
f 199//199 201//201 200//200
f 200//200 201//201 202//202
f 200//200 202//202 134//134
f 201//201 131//131 203//203
f 201//201 203//203 202//202
f 202//202 203//203 204//204
f 202//202 204//204 134//134
f 203//203 131//131 205//205
f 203//203 205//205 204//204
f 204//204 205//205 206//206
f 204//204 206//206 134//134
f 205//205 131//131 207//207
f 205//205 207//207 206//206
f 206//206 207//207 208//208
f 206//206 208//208 134//134
f 207//207 131//131 209//209
f 207//207 209//209 208//208
f 208//208 209//209 210//210
f 208//208 210//210 134//134
f 209//209 131//131 211//211
f 209//209 211//211 210//210
f 210//210 211//211 212//212
f 210//210 212//212 134//134
f 211//211 131//131 213//213
f 211//211 213//213 212//212
f 212//212 213//213 214//214
f 212//212 214//214 134//134
f 213//213 131//131 215//215
f 213//213 215//215 214//214
f 214//214 215//215 216//216
f 214//214 216//216 134//134
f 215//215 131//131 217//217
f 215//215 217//217 216//216
f 216//216 217//217 218//218
f 216//216 218//218 134//134
f 217//217 131//131 219//219
f 217//217 219//219 218//218
f 218//218 219//219 220//220
f 218//218 220//220 134//134
f 219//219 131//131 221//221
f 219//219 221//221 220//220
f 220//220 221//221 222//222
f 220//220 222//222 134//134
f 221//221 131//131 223//223
f 221//221 223//223 222//222
f 222//222 223//223 224//224
f 222//222 224//224 134//134
f 223//223 131//131 225//225
f 223//223 225//225 224//224
f 224//224 225//225 226//226
f 224//224 226//226 134//134
f 225//225 131//131 227//227
f 225//225 227//227 226//226
f 226//226 227//227 228//228
f 226//226 228//228 134//134
f 227//227 131//131 229//229
f 227//227 229//229 228//228
f 228//228 229//229 230//230
f 228//228 230//230 134//134
f 229//229 131//131 231//231
f 229//229 231//231 230//230
f 230//230 231//231 232//232
f 230//230 232//232 134//134
f 231//231 131//131 233//233
f 231//231 233//233 232//232
f 232//232 233//233 234//234
f 232//232 234//234 134//134
f 233//233 131//131 235//235
f 233//233 235//235 234//234
f 234//234 235//235 236//236
f 234//234 236//236 134//134
f 235//235 131//131 237//237
f 235//235 237//237 236//236
f 236//236 237//237 238//238
f 236//236 238//238 134//134
f 237//237 131//131 239//239
f 237//237 239//239 238//238
f 238//238 239//239 240//240
f 238//238 240//240 134//134
f 239//239 131//131 241//241
f 239//239 241//241 240//240
f 240//240 241//241 242//242
f 240//240 242//242 134//134
f 241//241 131//131 243//243
f 241//241 243//243 242//242
f 242//242 243//243 244//244
f 242//242 244//244 134//134
f 243//243 131//131 245//245
f 243//243 245//245 244//244
f 244//244 245//245 246//246
f 244//244 246//246 134//134
f 245//245 131//131 247//247
f 245//245 247//247 246//246
f 246//246 247//247 248//248
f 246//246 248//248 134//134
f 247//247 131//131 249//249
f 247//247 249//249 248//248
f 248//248 249//249 250//250
f 248//248 250//250 134//134
f 249//249 131//131 251//251
f 249//249 251//251 250//250
f 250//250 251//251 252//252
f 250//250 252//252 134//134
f 251//251 131//131 253//253
f 251//251 253//253 252//252
f 252//252 253//253 254//254
f 252//252 254//254 134//134
f 253//253 131//131 255//255
f 253//253 255//255 254//254
f 254//254 255//255 256//256
f 254//254 256//256 134//134
f 255//255 131//131 257//257
f 255//255 257//257 256//256
f 256//256 257//257 258//258
f 256//256 258//258 134//134
f 257//257 131//131 259//259
f 257//257 259//259 258//258
f 258//258 259//259 260//260
f 258//258 260//260 134//134
f 259//259 131//131 132//132
f 259//259 132//132 260//260
f 260//260 132//132 133//133
f 260//260 133//133 134//134
f 262//262 264//264 261//261
f 265//265 262//262 261//261
f 261//261 264//264 263//263
f 263//263 265//265 261//261
f 262//262 268//268 264//264
f 266//266 262//262 265//265
f 266//266 268//268 262//262
f 264//264 268//268 263//263
f 267//267 265//265 263//263
f 263//263 268//268 267//267
f 267//267 266//266 265//265
f 268//268 266//266 267//267
f 270//270 272//272 269//269
f 273//273 270//270 269//269
f 269//269 272//272 271//271
f 271//271 273//273 269//269
f 270//270 276//276 272//272
f 274//274 270//270 273//273
f 274//274 276//276 270//270
f 272//272 276//276 271//271
f 275//275 273//273 271//271
f 271//271 276//276 275//275
f 275//275 274//274 273//273
f 276//276 274//274 275//275
f 278//278 280//280 277//277
f 281//281 278//278 277//277
f 277//277 280//280 279//279
f 279//279 281//281 277//277
f 278//278 284//284 280//280
f 282//282 278//278 281//281
f 282//282 284//284 278//278
f 280//280 284//284 279//279
f 283//283 281//281 279//279
f 279//279 284//284 283//283
f 283//283 282//282 281//281
f 284//284 282//282 283//283
f 286//286 288//288 285//285
f 289//289 286//286 285//285
f 285//285 288//288 287//287
f 287//287 289//289 285//285
f 286//286 292//292 288//288
f 290//290 286//286 289//289
f 290//290 292//292 286//286
f 288//288 292//292 287//287
f 291//291 289//289 287//287
f 287//287 292//292 291//291
f 291//291 290//290 289//289
f 292//292 290//290 291//291
f 294//294 296//296 293//293
f 297//297 294//294 293//293
f 293//293 296//296 295//295
f 295//295 297//297 293//293
f 294//294 300//300 296//296
f 298//298 294//294 297//297
f 298//298 300//300 294//294
f 296//296 300//300 295//295
f 299//299 297//297 295//295
f 295//295 300//300 299//299
f 299//299 298//298 297//297
f 300//300 298//298 299//299
f 302//302 304//304 301//301
f 305//305 302//302 301//301
f 301//301 304//304 303//303
f 303//303 305//305 301//301
f 302//302 308//308 304//304
f 306//306 302//302 305//305
f 306//306 308//308 302//302
f 304//304 308//308 303//303
f 307//307 305//305 303//303
f 303//303 308//308 307//307
f 307//307 306//306 305//305
f 308//308 306//306 307//307
f 310//310 312//312 309//309
f 313//313 310//310 309//309
f 309//309 312//312 311//311
f 311//311 313//313 309//309
f 310//310 316//316 312//312
f 314//314 310//310 313//313
f 314//314 316//316 310//310
f 312//312 316//316 311//311
f 315//315 313//313 311//311
f 311//311 316//316 315//315
f 315//315 314//314 313//313
f 316//316 314//314 315//315
f 318//318 320//320 317//317
f 321//321 318//318 317//317
f 317//317 320//320 319//319
f 319//319 321//321 317//317
f 318//318 324//324 320//320
f 322//322 318//318 321//321
f 322//322 324//324 318//318
f 320//320 324//324 319//319
f 323//323 321//321 319//319
f 319//319 324//324 323//323
f 323//323 322//322 321//321
f 324//324 322//322 323//323
f 326//326 328//328 325//325
f 329//329 326//326 325//325
f 325//325 328//328 327//327
f 327//327 329//329 325//325
f 326//326 332//332 328//328
f 330//330 326//326 329//329
f 330//330 332//332 326//326
f 328//328 332//332 327//327
f 331//331 329//329 327//327
f 327//327 332//332 331//331
f 331//331 330//330 329//329
f 332//332 330//330 331//331
f 334//334 336//336 333//333
f 337//337 334//334 333//333
f 333//333 336//336 335//335
f 335//335 337//337 333//333
f 334//334 340//340 336//336
f 338//338 334//334 337//337
f 338//338 340//340 334//334
f 336//336 340//340 335//335
f 339//339 337//337 335//335
f 335//335 340//340 339//339
f 339//339 338//338 337//337
f 340//340 338//338 339//339
f 342//342 344//344 341//341
f 345//345 342//342 341//341
f 341//341 344//344 343//343
f 343//343 345//345 341//341
f 342//342 348//348 344//344
f 346//346 342//342 345//345
f 346//346 348//348 342//342
f 344//344 348//348 343//343
f 347//347 345//345 343//343
f 343//343 348//348 347//347
f 347//347 346//346 345//345
f 348//348 346//346 347//347
f 350//350 352//352 349//349
f 353//353 350//350 349//349
f 349//349 352//352 351//351
f 351//351 353//353 349//349
f 350//350 356//356 352//352
f 354//354 350//350 353//353
f 354//354 356//356 350//350
f 352//352 356//356 351//351
f 355//355 353//353 351//351
f 351//351 356//356 355//355
f 355//355 354//354 353//353
f 356//356 354//354 355//355
f 358//358 360//360 357//357
f 361//361 358//358 357//357
f 357//357 360//360 359//359
f 359//359 361//361 357//357
f 358//358 364//364 360//360
f 362//362 358//358 361//361
f 362//362 364//364 358//358
f 360//360 364//364 359//359
f 363//363 361//361 359//359
f 359//359 364//364 363//363
f 363//363 362//362 361//361
f 364//364 362//362 363//363
f 366//366 368//368 365//365
f 369//369 366//366 365//365
f 365//365 368//368 367//367
f 367//367 369//369 365//365
f 366//366 372//372 368//368
f 370//370 366//366 369//369
f 370//370 372//372 366//366
f 368//368 372//372 367//367
f 371//371 369//369 367//367
f 367//367 372//372 371//371
f 371//371 370//370 369//369
f 372//372 370//370 371//371
f 374//374 376//376 373//373
f 377//377 374//374 373//373
f 373//373 376//376 375//375
f 375//375 377//377 373//373
f 374//374 380//380 376//376
f 378//378 374//374 377//377
f 378//378 380//380 374//374
f 376//376 380//380 375//375
f 379//379 377//377 375//375
f 375//375 380//380 379//379
f 379//379 378//378 377//377
f 380//380 378//378 379//379
f 382//382 384//384 381//381
f 385//385 382//382 381//381
f 381//381 384//384 383//383
f 383//383 385//385 381//381
f 382//382 388//388 384//384
f 386//386 382//382 385//385
f 386//386 388//388 382//382
f 384//384 388//388 383//383
f 387//387 385//385 383//383
f 383//383 388//388 387//387
f 387//387 386//386 385//385
f 388//388 386//386 387//387
f 390//390 392//392 389//389
f 393//393 390//390 389//389
f 389//389 392//392 391//391
f 391//391 393//393 389//389
f 390//390 396//396 392//392
f 394//394 390//390 393//393
f 394//394 396//396 390//390
f 392//392 396//396 391//391
f 395//395 393//393 391//391
f 391//391 396//396 395//395
f 395//395 394//394 393//393
f 396//396 394//394 395//395
f 398//398 400//400 397//397
f 401//401 398//398 397//397
f 397//397 400//400 399//399
f 399//399 401//401 397//397
f 398//398 404//404 400//400
f 402//402 398//398 401//401
f 402//402 404//404 398//398
f 400//400 404//404 399//399
f 403//403 401//401 399//399
f 399//399 404//404 403//403
f 403//403 402//402 401//401
f 404//404 402//402 403//403
f 406//406 408//408 405//405
f 409//409 406//406 405//405
f 405//405 408//408 407//407
f 407//407 409//409 405//405
f 406//406 412//412 408//408
f 410//410 406//406 409//409
f 410//410 412//412 406//406
f 408//408 412//412 407//407
f 411//411 409//409 407//407
f 407//407 412//412 411//411
f 411//411 410//410 409//409
f 412//412 410//410 411//411
f 414//414 416//416 413//413
f 417//417 414//414 413//413
f 413//413 416//416 415//415
f 415//415 417//417 413//413
f 414//414 420//420 416//416
f 418//418 414//414 417//417
f 418//418 420//420 414//414
f 416//416 420//420 415//415
f 419//419 417//417 415//415
f 415//415 420//420 419//419
f 419//419 418//418 417//417
f 420//420 418//418 419//419
f 422//422 424//424 421//421
f 425//425 422//422 421//421
f 421//421 424//424 423//423
f 423//423 425//425 421//421
f 422//422 428//428 424//424
f 426//426 422//422 425//425
f 426//426 428//428 422//422
f 424//424 428//428 423//423
f 427//427 425//425 423//423
f 423//423 428//428 427//427
f 427//427 426//426 425//425
f 428//428 426//426 427//427
f 430//430 432//432 429//429
f 433//433 430//430 429//429
f 429//429 432//432 431//431
f 431//431 433//433 429//429
f 430//430 436//436 432//432
f 434//434 430//430 433//433
f 434//434 436//436 430//430
f 432//432 436//436 431//431
f 435//435 433//433 431//431
f 431//431 436//436 435//435
f 435//435 434//434 433//433
f 436//436 434//434 435//435
f 438//438 440//440 437//437
f 441//441 438//438 437//437
f 437//437 440//440 439//439
f 439//439 441//441 437//437
f 438//438 444//444 440//440
f 442//442 438//438 441//441
f 442//442 444//444 438//438
f 440//440 444//444 439//439
f 443//443 441//441 439//439
f 439//439 444//444 443//443
f 443//443 442//442 441//441
f 444//444 442//442 443//443
f 446//446 448//448 445//445
f 449//449 446//446 445//445
f 445//445 448//448 447//447
f 447//447 449//449 445//445
f 446//446 452//452 448//448
f 450//450 446//446 449//449
f 450//450 452//452 446//446
f 448//448 452//452 447//447
f 451//451 449//449 447//447
f 447//447 452//452 451//451
f 451//451 450//450 449//449
f 452//452 450//450 451//451
f 454//454 456//456 453//453
f 457//457 454//454 453//453
f 453//453 456//456 455//455
f 455//455 457//457 453//453
f 454//454 460//460 456//456
f 458//458 454//454 457//457
f 458//458 460//460 454//454
f 456//456 460//460 455//455
f 459//459 457//457 455//455
f 455//455 460//460 459//459
f 459//459 458//458 457//457
f 460//460 458//458 459//459
f 462//462 464//464 461//461
f 465//465 462//462 461//461
f 461//461 464//464 463//463
f 463//463 465//465 461//461
f 462//462 468//468 464//464
f 466//466 462//462 465//465
f 466//466 468//468 462//462
f 464//464 468//468 463//463
f 467//467 465//465 463//463
f 463//463 468//468 467//467
f 467//467 466//466 465//465
f 468//468 466//466 467//467
f 470//470 472//472 469//469
f 473//473 470//470 469//469
f 469//469 472//472 471//471
f 471//471 473//473 469//469
f 470//470 476//476 472//472
f 474//474 470//470 473//473
f 474//474 476//476 470//470
f 472//472 476//476 471//471
f 475//475 473//473 471//471
f 471//471 476//476 475//475
f 475//475 474//474 473//473
f 476//476 474//474 475//475
f 478//478 480//480 477//477
f 481//481 478//478 477//477
f 477//477 480//480 479//479
f 479//479 481//481 477//477
f 478//478 484//484 480//480
f 482//482 478//478 481//481
f 482//482 484//484 478//478
f 480//480 484//484 479//479
f 483//483 481//481 479//479
f 479//479 484//484 483//483
f 483//483 482//482 481//481
f 484//484 482//482 483//483
f 486//486 488//488 485//485
f 489//489 486//486 485//485
f 485//485 488//488 487//487
f 487//487 489//489 485//485
f 486//486 492//492 488//488
f 490//490 486//486 489//489
f 490//490 492//492 486//486
f 488//488 492//492 487//487
f 491//491 489//489 487//487
f 487//487 492//492 491//491
f 491//491 490//490 489//489
f 492//492 490//490 491//491
f 494//494 496//496 493//493
f 497//497 494//494 493//493
f 493//493 496//496 495//495
f 495//495 497//497 493//493
f 494//494 500//500 496//496
f 498//498 494//494 497//497
f 498//498 500//500 494//494
f 496//496 500//500 495//495
f 499//499 497//497 495//495
f 495//495 500//500 499//499
f 499//499 498//498 497//497
f 500//500 498//498 499//499
f 502//502 504//504 501//501
f 505//505 502//502 501//501
f 501//501 504//504 503//503
f 503//503 505//505 501//501
f 502//502 508//508 504//504
f 506//506 502//502 505//505
f 506//506 508//508 502//502
f 504//504 508//508 503//503
f 507//507 505//505 503//503
f 503//503 508//508 507//507
f 507//507 506//506 505//505
f 508//508 506//506 507//507
f 510//510 512//512 509//509
f 513//513 510//510 509//509
f 509//509 512//512 511//511
f 511//511 513//513 509//509
f 510//510 516//516 512//512
f 514//514 510//510 513//513
f 514//514 516//516 510//510
f 512//512 516//516 511//511
f 515//515 513//513 511//511
f 511//511 516//516 515//515
f 515//515 514//514 513//513
f 516//516 514//514 515//515
f 518//518 520//520 517//517
f 521//521 518//518 517//517
f 517//517 520//520 519//519
f 519//519 521//521 517//517
f 518//518 524//524 520//520
f 522//522 518//518 521//521
f 522//522 524//524 518//518
f 520//520 524//524 519//519
f 523//523 521//521 519//519
f 519//519 524//524 523//523
f 523//523 522//522 521//521
f 524//524 522//522 523//523
f 526//526 528//528 525//525
f 529//529 526//526 525//525
f 525//525 528//528 527//527
f 527//527 529//529 525//525
f 526//526 532//532 528//528
f 530//530 526//526 529//529
f 530//530 532//532 526//526
f 528//528 532//532 527//527
f 531//531 529//529 527//527
f 527//527 532//532 531//531
f 531//531 530//530 529//529
f 532//532 530//530 531//531
f 534//534 536//536 533//533
f 537//537 534//534 533//533
f 533//533 536//536 535//535
f 535//535 537//537 533//533
f 534//534 540//540 536//536
f 538//538 534//534 537//537
f 538//538 540//540 534//534
f 536//536 540//540 535//535
f 539//539 537//537 535//535
f 535//535 540//540 539//539
f 539//539 538//538 537//537
f 540//540 538//538 539//539
f 542//542 544//544 541//541
f 545//545 542//542 541//541
f 541//541 544//544 543//543
f 543//543 545//545 541//541
f 542//542 548//548 544//544
f 546//546 542//542 545//545
f 546//546 548//548 542//542
f 544//544 548//548 543//543
f 547//547 545//545 543//543
f 543//543 548//548 547//547
f 547//547 546//546 545//545
f 548//548 546//546 547//547
f 550//550 552//552 549//549
f 553//553 550//550 549//549
f 549//549 552//552 551//551
f 551//551 553//553 549//549
f 550//550 556//556 552//552
f 554//554 550//550 553//553
f 554//554 556//556 550//550
f 552//552 556//556 551//551
f 555//555 553//553 551//551
f 551//551 556//556 555//555
f 555//555 554//554 553//553
f 556//556 554//554 555//555
f 558//558 560//560 557//557
f 561//561 558//558 557//557
f 557//557 560//560 559//559
f 559//559 561//561 557//557
f 558//558 564//564 560//560
f 562//562 558//558 561//561
f 562//562 564//564 558//558
f 560//560 564//564 559//559
f 563//563 561//561 559//559
f 559//559 564//564 563//563
f 563//563 562//562 561//561
f 564//564 562//562 563//563
f 566//566 568//568 565//565
f 569//569 566//566 565//565
f 565//565 568//568 567//567
f 567//567 569//569 565//565
f 566//566 572//572 568//568
f 570//570 566//566 569//569
f 570//570 572//572 566//566
f 568//568 572//572 567//567
f 571//571 569//569 567//567
f 567//567 572//572 571//571
f 571//571 570//570 569//569
f 572//572 570//570 571//571
f 574//574 576//576 573//573
f 577//577 574//574 573//573
f 573//573 576//576 575//575
f 575//575 577//577 573//573
f 574//574 580//580 576//576
f 578//578 574//574 577//577
f 578//578 580//580 574//574
f 576//576 580//580 575//575
f 579//579 577//577 575//575
f 575//575 580//580 579//579
f 579//579 578//578 577//577
f 580//580 578//578 579//579
f 582//582 584//584 581//581
f 585//585 582//582 581//581
f 581//581 584//584 583//583
f 583//583 585//585 581//581
f 582//582 588//588 584//584
f 586//586 582//582 585//585
f 586//586 588//588 582//582
f 584//584 588//588 583//583
f 587//587 585//585 583//583
f 583//583 588//588 587//587
f 587//587 586//586 585//585
f 588//588 586//586 587//587
f 590//590 592//592 589//589
f 593//593 590//590 589//589
f 589//589 592//592 591//591
f 591//591 593//593 589//589
f 590//590 596//596 592//592
f 594//594 590//590 593//593
f 594//594 596//596 590//590
f 592//592 596//596 591//591
f 595//595 593//593 591//591
f 591//591 596//596 595//595
f 595//595 594//594 593//593
f 596//596 594//594 595//595

