# https://github.com/mikedh/trimesh
v 0.00000001 -0.03697744 0.08633024
v -0.00721393 -0.03626695 0.08633024
v -0.01415066 -0.03416272 0.08633024
v -0.02054357 -0.03074564 0.08633024
v -0.02614701 -0.02614702 0.08633024
v -0.03074557 -0.02054358 0.08633024
v -0.03416266 -0.01415065 0.08633024
v -0.03626875 -0.00720512 0.08633048
v -0.03626875 0.00720512 0.08633048
v -0.03416266 0.01415065 0.08633024
v -0.03074557 0.02054358 0.08633024
v -0.02614701 0.02614702 0.08633024
v -0.02054357 0.03074564 0.08633024
v -0.01415066 0.03416272 0.08633024
v -0.00721393 0.03626695 0.08633024
v 0.00000001 0.03697744 0.08633024
v 0.00721396 0.03626695 0.08633024
v 0.01415065 0.03416272 0.08633024
v 0.02054357 0.03074564 0.08633024
v 0.02614701 0.02614701 0.08633024
v 0.03074564 0.02054357 0.08633024
v 0.03416272 0.01415065 0.08633024
v 0.03626695 0.00721394 0.08633024
v 0.03697744 0.00000000 0.08633024
v 0.03626695 -0.00721394 0.08633024
v 0.03416272 -0.01415065 0.08633024
v 0.03074564 -0.02054357 0.08633024
v 0.02614701 -0.02614701 0.08633024
v 0.02054357 -0.03074564 0.08633024
v 0.01415065 -0.03416272 0.08633024
v 0.00721396 -0.03626695 0.08633024
v 0.00000001 -0.03896536 0.08611076
v -0.00760175 -0.03821667 0.08611076
v -0.01491140 -0.03599932 0.08611076
v -0.02164800 -0.03239854 0.08611076
v -0.02755269 -0.02755268 0.08611076
v -0.03239847 -0.02164800 0.08611076
v -0.03599926 -0.01491140 0.08611076
v -0.03821667 -0.00760177 0.08611076
v -0.03896537 0.00000000 0.08559521
v -0.03821667 0.00760177 0.08611076
v -0.03599926 0.01491140 0.08611076
v -0.03239847 0.02164800 0.08611076
v -0.02755269 0.02755268 0.08611076
v -0.02164800 0.03239854 0.08611076
v -0.01491140 0.03599932 0.08611076
v -0.00760175 0.03821667 0.08611076
v 0.00000001 0.03896536 0.08611076
v 0.00760178 0.03821667 0.08611076
v 0.01491140 0.03599932 0.08611076
v 0.02164800 0.03239854 0.08611076
v 0.02755268 0.02755268 0.08611076
v 0.03239854 0.02164800 0.08611076
v 0.03599932 0.01491140 0.08611076
v 0.03821667 0.00760177 0.08611076
v 0.03896536 0.00000000 0.08611076
v 0.03821667 -0.00760177 0.08611076
v 0.03599932 -0.01491140 0.08611076
v 0.03239854 -0.02164800 0.08611076
v 0.02755268 -0.02755268 0.08611076
v 0.02164800 -0.03239854 0.08611076
v 0.01491140 -0.03599932 0.08611076
v 0.00760178 -0.03821667 0.08611076
v -0.00440882 -0.02216464 0.00016703
v 0.00000001 -0.02259886 0.00016703
v -0.00864821 -0.02087864 0.00016703
v -0.01255526 -0.01879028 0.00016703
v -0.01597980 -0.01597983 0.00016703
v -0.01879022 -0.01255528 0.00016703
v -0.02087860 -0.00864819 0.00016703
v -0.02216464 -0.00440880 0.00016703
v -0.02259886 0.00000000 0.00016703
v -0.02216464 0.00440880 0.00016703
v -0.02087860 0.00864819 0.00016703
v -0.01879022 0.01255528 0.00016703
v -0.01597980 0.01597983 0.00016703
v -0.01255526 0.01879028 0.00016703
v -0.00864821 0.02087864 0.00016703
v -0.00440882 0.02216464 0.00016703
v 0.00000001 0.02259886 0.00016703
v 0.00440884 0.02216464 0.00016703
v 0.00864821 0.02087864 0.00016703
v 0.01255526 0.01879028 0.00016703
v 0.01597982 0.01597982 0.00016703
v 0.01879028 0.01255526 0.00016703
v 0.02087864 0.00864821 0.00016703
v 0.02216464 0.00440883 0.00016703
v 0.02259886 0.00000000 0.00016703
v 0.02216464 -0.00440883 0.00016703
v 0.02087864 -0.00864821 0.00016703
v 0.01879028 -0.01255526 0.00016703
v 0.01597982 -0.01597982 0.00016703
v 0.01255526 -0.01879028 0.00016703
v 0.00864821 -0.02087864 0.00016703
v 0.00440884 -0.02216464 0.00016703
v 0.00000001 -0.03036493 0.00820976
v -0.00592389 -0.02978149 0.00820976
v -0.01162015 -0.02805356 0.00820976
v -0.01686985 -0.02524754 0.00820976
v -0.02147126 -0.02147126 0.00820976
v -0.02524748 -0.01686986 0.00820976
v -0.02805350 -0.01162016 0.00820976
v -0.02978149 -0.00592390 0.00820976
v -0.03036493 0.00000000 0.00812813
v -0.02978149 0.00592390 0.00820976
v -0.02805350 0.01162016 0.00820976
v -0.02524748 0.01686986 0.00820976
v -0.02147126 0.02147126 0.00820976
v -0.01686985 0.02524754 0.00820976
v -0.01162015 0.02805356 0.00820976
v -0.00592389 0.02978149 0.00820976
v 0.00000001 0.03036493 0.00820976
v 0.00592392 0.02978149 0.00820976
v 0.01162016 0.02805356 0.00820976
v 0.01686986 0.02524754 0.00820976
v 0.02147126 0.02147126 0.00820976
v 0.02524754 0.01686986 0.00820976
v 0.02805356 0.01162016 0.00820976
v 0.02978149 0.00592390 0.00820976
v 0.03036493 0.00000000 0.00820976
v 0.02978149 -0.00592390 0.00820976
v 0.02805356 -0.01162016 0.00820976
v 0.02524754 -0.01686986 0.00820976
v 0.02147126 -0.02147126 0.00820976
v 0.01686986 -0.02524754 0.00820976
v 0.01162016 -0.02805356 0.00820976
v 0.00592392 -0.02978149 0.00820976
v -0.00581478 -0.02923295 0.00515577
v -0.00517894 -0.02603635 0.00161450
v -0.00557755 -0.02804033 0.00311122
v 0.00000001 -0.02980564 0.00515577
v 0.00000001 -0.02858966 0.00311122
v 0.00000001 -0.02654642 0.00161450
v -0.01140612 -0.02753684 0.00515577
v -0.01015888 -0.02452572 0.00161450
v -0.01094079 -0.02641342 0.00311122
v -0.01655913 -0.02478250 0.00515577
v -0.01474840 -0.02207256 0.00161450
v -0.01588356 -0.02377145 0.00311122
v -0.02107578 -0.02107578 0.00515577
v -0.01877116 -0.01877117 0.00161450
v -0.02021595 -0.02021595 0.00311122
v -0.02478245 -0.01655913 0.00515577
v -0.02207251 -0.01474841 0.00161450
v -0.02377140 -0.01588357 0.00311122
v -0.02753679 -0.01140613 0.00515577
v -0.02452567 -0.01015887 0.00161450
v -0.02641337 -0.01094079 0.00311122
v -0.02923295 -0.00581479 0.00515577
v -0.02603635 -0.00517894 0.00161450
v -0.02804033 -0.00557756 0.00311122
v -0.02981822 0.00000000 0.00515185
v -0.02654811 0.00000000 0.00161398
v -0.02859595 0.00000000 0.00310926
v -0.02923295 0.00581479 0.00515577
v -0.02603635 0.00517894 0.00161450
v -0.02804033 0.00557756 0.00311122
v -0.02753679 0.01140613 0.00515577
v -0.02452567 0.01015887 0.00161450
v -0.02641337 0.01094079 0.00311122
v -0.02478245 0.01655913 0.00515577
v -0.02207251 0.01474841 0.00161450
v -0.02377140 0.01588357 0.00311122
v -0.02107578 0.02107578 0.00515577
v -0.01877116 0.01877117 0.00161450
v -0.02021595 0.02021595 0.00311122
v -0.01655913 0.02478250 0.00515577
v -0.01474840 0.02207256 0.00161450
v -0.01588356 0.02377145 0.00311122
v -0.01140612 0.02753684 0.00515577
v -0.01015888 0.02452572 0.00161450
v -0.01094079 0.02641342 0.00311122
v -0.00581478 0.02923295 0.00515577
v -0.00517894 0.02603635 0.00161450
v -0.00557755 0.02804033 0.00311122
v 0.00000001 0.02980564 0.00515577
v 0.00000001 0.02654642 0.00161450
v 0.00000001 0.02858966 0.00311122
v 0.00581481 0.02923295 0.00515577
v 0.00517897 0.02603635 0.00161450
v 0.00557758 0.02804033 0.00311122
v 0.01140613 0.02753684 0.00515577
v 0.01015888 0.02452572 0.00161450
v 0.01094079 0.02641342 0.00311122
v 0.01655913 0.02478250 0.00515577
v 0.01474841 0.02207256 0.00161450
v 0.01588357 0.02377145 0.00311122
v 0.02107579 0.02107578 0.00515577
v 0.01877117 0.01877117 0.00161450
v 0.02021595 0.02021595 0.00311122
v 0.02478251 0.01655913 0.00515577
v 0.02207256 0.01474841 0.00161450
v 0.02377145 0.01588356 0.00311122
v 0.02753684 0.01140613 0.00515577
v 0.02452572 0.01015888 0.00161450
v 0.02641342 0.01094079 0.00311122
v 0.02923295 0.00581479 0.00515577
v 0.02603635 0.00517895 0.00161450
v 0.02804033 0.00557757 0.00311122
v 0.02980564 0.00000000 0.00515577
v 0.02654642 0.00000000 0.00161450
v 0.02858966 0.00000000 0.00311122
v 0.02923295 -0.00581479 0.00515577
v 0.02603635 -0.00517895 0.00161450
v 0.02804033 -0.00557757 0.00311122
v 0.02753684 -0.01140613 0.00515577
v 0.02452572 -0.01015888 0.00161450
v 0.02641342 -0.01094079 0.00311122
v 0.02478251 -0.01655913 0.00515577
v 0.02207256 -0.01474841 0.00161450
v 0.02377145 -0.01588356 0.00311122
v 0.02107579 -0.02107578 0.00515577
v 0.01877117 -0.01877117 0.00161450
v 0.02021595 -0.02021595 0.00311122
v 0.01655913 -0.02478250 0.00515577
v 0.01474841 -0.02207256 0.00161450
v 0.01588357 -0.02377145 0.00311122
v 0.01140613 -0.02753684 0.00515577
v 0.01015888 -0.02452572 0.00161450
v 0.01094079 -0.02641342 0.00311122
v 0.00581481 -0.02923295 0.00515577
v 0.00517897 -0.02603635 0.00161450
v 0.00557758 -0.02804033 0.00311122
f 47 112 111
f 40 41 105
f 62 125 61
f 39 41 40
f 40 103 39
f 39 102 38
f 103 102 39
f 6 7 38
f 34 98 33
f 31 1 32
f 2 33 32
f 32 1 2
f 2 34 33
f 56 24 25
f 49 113 112
f 98 34 99
f 32 33 96
f 63 31 32
f 62 31 63
f 32 96 63
f 63 96 127
f 104 103 40
f 40 105 104
f 38 102 101
f 173 112 176
f 111 112 173
f 170 173 172
f 57 121 56
f 58 121 57
f 56 25 57
f 57 25 58
f 56 121 120
f 122 121 58
f 124 59 60
f 60 125 124
f 60 61 125
f 37 6 38
f 38 101 37
f 5 6 37
f 37 36 5
f 100 36 37
f 37 101 100
f 35 99 34
f 35 36 100
f 100 99 35
f 29 60 28
f 61 60 29
f 62 61 29
f 34 2 3
f 28 60 27
f 27 60 59
f 27 59 58
f 50 51 115
f 115 51 52
f 47 46 15
f 15 46 14
f 19 51 50
f 50 18 19
f 20 52 19
f 52 51 19
f 48 15 16
f 47 15 48
f 112 47 48
f 48 49 112
f 17 48 16
f 49 48 17
f 17 18 50
f 50 49 17
f 139 136 134
f 98 99 134
f 128 98 134
f 134 130 128
f 136 130 134
f 135 66 64
f 64 129 135
f 129 130 135
f 135 130 136
f 135 136 139
f 65 129 64
f 219 95 94
f 220 223 219
f 124 125 212
f 128 96 97
f 97 96 33
f 97 98 128
f 33 98 97
f 131 96 128
f 128 130 131
f 221 131 223
f 221 223 220
f 220 218 221
f 127 96 221
f 96 131 221
f 126 125 62
f 126 218 125
f 62 63 126
f 126 63 127
f 127 221 126
f 126 221 218
f 111 173 110
f 110 173 170
f 110 47 111
f 110 46 47
f 160 158 163
f 155 104 105
f 158 160 155
f 149 102 103
f 103 104 149
f 80 174 177
f 177 180 80
f 175 172 173
f 175 173 176
f 175 177 174
f 200 120 203
f 203 120 121
f 12 43 11
f 10 11 42
f 42 11 43
f 42 43 107
f 30 31 62
f 62 29 30
f 5 36 4
f 36 35 4
f 4 35 34
f 34 3 4
f 23 24 56
f 56 55 23
f 21 52 20
f 21 53 52
f 22 23 54
f 54 23 55
f 54 21 22
f 53 21 54
f 52 53 116
f 116 115 52
f 58 25 26
f 26 27 58
f 223 131 132
f 132 131 130
f 139 134 137
f 137 134 99
f 137 140 139
f 137 99 100
f 100 140 137
f 138 135 139
f 139 141 138
f 220 219 216
f 215 218 220
f 125 218 215
f 215 212 125
f 124 212 123
f 123 59 124
f 58 59 123
f 123 122 58
f 14 46 13
f 46 45 13
f 44 43 12
f 12 13 44
f 44 13 45
f 46 110 109
f 109 45 46
f 109 110 170
f 161 158 107
f 163 158 161
f 165 166 169
f 163 166 165
f 157 155 160
f 100 101 143
f 143 140 100
f 104 155 152
f 152 149 104
f 155 157 152
f 153 73 72
f 156 73 153
f 148 149 151
f 149 152 151
f 50 115 114
f 115 182 114
f 114 49 50
f 113 49 114
f 185 182 115
f 80 180 81
f 79 174 80
f 171 175 174
f 172 175 171
f 171 79 78
f 174 79 171
f 171 78 77
f 56 120 119
f 119 55 56
f 119 54 55
f 200 203 205
f 106 105 41
f 41 42 106
f 106 155 105
f 158 155 106
f 107 158 106
f 106 42 107
f 117 116 53
f 53 54 117
f 133 130 129
f 133 132 130
f 129 65 133
f 67 141 68
f 67 138 141
f 66 135 67
f 135 138 67
f 207 91 90
f 90 89 207
f 93 219 94
f 93 216 219
f 210 91 207
f 212 215 217
f 220 216 217
f 217 215 220
f 209 123 212
f 122 123 209
f 31 30 8
f 8 6 5
f 8 29 28
f 8 26 25
f 7 6 8
f 1 31 8
f 8 2 1
f 5 4 8
f 8 25 24
f 28 27 8
f 8 3 2
f 8 30 29
f 8 4 3
f 27 26 8
f 38 7 8
f 8 39 38
f 107 43 108
f 43 44 108
f 108 161 107
f 108 44 45
f 45 109 108
f 76 165 77
f 163 165 162
f 146 101 102
f 146 143 101
f 102 149 146
f 146 149 148
f 140 143 145
f 145 146 148
f 143 146 145
f 154 152 157
f 154 151 152
f 154 157 156
f 156 153 154
f 154 153 150
f 150 151 154
f 71 153 72
f 150 153 71
f 68 141 144
f 141 145 144
f 180 177 178
f 178 181 180
f 177 175 178
f 178 175 176
f 176 181 178
f 113 114 179
f 179 114 182
f 179 181 176
f 176 112 179
f 112 113 179
f 115 116 188
f 188 185 115
f 116 117 188
f 184 179 182
f 181 179 184
f 182 185 184
f 77 165 168
f 168 171 77
f 168 165 169
f 169 172 168
f 172 171 168
f 197 120 200
f 197 119 120
f 200 199 197
f 194 119 197
f 196 194 197
f 197 199 196
f 118 119 194
f 54 119 118
f 118 117 54
f 204 205 207
f 201 205 204
f 207 89 204
f 89 88 204
f 204 88 201
f 201 199 202
f 202 205 201
f 202 199 200
f 200 205 202
f 223 132 222
f 132 133 222
f 222 219 223
f 95 219 222
f 222 65 95
f 222 133 65
f 214 217 216
f 212 217 214
f 214 209 212
f 122 209 206
f 121 122 206
f 206 203 121
f 208 206 209
f 207 205 208
f 208 205 203
f 203 206 208
f 9 13 12
f 12 11 9
f 14 13 9
f 9 11 10
f 9 15 14
f 16 15 9
f 9 42 41
f 10 42 9
f 9 17 16
f 18 17 9
f 9 19 18
f 20 19 9
f 9 21 20
f 22 21 9
f 9 23 22
f 24 23 9
f 9 8 24
f 161 108 164
f 164 166 163
f 163 161 164
f 169 166 164
f 159 160 163
f 163 162 159
f 156 157 159
f 159 157 160
f 74 73 159
f 159 73 156
f 74 159 75
f 75 159 162
f 165 76 75
f 75 162 165
f 139 140 142
f 140 145 142
f 142 141 139
f 142 145 141
f 68 144 69
f 69 144 70
f 70 144 147
f 147 71 70
f 150 71 147
f 148 151 147
f 147 151 150
f 147 145 148
f 147 144 145
f 191 188 117
f 191 118 194
f 117 118 191
f 191 194 196
f 190 188 191
f 183 184 186
f 180 181 183
f 181 184 183
f 183 82 81
f 183 81 180
f 83 82 183
f 183 186 83
f 190 186 187
f 186 184 187
f 187 184 185
f 187 188 190
f 185 188 187
f 196 199 195
f 195 85 192
f 190 191 193
f 193 191 196
f 196 195 193
f 193 195 192
f 93 92 213
f 216 93 213
f 213 214 216
f 213 92 91
f 91 210 213
f 209 214 211
f 211 208 209
f 211 213 210
f 214 213 211
f 211 210 207
f 207 208 211
f 169 164 167
f 167 109 170
f 167 108 109
f 167 164 108
f 167 172 169
f 170 172 167
f 83 186 189
f 192 85 189
f 189 186 190
f 190 193 189
f 189 193 192
f 86 195 87
f 85 195 86
f 87 195 198
f 198 88 87
f 201 88 198
f 198 199 201
f 198 195 199
f 83 189 84
f 84 189 85
f 39 8 9
f 41 39 9
f 84 73 74
f 84 90 91
f 64 66 84
f 84 65 64
f 68 69 84
f 84 79 80
f 94 95 84
f 80 81 84
f 84 93 94
f 95 65 84
f 87 88 84
f 72 73 84
f 74 75 84
f 77 78 84
f 84 67 68
f 91 92 84
f 84 71 72
f 78 79 84
f 66 67 84
f 89 90 84
f 84 88 89
f 84 82 83
f 84 76 77
f 70 71 84
f 81 82 84
f 84 92 93
f 84 75 76
f 84 69 70
f 84 86 87
f 85 86 84

