mtllib cup_visual.mtl
usemtl cup_material
# https://github.com/mikedh/trimesh
v 0.00000001 -0.03697744 0.08633024
v 0.00000001 -0.02248793 0.00243807
v -0.00721393 -0.03626695 0.08633024
v -0.00438718 -0.02205584 0.00243807
v -0.01415066 -0.03416272 0.08633024
v -0.00860576 -0.02077615 0.00243807
v -0.02054357 -0.03074564 0.08633024
v -0.01249363 -0.01869805 0.00243807
v -0.02614701 -0.02614702 0.08633024
v -0.01590136 -0.01590139 0.00243807
v -0.03074557 -0.02054358 0.08633024
v -0.01869799 -0.01249365 0.00243807
v -0.03416266 -0.01415065 0.08633024
v -0.02077612 -0.00860574 0.00243807
v -0.03626875 -0.00720512 0.08633048
v -0.02205585 -0.00438716 0.00243807
v -0.03697752 0.00000000 0.08581538
v -0.02248793 0.00000000 0.00243807
v -0.03626875 0.00720512 0.08633048
v -0.02205584 0.00438716 0.00243807
v -0.03416266 0.01415065 0.08633024
v -0.02077612 0.00860574 0.00243807
v -0.03074557 0.02054358 0.08633024
v -0.01869799 0.01249365 0.00243807
v -0.02614701 0.02614702 0.08633024
v -0.01590136 0.01590139 0.00243807
v -0.02054357 0.03074564 0.08633024
v -0.01249363 0.01869805 0.00243807
v -0.01415066 0.03416272 0.08633024
v -0.00860576 0.02077615 0.00243807
v -0.00721393 0.03626695 0.08633024
v -0.00438718 0.02205584 0.00243807
v 0.00000001 0.03697744 0.08633024
v 0.00000001 0.02248793 0.00243807
v 0.00721396 0.03626695 0.08633024
v 0.00438720 0.02205584 0.00243807
v 0.01415065 0.03416272 0.08633024
v 0.00860576 0.02077616 0.00243807
v 0.02054357 0.03074564 0.08633024
v 0.01249363 0.01869805 0.00243807
v 0.02614701 0.02614701 0.08633024
v 0.01590138 0.01590138 0.00243807
v 0.03074564 0.02054357 0.08633024
v 0.01869805 0.01249363 0.00243807
v 0.03416272 0.01415065 0.08633024
v 0.02077615 0.00860576 0.00243807
v 0.03626695 0.00721394 0.08633024
v 0.02205584 0.00438719 0.00243807
v 0.03697744 0.00000000 0.08633024
v 0.02248793 0.00000000 0.00243807
v 0.03626695 -0.00721394 0.08633024
v 0.02205584 -0.00438719 0.00243807
v 0.03416272 -0.01415065 0.08633024
v 0.02077615 -0.00860576 0.00243807
v 0.03074564 -0.02054357 0.08633024
v 0.01869805 -0.01249363 0.00243807
v 0.02614701 -0.02614701 0.08633024
v 0.01590138 -0.01590138 0.00243807
v 0.02054357 -0.03074564 0.08633024
v 0.01249363 -0.01869805 0.00243807
v 0.01415065 -0.03416272 0.08633024
v 0.00860576 -0.02077616 0.00243807
v 0.00721396 -0.03626695 0.08633024
v 0.00438720 -0.02205584 0.00243807
v -0.00414208 -0.02082367 0.00252635
v 0.00000001 -0.02123163 0.00252634
v -0.00812500 -0.01961548 0.00252635
v -0.01179566 -0.01765347 0.00252635
v -0.01501302 -0.01501305 0.00252635
v -0.01765340 -0.01179568 0.00252634
v -0.01961544 -0.00812497 0.00252634
v -0.02082368 -0.00414206 0.00252635
v -0.02123163 0.00000000 0.00252634
v -0.02082368 0.00414206 0.00252635
v -0.01961544 0.00812497 0.00252634
v -0.01765340 0.01179568 0.00252634
v -0.01501302 0.01501305 0.00252635
v -0.01179566 0.01765347 0.00252635
v -0.00812500 0.01961548 0.00252635
v -0.00414208 0.02082367 0.00252635
v 0.00000001 0.02123163 0.00252634
v 0.00414211 0.02082367 0.00252635
v 0.00812500 0.01961548 0.00252635
v 0.01179566 0.01765347 0.00252635
v 0.01501304 0.01501303 0.00252635
v 0.01765347 0.01179566 0.00252635
v 0.01961548 0.00812500 0.00252635
v 0.02082367 0.00414210 0.00252635
v 0.02123163 0.00000000 0.00252634
v 0.02082367 -0.00414210 0.00252635
v 0.01961548 -0.00812500 0.00252635
v 0.01765347 -0.01179566 0.00252635
v 0.01501304 -0.01501303 0.00252635
v 0.01179566 -0.01765347 0.00252635
v 0.00812500 -0.01961548 0.00252635
v 0.00414211 -0.02082367 0.00252635
v -0.00412482 -0.02073685 0.00153845
v 0.00000001 -0.02114311 0.00153845
v -0.00809112 -0.01953370 0.00153845
v -0.01174648 -0.01757987 0.00153845
v -0.01495042 -0.01495046 0.00153845
v -0.01757981 -0.01174651 0.00153845
v -0.01953366 -0.00809109 0.00153845
v -0.02073686 -0.00412479 0.00153845
v -0.02114311 0.00000000 0.00153845
v -0.02073686 0.00412479 0.00153845
v -0.01953366 0.00809109 0.00153845
v -0.01757981 0.01174651 0.00153845
v -0.01495042 0.01495046 0.00153845
v -0.01174648 0.01757987 0.00153845
v -0.00809112 0.01953370 0.00153845
v -0.00412482 0.02073685 0.00153845
v 0.00000001 0.02114311 0.00153845
v 0.00412484 0.02073685 0.00153845
v 0.00809112 0.01953370 0.00153845
v 0.01174649 0.01757987 0.00153845
v 0.01495044 0.01495044 0.00153845
v 0.01757987 0.01174648 0.00153845
v 0.01953370 0.00809112 0.00153845
v 0.02073685 0.00412483 0.00153845
v 0.02114311 0.00000000 0.00153845
v 0.02073685 -0.00412483 0.00153845
v 0.01953370 -0.00809112 0.00153845
v 0.01757987 -0.01174648 0.00153845
v 0.01495044 -0.01495044 0.00153845
v 0.01174649 -0.01757987 0.00153845
v 0.00809112 -0.01953370 0.00153845
v 0.00412484 -0.02073685 0.00153845
v -0.00436990 -0.02196901 0.00162671
v 0.00000001 -0.02239941 0.00162671
v -0.00857188 -0.02069436 0.00162671
v -0.01244444 -0.01862444 0.00162671
v -0.01583876 -0.01583879 0.00162671
v -0.01862438 -0.01244446 0.00162671
v -0.02069433 -0.00857186 0.00162671
v -0.02196901 -0.00436989 0.00162672
v -0.02239941 0.00000000 0.00162671
v -0.02196901 0.00436989 0.00162672
v -0.02069433 0.00857186 0.00162671
v -0.01862438 0.01244447 0.00162671
v -0.01583876 0.01583879 0.00162671
v -0.01244444 0.01862444 0.00162671
v -0.00857188 0.02069436 0.00162671
v -0.00436990 0.02196901 0.00162671
v 0.00000001 0.02239941 0.00162671
v 0.00436993 0.02196901 0.00162671
v 0.00857188 0.02069437 0.00162671
v 0.01244445 0.01862444 0.00162671
v 0.01583878 0.01583878 0.00162671
v 0.01862444 0.01244444 0.00162671
v 0.02069436 0.00857188 0.00162671
v 0.02196901 0.00436992 0.00162671
v 0.02239941 0.00000000 0.00162671
v 0.02196901 -0.00436992 0.00162671
v 0.02069436 -0.00857189 0.00162671
v 0.01862444 -0.01244444 0.00162671
v 0.01583878 -0.01583878 0.00162671
v 0.01244445 -0.01862444 0.00162671
v 0.00857188 -0.02069437 0.00162671
v 0.00436993 -0.02196901 0.00162671
v 0.00000001 -0.02838598 0.00849919
v -0.00553782 -0.02784057 0.00849919
v -0.01086285 -0.02622525 0.00849919
v -0.01577041 -0.02360210 0.00849919
v -0.02007193 -0.02007194 0.00849919
v -0.02360204 -0.01577042 0.00849919
v -0.02622520 -0.01086284 0.00849919
v -0.02784126 -0.00553430 0.00849911
v -0.02838617 0.00000000 0.00841883
v -0.02784126 0.00553430 0.00849911
v -0.02622520 0.01086284 0.00849919
v -0.02360204 0.01577042 0.00849919
v -0.02007193 0.02007194 0.00849919
v -0.01577041 0.02360210 0.00849919
v -0.01086285 0.02622525 0.00849919
v -0.00553782 0.02784057 0.00849919
v 0.00000001 0.02838598 0.00849919
v 0.00553785 0.02784057 0.00849919
v 0.01086285 0.02622525 0.00849919
v 0.01577041 0.02360210 0.00849919
v 0.02007193 0.02007193 0.00849919
v 0.02360210 0.01577041 0.00849919
v 0.02622525 0.01086285 0.00849919
v 0.02784057 0.00553783 0.00849919
v 0.02838599 0.00000000 0.00849919
v 0.02784057 -0.00553783 0.00849919
v 0.02622525 -0.01086285 0.00849919
v 0.02360210 -0.01577041 0.00849919
v 0.02007193 -0.02007193 0.00849919
v 0.01577041 -0.02360210 0.00849919
v 0.01086285 -0.02622525 0.00849919
v 0.00553785 -0.02784057 0.00849919
v -0.00467789 -0.02351740 0.00305157
v -0.00544893 -0.02739370 0.00585099
v -0.00501165 -0.02519533 0.00342135
v -0.00528662 -0.02657769 0.00444390
v 0.00000001 -0.02793037 0.00585099
v 0.00000001 -0.02397813 0.00305157
v 0.00000001 -0.02709837 0.00444390
v 0.00000001 -0.02568892 0.00342135
v -0.00917603 -0.02215291 0.00305157
v -0.01068849 -0.02580431 0.00585099
v -0.00983073 -0.02373349 0.00342135
v -0.01037010 -0.02503564 0.00444390
v -0.01332153 -0.01993710 0.00305157
v -0.01551728 -0.02322327 0.00585099
v -0.01427200 -0.02135958 0.00342135
v -0.01505505 -0.02253149 0.00444390
v -0.01695509 -0.01695511 0.00305157
v -0.01974976 -0.01974977 0.00585099
v -0.01816481 -0.01816483 0.00342135
v -0.01916144 -0.01916145 0.00444390
v -0.01993704 -0.01332155 0.00305157
v -0.02322321 -0.01551729 0.00585099
v -0.02135952 -0.01427202 0.00342135
v -0.02253143 -0.01505506 0.00444390
v -0.02215287 -0.00917602 0.00305157
v -0.02580426 -0.01068848 0.00585099
v -0.02373344 -0.00983072 0.00342135
v -0.02503560 -0.01037009 0.00444390
v -0.02351751 -0.00467785 0.00305158
v -0.02739436 -0.00544697 0.00585168
v -0.02519584 -0.00501133 0.00342156
v -0.02657862 -0.00528554 0.00444469
v -0.02397833 0.00000000 0.00305159
v -0.02794352 0.00000000 0.00584864
v -0.02569149 0.00000000 0.00342124
v -0.02710607 0.00000000 0.00444353
v -0.02351751 0.00467785 0.00305158
v -0.02739436 0.00544697 0.00585168
v -0.02519584 0.00501133 0.00342156
v -0.02657862 0.00528554 0.00444469
v -0.02215287 0.00917602 0.00305157
v -0.02580426 0.01068848 0.00585099
v -0.02373344 0.00983072 0.00342135
v -0.02503560 0.01037009 0.00444390
v -0.01993704 0.01332155 0.00305157
v -0.02322321 0.01551729 0.00585099
v -0.02135952 0.01427201 0.00342135
v -0.02253143 0.01505506 0.00444390
v -0.01695509 0.01695511 0.00305157
v -0.01974976 0.01974977 0.00585099
v -0.01816481 0.01816483 0.00342135
v -0.01916144 0.01916145 0.00444390
v -0.01332153 0.01993710 0.00305157
v -0.01551728 0.02322327 0.00585099
v -0.01427200 0.02135958 0.00342135
v -0.01505505 0.02253149 0.00444390
v -0.00917603 0.02215291 0.00305157
v -0.01068849 0.02580431 0.00585099
v -0.00983073 0.02373349 0.00342135
v -0.01037010 0.02503565 0.00444390
v -0.00467789 0.02351740 0.00305157
v -0.00544893 0.02739370 0.00585099
v -0.00501165 0.02519533 0.00342135
v -0.00528662 0.02657769 0.00444390
v 0.00000001 0.02397813 0.00305157
v 0.00000001 0.02793037 0.00585099
v 0.00000001 0.02568892 0.00342135
v 0.00000001 0.02709837 0.00444390
v 0.00467792 0.02351740 0.00305157
v 0.00544896 0.02739370 0.00585099
v 0.00501168 0.02519533 0.00342135
v 0.00528665 0.02657769 0.00444390
v 0.00917603 0.02215291 0.00305157
v 0.01068849 0.02580431 0.00585099
v 0.00983073 0.02373349 0.00342135
v 0.01037010 0.02503565 0.00444390
v 0.01332154 0.01993710 0.00305157
v 0.01551729 0.02322327 0.00585099
v 0.01427201 0.02135958 0.00342135
v 0.01505505 0.02253149 0.00444390
v 0.01695511 0.01695510 0.00305157
v 0.01974976 0.01974976 0.00585099
v 0.01816482 0.01816482 0.00342135
v 0.01916145 0.01916145 0.00444390
v 0.01993710 0.01332154 0.00305157
v 0.02322327 0.01551728 0.00585099
v 0.02135958 0.01427200 0.00342135
v 0.02253149 0.01505505 0.00444390
v 0.02215291 0.00917603 0.00305157
v 0.02580431 0.01068849 0.00585099
v 0.02373349 0.00983073 0.00342135
v 0.02503565 0.01037010 0.00444390
v 0.02351740 0.00467791 0.00305157
v 0.02739370 0.00544895 0.00585099
v 0.02519533 0.00501167 0.00342135
v 0.02657769 0.00528663 0.00444390
v 0.02397813 0.00000000 0.00305157
v 0.02793037 0.00000000 0.00585099
v 0.02568892 0.00000000 0.00342135
v 0.02709837 0.00000000 0.00444390
v 0.02351740 -0.00467791 0.00305157
v 0.02739370 -0.00544895 0.00585099
v 0.02519533 -0.00501167 0.00342135
v 0.02657769 -0.00528663 0.00444390
v 0.02215291 -0.00917603 0.00305157
v 0.02580431 -0.01068849 0.00585099
v 0.02373349 -0.00983073 0.00342135
v 0.02503565 -0.01037010 0.00444390
v 0.01993710 -0.01332154 0.00305157
v 0.02322327 -0.01551728 0.00585099
v 0.02135958 -0.01427200 0.00342135
v 0.02253149 -0.01505505 0.00444390
v 0.01695511 -0.01695510 0.00305157
v 0.01974976 -0.01974976 0.00585099
v 0.01816482 -0.01816482 0.00342135
v 0.01916145 -0.01916145 0.00444390
v 0.01332154 -0.01993710 0.00305157
v 0.01551729 -0.02322327 0.00585099
v 0.01427201 -0.02135958 0.00342135
v 0.01505505 -0.02253149 0.00444390
v 0.00917603 -0.02215292 0.00305157
v 0.01068849 -0.02580431 0.00585099
v 0.00983073 -0.02373349 0.00342135
v 0.01037010 -0.02503565 0.00444390
v 0.00467792 -0.02351740 0.00305157
v 0.00544896 -0.02739370 0.00585099
v 0.00501168 -0.02519533 0.00342135
v 0.00528665 -0.02657769 0.00444390
v 0.00000001 -0.03896536 0.08611076
v 0.00000001 -0.02103217 0.00106667
v -0.00760175 -0.03821667 0.08611076
v -0.00410317 -0.02062805 0.00106667
v -0.01491140 -0.03599932 0.08611076
v -0.00804867 -0.01943120 0.00106667
v -0.02164800 -0.03239854 0.08611076
v -0.01168485 -0.01748763 0.00106667
v -0.02755269 -0.02755268 0.08611076
v -0.01487198 -0.01487201 0.00106667
v -0.03239847 -0.02164800 0.08611076
v -0.01748756 -0.01168487 0.00106667
v -0.03599926 -0.01491140 0.08611076
v -0.01943117 -0.00804864 0.00106667
v -0.03821667 -0.00760177 0.08611076
v -0.02062805 -0.00410315 0.00106667
v -0.03896537 0.00000000 0.08559521
v -0.02103217 0.00000000 0.00106667
v -0.03821667 0.00760177 0.08611076
v -0.02062805 0.00410315 0.00106667
v -0.03599926 0.01491140 0.08611076
v -0.01943117 0.00804864 0.00106667
v -0.03239847 0.02164800 0.08611076
v -0.01748756 0.01168487 0.00106667
v -0.02755269 0.02755268 0.08611076
v -0.01487198 0.01487201 0.00106667
v -0.02164800 0.03239854 0.08611076
v -0.01168485 0.01748763 0.00106667
v -0.01491140 0.03599932 0.08611076
v -0.00804867 0.01943120 0.00106667
v -0.00760175 0.03821667 0.08611076
v -0.00410317 0.02062805 0.00106667
v 0.00000001 0.03896536 0.08611076
v 0.00000001 0.02103217 0.00106667
v 0.00760178 0.03821667 0.08611076
v 0.00410319 0.02062805 0.00106667
v 0.01491140 0.03599932 0.08611076
v 0.00804867 0.01943120 0.00106667
v 0.02164800 0.03239854 0.08611076
v 0.01168485 0.01748763 0.00106667
v 0.02755268 0.02755268 0.08611076
v 0.01487200 0.01487200 0.00106667
v 0.03239854 0.02164800 0.08611076
v 0.01748763 0.01168485 0.00106667
v 0.03599932 0.01491140 0.08611076
v 0.01943120 0.00804867 0.00106667
v 0.03821667 0.00760177 0.08611076
v 0.02062805 0.00410318 0.00106667
v 0.03896536 0.00000000 0.08611076
v 0.02103217 0.00000000 0.00106667
v 0.03821667 -0.00760177 0.08611076
v 0.02062805 -0.00410318 0.00106667
v 0.03599932 -0.01491140 0.08611076
v 0.01943120 -0.00804867 0.00106667
v 0.03239854 -0.02164800 0.08611076
v 0.01748763 -0.01168485 0.00106667
v 0.02755268 -0.02755268 0.08611076
v 0.01487200 -0.01487200 0.00106667
v 0.02164800 -0.03239854 0.08611076
v 0.01168485 -0.01748763 0.00106667
v 0.01491140 -0.03599932 0.08611076
v 0.00804867 -0.01943120 0.00106667
v 0.00760178 -0.03821667 0.08611076
v 0.00410319 -0.02062805 0.00106667
v -0.00440882 -0.02216464 0.00106667
v 0.00000001 -0.02259886 0.00106667
v -0.00864821 -0.02087864 0.00106667
v -0.01255526 -0.01879028 0.00106667
v -0.01597980 -0.01597983 0.00106667
v -0.01879022 -0.01255528 0.00106667
v -0.02087860 -0.00864819 0.00106667
v -0.02216464 -0.00440880 0.00106667
v -0.02259886 0.00000000 0.00106667
v -0.02216464 0.00440880 0.00106667
v -0.02087860 0.00864819 0.00106667
v -0.01879022 0.01255528 0.00106667
v -0.01597980 0.01597983 0.00106667
v -0.01255526 0.01879028 0.00106667
v -0.00864821 0.02087864 0.00106667
v -0.00440882 0.02216464 0.00106667
v 0.00000001 0.02259886 0.00106667
v 0.00440884 0.02216464 0.00106667
v 0.00864821 0.02087864 0.00106667
v 0.01255526 0.01879028 0.00106667
v 0.01597982 0.01597982 0.00106667
v 0.01879028 0.01255526 0.00106667
v 0.02087864 0.00864821 0.00106667
v 0.02216464 0.00440883 0.00106667
v 0.02259886 0.00000000 0.00106667
v 0.02216464 -0.00440883 0.00106667
v 0.02087864 -0.00864821 0.00106667
v 0.01879028 -0.01255526 0.00106667
v 0.01597982 -0.01597982 0.00106667
v 0.01255526 -0.01879028 0.00106667
v 0.00864821 -0.02087864 0.00106667
v 0.00440884 -0.02216464 0.00106667
v -0.00440882 -0.02216464 0.00016703
v 0.00000001 -0.02259886 0.00016703
v -0.00864821 -0.02087864 0.00016703
v -0.01255526 -0.01879028 0.00016703
v -0.01597980 -0.01597983 0.00016703
v -0.01879022 -0.01255528 0.00016703
v -0.02087860 -0.00864819 0.00016703
v -0.02216464 -0.00440880 0.00016703
v -0.02259886 0.00000000 0.00016703
v -0.02216464 0.00440880 0.00016703
v -0.02087860 0.00864819 0.00016703
v -0.01879022 0.01255528 0.00016703
v -0.01597980 0.01597983 0.00016703
v -0.01255526 0.01879028 0.00016703
v -0.00864821 0.02087864 0.00016703
v -0.00440882 0.02216464 0.00016703
v 0.00000001 0.02259886 0.00016703
v 0.00440884 0.02216464 0.00016703
v 0.00864821 0.02087864 0.00016703
v 0.01255526 0.01879028 0.00016703
v 0.01597982 0.01597982 0.00016703
v 0.01879028 0.01255526 0.00016703
v 0.02087864 0.00864821 0.00016703
v 0.02216464 0.00440883 0.00016703
v 0.02259886 0.00000000 0.00016703
v 0.02216464 -0.00440883 0.00016703
v 0.02087864 -0.00864821 0.00016703
v 0.01879028 -0.01255526 0.00016703
v 0.01597982 -0.01597982 0.00016703
v 0.01255526 -0.01879028 0.00016703
v 0.00864821 -0.02087864 0.00016703
v 0.00440884 -0.02216464 0.00016703
v -0.00410317 -0.02062805 0.00016703
v 0.00000001 -0.02103217 0.00016703
v -0.00804867 -0.01943120 0.00016703
v -0.01168485 -0.01748763 0.00016703
v -0.01487198 -0.01487201 0.00016703
v -0.01748756 -0.01168487 0.00016703
v -0.01943117 -0.00804864 0.00016703
v -0.02062805 -0.00410315 0.00016703
v -0.02103217 0.00000000 0.00016703
v -0.02062805 0.00410315 0.00016703
v -0.01943117 0.00804864 0.00016703
v -0.01748756 0.01168487 0.00016703
v -0.01487198 0.01487201 0.00016703
v -0.01168485 0.01748763 0.00016703
v -0.00804867 0.01943120 0.00016703
v -0.00410317 0.02062805 0.00016703
v 0.00000001 0.02103217 0.00016703
v 0.00410319 0.02062805 0.00016703
v 0.00804867 0.01943120 0.00016703
v 0.01168485 0.01748763 0.00016703
v 0.01487200 0.01487200 0.00016703
v 0.01748763 0.01168485 0.00016703
v 0.01943120 0.00804867 0.00016703
v 0.02062805 0.00410318 0.00016703
v 0.02103217 0.00000000 0.00016703
v 0.02062805 -0.00410318 0.00016703
v 0.01943120 -0.00804867 0.00016703
v 0.01748763 -0.01168485 0.00016703
v 0.01487200 -0.01487200 0.00016703
v 0.01168485 -0.01748763 0.00016703
v 0.00804867 -0.01943120 0.00016703
v 0.00410319 -0.02062805 0.00016703
v 0.00000001 -0.03036493 0.00820976
v -0.00592389 -0.02978149 0.00820976
v -0.01162015 -0.02805356 0.00820976
v -0.01686985 -0.02524754 0.00820976
v -0.02147126 -0.02147126 0.00820976
v -0.02524748 -0.01686986 0.00820976
v -0.02805350 -0.01162016 0.00820976
v -0.02978149 -0.00592390 0.00820976
v -0.03036493 0.00000000 0.00812813
v -0.02978149 0.00592390 0.00820976
v -0.02805350 0.01162016 0.00820976
v -0.02524748 0.01686986 0.00820976
v -0.02147126 0.02147126 0.00820976
v -0.01686985 0.02524754 0.00820976
v -0.01162015 0.02805356 0.00820976
v -0.00592389 0.02978149 0.00820976
v 0.00000001 0.03036493 0.00820976
v 0.00592392 0.02978149 0.00820976
v 0.01162016 0.02805356 0.00820976
v 0.01686986 0.02524754 0.00820976
v 0.02147126 0.02147126 0.00820976
v 0.02524754 0.01686986 0.00820976
v 0.02805356 0.01162016 0.00820976
v 0.02978149 0.00592390 0.00820976
v 0.03036493 0.00000000 0.00820976
v 0.02978149 -0.00592390 0.00820976
v 0.02805356 -0.01162016 0.00820976
v 0.02524754 -0.01686986 0.00820976
v 0.02147126 -0.02147126 0.00820976
v 0.01686986 -0.02524754 0.00820976
v 0.01162016 -0.02805356 0.00820976
v 0.00592392 -0.02978149 0.00820976
v -0.00472575 -0.02375799 0.00106667
v -0.00581478 -0.02923295 0.00515577
v -0.00517894 -0.02603635 0.00161450
v -0.00557755 -0.02804033 0.00311122
v 0.00000001 -0.02980564 0.00515577
v 0.00000001 -0.02422343 0.00106667
v 0.00000001 -0.02858966 0.00311122
v 0.00000001 -0.02654642 0.00161450
v -0.00926991 -0.02237954 0.00106667
v -0.01140612 -0.02753684 0.00515577
v -0.01015888 -0.02452572 0.00161450
v -0.01094079 -0.02641342 0.00311122
v -0.01345782 -0.02014106 0.00106667
v -0.01655913 -0.02478250 0.00515577
v -0.01474840 -0.02207256 0.00161450
v -0.01588356 -0.02377145 0.00311122
v -0.01712855 -0.01712857 0.00106667
v -0.02107578 -0.02107578 0.00515577
v -0.01877116 -0.01877117 0.00161450
v -0.02021595 -0.02021595 0.00311122
v -0.02014100 -0.01345783 0.00106667
v -0.02478245 -0.01655913 0.00515577
v -0.02207251 -0.01474841 0.00161450
v -0.02377140 -0.01588357 0.00311122
v -0.02237950 -0.00926989 0.00106667
v -0.02753679 -0.01140613 0.00515577
v -0.02452567 -0.01015887 0.00161450
v -0.02641337 -0.01094079 0.00311122
v -0.02375799 -0.00472574 0.00106667
v -0.02923295 -0.00581479 0.00515577
v -0.02603635 -0.00517894 0.00161450
v -0.02804033 -0.00557756 0.00311122
v -0.02422343 0.00000000 0.00106667
v -0.02981822 0.00000000 0.00515185
v -0.02654811 0.00000000 0.00161398
v -0.02859595 0.00000000 0.00310926
v -0.02375799 0.00472574 0.00106667
v -0.02923295 0.00581479 0.00515577
v -0.02603635 0.00517894 0.00161450
v -0.02804033 0.00557756 0.00311122
v -0.02237950 0.00926989 0.00106667
v -0.02753679 0.01140613 0.00515577
v -0.02452567 0.01015887 0.00161450
v -0.02641337 0.01094079 0.00311122
v -0.02014100 0.01345783 0.00106667
v -0.02478245 0.01655913 0.00515577
v -0.02207251 0.01474841 0.00161450
v -0.02377140 0.01588357 0.00311122
v -0.01712855 0.01712857 0.00106667
v -0.02107578 0.02107578 0.00515577
v -0.01877116 0.01877117 0.00161450
v -0.02021595 0.02021595 0.00311122
v -0.01345782 0.02014106 0.00106667
v -0.01655913 0.02478250 0.00515577
v -0.01474840 0.02207256 0.00161450
v -0.01588356 0.02377145 0.00311122
v -0.00926991 0.02237954 0.00106667
v -0.01140612 0.02753684 0.00515577
v -0.01015888 0.02452572 0.00161450
v -0.01094079 0.02641342 0.00311122
v -0.00472575 0.02375799 0.00106667
v -0.00581478 0.02923295 0.00515577
v -0.00517894 0.02603635 0.00161450
v -0.00557755 0.02804033 0.00311122
v 0.00000001 0.02422343 0.00106667
v 0.00000001 0.02980564 0.00515577
v 0.00000001 0.02654642 0.00161450
v 0.00000001 0.02858966 0.00311122
v 0.00472578 0.02375799 0.00106667
v 0.00581481 0.02923295 0.00515577
v 0.00517897 0.02603635 0.00161450
v 0.00557758 0.02804033 0.00311122
v 0.00926991 0.02237954 0.00106667
v 0.01140613 0.02753684 0.00515577
v 0.01015888 0.02452572 0.00161450
v 0.01094079 0.02641342 0.00311122
v 0.01345782 0.02014106 0.00106667
v 0.01655913 0.02478250 0.00515577
v 0.01474841 0.02207256 0.00161450
v 0.01588357 0.02377145 0.00311122
v 0.01712856 0.01712856 0.00106667
v 0.02107579 0.02107578 0.00515577
v 0.01877117 0.01877117 0.00161450
v 0.02021595 0.02021595 0.00311122
v 0.02014106 0.01345782 0.00106667
v 0.02478251 0.01655913 0.00515577
v 0.02207256 0.01474841 0.00161450
v 0.02377145 0.01588356 0.00311122
v 0.02237954 0.00926991 0.00106667
v 0.02753684 0.01140613 0.00515577
v 0.02452572 0.01015888 0.00161450
v 0.02641342 0.01094079 0.00311122
v 0.02375799 0.00472576 0.00106667
v 0.02923295 0.00581479 0.00515577
v 0.02603635 0.00517895 0.00161450
v 0.02804033 0.00557757 0.00311122
v 0.02422343 0.00000000 0.00106667
v 0.02980564 0.00000000 0.00515577
v 0.02654642 0.00000000 0.00161450
v 0.02858966 0.00000000 0.00311122
v 0.02375799 -0.00472576 0.00106667
v 0.02923295 -0.00581479 0.00515577
v 0.02603635 -0.00517895 0.00161450
v 0.02804033 -0.00557757 0.00311122
v 0.02237954 -0.00926991 0.00106667
v 0.02753684 -0.01140613 0.00515577
v 0.02452572 -0.01015888 0.00161450
v 0.02641342 -0.01094079 0.00311122
v 0.02014106 -0.01345782 0.00106667
v 0.02478251 -0.01655913 0.00515577
v 0.02207256 -0.01474841 0.00161450
v 0.02377145 -0.01588356 0.00311122
v 0.01712856 -0.01712856 0.00106667
v 0.02107579 -0.02107578 0.00515577
v 0.01877117 -0.01877117 0.00161450
v 0.02021595 -0.02021595 0.00311122
v 0.01345782 -0.02014106 0.00106667
v 0.01655913 -0.02478250 0.00515577
v 0.01474841 -0.02207256 0.00161450
v 0.01588357 -0.02377145 0.00311122
v 0.00926991 -0.02237954 0.00106667
v 0.01140613 -0.02753684 0.00515577
v 0.01015888 -0.02452572 0.00161450
v 0.01094079 -0.02641342 0.00311122
v 0.00472578 -0.02375799 0.00106667
v 0.00581481 -0.02923295 0.00515577
v 0.00517897 -0.02603635 0.00161450
v 0.00557758 -0.02804033 0.00311122
f 4 2 64
f 4 64 62
f 4 62 60
f 4 60 58
f 4 58 56
f 4 56 54
f 4 54 52
f 4 52 50
f 4 50 48
f 4 48 46
f 4 46 44
f 4 44 42
f 4 42 40
f 4 40 38
f 4 38 36
f 4 36 34
f 4 34 32
f 4 32 30
f 4 30 28
f 4 28 26
f 4 26 24
f 4 24 22
f 4 22 20
f 4 20 18
f 4 18 16
f 4 16 14
f 4 14 12
f 4 12 10
f 4 10 8
f 4 8 6
f 26 28 142
f 26 142 141
f 89 88 120
f 89 120 121
f 24 26 141
f 24 141 140
f 88 87 119
f 88 119 120
f 22 24 140
f 22 140 139
f 87 86 118
f 87 118 119
f 20 22 139
f 20 139 138
f 86 85 117
f 86 117 118
f 18 20 138
f 18 138 137
f 85 84 116
f 85 116 117
f 16 18 137
f 16 137 136
f 84 83 115
f 84 115 116
f 14 16 136
f 14 136 135
f 83 82 114
f 83 114 115
f 12 14 135
f 12 135 134
f 64 2 130
f 64 130 160
f 82 81 113
f 82 113 114
f 10 12 134
f 10 134 133
f 62 64 160
f 62 160 159
f 81 80 112
f 81 112 113
f 8 10 133
f 8 133 132
f 60 62 159
f 60 159 158
f 80 79 111
f 80 111 112
f 6 8 132
f 6 132 131
f 58 60 158
f 58 158 157
f 79 78 110
f 79 110 111
f 4 6 131
f 4 131 129
f 56 58 157
f 56 157 156
f 78 77 109
f 78 109 110
f 2 4 129
f 2 129 130
f 54 56 156
f 54 156 155
f 77 76 108
f 77 108 109
f 130 129 97
f 130 97 98
f 129 131 99
f 129 99 97
f 131 132 100
f 131 100 99
f 132 133 101
f 132 101 100
f 133 134 102
f 133 102 101
f 134 135 103
f 134 103 102
f 135 136 104
f 135 104 103
f 136 137 105
f 136 105 104
f 137 138 106
f 137 106 105
f 138 139 107
f 138 107 106
f 139 140 108
f 139 108 107
f 140 141 109
f 140 109 108
f 141 142 110
f 141 110 109
f 142 143 111
f 142 111 110
f 143 144 112
f 143 112 111
f 144 145 113
f 144 113 112
f 145 146 114
f 145 114 113
f 146 147 115
f 146 115 114
f 147 148 116
f 147 116 115
f 148 149 117
f 148 117 116
f 149 150 118
f 149 118 117
f 150 151 119
f 150 119 118
f 151 152 120
f 151 120 119
f 152 153 121
f 152 121 120
f 153 154 122
f 153 122 121
f 154 155 123
f 154 123 122
f 155 156 124
f 155 124 123
f 156 157 125
f 156 125 124
f 157 158 126
f 157 126 125
f 158 159 127
f 158 127 126
f 159 160 128
f 159 128 127
f 160 130 98
f 160 98 128
f 90 89 121
f 90 121 122
f 28 30 143
f 28 143 142
f 91 90 122
f 91 122 123
f 30 32 144
f 30 144 143
f 92 91 123
f 92 123 124
f 65 66 98
f 65 98 97
f 32 34 145
f 32 145 144
f 93 92 124
f 93 124 125
f 67 65 97
f 67 97 99
f 34 36 146
f 34 146 145
f 94 93 125
f 94 125 126
f 68 67 99
f 68 99 100
f 36 38 147
f 36 147 146
f 95 94 126
f 95 126 127
f 69 68 100
f 69 100 101
f 38 40 148
f 38 148 147
f 96 95 127
f 96 127 128
f 70 69 101
f 70 101 102
f 40 42 149
f 40 149 148
f 66 96 128
f 66 128 98
f 71 70 102
f 71 102 103
f 42 44 150
f 42 150 149
f 72 71 103
f 72 103 104
f 44 46 151
f 44 151 150
f 73 72 104
f 73 104 105
f 46 48 152
f 46 152 151
f 74 73 105
f 74 105 106
f 48 50 153
f 48 153 152
f 75 74 106
f 75 106 107
f 50 52 154
f 50 154 153
f 76 75 107
f 76 107 108
f 52 54 155
f 52 155 154
f 63 192 161
f 63 161 1
f 61 191 192
f 61 192 63
f 59 190 191
f 59 191 61
f 57 189 190
f 57 190 59
f 55 188 189
f 55 189 57
f 53 187 188
f 53 188 55
f 51 186 187
f 51 187 53
f 49 185 186
f 49 186 51
f 47 184 185
f 47 185 49
f 45 183 184
f 45 184 47
f 43 182 183
f 43 183 45
f 41 181 182
f 41 182 43
f 39 180 181
f 39 181 41
f 37 179 180
f 37 180 39
f 35 178 179
f 35 179 37
f 33 177 178
f 33 178 35
f 31 176 177
f 31 177 33
f 29 175 176
f 29 176 31
f 27 174 175
f 27 175 29
f 25 173 174
f 25 174 27
f 23 172 173
f 23 173 25
f 21 171 172
f 21 172 23
f 19 170 171
f 19 171 21
f 17 169 170
f 17 170 19
f 15 168 169
f 15 169 17
f 13 167 168
f 13 168 15
f 11 166 167
f 11 167 13
f 9 165 166
f 9 166 11
f 7 164 165
f 7 165 9
f 5 163 164
f 5 164 7
f 3 162 163
f 3 163 5
f 1 161 162
f 1 162 3
f 194 197 199
f 194 199 196
f 196 199 200
f 196 200 195
f 195 200 198
f 195 198 193
f 202 194 196
f 202 196 204
f 204 196 195
f 204 195 203
f 203 195 193
f 203 193 201
f 206 202 204
f 206 204 208
f 208 204 203
f 208 203 207
f 207 203 201
f 207 201 205
f 210 206 208
f 210 208 212
f 212 208 207
f 212 207 211
f 211 207 205
f 211 205 209
f 214 210 212
f 214 212 216
f 216 212 211
f 216 211 215
f 215 211 209
f 215 209 213
f 218 214 216
f 218 216 220
f 220 216 215
f 220 215 219
f 219 215 213
f 219 213 217
f 222 218 220
f 222 220 224
f 224 220 219
f 224 219 223
f 223 219 217
f 223 217 221
f 226 222 224
f 226 224 228
f 228 224 223
f 228 223 227
f 227 223 221
f 227 221 225
f 230 226 228
f 230 228 232
f 232 228 227
f 232 227 231
f 231 227 225
f 231 225 229
f 234 230 232
f 234 232 236
f 236 232 231
f 236 231 235
f 235 231 229
f 235 229 233
f 238 234 236
f 238 236 240
f 240 236 235
f 240 235 239
f 239 235 233
f 239 233 237
f 242 238 240
f 242 240 244
f 244 240 239
f 244 239 243
f 243 239 237
f 243 237 241
f 246 242 244
f 246 244 248
f 248 244 243
f 248 243 247
f 247 243 241
f 247 241 245
f 250 246 248
f 250 248 252
f 252 248 247
f 252 247 251
f 251 247 245
f 251 245 249
f 254 250 252
f 254 252 256
f 256 252 251
f 256 251 255
f 255 251 249
f 255 249 253
f 258 254 256
f 258 256 260
f 260 256 255
f 260 255 259
f 259 255 253
f 259 253 257
f 262 258 260
f 262 260 264
f 264 260 259
f 264 259 263
f 263 259 257
f 263 257 261
f 266 262 264
f 266 264 268
f 268 264 263
f 268 263 267
f 267 263 261
f 267 261 265
f 270 266 268
f 270 268 272
f 272 268 267
f 272 267 271
f 271 267 265
f 271 265 269
f 274 270 272
f 274 272 276
f 276 272 271
f 276 271 275
f 275 271 269
f 275 269 273
f 278 274 276
f 278 276 280
f 280 276 275
f 280 275 279
f 279 275 273
f 279 273 277
f 282 278 280
f 282 280 284
f 284 280 279
f 284 279 283
f 283 279 277
f 283 277 281
f 286 282 284
f 286 284 288
f 288 284 283
f 288 283 287
f 287 283 281
f 287 281 285
f 290 286 288
f 290 288 292
f 292 288 287
f 292 287 291
f 291 287 285
f 291 285 289
f 294 290 292
f 294 292 296
f 296 292 291
f 296 291 295
f 295 291 289
f 295 289 293
f 298 294 296
f 298 296 300
f 300 296 295
f 300 295 299
f 299 295 293
f 299 293 297
f 302 298 300
f 302 300 304
f 304 300 299
f 304 299 303
f 303 299 297
f 303 297 301
f 306 302 304
f 306 304 308
f 308 304 303
f 308 303 307
f 307 303 301
f 307 301 305
f 310 306 308
f 310 308 312
f 312 308 307
f 312 307 311
f 311 307 305
f 311 305 309
f 314 310 312
f 314 312 316
f 316 312 311
f 316 311 315
f 315 311 309
f 315 309 313
f 318 314 316
f 318 316 320
f 320 316 315
f 320 315 319
f 319 315 313
f 319 313 317
f 197 318 320
f 197 320 199
f 199 320 319
f 199 319 200
f 200 319 317
f 200 317 198
f 66 65 193
f 66 193 198
f 162 194 202
f 162 202 163
f 65 67 201
f 65 201 193
f 161 197 194
f 161 194 162
f 192 318 197
f 192 197 161
f 96 66 198
f 96 198 317
f 163 202 206
f 163 206 164
f 67 68 205
f 67 205 201
f 164 206 210
f 164 210 165
f 68 69 209
f 68 209 205
f 165 210 214
f 165 214 166
f 69 70 213
f 69 213 209
f 166 214 218
f 166 218 167
f 70 71 217
f 70 217 213
f 167 218 222
f 167 222 168
f 71 72 221
f 71 221 217
f 168 222 226
f 168 226 169
f 72 73 225
f 72 225 221
f 169 226 230
f 169 230 170
f 73 74 229
f 73 229 225
f 170 230 234
f 170 234 171
f 74 75 233
f 74 233 229
f 171 234 238
f 171 238 172
f 75 76 237
f 75 237 233
f 172 238 242
f 172 242 173
f 76 77 241
f 76 241 237
f 173 242 246
f 173 246 174
f 77 78 245
f 77 245 241
f 174 246 250
f 174 250 175
f 78 79 249
f 78 249 245
f 175 250 254
f 175 254 176
f 79 80 253
f 79 253 249
f 176 254 258
f 176 258 177
f 80 81 257
f 80 257 253
f 177 258 262
f 177 262 178
f 81 82 261
f 81 261 257
f 178 262 266
f 178 266 179
f 82 83 265
f 82 265 261
f 179 266 270
f 179 270 180
f 83 84 269
f 83 269 265
f 180 270 274
f 180 274 181
f 84 85 273
f 84 273 269
f 181 274 278
f 181 278 182
f 85 86 277
f 85 277 273
f 182 278 282
f 182 282 183
f 86 87 281
f 86 281 277
f 183 282 286
f 183 286 184
f 87 88 285
f 87 285 281
f 184 286 290
f 184 290 185
f 88 89 289
f 88 289 285
f 185 290 294
f 185 294 186
f 89 90 293
f 89 293 289
f 186 294 298
f 186 298 187
f 90 91 297
f 90 297 293
f 187 298 302
f 187 302 188
f 91 92 301
f 91 301 297
f 188 302 306
f 188 306 189
f 92 93 305
f 92 305 301
f 189 306 310
f 189 310 190
f 93 94 309
f 93 309 305
f 190 310 314
f 190 314 191
f 94 95 313
f 94 313 309
f 191 314 318
f 191 318 192
f 95 96 317
f 95 317 313
f 324 326 328
f 324 328 330
f 324 330 332
f 324 332 334
f 324 334 336
f 324 336 338
f 324 338 340
f 324 340 342
f 324 342 344
f 324 344 346
f 324 346 348
f 324 348 350
f 324 350 352
f 324 352 354
f 324 354 356
f 324 356 358
f 324 358 360
f 324 360 362
f 324 362 364
f 324 364 366
f 324 366 368
f 324 368 370
f 324 370 372
f 324 372 374
f 324 374 376
f 324 376 378
f 324 378 380
f 324 380 382
f 324 382 384
f 324 384 322
f 346 461 462
f 346 462 348
f 409 441 440
f 409 440 408
f 344 460 461
f 344 461 346
f 408 440 439
f 408 439 407
f 342 459 460
f 342 460 344
f 407 439 438
f 407 438 406
f 340 458 459
f 340 459 342
f 406 438 437
f 406 437 405
f 338 457 458
f 338 458 340
f 405 437 436
f 405 436 404
f 336 456 457
f 336 457 338
f 404 436 435
f 404 435 403
f 334 455 456
f 334 456 336
f 403 435 434
f 403 434 402
f 332 454 455
f 332 455 334
f 384 480 450
f 384 450 322
f 402 434 433
f 402 433 401
f 330 453 454
f 330 454 332
f 382 479 480
f 382 480 384
f 401 433 432
f 401 432 400
f 328 452 453
f 328 453 330
f 380 478 479
f 380 479 382
f 400 432 431
f 400 431 399
f 326 451 452
f 326 452 328
f 378 477 478
f 378 478 380
f 399 431 430
f 399 430 398
f 324 449 451
f 324 451 326
f 376 476 477
f 376 477 378
f 398 430 429
f 398 429 397
f 322 450 449
f 322 449 324
f 374 475 476
f 374 476 376
f 397 429 428
f 397 428 396
f 450 418 417
f 450 417 449
f 449 417 419
f 449 419 451
f 451 419 420
f 451 420 452
f 452 420 421
f 452 421 453
f 453 421 422
f 453 422 454
f 454 422 423
f 454 423 455
f 455 423 424
f 455 424 456
f 456 424 425
f 456 425 457
f 457 425 426
f 457 426 458
f 458 426 427
f 458 427 459
f 459 427 428
f 459 428 460
f 460 428 429
f 460 429 461
f 461 429 430
f 461 430 462
f 462 430 431
f 462 431 463
f 463 431 432
f 463 432 464
f 464 432 433
f 464 433 465
f 465 433 434
f 465 434 466
f 466 434 435
f 466 435 467
f 467 435 436
f 467 436 468
f 468 436 437
f 468 437 469
f 469 437 438
f 469 438 470
f 470 438 439
f 470 439 471
f 471 439 440
f 471 440 472
f 472 440 441
f 472 441 473
f 473 441 442
f 473 442 474
f 474 442 443
f 474 443 475
f 475 443 444
f 475 444 476
f 476 444 445
f 476 445 477
f 477 445 446
f 477 446 478
f 478 446 447
f 478 447 479
f 479 447 448
f 479 448 480
f 480 448 418
f 480 418 450
f 410 442 441
f 410 441 409
f 348 462 463
f 348 463 350
f 411 443 442
f 411 442 410
f 350 463 464
f 350 464 352
f 412 444 443
f 412 443 411
f 385 417 418
f 385 418 386
f 352 464 465
f 352 465 354
f 413 445 444
f 413 444 412
f 387 419 417
f 387 417 385
f 354 465 466
f 354 466 356
f 414 446 445
f 414 445 413
f 388 420 419
f 388 419 387
f 356 466 467
f 356 467 358
f 415 447 446
f 415 446 414
f 389 421 420
f 389 420 388
f 358 467 468
f 358 468 360
f 416 448 447
f 416 447 415
f 390 422 421
f 390 421 389
f 360 468 469
f 360 469 362
f 386 418 448
f 386 448 416
f 391 423 422
f 391 422 390
f 362 469 470
f 362 470 364
f 392 424 423
f 392 423 391
f 364 470 471
f 364 471 366
f 393 425 424
f 393 424 392
f 366 471 472
f 366 472 368
f 394 426 425
f 394 425 393
f 368 472 473
f 368 473 370
f 395 427 426
f 395 426 394
f 370 473 474
f 370 474 372
f 396 428 427
f 396 427 395
f 372 474 475
f 372 475 374
f 383 321 481
f 383 481 512
f 381 383 512
f 381 512 511
f 379 381 511
f 379 511 510
f 377 379 510
f 377 510 509
f 375 377 509
f 375 509 508
f 373 375 508
f 373 508 507
f 371 373 507
f 371 507 506
f 369 371 506
f 369 506 505
f 367 369 505
f 367 505 504
f 365 367 504
f 365 504 503
f 363 365 503
f 363 503 502
f 361 363 502
f 361 502 501
f 359 361 501
f 359 501 500
f 357 359 500
f 357 500 499
f 355 357 499
f 355 499 498
f 353 355 498
f 353 498 497
f 351 353 497
f 351 497 496
f 349 351 496
f 349 496 495
f 347 349 495
f 347 495 494
f 345 347 494
f 345 494 493
f 343 345 493
f 343 493 492
f 341 343 492
f 341 492 491
f 339 341 491
f 339 491 490
f 337 339 490
f 337 490 489
f 335 337 489
f 335 489 488
f 333 335 488
f 333 488 487
f 331 333 487
f 331 487 486
f 329 331 486
f 329 486 485
f 327 329 485
f 327 485 484
f 325 327 484
f 325 484 483
f 323 325 483
f 323 483 482
f 321 323 482
f 321 482 481
f 514 516 519
f 514 519 517
f 516 515 520
f 516 520 519
f 515 513 518
f 515 518 520
f 522 524 516
f 522 516 514
f 524 523 515
f 524 515 516
f 523 521 513
f 523 513 515
f 526 528 524
f 526 524 522
f 528 527 523
f 528 523 524
f 527 525 521
f 527 521 523
f 530 532 528
f 530 528 526
f 532 531 527
f 532 527 528
f 531 529 525
f 531 525 527
f 534 536 532
f 534 532 530
f 536 535 531
f 536 531 532
f 535 533 529
f 535 529 531
f 538 540 536
f 538 536 534
f 540 539 535
f 540 535 536
f 539 537 533
f 539 533 535
f 542 544 540
f 542 540 538
f 544 543 539
f 544 539 540
f 543 541 537
f 543 537 539
f 546 548 544
f 546 544 542
f 548 547 543
f 548 543 544
f 547 545 541
f 547 541 543
f 550 552 548
f 550 548 546
f 552 551 547
f 552 547 548
f 551 549 545
f 551 545 547
f 554 556 552
f 554 552 550
f 556 555 551
f 556 551 552
f 555 553 549
f 555 549 551
f 558 560 556
f 558 556 554
f 560 559 555
f 560 555 556
f 559 557 553
f 559 553 555
f 562 564 560
f 562 560 558
f 564 563 559
f 564 559 560
f 563 561 557
f 563 557 559
f 566 568 564
f 566 564 562
f 568 567 563
f 568 563 564
f 567 565 561
f 567 561 563
f 570 572 568
f 570 568 566
f 572 571 567
f 572 567 568
f 571 569 565
f 571 565 567
f 574 576 572
f 574 572 570
f 576 575 571
f 576 571 572
f 575 573 569
f 575 569 571
f 578 580 576
f 578 576 574
f 580 579 575
f 580 575 576
f 579 577 573
f 579 573 575
f 582 584 580
f 582 580 578
f 584 583 579
f 584 579 580
f 583 581 577
f 583 577 579
f 586 588 584
f 586 584 582
f 588 587 583
f 588 583 584
f 587 585 581
f 587 581 583
f 590 592 588
f 590 588 586
f 592 591 587
f 592 587 588
f 591 589 585
f 591 585 587
f 594 596 592
f 594 592 590
f 596 595 591
f 596 591 592
f 595 593 589
f 595 589 591
f 598 600 596
f 598 596 594
f 600 599 595
f 600 595 596
f 599 597 593
f 599 593 595
f 602 604 600
f 602 600 598
f 604 603 599
f 604 599 600
f 603 601 597
f 603 597 599
f 606 608 604
f 606 604 602
f 608 607 603
f 608 603 604
f 607 605 601
f 607 601 603
f 610 612 608
f 610 608 606
f 612 611 607
f 612 607 608
f 611 609 605
f 611 605 607
f 614 616 612
f 614 612 610
f 616 615 611
f 616 611 612
f 615 613 609
f 615 609 611
f 618 620 616
f 618 616 614
f 620 619 615
f 620 615 616
f 619 617 613
f 619 613 615
f 622 624 620
f 622 620 618
f 624 623 619
f 624 619 620
f 623 621 617
f 623 617 619
f 626 628 624
f 626 624 622
f 628 627 623
f 628 623 624
f 627 625 621
f 627 621 623
f 630 632 628
f 630 628 626
f 632 631 627
f 632 627 628
f 631 629 625
f 631 625 627
f 634 636 632
f 634 632 630
f 636 635 631
f 636 631 632
f 635 633 629
f 635 629 631
f 638 640 636
f 638 636 634
f 640 639 635
f 640 635 636
f 639 637 633
f 639 633 635
f 517 519 640
f 517 640 638
f 519 520 639
f 519 639 640
f 520 518 637
f 520 637 639
f 386 518 513
f 386 513 385
f 482 483 522
f 482 522 514
f 385 513 521
f 385 521 387
f 481 482 514
f 481 514 517
f 512 481 517
f 512 517 638
f 416 637 518
f 416 518 386
f 483 484 526
f 483 526 522
f 387 521 525
f 387 525 388
f 484 485 530
f 484 530 526
f 388 525 529
f 388 529 389
f 485 486 534
f 485 534 530
f 389 529 533
f 389 533 390
f 486 487 538
f 486 538 534
f 390 533 537
f 390 537 391
f 487 488 542
f 487 542 538
f 391 537 541
f 391 541 392
f 488 489 546
f 488 546 542
f 392 541 545
f 392 545 393
f 489 490 550
f 489 550 546
f 393 545 549
f 393 549 394
f 490 491 554
f 490 554 550
f 394 549 553
f 394 553 395
f 491 492 558
f 491 558 554
f 395 553 557
f 395 557 396
f 492 493 562
f 492 562 558
f 396 557 561
f 396 561 397
f 493 494 566
f 493 566 562
f 397 561 565
f 397 565 398
f 494 495 570
f 494 570 566
f 398 565 569
f 398 569 399
f 495 496 574
f 495 574 570
f 399 569 573
f 399 573 400
f 496 497 578
f 496 578 574
f 400 573 577
f 400 577 401
f 497 498 582
f 497 582 578
f 401 577 581
f 401 581 402
f 498 499 586
f 498 586 582
f 402 581 585
f 402 585 403
f 499 500 590
f 499 590 586
f 403 585 589
f 403 589 404
f 500 501 594
f 500 594 590
f 404 589 593
f 404 593 405
f 501 502 598
f 501 598 594
f 405 593 597
f 405 597 406
f 502 503 602
f 502 602 598
f 406 597 601
f 406 601 407
f 503 504 606
f 503 606 602
f 407 601 605
f 407 605 408
f 504 505 610
f 504 610 606
f 408 605 609
f 408 609 409
f 505 506 614
f 505 614 610
f 409 609 613
f 409 613 410
f 506 507 618
f 506 618 614
f 410 613 617
f 410 617 411
f 507 508 622
f 507 622 618
f 411 617 621
f 411 621 412
f 508 509 626
f 508 626 622
f 412 621 625
f 412 625 413
f 509 510 630
f 509 630 626
f 413 625 629
f 413 629 414
f 510 511 634
f 510 634 630
f 414 629 633
f 414 633 415
f 511 512 638
f 511 638 634
f 415 633 637
f 415 637 416
f 1 3 323
f 1 323 321
f 3 5 325
f 3 325 323
f 5 7 327
f 5 327 325
f 7 9 329
f 7 329 327
f 9 11 331
f 9 331 329
f 11 13 333
f 11 333 331
f 13 15 335
f 13 335 333
f 15 17 337
f 15 337 335
f 17 19 339
f 17 339 337
f 19 21 341
f 19 341 339
f 21 23 343
f 21 343 341
f 23 25 345
f 23 345 343
f 25 27 347
f 25 347 345
f 27 29 349
f 27 349 347
f 29 31 351
f 29 351 349
f 31 33 353
f 31 353 351
f 33 35 355
f 33 355 353
f 35 37 357
f 35 357 355
f 37 39 359
f 37 359 357
f 39 41 361
f 39 361 359
f 41 43 363
f 41 363 361
f 43 45 365
f 43 365 363
f 45 47 367
f 45 367 365
f 47 49 369
f 47 369 367
f 49 51 371
f 49 371 369
f 51 53 373
f 51 373 371
f 53 55 375
f 53 375 373
f 55 57 377
f 55 377 375
f 57 59 379
f 57 379 377
f 59 61 381
f 59 381 379
f 61 63 383
f 61 383 381
f 63 1 321
f 63 321 383

