# Exported from robot_room_v2.usdc, material /root/_materials/Mat3d66_9313820_48_69112
v 15.4479 9.2183 0.349
v 15.4479 9.2183 2.499
v 13.8471 9.2183 2.499
v 13.8471 9.2183 0.349
v 13.8971 9.2183 0.349
v 13.8971 9.2183 2.449
v 15.3979 9.2183 2.449
v 15.3979 9.2183 0.349
v 15.4479 9.0383 0.349
v 15.4479 9.0383 2.499
v 13.8471 9.0383 2.499
v 13.8471 9.0383 0.349
v 13.8971 9.0383 0.349
v 13.8971 9.0383 2.449
v 15.3979 9.0383 2.449
v 15.3979 9.0383 0.349
v 15.3979 9.12169 2.449
v 13.8972 9.12169 2.449
v 13.8972 9.12169 0.349
v 15.3979 9.12169 0.349
v 15.3979 9.07169 2.449
v 13.8972 9.07169 2.449
v 13.8972 9.07169 0.349
v 15.3979 9.07169 0.349
v 14.6475 9.11816 2.44546
v 14.6475 9.07523 2.44546
v 14.6475 9.11816 0.352536
v 14.6475 9.07523 0.352536
v 14.6525 9.12169 2.449
v 14.6425 9.07169 2.449
v 14.6425 9.12169 0.349
v 14.6525 9.07169 0.349
v 14.6425 9.12169 2.449
v 14.6525 9.07169 2.449
v 14.6525 9.12169 0.349
v 14.6425 9.07169 0.349
v -8.10214 9.12169 2.449
v -6.60139 9.12169 2.449
v -6.60139 9.12169 0.349
v -8.10214 9.12169 0.349
v -8.10214 9.07169 2.449
v -6.60139 9.07169 2.449
v -6.60139 9.07169 0.349
v -8.10214 9.07169 0.349
v -7.35177 9.11815 2.44546
v -7.35177 9.07523 2.44546
v -7.35177 9.11815 0.352536
v -7.35177 9.07523 0.352536
v -7.35677 9.12169 2.449
v -7.34677 9.07169 2.449
v -7.34677 9.12169 0.349
v -7.35677 9.07169 0.349
v -7.34677 9.12169 2.449
v -7.35677 9.07169 2.449
v -7.35677 9.12169 0.349
v -7.34677 9.07169 0.349
v -8.15209 9.2183 0.349
v -8.15209 9.2183 2.499
v -6.55133 9.2183 2.499
v -6.55133 9.2183 0.349
v -6.60133 9.2183 0.349
v -6.60133 9.2183 2.449
v -8.10209 9.2183 2.449
v -8.10209 9.2183 0.349
v -8.15209 9.0383 0.349
v -8.15209 9.0383 2.499
v -6.55133 9.0383 2.499
v -6.55133 9.0383 0.349
v -6.60133 9.0383 0.349
v -6.60133 9.0383 2.449
v -8.10209 9.0383 2.449
v -8.10209 9.0383 0.349
vt 0.557692 -0.3125
vt 0.557692 1.03125
vt 0.442307 1.03125
vt 0.557692 -0.3125
vt 0.442307 1.03125
vt 0.442308 -0.3125
vt 1.19444 0.557692
vt -0.194444 0.557692
vt -0.194444 0.442308
vt 1.19444 0.557692
vt -0.194444 0.442308
vt 1.19444 0.442307
vt 0.442308 1.03125
vt 0.442307 -0.3125
vt 0.557692 -0.3125
vt 0.442308 1.03125
vt 0.557692 -0.3125
vt 0.557692 1.03125
vt 1.19444 0.557693
vt 1.15106 0.557693
vt 1.15106 0.442308
vt 1.19444 0.557693
vt 1.15106 0.442308
vt 1.19444 0.442308
vt 0.557693 -0.3125
vt 0.557692 1
vt 0.442308 1
vt 0.557693 -0.3125
vt 0.442308 1
vt 0.442308 -0.3125
vt 1.15106 0.557692
vt -0.151062 0.557692
vt -0.151062 0.442307
vt 1.15106 0.557692
vt -0.151062 0.442307
vt 1.15106 0.442308
vt 0.442308 1
vt 0.442308 -0.3125
vt 0.557692 -0.3125
vt 0.442308 1
vt 0.557692 -0.3125
vt 0.557693 1
vt -0.151062 0.557692
vt -0.194444 0.557692
vt -0.194444 0.442308
vt -0.151062 0.557692
vt -0.194444 0.442308
vt -0.151062 0.442308
vt -0.151062 -0.3125
vt -0.194444 1.03125
vt -0.194444 -0.3125
vt -0.151062 1
vt -0.194444 1.03125
vt -0.151062 -0.3125
vt -0.151062 1
vt 1.19444 1.03125
vt -0.194444 1.03125
vt 1.15106 1
vt 1.19444 1.03125
vt -0.151062 1
vt 1.15106 1
vt 1.19444 -0.3125
vt 1.19444 1.03125
vt 1.15106 -0.3125
vt 1.19444 -0.3125
vt 1.15106 1
vt 1.15106 -0.3125
vt 1.19444 -0.3125
vt 1.19444 1.03125
vt 1.15106 1
vt 1.15106 -0.3125
vt 1.19444 1.03125
vt 1.15106 1
vt 1.19444 1.03125
vt -0.194444 1.03125
vt -0.151062 1
vt 1.15106 1
vt -0.194444 1.03125
vt -0.151062 1
vt -0.194444 1.03125
vt -0.194444 -0.3125
vt -0.151062 -0.3125
vt -0.151062 1
vt -0.194444 -0.3125
vt 1.15106 0.495761
vt 0.504338 0.495761
vt 0.504338 0.46371
vt 1.15106 0.495761
vt 0.504338 0.46371
vt 1.15106 0.46371
vt 0.504239 1
vt 0.504238 -0.3125
vt 0.53629 -0.3125
vt 0.504239 1
vt 0.53629 -0.3125
vt 0.53629 1
vt 1.15106 0.495762
vt 0.504338 0.495761
vt 0.504338 0.46371
vt 1.15106 0.495762
vt 0.504338 0.46371
vt 1.15106 0.46371
vt 0.495761 -0.3125
vt 0.495761 1
vt 0.46371 1
vt 0.495761 -0.3125
vt 0.46371 1
vt 0.46371 -0.3125
vt 1.15106 -0.3125
vt 1.15106 1
vt 0.504338 1
vt 1.15106 -0.3125
vt 0.504338 1
vt 0.504338 -0.3125
vt -0.151062 -0.3125
vt 0.495662 -0.3125
vt 0.495662 1
vt -0.151062 -0.3125
vt 0.495662 1
vt -0.151062 1
vt 0.495662 0.495761
vt -0.151062 0.495761
vt -0.151062 0.46371
vt 0.495662 0.495761
vt -0.151062 0.46371
vt 0.495662 0.46371
vt 0.495662 0.495761
vt -0.151062 0.495761
vt -0.151062 0.46371
vt 0.495662 0.495761
vt -0.151062 0.46371
vt 0.495662 0.46371
vt 0.495662 1
vt -0.151062 1
vt -0.151062 -0.3125
vt 0.495662 1
vt -0.151062 -0.3125
vt 0.495662 -0.3125
vt 0.504338 -0.3125
vt 1.15106 -0.3125
vt 1.15106 1
vt 0.504338 -0.3125
vt 1.15106 1
vt 0.504338 1
vt 0.504338 0.495761
vt 0.5 0.493495
vt 0.5 0.465976
vt 0.504338 0.495761
vt 0.5 0.465976
vt 0.504338 0.46371
vt 0.504338 0.495761
vt 0.5 0.493495
vt 0.5 0.465977
vt 0.504338 0.495761
vt 0.5 0.465977
vt 0.504338 0.46371
vt 0.504338 1
vt 0.5 0.99779
vt 0.5 -0.31029
vt 0.504338 1
vt 0.5 -0.31029
vt 0.504338 -0.3125
vt 0.495662 -0.3125
vt 0.5 -0.31029
vt 0.5 0.99779
vt 0.495662 -0.3125
vt 0.5 0.99779
vt 0.495662 1
vt 0.495662 0.46371
vt 0.5 0.465976
vt 0.5 0.493495
vt 0.495662 0.46371
vt 0.5 0.493495
vt 0.495662 0.495761
vt 0.495662 0.46371
vt 0.5 0.465977
vt 0.5 0.493495
vt 0.495662 0.46371
vt 0.5 0.493495
vt 0.495662 0.495761
vt 0.495662 -0.3125
vt 0.5 -0.31029
vt 0.5 0.99779
vt 0.495662 -0.3125
vt 0.5 0.99779
vt 0.495662 1
vt 0.504338 1
vt 0.5 0.99779
vt 0.5 -0.31029
vt 0.504338 1
vt 0.5 -0.31029
vt 0.504338 -0.3125
vt 1.15106 0.495761
vt 0.504338 0.495761
vt 0.504338 0.46371
vt 1.15106 0.495761
vt 0.504338 0.46371
vt 1.15106 0.46371
vt 0.504239 1
vt 0.504238 -0.3125
vt 0.53629 -0.3125
vt 0.504239 1
vt 0.53629 -0.3125
vt 0.53629 1
vt 1.15106 0.495762
vt 0.504338 0.495761
vt 0.504338 0.46371
vt 1.15106 0.495762
vt 0.504338 0.46371
vt 1.15106 0.46371
vt 0.495761 -0.3125
vt 0.495761 1
vt 0.46371 1
vt 0.495761 -0.3125
vt 0.46371 1
vt 0.46371 -0.3125
vt 1.15106 -0.3125
vt 1.15106 1
vt 0.504338 1
vt 1.15106 -0.3125
vt 0.504338 1
vt 0.504338 -0.3125
vt -0.151062 -0.3125
vt 0.495662 -0.3125
vt 0.495662 1
vt -0.151062 -0.3125
vt 0.495662 1
vt -0.151062 1
vt 0.495662 0.495761
vt -0.151062 0.495761
vt -0.151062 0.46371
vt 0.495662 0.495761
vt -0.151062 0.46371
vt 0.495662 0.46371
vt 0.495662 0.495761
vt -0.151062 0.495761
vt -0.151062 0.46371
vt 0.495662 0.495761
vt -0.151062 0.46371
vt 0.495662 0.46371
vt 0.495662 1
vt -0.151062 1
vt -0.151062 -0.3125
vt 0.495662 1
vt -0.151062 -0.3125
vt 0.495662 -0.3125
vt 0.504338 -0.3125
vt 1.15106 -0.3125
vt 1.15106 1
vt 0.504338 -0.3125
vt 1.15106 1
vt 0.504338 1
vt 0.504338 0.495761
vt 0.5 0.493495
vt 0.5 0.465976
vt 0.504338 0.495761
vt 0.5 0.465976
vt 0.504338 0.46371
vt 0.504338 0.495761
vt 0.5 0.493495
vt 0.5 0.465977
vt 0.504338 0.495761
vt 0.5 0.465977
vt 0.504338 0.46371
vt 0.504338 1
vt 0.5 0.99779
vt 0.5 -0.31029
vt 0.504338 1
vt 0.5 -0.31029
vt 0.504338 -0.3125
vt 0.495662 -0.3125
vt 0.5 -0.31029
vt 0.5 0.99779
vt 0.495662 -0.3125
vt 0.5 0.99779
vt 0.495662 1
vt 0.495662 0.46371
vt 0.5 0.465976
vt 0.5 0.493495
vt 0.495662 0.46371
vt 0.5 0.493495
vt 0.495662 0.495761
vt 0.495662 0.46371
vt 0.5 0.465977
vt 0.5 0.493495
vt 0.495662 0.46371
vt 0.5 0.493495
vt 0.495662 0.495761
vt 0.495662 -0.3125
vt 0.5 -0.31029
vt 0.5 0.99779
vt 0.495662 -0.3125
vt 0.5 0.99779
vt 0.495662 1
vt 0.504338 1
vt 0.5 0.99779
vt 0.5 -0.31029
vt 0.504338 1
vt 0.5 -0.31029
vt 0.504338 -0.3125
vt 0.557692 -0.3125
vt 0.557692 1.03125
vt 0.442307 1.03125
vt 0.557692 -0.3125
vt 0.442307 1.03125
vt 0.442308 -0.3125
vt 1.19444 0.557692
vt -0.194444 0.557692
vt -0.194444 0.442308
vt 1.19444 0.557692
vt -0.194444 0.442308
vt 1.19444 0.442307
vt 0.442308 1.03125
vt 0.442307 -0.3125
vt 0.557692 -0.3125
vt 0.442308 1.03125
vt 0.557692 -0.3125
vt 0.557692 1.03125
vt 1.19444 0.557693
vt 1.15106 0.557693
vt 1.15106 0.442308
vt 1.19444 0.557693
vt 1.15106 0.442308
vt 1.19444 0.442308
vt 0.557693 -0.3125
vt 0.557692 1
vt 0.442308 1
vt 0.557693 -0.3125
vt 0.442308 1
vt 0.442308 -0.3125
vt 1.15106 0.557692
vt -0.151062 0.557692
vt -0.151062 0.442307
vt 1.15106 0.557692
vt -0.151062 0.442307
vt 1.15106 0.442308
vt 0.442308 1
vt 0.442308 -0.3125
vt 0.557692 -0.3125
vt 0.442308 1
vt 0.557692 -0.3125
vt 0.557693 1
vt -0.151062 0.557692
vt -0.194444 0.557692
vt -0.194444 0.442308
vt -0.151062 0.557692
vt -0.194444 0.442308
vt -0.151062 0.442308
vt -0.151062 -0.3125
vt -0.194444 1.03125
vt -0.194444 -0.3125
vt -0.151062 1
vt -0.194444 1.03125
vt -0.151062 -0.3125
vt -0.151062 1
vt 1.19444 1.03125
vt -0.194444 1.03125
vt 1.15106 1
vt 1.19444 1.03125
vt -0.151062 1
vt 1.15106 1
vt 1.19444 -0.3125
vt 1.19444 1.03125
vt 1.15106 -0.3125
vt 1.19444 -0.3125
vt 1.15106 1
vt 1.15106 -0.3125
vt 1.19444 -0.3125
vt 1.19444 1.03125
vt 1.15106 1
vt 1.15106 -0.3125
vt 1.19444 1.03125
vt 1.15106 1
vt 1.19444 1.03125
vt -0.194444 1.03125
vt -0.151062 1
vt 1.15106 1
vt -0.194444 1.03125
vt -0.151062 1
vt -0.194444 1.03125
vt -0.194444 -0.3125
vt -0.151062 -0.3125
vt -0.151062 1
vt -0.194444 -0.3125
f 1/1 2/2 10/3
f 1/4 10/5 9/6
f 2/7 3/8 11/9
f 2/10 11/11 10/12
f 3/13 4/14 12/15
f 3/16 12/17 11/18
f 4/19 5/20 13/21
f 4/22 13/23 12/24
f 5/25 6/26 14/27
f 5/28 14/29 13/30
f 6/31 7/32 15/33
f 6/34 15/35 14/36
f 7/37 8/38 16/39
f 7/40 16/41 15/42
f 8/43 1/44 9/45
f 8/46 9/47 16/48
f 8/49 2/50 1/51
f 7/52 2/53 8/54
f 7/55 3/56 2/57
f 6/58 3/59 7/60
f 6/61 4/62 3/63
f 5/64 4/65 6/66
f 16/67 9/68 10/69
f 15/70 16/71 10/72
f 15/73 10/74 11/75
f 14/76 15/77 11/78
f 14/79 11/80 12/81
f 13/82 14/83 12/84
f 17/85 29/86 34/87
f 17/88 34/89 21/90
f 18/91 19/92 23/93
f 18/94 23/95 22/96
f 19/97 31/98 36/99
f 19/100 36/101 23/102
f 20/103 17/104 21/105
f 20/106 21/107 24/108
f 19/109 18/110 33/111
f 19/112 33/113 31/114
f 23/115 36/116 30/117
f 23/118 30/119 22/120
f 33/121 18/122 22/123
f 33/124 22/125 30/126
f 35/127 20/128 24/129
f 35/130 24/131 32/132
f 29/133 17/134 20/135
f 29/136 20/137 35/138
f 32/139 24/140 21/141
f 32/142 21/143 34/144
f 29/145 25/146 26/147
f 29/148 26/149 34/150
f 31/151 27/152 28/153
f 31/154 28/155 36/156
f 33/157 25/158 27/159
f 33/160 27/161 31/162
f 36/163 28/164 26/165
f 36/166 26/167 30/168
f 30/169 26/170 25/171
f 30/172 25/173 33/174
f 32/175 28/176 27/177
f 32/178 27/179 35/180
f 35/181 27/182 25/183
f 35/184 25/185 29/186
f 34/187 26/188 28/189
f 34/190 28/191 32/192
f 37/193 49/194 54/195
f 37/196 54/197 41/198
f 38/199 39/200 43/201
f 38/202 43/203 42/204
f 39/205 51/206 56/207
f 39/208 56/209 43/210
f 40/211 37/212 41/213
f 40/214 41/215 44/216
f 39/217 38/218 53/219
f 39/220 53/221 51/222
f 43/223 56/224 50/225
f 43/226 50/227 42/228
f 53/229 38/230 42/231
f 53/232 42/233 50/234
f 55/235 40/236 44/237
f 55/238 44/239 52/240
f 49/241 37/242 40/243
f 49/244 40/245 55/246
f 52/247 44/248 41/249
f 52/250 41/251 54/252
f 49/253 45/254 46/255
f 49/256 46/257 54/258
f 51/259 47/260 48/261
f 51/262 48/263 56/264
f 53/265 45/266 47/267
f 53/268 47/269 51/270
f 56/271 48/272 46/273
f 56/274 46/275 50/276
f 50/277 46/278 45/279
f 50/280 45/281 53/282
f 52/283 48/284 47/285
f 52/286 47/287 55/288
f 55/289 47/290 45/291
f 55/292 45/293 49/294
f 54/295 46/296 48/297
f 54/298 48/299 52/300
f 57/301 58/302 66/303
f 57/304 66/305 65/306
f 58/307 59/308 67/309
f 58/310 67/311 66/312
f 59/313 60/314 68/315
f 59/316 68/317 67/318
f 60/319 61/320 69/321
f 60/322 69/323 68/324
f 61/325 62/326 70/327
f 61/328 70/329 69/330
f 62/331 63/332 71/333
f 62/334 71/335 70/336
f 63/337 64/338 72/339
f 63/340 72/341 71/342
f 64/343 57/344 65/345
f 64/346 65/347 72/348
f 64/349 58/350 57/351
f 63/352 58/353 64/354
f 63/355 59/356 58/357
f 62/358 59/359 63/360
f 62/361 60/362 59/363
f 61/364 60/365 62/366
f 72/367 65/368 66/369
f 71/370 72/371 66/372
f 71/373 66/374 67/375
f 70/376 71/377 67/378
f 70/379 67/380 68/381
f 69/382 70/383 68/384
