# Exported from robot_room_v2.usdc, material /root/_materials/___257
v 5.5659 3.6871 3.10441
v 5.61197 3.6871 3.10441
v 5.61219 3.6871 3.10439
v 5.61239 3.6871 3.10431
v 5.61257 3.6871 3.1042
v 5.61272 3.6871 3.10405
v 5.61284 3.6871 3.10387
v 5.61291 3.6871 3.10367
v 5.61294 3.6871 3.10345
v 5.61294 3.6871 3.08204
v 5.61291 3.6871 3.08181
v 5.61284 3.6871 3.08161
v 5.61272 3.6871 3.08143
v 5.61257 3.6871 3.08128
v 5.61239 3.6871 3.08117
v 5.61219 3.6871 3.08109
v 5.61197 3.6871 3.08107
v 5.5659 3.6871 3.08107
v 5.56568 3.6871 3.08109
v 5.56548 3.6871 3.08117
v 5.5653 3.6871 3.08128
v 5.56515 3.6871 3.08143
v 5.56503 3.6871 3.08161
v 5.56496 3.6871 3.08181
v 5.56494 3.6871 3.08204
v 5.56494 3.6871 3.10345
v 5.56496 3.6871 3.10367
v 5.56503 3.6871 3.10387
v 5.56515 3.6871 3.10405
v 5.5653 3.6871 3.1042
v 5.56548 3.6871 3.10431
v 5.56568 3.6871 3.10439
v 5.5659 3.68864 3.10441
v 5.61197 3.68864 3.10441
v 5.61219 3.68864 3.10439
v 5.61239 3.68864 3.10431
v 5.61257 3.68864 3.1042
v 5.61272 3.68864 3.10405
v 5.61284 3.68864 3.10387
v 5.61291 3.68864 3.10367
v 5.61294 3.68864 3.10345
v 5.61294 3.68864 3.08203
v 5.61291 3.68864 3.08181
v 5.61284 3.68864 3.08161
v 5.61272 3.68864 3.08143
v 5.61257 3.68864 3.08128
v 5.61239 3.68864 3.08117
v 5.61219 3.68864 3.08109
v 5.61197 3.68864 3.08107
v 5.5659 3.68864 3.08107
v 5.56568 3.68864 3.08109
v 5.56548 3.68864 3.08117
v 5.5653 3.68864 3.08128
v 5.56515 3.68864 3.08143
v 5.56503 3.68864 3.08161
v 5.56496 3.68864 3.08181
v 5.56494 3.68864 3.08203
v 5.56494 3.68864 3.10345
v 5.56496 3.68864 3.10367
v 5.56503 3.68864 3.10387
v 5.56515 3.68864 3.10405
v 5.5653 3.68864 3.1042
v 5.56548 3.68864 3.10431
v 5.56568 3.68864 3.10439
v 4.43726 -0.238889 2.64638
v 4.38961 -0.238889 2.64638
v 4.38938 -0.238887 2.64636
v 4.38917 -0.23888 2.64628
v 4.38898 -0.23887 2.64617
v 4.38883 -0.238856 2.64601
v 4.38871 -0.23884 2.64583
v 4.38863 -0.238822 2.64562
v 4.38861 -0.238802 2.64539
v 4.38861 -0.236872 2.62333
v 4.38863 -0.236852 2.6231
v 4.38871 -0.236834 2.62289
v 4.38883 -0.236818 2.62271
v 4.38898 -0.236804 2.62255
v 4.38917 -0.236794 2.62244
v 4.38938 -0.236787 2.62236
v 4.38961 -0.236785 2.62234
v 4.43726 -0.236785 2.62234
v 4.43749 -0.236787 2.62236
v 4.4377 -0.236794 2.62244
v 4.43788 -0.236804 2.62255
v 4.43804 -0.236818 2.62271
v 4.43815 -0.236834 2.62289
v 4.43823 -0.236852 2.6231
v 4.43826 -0.236872 2.62333
v 4.43826 -0.238802 2.64539
v 4.43823 -0.238822 2.64562
v 4.43815 -0.23884 2.64583
v 4.43804 -0.238856 2.64601
v 4.43788 -0.23887 2.64617
v 4.4377 -0.23888 2.64628
v 4.43749 -0.238887 2.64636
v 4.43726 -0.240422 2.64625
v 4.38961 -0.240422 2.64625
v 4.38938 -0.24042 2.64622
v 4.38917 -0.240413 2.64615
v 4.38898 -0.240403 2.64603
v 4.38883 -0.24039 2.64588
v 4.38871 -0.240373 2.64569
v 4.38863 -0.240355 2.64548
v 4.38861 -0.240335 2.64525
v 4.38861 -0.238405 2.6232
v 4.38863 -0.238386 2.62297
v 4.38871 -0.238367 2.62276
v 4.38883 -0.238351 2.62258
v 4.38898 -0.238337 2.62242
v 4.38917 -0.238327 2.6223
v 4.38938 -0.238321 2.62223
v 4.38961 -0.238318 2.6222
v 4.43726 -0.238318 2.6222
v 4.43749 -0.238321 2.62223
v 4.4377 -0.238327 2.6223
v 4.43788 -0.238337 2.62242
v 4.43804 -0.238351 2.62258
v 4.43815 -0.238367 2.62276
v 4.43823 -0.238386 2.62297
v 4.43826 -0.238405 2.6232
v 4.43826 -0.240335 2.64525
v 4.43823 -0.240355 2.64548
v 4.43815 -0.240373 2.64569
v 4.43804 -0.24039 2.64588
v 4.43788 -0.240403 2.64603
v 4.4377 -0.240413 2.64615
v 4.43749 -0.24042 2.64622
vt 0.0206211 0.000499517
vt 0.979379 0.000499517
vt 0.979379 0.999501
vt 0.0206211 0.000499517
vt 0.979379 0.999501
vt 0.0206211 0.999501
vt 0.979379 0.000499517
vt 0.983989 0.000499517
vt 0.983989 0.999501
vt 0.979379 0.000499517
vt 0.983989 0.999501
vt 0.979379 0.999501
vt 0.983989 0.000499517
vt 0.988223 0.000499517
vt 0.988223 0.999501
vt 0.983989 0.000499517
vt 0.988223 0.999501
vt 0.983989 0.999501
vt 0.988223 0.000499517
vt 0.99196 0.000499517
vt 0.99196 0.999501
vt 0.988223 0.000499517
vt 0.99196 0.999501
vt 0.988223 0.999501
vt 0.99196 0.000499517
vt 0.995077 0.000499517
vt 0.995077 0.999501
vt 0.99196 0.000499517
vt 0.995077 0.999501
vt 0.99196 0.999501
vt 0.995077 0.000499517
vt 0.997453 0.000499517
vt 0.997453 0.999501
vt 0.995077 0.000499517
vt 0.997453 0.999501
vt 0.995077 0.999501
vt 0.0236924 0.000499517
vt 0.0324004 0.000499517
vt 0.0324004 0.999501
vt 0.0236924 0.000499517
vt 0.0324004 0.999501
vt 0.0236924 0.999501
vt 0.0324004 0.000499517
vt 0.0418826 0.000499517
vt 0.0418826 0.999501
vt 0.0324004 0.000499517
vt 0.0418826 0.999501
vt 0.0324004 0.999501
vt 0.0418826 0.000499517
vt 0.958117 0.000499517
vt 0.958117 0.999501
vt 0.0418826 0.000499517
vt 0.958117 0.999501
vt 0.0418826 0.999501
vt 0.958117 0.000499517
vt 0.967599 0.000499517
vt 0.967599 0.999501
vt 0.958117 0.000499517
vt 0.967599 0.999501
vt 0.958117 0.999501
vt 0.967599 0.000499517
vt 0.976307 0.000499517
vt 0.976307 0.999501
vt 0.967599 0.000499517
vt 0.976307 0.999501
vt 0.967599 0.999501
vt 0.0025464 0.000499517
vt 0.00492319 0.000499517
vt 0.00492319 0.999501
vt 0.0025464 0.000499517
vt 0.00492319 0.999501
vt 0.0025464 0.999501
vt 0.00492319 0.000499517
vt 0.00804028 0.000499517
vt 0.00804028 0.999501
vt 0.00492319 0.000499517
vt 0.00804028 0.999501
vt 0.00492319 0.999501
vt 0.00804028 0.000499517
vt 0.0117766 0.000499517
vt 0.0117766 0.999501
vt 0.00804028 0.000499517
vt 0.0117766 0.999501
vt 0.00804028 0.999501
vt 0.0117766 0.000499517
vt 0.0160106 0.000499517
vt 0.0160106 0.999501
vt 0.0117766 0.000499517
vt 0.0160106 0.999501
vt 0.0117766 0.999501
vt 0.0160106 0.000499517
vt 0.0206211 0.000499517
vt 0.0206211 0.999501
vt 0.0160106 0.000499517
vt 0.0206211 0.999501
vt 0.0160106 0.999501
vt 0.0206211 0.000499517
vt 0.979379 0.000499517
vt 0.979379 0.999501
vt 0.0206211 0.000499517
vt 0.979379 0.999501
vt 0.0206211 0.999501
vt 0.979379 0.000499517
vt 0.983989 0.000499517
vt 0.983989 0.999501
vt 0.979379 0.000499517
vt 0.983989 0.999501
vt 0.979379 0.999501
vt 0.983989 0.000499517
vt 0.988223 0.000499517
vt 0.988223 0.999501
vt 0.983989 0.000499517
vt 0.988223 0.999501
vt 0.983989 0.999501
vt 0.988223 0.000499517
vt 0.99196 0.000499517
vt 0.99196 0.999501
vt 0.988223 0.000499517
vt 0.99196 0.999501
vt 0.988223 0.999501
vt 0.99196 0.000499517
vt 0.995077 0.000499517
vt 0.995077 0.999501
vt 0.99196 0.000499517
vt 0.995077 0.999501
vt 0.99196 0.999501
vt 0.995077 0.000499517
vt 0.997453 0.000499517
vt 0.997453 0.999501
vt 0.995077 0.000499517
vt 0.997453 0.999501
vt 0.995077 0.999501
vt 0.0236923 0.000499517
vt 0.0324003 0.000499517
vt 0.0324003 0.999501
vt 0.0236923 0.000499517
vt 0.0324003 0.999501
vt 0.0236923 0.999501
vt 0.0324003 0.000499517
vt 0.0418825 0.000499517
vt 0.0418825 0.999501
vt 0.0324003 0.000499517
vt 0.0418825 0.999501
vt 0.0324003 0.999501
vt 0.0418825 0.000499517
vt 0.958117 0.000499517
vt 0.958117 0.999501
vt 0.0418825 0.000499517
vt 0.958117 0.999501
vt 0.0418825 0.999501
vt 0.958117 0.000499517
vt 0.967599 0.000499517
vt 0.967599 0.999501
vt 0.958117 0.000499517
vt 0.967599 0.999501
vt 0.958117 0.999501
vt 0.967599 0.000499517
vt 0.976307 0.000499517
vt 0.976307 0.999501
vt 0.967599 0.000499517
vt 0.976307 0.999501
vt 0.967599 0.999501
vt 0.00254643 0.000499517
vt 0.00492322 0.000499517
vt 0.00492322 0.999501
vt 0.00254643 0.000499517
vt 0.00492322 0.999501
vt 0.00254643 0.999501
vt 0.00492322 0.000499517
vt 0.00804031 0.000499517
vt 0.00804031 0.999501
vt 0.00492322 0.000499517
vt 0.00804031 0.999501
vt 0.00492322 0.999501
vt 0.00804031 0.000499517
vt 0.0117766 0.000499517
vt 0.0117766 0.999501
vt 0.00804031 0.000499517
vt 0.0117766 0.999501
vt 0.00804031 0.999501
vt 0.0117766 0.000499517
vt 0.0160105 0.000499517
vt 0.0160105 0.999501
vt 0.0117766 0.000499517
vt 0.0160105 0.999501
vt 0.0117766 0.999501
vt 0.0160105 0.000499517
vt 0.0206211 0.000499517
vt 0.0206211 0.999501
vt 0.0160105 0.000499517
vt 0.0206211 0.999501
vt 0.0160105 0.999501
vt 0.00254655 0.0236923
vt 0.000499606 0.0418825
vt 0.00103158 0.0324003
vt 0.00492322 0.0160082
vt 0.000499606 0.0418825
vt 0.00254655 0.0236923
vt 0.00804037 0.00959745
vt 0.000499606 0.0418825
vt 0.00492322 0.0160082
vt 0.0117766 0.00470927
vt 0.000499606 0.0418825
vt 0.00804037 0.00959745
vt 0.0160105 0.00159353
vt 0.000499606 0.0418825
vt 0.0117766 0.00470927
vt 0.0206211 0.000499547
vt 0.000499606 0.0418825
vt 0.0160105 0.00159353
vt 0.979379 0.000500023
vt 0.000499606 0.0418825
vt 0.0206211 0.000499547
vt 0.979379 0.000500023
vt 0.000499487 0.958117
vt 0.000499606 0.0418825
vt 0.979379 0.000500023
vt 0.00103146 0.967599
vt 0.000499487 0.958117
vt 0.979379 0.000500023
vt 0.00254643 0.976307
vt 0.00103146 0.967599
vt 0.979379 0.000500023
vt 0.00492322 0.983991
vt 0.00254643 0.976307
vt 0.979379 0.000500023
vt 0.00804031 0.990402
vt 0.00492322 0.983991
vt 0.979379 0.000500023
vt 0.0117766 0.99529
vt 0.00804031 0.990402
vt 0.979379 0.000500023
vt 0.0160105 0.998406
vt 0.0117766 0.99529
vt 0.979379 0.000500023
vt 0.0206211 0.9995
vt 0.0160105 0.998406
vt 0.979379 0.000500023
vt 0.979379 0.9995
vt 0.0206211 0.9995
vt 0.983989 0.0015941
vt 0.979379 0.9995
vt 0.979379 0.000500023
vt 0.988223 0.00470984
vt 0.979379 0.9995
vt 0.983989 0.0015941
vt 0.99196 0.0095979
vt 0.979379 0.9995
vt 0.988223 0.00470984
vt 0.995077 0.0160088
vt 0.979379 0.9995
vt 0.99196 0.0095979
vt 0.997454 0.0236928
vt 0.979379 0.9995
vt 0.995077 0.0160088
vt 0.998969 0.0324008
vt 0.979379 0.9995
vt 0.997454 0.0236928
vt 0.999501 0.0418831
vt 0.979379 0.9995
vt 0.998969 0.0324008
vt 0.9995 0.958117
vt 0.979379 0.9995
vt 0.999501 0.0418831
vt 0.998968 0.9676
vt 0.979379 0.9995
vt 0.9995 0.958117
vt 0.998968 0.9676
vt 0.983989 0.998406
vt 0.979379 0.9995
vt 0.997453 0.976308
vt 0.983989 0.998406
vt 0.998968 0.9676
vt 0.997453 0.976308
vt 0.988223 0.995291
vt 0.983989 0.998406
vt 0.997453 0.976308
vt 0.99196 0.990402
vt 0.988223 0.995291
vt 0.995077 0.983992
vt 0.99196 0.990402
vt 0.997453 0.976308
vt 0.997453 0.0236923
vt 0.998968 0.0324003
vt 0.9995 0.0418825
vt 0.995077 0.0160082
vt 0.997453 0.0236923
vt 0.9995 0.0418825
vt 0.99196 0.00959745
vt 0.995077 0.0160082
vt 0.9995 0.0418825
vt 0.988223 0.00470927
vt 0.99196 0.00959745
vt 0.9995 0.0418825
vt 0.983989 0.00159353
vt 0.988223 0.00470927
vt 0.9995 0.0418825
vt 0.979379 0.000499547
vt 0.983989 0.00159353
vt 0.9995 0.0418825
vt 0.0206211 0.000500023
vt 0.979379 0.000499547
vt 0.9995 0.0418825
vt 0.0206211 0.000500023
vt 0.9995 0.0418825
vt 0.999501 0.958117
vt 0.0206211 0.000500023
vt 0.999501 0.958117
vt 0.998969 0.967599
vt 0.0206211 0.000500023
vt 0.998969 0.967599
vt 0.997454 0.976307
vt 0.0206211 0.000500023
vt 0.997454 0.976307
vt 0.995077 0.983991
vt 0.0206211 0.000500023
vt 0.995077 0.983991
vt 0.99196 0.990402
vt 0.0206211 0.000500023
vt 0.99196 0.990402
vt 0.988223 0.99529
vt 0.0206211 0.000500023
vt 0.988223 0.99529
vt 0.983989 0.998406
vt 0.0206211 0.000500023
vt 0.983989 0.998406
vt 0.979379 0.9995
vt 0.0206211 0.000500023
vt 0.979379 0.9995
vt 0.0206211 0.9995
vt 0.0160106 0.0015941
vt 0.0206211 0.000500023
vt 0.0206211 0.9995
vt 0.0117766 0.00470984
vt 0.0160106 0.0015941
vt 0.0206211 0.9995
vt 0.00804028 0.0095979
vt 0.0117766 0.00470984
vt 0.0206211 0.9995
vt 0.00492319 0.0160088
vt 0.00804028 0.0095979
vt 0.0206211 0.9995
vt 0.0025464 0.0236928
vt 0.00492319 0.0160088
vt 0.0206211 0.9995
vt 0.00103146 0.0324008
vt 0.0025464 0.0236928
vt 0.0206211 0.9995
vt 0.000499517 0.0418831
vt 0.00103146 0.0324008
vt 0.0206211 0.9995
vt 0.000499636 0.958117
vt 0.000499517 0.0418831
vt 0.0206211 0.9995
vt 0.00103158 0.9676
vt 0.000499636 0.958117
vt 0.0206211 0.9995
vt 0.00103158 0.9676
vt 0.0206211 0.9995
vt 0.0160106 0.998406
vt 0.00254658 0.976308
vt 0.00103158 0.9676
vt 0.0160106 0.998406
vt 0.00254658 0.976308
vt 0.0160106 0.998406
vt 0.0117765 0.995291
vt 0.00254658 0.976308
vt 0.0117765 0.995291
vt 0.00804037 0.990402
vt 0.00492325 0.983992
vt 0.00254658 0.976308
vt 0.00804037 0.990402
vt 0.0206211 0.000499517
vt 0.979379 0.000499517
vt 0.979379 0.999501
vt 0.0206211 0.000499517
vt 0.979379 0.999501
vt 0.0206211 0.999501
vt 0.979379 0.000499517
vt 0.983989 0.000499517
vt 0.983989 0.999501
vt 0.979379 0.000499517
vt 0.983989 0.999501
vt 0.979379 0.999501
vt 0.983989 0.000499517
vt 0.988223 0.000499517
vt 0.988223 0.999501
vt 0.983989 0.000499517
vt 0.988223 0.999501
vt 0.983989 0.999501
vt 0.988223 0.000499517
vt 0.99196 0.000499517
vt 0.99196 0.999501
vt 0.988223 0.000499517
vt 0.99196 0.999501
vt 0.988223 0.999501
vt 0.99196 0.000499517
vt 0.995077 0.000499517
vt 0.995077 0.999501
vt 0.99196 0.000499517
vt 0.995077 0.999501
vt 0.99196 0.999501
vt 0.995077 0.000499517
vt 0.997453 0.000499517
vt 0.997453 0.999501
vt 0.995077 0.000499517
vt 0.997453 0.999501
vt 0.995077 0.999501
vt 0.0236924 0.000499517
vt 0.0324004 0.000499517
vt 0.0324004 0.999501
vt 0.0236924 0.000499517
vt 0.0324004 0.999501
vt 0.0236924 0.999501
vt 0.0324004 0.000499517
vt 0.0418826 0.000499517
vt 0.0418826 0.999501
vt 0.0324004 0.000499517
vt 0.0418826 0.999501
vt 0.0324004 0.999501
vt 0.0418826 0.000499517
vt 0.958117 0.000499517
vt 0.958117 0.999501
vt 0.0418826 0.000499517
vt 0.958117 0.999501
vt 0.0418826 0.999501
vt 0.958117 0.000499517
vt 0.967599 0.000499517
vt 0.967599 0.999501
vt 0.958117 0.000499517
vt 0.967599 0.999501
vt 0.958117 0.999501
vt 0.967599 0.000499517
vt 0.976307 0.000499517
vt 0.976307 0.999501
vt 0.967599 0.000499517
vt 0.976307 0.999501
vt 0.967599 0.999501
vt 0.0025464 0.000499517
vt 0.00492319 0.000499517
vt 0.00492319 0.999501
vt 0.0025464 0.000499517
vt 0.00492319 0.999501
vt 0.0025464 0.999501
vt 0.00492319 0.000499517
vt 0.00804028 0.000499517
vt 0.00804028 0.999501
vt 0.00492319 0.000499517
vt 0.00804028 0.999501
vt 0.00492319 0.999501
vt 0.00804028 0.000499517
vt 0.0117766 0.000499517
vt 0.0117766 0.999501
vt 0.00804028 0.000499517
vt 0.0117766 0.999501
vt 0.00804028 0.999501
vt 0.0117766 0.000499517
vt 0.0160106 0.000499517
vt 0.0160106 0.999501
vt 0.0117766 0.000499517
vt 0.0160106 0.999501
vt 0.0117766 0.999501
vt 0.0160106 0.000499517
vt 0.0206211 0.000499517
vt 0.0206211 0.999501
vt 0.0160106 0.000499517
vt 0.0206211 0.999501
vt 0.0160106 0.999501
vt 0.0206211 0.000499517
vt 0.979379 0.000499517
vt 0.979379 0.999501
vt 0.0206211 0.000499517
vt 0.979379 0.999501
vt 0.0206211 0.999501
vt 0.979379 0.000499517
vt 0.983989 0.000499517
vt 0.983989 0.999501
vt 0.979379 0.000499517
vt 0.983989 0.999501
vt 0.979379 0.999501
vt 0.983989 0.000499517
vt 0.988223 0.000499517
vt 0.988223 0.999501
vt 0.983989 0.000499517
vt 0.988223 0.999501
vt 0.983989 0.999501
vt 0.988223 0.000499517
vt 0.99196 0.000499517
vt 0.99196 0.999501
vt 0.988223 0.000499517
vt 0.99196 0.999501
vt 0.988223 0.999501
vt 0.99196 0.000499517
vt 0.995077 0.000499517
vt 0.995077 0.999501
vt 0.99196 0.000499517
vt 0.995077 0.999501
vt 0.99196 0.999501
vt 0.995077 0.000499517
vt 0.997453 0.000499517
vt 0.997453 0.999501
vt 0.995077 0.000499517
vt 0.997453 0.999501
vt 0.995077 0.999501
vt 0.0236923 0.000499517
vt 0.0324003 0.000499517
vt 0.0324003 0.999501
vt 0.0236923 0.000499517
vt 0.0324003 0.999501
vt 0.0236923 0.999501
vt 0.0324003 0.000499517
vt 0.0418825 0.000499517
vt 0.0418825 0.999501
vt 0.0324003 0.000499517
vt 0.0418825 0.999501
vt 0.0324003 0.999501
vt 0.0418825 0.000499517
vt 0.958117 0.000499517
vt 0.958117 0.999501
vt 0.0418825 0.000499517
vt 0.958117 0.999501
vt 0.0418825 0.999501
vt 0.958117 0.000499517
vt 0.967599 0.000499517
vt 0.967599 0.999501
vt 0.958117 0.000499517
vt 0.967599 0.999501
vt 0.958117 0.999501
vt 0.967599 0.000499517
vt 0.976307 0.000499517
vt 0.976307 0.999501
vt 0.967599 0.000499517
vt 0.976307 0.999501
vt 0.967599 0.999501
vt 0.00254643 0.000499517
vt 0.00492322 0.000499517
vt 0.00492322 0.999501
vt 0.00254643 0.000499517
vt 0.00492322 0.999501
vt 0.00254643 0.999501
vt 0.00492322 0.000499517
vt 0.00804031 0.000499517
vt 0.00804031 0.999501
vt 0.00492322 0.000499517
vt 0.00804031 0.999501
vt 0.00492322 0.999501
vt 0.00804031 0.000499517
vt 0.0117766 0.000499517
vt 0.0117766 0.999501
vt 0.00804031 0.000499517
vt 0.0117766 0.999501
vt 0.00804031 0.999501
vt 0.0117766 0.000499517
vt 0.0160105 0.000499517
vt 0.0160105 0.999501
vt 0.0117766 0.000499517
vt 0.0160105 0.999501
vt 0.0117766 0.999501
vt 0.0160105 0.000499517
vt 0.0206211 0.000499517
vt 0.0206211 0.999501
vt 0.0160105 0.000499517
vt 0.0206211 0.999501
vt 0.0160105 0.999501
vt 0.00254655 0.0236923
vt 0.000499606 0.0418825
vt 0.00103158 0.0324003
vt 0.00492322 0.0160082
vt 0.000499606 0.0418825
vt 0.00254655 0.0236923
vt 0.00804037 0.00959745
vt 0.000499606 0.0418825
vt 0.00492322 0.0160082
vt 0.0117766 0.00470927
vt 0.000499606 0.0418825
vt 0.00804037 0.00959745
vt 0.0160105 0.00159353
vt 0.000499606 0.0418825
vt 0.0117766 0.00470927
vt 0.0206211 0.000499547
vt 0.000499606 0.0418825
vt 0.0160105 0.00159353
vt 0.979379 0.000500023
vt 0.000499606 0.0418825
vt 0.0206211 0.000499547
vt 0.979379 0.000500023
vt 0.000499487 0.958117
vt 0.000499606 0.0418825
vt 0.979379 0.000500023
vt 0.00103146 0.967599
vt 0.000499487 0.958117
vt 0.979379 0.000500023
vt 0.00254643 0.976307
vt 0.00103146 0.967599
vt 0.979379 0.000500023
vt 0.00492322 0.983991
vt 0.00254643 0.976307
vt 0.979379 0.000500023
vt 0.00804031 0.990402
vt 0.00492322 0.983991
vt 0.979379 0.000500023
vt 0.0117766 0.99529
vt 0.00804031 0.990402
vt 0.979379 0.000500023
vt 0.0160105 0.998406
vt 0.0117766 0.99529
vt 0.979379 0.000500023
vt 0.0206211 0.9995
vt 0.0160105 0.998406
vt 0.979379 0.000500023
vt 0.979379 0.9995
vt 0.0206211 0.9995
vt 0.983989 0.0015941
vt 0.979379 0.9995
vt 0.979379 0.000500023
vt 0.988223 0.00470984
vt 0.979379 0.9995
vt 0.983989 0.0015941
vt 0.99196 0.0095979
vt 0.979379 0.9995
vt 0.988223 0.00470984
vt 0.995077 0.0160088
vt 0.979379 0.9995
vt 0.99196 0.0095979
vt 0.997454 0.0236928
vt 0.979379 0.9995
vt 0.995077 0.0160088
vt 0.998969 0.0324008
vt 0.979379 0.9995
vt 0.997454 0.0236928
vt 0.999501 0.0418831
vt 0.979379 0.9995
vt 0.998969 0.0324008
vt 0.9995 0.958117
vt 0.979379 0.9995
vt 0.999501 0.0418831
vt 0.998968 0.9676
vt 0.979379 0.9995
vt 0.9995 0.958117
vt 0.998968 0.9676
vt 0.983989 0.998406
vt 0.979379 0.9995
vt 0.997453 0.976308
vt 0.983989 0.998406
vt 0.998968 0.9676
vt 0.997453 0.976308
vt 0.988223 0.995291
vt 0.983989 0.998406
vt 0.997453 0.976308
vt 0.99196 0.990402
vt 0.988223 0.995291
vt 0.995077 0.983992
vt 0.99196 0.990402
vt 0.997453 0.976308
vt 0.997453 0.0236923
vt 0.998968 0.0324003
vt 0.9995 0.0418825
vt 0.995077 0.0160082
vt 0.997453 0.0236923
vt 0.9995 0.0418825
vt 0.99196 0.00959745
vt 0.995077 0.0160082
vt 0.9995 0.0418825
vt 0.988223 0.00470927
vt 0.99196 0.00959745
vt 0.9995 0.0418825
vt 0.983989 0.00159353
vt 0.988223 0.00470927
vt 0.9995 0.0418825
vt 0.979379 0.000499547
vt 0.983989 0.00159353
vt 0.9995 0.0418825
vt 0.0206211 0.000500023
vt 0.979379 0.000499547
vt 0.9995 0.0418825
vt 0.0206211 0.000500023
vt 0.9995 0.0418825
vt 0.999501 0.958117
vt 0.0206211 0.000500023
vt 0.999501 0.958117
vt 0.998969 0.967599
vt 0.0206211 0.000500023
vt 0.998969 0.967599
vt 0.997454 0.976307
vt 0.0206211 0.000500023
vt 0.997454 0.976307
vt 0.995077 0.983991
vt 0.0206211 0.000500023
vt 0.995077 0.983991
vt 0.99196 0.990402
vt 0.0206211 0.000500023
vt 0.99196 0.990402
vt 0.988223 0.99529
vt 0.0206211 0.000500023
vt 0.988223 0.99529
vt 0.983989 0.998406
vt 0.0206211 0.000500023
vt 0.983989 0.998406
vt 0.979379 0.9995
vt 0.0206211 0.000500023
vt 0.979379 0.9995
vt 0.0206211 0.9995
vt 0.0160106 0.0015941
vt 0.0206211 0.000500023
vt 0.0206211 0.9995
vt 0.0117766 0.00470984
vt 0.0160106 0.0015941
vt 0.0206211 0.9995
vt 0.00804028 0.0095979
vt 0.0117766 0.00470984
vt 0.0206211 0.9995
vt 0.00492319 0.0160088
vt 0.00804028 0.0095979
vt 0.0206211 0.9995
vt 0.0025464 0.0236928
vt 0.00492319 0.0160088
vt 0.0206211 0.9995
vt 0.00103146 0.0324008
vt 0.0025464 0.0236928
vt 0.0206211 0.9995
vt 0.000499517 0.0418831
vt 0.00103146 0.0324008
vt 0.0206211 0.9995
vt 0.000499636 0.958117
vt 0.000499517 0.0418831
vt 0.0206211 0.9995
vt 0.00103158 0.9676
vt 0.000499636 0.958117
vt 0.0206211 0.9995
vt 0.00103158 0.9676
vt 0.0206211 0.9995
vt 0.0160106 0.998406
vt 0.00254658 0.976308
vt 0.00103158 0.9676
vt 0.0160106 0.998406
vt 0.00254658 0.976308
vt 0.0160106 0.998406
vt 0.0117765 0.995291
vt 0.00254658 0.976308
vt 0.0117765 0.995291
vt 0.00804037 0.990402
vt 0.00492325 0.983992
vt 0.00254658 0.976308
vt 0.00804037 0.990402
f 1/1 2/2 34/3
f 1/4 34/5 33/6
f 2/7 3/8 35/9
f 2/10 35/11 34/12
f 3/13 4/14 36/15
f 3/16 36/17 35/18
f 4/19 5/20 37/21
f 4/22 37/23 36/24
f 5/25 6/26 38/27
f 5/28 38/29 37/30
f 6/31 7/32 39/33
f 6/34 39/35 38/36
f 7/37 8/38 40/39
f 7/40 40/41 39/42
f 8/43 9/44 41/45
f 8/46 41/47 40/48
f 9/49 10/50 42/51
f 9/52 42/53 41/54
f 10/55 11/56 43/57
f 10/58 43/59 42/60
f 11/61 12/62 44/63
f 11/64 44/65 43/66
f 12/67 13/68 45/69
f 12/70 45/71 44/72
f 13/73 14/74 46/75
f 13/76 46/77 45/78
f 14/79 15/80 47/81
f 14/82 47/83 46/84
f 15/85 16/86 48/87
f 15/88 48/89 47/90
f 16/91 17/92 49/93
f 16/94 49/95 48/96
f 17/97 18/98 50/99
f 17/100 50/101 49/102
f 18/103 19/104 51/105
f 18/106 51/107 50/108
f 19/109 20/110 52/111
f 19/112 52/113 51/114
f 20/115 21/116 53/117
f 20/118 53/119 52/120
f 21/121 22/122 54/123
f 21/124 54/125 53/126
f 22/127 23/128 55/129
f 22/130 55/131 54/132
f 23/133 24/134 56/135
f 23/136 56/137 55/138
f 24/139 25/140 57/141
f 24/142 57/143 56/144
f 25/145 26/146 58/147
f 25/148 58/149 57/150
f 26/151 27/152 59/153
f 26/154 59/155 58/156
f 27/157 28/158 60/159
f 27/160 60/161 59/162
f 28/163 29/164 61/165
f 28/166 61/167 60/168
f 29/169 30/170 62/171
f 29/172 62/173 61/174
f 30/175 31/176 63/177
f 30/178 63/179 62/180
f 31/181 32/182 64/183
f 31/184 64/185 63/186
f 32/187 1/188 33/189
f 32/190 33/191 64/192
f 23/193 25/194 24/195
f 22/196 25/197 23/198
f 21/199 25/200 22/201
f 20/202 25/203 21/204
f 19/205 25/206 20/207
f 18/208 25/209 19/210
f 17/211 25/212 18/213
f 17/214 26/215 25/216
f 17/217 27/218 26/219
f 17/220 28/221 27/222
f 17/223 29/224 28/225
f 17/226 30/227 29/228
f 17/229 31/230 30/231
f 17/232 32/233 31/234
f 17/235 1/236 32/237
f 17/238 2/239 1/240
f 16/241 2/242 17/243
f 15/244 2/245 16/246
f 14/247 2/248 15/249
f 13/250 2/251 14/252
f 12/253 2/254 13/255
f 11/256 2/257 12/258
f 10/259 2/260 11/261
f 9/262 2/263 10/264
f 8/265 2/266 9/267
f 8/268 3/269 2/270
f 7/271 3/272 8/273
f 7/274 4/275 3/276
f 7/277 5/278 4/279
f 6/280 5/281 7/282
f 55/283 56/284 57/285
f 54/286 55/287 57/288
f 53/289 54/290 57/291
f 52/292 53/293 57/294
f 51/295 52/296 57/297
f 50/298 51/299 57/300
f 49/301 50/302 57/303
f 49/304 57/305 58/306
f 49/307 58/308 59/309
f 49/310 59/311 60/312
f 49/313 60/314 61/315
f 49/316 61/317 62/318
f 49/319 62/320 63/321
f 49/322 63/323 64/324
f 49/325 64/326 33/327
f 49/328 33/329 34/330
f 48/331 49/332 34/333
f 47/334 48/335 34/336
f 46/337 47/338 34/339
f 45/340 46/341 34/342
f 44/343 45/344 34/345
f 43/346 44/347 34/348
f 42/349 43/350 34/351
f 41/352 42/353 34/354
f 40/355 41/356 34/357
f 40/358 34/359 35/360
f 39/361 40/362 35/363
f 39/364 35/365 36/366
f 39/367 36/368 37/369
f 38/370 39/371 37/372
f 65/373 66/374 98/375
f 65/376 98/377 97/378
f 66/379 67/380 99/381
f 66/382 99/383 98/384
f 67/385 68/386 100/387
f 67/388 100/389 99/390
f 68/391 69/392 101/393
f 68/394 101/395 100/396
f 69/397 70/398 102/399
f 69/400 102/401 101/402
f 70/403 71/404 103/405
f 70/406 103/407 102/408
f 71/409 72/410 104/411
f 71/412 104/413 103/414
f 72/415 73/416 105/417
f 72/418 105/419 104/420
f 73/421 74/422 106/423
f 73/424 106/425 105/426
f 74/427 75/428 107/429
f 74/430 107/431 106/432
f 75/433 76/434 108/435
f 75/436 108/437 107/438
f 76/439 77/440 109/441
f 76/442 109/443 108/444
f 77/445 78/446 110/447
f 77/448 110/449 109/450
f 78/451 79/452 111/453
f 78/454 111/455 110/456
f 79/457 80/458 112/459
f 79/460 112/461 111/462
f 80/463 81/464 113/465
f 80/466 113/467 112/468
f 81/469 82/470 114/471
f 81/472 114/473 113/474
f 82/475 83/476 115/477
f 82/478 115/479 114/480
f 83/481 84/482 116/483
f 83/484 116/485 115/486
f 84/487 85/488 117/489
f 84/490 117/491 116/492
f 85/493 86/494 118/495
f 85/496 118/497 117/498
f 86/499 87/500 119/501
f 86/502 119/503 118/504
f 87/505 88/506 120/507
f 87/508 120/509 119/510
f 88/511 89/512 121/513
f 88/514 121/515 120/516
f 89/517 90/518 122/519
f 89/520 122/521 121/522
f 90/523 91/524 123/525
f 90/526 123/527 122/528
f 91/529 92/530 124/531
f 91/532 124/533 123/534
f 92/535 93/536 125/537
f 92/538 125/539 124/540
f 93/541 94/542 126/543
f 93/544 126/545 125/546
f 94/547 95/548 127/549
f 94/550 127/551 126/552
f 95/553 96/554 128/555
f 95/556 128/557 127/558
f 96/559 65/560 97/561
f 96/562 97/563 128/564
f 87/565 89/566 88/567
f 86/568 89/569 87/570
f 85/571 89/572 86/573
f 84/574 89/575 85/576
f 83/577 89/578 84/579
f 82/580 89/581 83/582
f 81/583 89/584 82/585
f 81/586 90/587 89/588
f 81/589 91/590 90/591
f 81/592 92/593 91/594
f 81/595 93/596 92/597
f 81/598 94/599 93/600
f 81/601 95/602 94/603
f 81/604 96/605 95/606
f 81/607 65/608 96/609
f 81/610 66/611 65/612
f 80/613 66/614 81/615
f 79/616 66/617 80/618
f 78/619 66/620 79/621
f 77/622 66/623 78/624
f 76/625 66/626 77/627
f 75/628 66/629 76/630
f 74/631 66/632 75/633
f 73/634 66/635 74/636
f 72/637 66/638 73/639
f 72/640 67/641 66/642
f 71/643 67/644 72/645
f 71/646 68/647 67/648
f 71/649 69/650 68/651
f 70/652 69/653 71/654
f 119/655 120/656 121/657
f 118/658 119/659 121/660
f 117/661 118/662 121/663
f 116/664 117/665 121/666
f 115/667 116/668 121/669
f 114/670 115/671 121/672
f 113/673 114/674 121/675
f 113/676 121/677 122/678
f 113/679 122/680 123/681
f 113/682 123/683 124/684
f 113/685 124/686 125/687
f 113/688 125/689 126/690
f 113/691 126/692 127/693
f 113/694 127/695 128/696
f 113/697 128/698 97/699
f 113/700 97/701 98/702
f 112/703 113/704 98/705
f 111/706 112/707 98/708
f 110/709 111/710 98/711
f 109/712 110/713 98/714
f 108/715 109/716 98/717
f 107/718 108/719 98/720
f 106/721 107/722 98/723
f 105/724 106/725 98/726
f 104/727 105/728 98/729
f 104/730 98/731 99/732
f 103/733 104/734 99/735
f 103/736 99/737 100/738
f 103/739 100/740 101/741
f 102/742 103/743 101/744
