# Exported from robot_room_v2.usdc, material /root/head/Looks/lambert3SG_001
v 0.936265 3.70142 1.27455
v 0.936284 3.70142 1.27455
v 0.93628 3.7014 1.27454
v 0.936265 3.70141 1.27454
v 0.936301 3.70141 1.27455
v 0.936293 3.7014 1.27454
v 0.936291 3.70143 1.27456
v 0.936313 3.70142 1.27456
v 0.936265 3.70144 1.27456
v 0.936312 3.70139 1.27455
v 0.936299 3.70139 1.27454
v 0.936328 3.7014 1.27456
v 0.936281 3.70139 1.27454
v 0.936265 3.70139 1.27454
v 0.936265 3.70132 1.27455
v 0.936265 3.70133 1.27454
v 0.93628 3.70134 1.27454
v 0.936284 3.70132 1.27455
v 0.936293 3.70134 1.27454
v 0.936301 3.70133 1.27455
v 0.936313 3.70132 1.27456
v 0.936291 3.70131 1.27456
v 0.936265 3.7013 1.27456
v 0.936299 3.70136 1.27454
v 0.936312 3.70135 1.27455
v 0.936328 3.70134 1.27456
v 0.936265 3.70135 1.27454
v 0.936281 3.70135 1.27454
v 0.936316 3.70137 1.27455
v 0.936333 3.70137 1.27456
v 0.936301 3.70137 1.27454
v 0.936282 3.70137 1.27454
v 0.936265 3.70137 1.27454
v 0.936249 3.7014 1.27454
v 0.936245 3.70142 1.27455
v 0.936236 3.7014 1.27454
v 0.936228 3.70141 1.27455
v 0.936216 3.70142 1.27456
v 0.936239 3.70143 1.27456
v 0.936231 3.70139 1.27454
v 0.936217 3.70139 1.27455
v 0.936202 3.7014 1.27456
v 0.936248 3.70139 1.27454
v 0.936245 3.70132 1.27455
v 0.936249 3.70134 1.27454
v 0.936228 3.70133 1.27455
v 0.936236 3.70134 1.27454
v 0.936239 3.70131 1.27456
v 0.936216 3.70132 1.27456
v 0.936217 3.70135 1.27455
v 0.936231 3.70136 1.27454
v 0.936202 3.70134 1.27456
v 0.936248 3.70135 1.27454
v 0.936213 3.70137 1.27455
v 0.936197 3.70137 1.27456
v 0.936228 3.70137 1.27454
v 0.936247 3.70137 1.27454
v 0.936265 3.70153 1.2747
v 0.936326 3.70152 1.2747
v 0.936324 3.70151 1.27466
v 0.936265 3.70152 1.27466
v 0.936378 3.70148 1.2747
v 0.936374 3.70148 1.27466
v 0.936412 3.70143 1.2747
v 0.936407 3.70143 1.27466
v 0.936318 3.7015 1.27462
v 0.936265 3.70151 1.27462
v 0.936308 3.70148 1.27459
v 0.936265 3.70148 1.27459
v 0.936363 3.70147 1.27462
v 0.936345 3.70145 1.27459
v 0.936393 3.70142 1.27462
v 0.93637 3.70141 1.27459
v 0.936265 3.70146 1.27457
v 0.936299 3.70145 1.27457
v 0.936328 3.70143 1.27457
v 0.936347 3.7014 1.27457
v 0.936265 3.70121 1.2747
v 0.936265 3.70122 1.27466
v 0.936324 3.70123 1.27466
v 0.936326 3.70122 1.2747
v 0.936374 3.70126 1.27466
v 0.936378 3.70126 1.2747
v 0.936407 3.70131 1.27466
v 0.936412 3.70131 1.2747
v 0.936265 3.70123 1.27462
v 0.936318 3.70124 1.27462
v 0.936265 3.70126 1.27459
v 0.936308 3.70127 1.27459
v 0.936345 3.70129 1.27459
v 0.936363 3.70127 1.27462
v 0.936393 3.70132 1.27462
v 0.93637 3.70133 1.27459
v 0.936265 3.70128 1.27457
v 0.936299 3.70129 1.27457
v 0.936328 3.70131 1.27457
v 0.936347 3.70134 1.27457
v 0.936425 3.70137 1.2747
v 0.936419 3.70137 1.27466
v 0.936403 3.70137 1.27462
v 0.936379 3.70137 1.27459
v 0.936354 3.70137 1.27457
v 0.936205 3.70151 1.27466
v 0.936203 3.70152 1.2747
v 0.936155 3.70148 1.27466
v 0.936152 3.70148 1.2747
v 0.936122 3.70143 1.27466
v 0.936117 3.70143 1.2747
v 0.936212 3.7015 1.27462
v 0.936221 3.70148 1.27459
v 0.936184 3.70145 1.27459
v 0.936167 3.70147 1.27462
v 0.936137 3.70142 1.27462
v 0.936159 3.70141 1.27459
v 0.93623 3.70145 1.27457
v 0.936202 3.70143 1.27457
v 0.936182 3.7014 1.27457
v 0.936203 3.70122 1.2747
v 0.936205 3.70123 1.27466
v 0.936152 3.70126 1.2747
v 0.936155 3.70126 1.27466
v 0.936117 3.70131 1.2747
v 0.936122 3.70131 1.27466
v 0.936212 3.70124 1.27462
v 0.936221 3.70127 1.27459
v 0.936167 3.70127 1.27462
v 0.936184 3.70129 1.27459
v 0.936137 3.70132 1.27462
v 0.936159 3.70133 1.27459
v 0.93623 3.70129 1.27457
v 0.936202 3.70131 1.27457
v 0.936182 3.70134 1.27457
v 0.93611 3.70137 1.27466
v 0.936105 3.70137 1.2747
v 0.936126 3.70137 1.27462
v 0.936151 3.70137 1.27459
v 0.936175 3.70137 1.27457
v 0.936265 3.70151 1.27478
v 0.936318 3.7015 1.27478
v 0.936363 3.70147 1.27478
v 0.936394 3.70142 1.27478
v 0.936318 3.70124 1.27478
v 0.936265 3.70123 1.27478
v 0.936363 3.70127 1.27478
v 0.936394 3.70132 1.27478
v 0.936404 3.70137 1.27478
v 0.936211 3.7015 1.27478
v 0.936166 3.70147 1.27478
v 0.936136 3.70142 1.27478
v 0.936211 3.70124 1.27478
v 0.936166 3.70127 1.27478
v 0.936136 3.70132 1.27478
v 0.936125 3.70137 1.27478
v 0.936324 3.70131 1.27484
v 0.936265 3.70131 1.27484
v 0.936265 3.70143 1.27484
v 0.936324 3.70143 1.27484
v 0.936327 3.70137 1.27484
v 0.936265 3.70137 1.27485
v 0.936265 3.70137 1.27485
v 0.936265 3.70137 1.27485
v 0.936265 3.70137 1.27485
v 0.936205 3.70131 1.27484
v 0.936205 3.70143 1.27484
v 0.936202 3.70137 1.27484
vt 0.3897 0.5006
vt 0.3991 0.4593
vt 0.4273 0.4693
vt 0.3897 0.5006
vt 0.4273 0.4693
vt 0.4206 0.5004
vt 0.4273 0.4693
vt 0.3991 0.4593
vt 0.4239 0.4246
vt 0.4273 0.4693
vt 0.4239 0.4246
vt 0.4417 0.4423
vt 0.4239 0.4246
vt 0.3991 0.4593
vt 0.366 0.4454
vt 0.4239 0.4246
vt 0.366 0.4454
vt 0.3977 0.3987
vt 0.366 0.4454
vt 0.3991 0.4593
vt 0.3897 0.5006
vt 0.366 0.4454
vt 0.3897 0.5006
vt 0.3544 0.5008
vt 0.4239 0.4246
vt 0.4583 0.3993
vt 0.4687 0.4273
vt 0.4239 0.4246
vt 0.4687 0.4273
vt 0.4417 0.4423
vt 0.4439 0.3664
vt 0.4583 0.3993
vt 0.4239 0.4246
vt 0.4439 0.3664
vt 0.4239 0.4246
vt 0.3977 0.3987
vt 0.4273 0.4693
vt 0.4662 0.4652
vt 0.4643 0.5002
vt 0.4273 0.4693
vt 0.4643 0.5002
vt 0.4206 0.5004
vt 0.4687 0.4273
vt 0.4662 0.4652
vt 0.4273 0.4693
vt 0.4687 0.4273
vt 0.4273 0.4693
vt 0.4417 0.4423
vt 0.61 0.4994
vt 0.5791 0.4996
vt 0.5721 0.4685
vt 0.61 0.4994
vt 0.5721 0.4685
vt 0.6002 0.4582
vt 0.5721 0.4685
vt 0.5575 0.4417
vt 0.5751 0.4237
vt 0.5721 0.4685
vt 0.5751 0.4237
vt 0.6002 0.4582
vt 0.5751 0.4237
vt 0.601 0.3976
vt 0.6332 0.4439
vt 0.5751 0.4237
vt 0.6332 0.4439
vt 0.6002 0.4582
vt 0.6332 0.4439
vt 0.6454 0.4992
vt 0.61 0.4994
vt 0.6332 0.4439
vt 0.61 0.4994
vt 0.6002 0.4582
vt 0.5751 0.4237
vt 0.5575 0.4417
vt 0.5303 0.427
vt 0.5751 0.4237
vt 0.5303 0.427
vt 0.5404 0.3988
vt 0.5544 0.3658
vt 0.601 0.3976
vt 0.5751 0.4237
vt 0.5544 0.3658
vt 0.5751 0.4237
vt 0.5404 0.3988
vt 0.5721 0.4685
vt 0.5791 0.4996
vt 0.5355 0.4998
vt 0.5721 0.4685
vt 0.5355 0.4998
vt 0.5332 0.4648
vt 0.5303 0.427
vt 0.5575 0.4417
vt 0.5721 0.4685
vt 0.5303 0.427
vt 0.5721 0.4685
vt 0.5332 0.4648
vt 0.4993 0.3895
vt 0.4583 0.3993
vt 0.4439 0.3664
vt 0.4993 0.3895
vt 0.4439 0.3664
vt 0.4991 0.3543
vt 0.4993 0.3895
vt 0.4991 0.3543
vt 0.5544 0.3658
vt 0.4993 0.3895
vt 0.5544 0.3658
vt 0.5404 0.3988
vt 0.4687 0.4273
vt 0.4583 0.3993
vt 0.4993 0.3895
vt 0.4687 0.4273
vt 0.4993 0.3895
vt 0.4995 0.4203
vt 0.5303 0.427
vt 0.4995 0.4203
vt 0.4993 0.3895
vt 0.5303 0.427
vt 0.4993 0.3895
vt 0.5404 0.3988
vt 0.4997 0.4629
vt 0.4662 0.4652
vt 0.4687 0.4273
vt 0.4997 0.4629
vt 0.4687 0.4273
vt 0.4995 0.4203
vt 0.4997 0.4629
vt 0.4995 0.4203
vt 0.5303 0.427
vt 0.4997 0.4629
vt 0.5303 0.427
vt 0.5332 0.4648
vt 0.4643 0.5002
vt 0.4662 0.4652
vt 0.4997 0.4629
vt 0.4643 0.5002
vt 0.4997 0.4629
vt 0.4999 0.5
vt 0.5355 0.4998
vt 0.4999 0.5
vt 0.4997 0.4629
vt 0.5355 0.4998
vt 0.4997 0.4629
vt 0.5332 0.4648
vt 0.3897 0.5006
vt 0.4206 0.5004
vt 0.4276 0.5315
vt 0.3897 0.5006
vt 0.4276 0.5315
vt 0.3995 0.5418
vt 0.4276 0.5315
vt 0.4423 0.5583
vt 0.4247 0.5763
vt 0.4276 0.5315
vt 0.4247 0.5763
vt 0.3995 0.5418
vt 0.4247 0.5763
vt 0.3988 0.6025
vt 0.3666 0.5561
vt 0.4247 0.5763
vt 0.3666 0.5561
vt 0.3995 0.5418
vt 0.3666 0.5561
vt 0.3544 0.5008
vt 0.3897 0.5006
vt 0.3666 0.5561
vt 0.3897 0.5006
vt 0.3995 0.5418
vt 0.4247 0.5763
vt 0.4423 0.5583
vt 0.4695 0.573
vt 0.4247 0.5763
vt 0.4695 0.573
vt 0.4593 0.6011
vt 0.4454 0.6342
vt 0.3988 0.6025
vt 0.4247 0.5763
vt 0.4454 0.6342
vt 0.4247 0.5763
vt 0.4593 0.6011
vt 0.4276 0.5315
vt 0.4206 0.5004
vt 0.4643 0.5002
vt 0.4276 0.5315
vt 0.4643 0.5002
vt 0.4666 0.5352
vt 0.4695 0.573
vt 0.4423 0.5583
vt 0.4276 0.5315
vt 0.4695 0.573
vt 0.4276 0.5315
vt 0.4666 0.5352
vt 0.61 0.4994
vt 0.6006 0.5406
vt 0.5724 0.5307
vt 0.61 0.4994
vt 0.5724 0.5307
vt 0.5791 0.4996
vt 0.5724 0.5307
vt 0.6006 0.5406
vt 0.5759 0.5754
vt 0.5724 0.5307
vt 0.5759 0.5754
vt 0.5581 0.5577
vt 0.5759 0.5754
vt 0.6006 0.5406
vt 0.6337 0.5546
vt 0.5759 0.5754
vt 0.6337 0.5546
vt 0.602 0.6013
vt 0.6337 0.5546
vt 0.6006 0.5406
vt 0.61 0.4994
vt 0.6337 0.5546
vt 0.61 0.4994
vt 0.6454 0.4992
vt 0.5759 0.5754
vt 0.5415 0.6007
vt 0.531 0.5726
vt 0.5759 0.5754
vt 0.531 0.5726
vt 0.5581 0.5577
vt 0.5558 0.6336
vt 0.5415 0.6007
vt 0.5759 0.5754
vt 0.5558 0.6336
vt 0.5759 0.5754
vt 0.602 0.6013
vt 0.5724 0.5307
vt 0.5336 0.5348
vt 0.5355 0.4998
vt 0.5724 0.5307
vt 0.5355 0.4998
vt 0.5791 0.4996
vt 0.531 0.5726
vt 0.5336 0.5348
vt 0.5724 0.5307
vt 0.531 0.5726
vt 0.5724 0.5307
vt 0.5581 0.5577
vt 0.5005 0.6105
vt 0.5007 0.6457
vt 0.4454 0.6342
vt 0.5005 0.6105
vt 0.4454 0.6342
vt 0.4593 0.6011
vt 0.5005 0.6105
vt 0.5415 0.6007
vt 0.5558 0.6336
vt 0.5005 0.6105
vt 0.5558 0.6336
vt 0.5007 0.6457
vt 0.4695 0.573
vt 0.5003 0.5797
vt 0.5005 0.6105
vt 0.4695 0.573
vt 0.5005 0.6105
vt 0.4593 0.6011
vt 0.531 0.5726
vt 0.5415 0.6007
vt 0.5005 0.6105
vt 0.531 0.5726
vt 0.5005 0.6105
vt 0.5003 0.5797
vt 0.5001 0.5371
vt 0.5003 0.5797
vt 0.4695 0.573
vt 0.5001 0.5371
vt 0.4695 0.573
vt 0.4666 0.5352
vt 0.5001 0.5371
vt 0.5336 0.5348
vt 0.531 0.5726
vt 0.5001 0.5371
vt 0.531 0.5726
vt 0.5003 0.5797
vt 0.4643 0.5002
vt 0.4999 0.5
vt 0.5001 0.5371
vt 0.4643 0.5002
vt 0.5001 0.5371
vt 0.4666 0.5352
vt 0.5355 0.4998
vt 0.5336 0.5348
vt 0.5001 0.5371
vt 0.5355 0.4998
vt 0.5001 0.5371
vt 0.4999 0.5
vt 0.0106 0.5028
vt 0.0469 0.3153
vt 0.1224 0.346
vt 0.0106 0.5028
vt 0.1224 0.346
vt 0.0921 0.5023
vt 0.1224 0.346
vt 0.0469 0.3153
vt 0.152 0.156
vt 0.1224 0.346
vt 0.152 0.156
vt 0.21 0.2134
vt 0.152 0.156
vt 0.3101 0.049
vt 0.3418 0.1241
vt 0.152 0.156
vt 0.3418 0.1241
vt 0.21 0.2134
vt 0.1224 0.346
vt 0.1951 0.3756
vt 0.1706 0.5018
vt 0.1224 0.346
vt 0.1706 0.5018
vt 0.0921 0.5023
vt 0.1706 0.5018
vt 0.1951 0.3756
vt 0.2673 0.4052
vt 0.1706 0.5018
vt 0.2673 0.4052
vt 0.2484 0.5014
vt 0.2673 0.4052
vt 0.1951 0.3756
vt 0.2659 0.2686
vt 0.2673 0.4052
vt 0.2659 0.2686
vt 0.3215 0.3234
vt 0.2659 0.2686
vt 0.1951 0.3756
vt 0.1224 0.346
vt 0.2659 0.2686
vt 0.1224 0.346
vt 0.21 0.2134
vt 0.3418 0.1241
vt 0.3722 0.1964
vt 0.2659 0.2686
vt 0.3418 0.1241
vt 0.2659 0.2686
vt 0.21 0.2134
vt 0.2659 0.2686
vt 0.3722 0.1964
vt 0.4025 0.2682
vt 0.2659 0.2686
vt 0.4025 0.2682
vt 0.3215 0.3234
vt 0.3095 0.5011
vt 0.3241 0.4282
vt 0.366 0.4454
vt 0.3095 0.5011
vt 0.366 0.4454
vt 0.3544 0.5008
vt 0.366 0.4454
vt 0.3241 0.4282
vt 0.3653 0.3667
vt 0.366 0.4454
vt 0.3653 0.3667
vt 0.3977 0.3987
vt 0.3653 0.3667
vt 0.3241 0.4282
vt 0.2673 0.4052
vt 0.3653 0.3667
vt 0.2673 0.4052
vt 0.3215 0.3234
vt 0.2673 0.4052
vt 0.3241 0.4282
vt 0.3095 0.5011
vt 0.2673 0.4052
vt 0.3095 0.5011
vt 0.2484 0.5014
vt 0.3653 0.3667
vt 0.4263 0.3248
vt 0.4439 0.3664
vt 0.3653 0.3667
vt 0.4439 0.3664
vt 0.3977 0.3987
vt 0.4025 0.2682
vt 0.4263 0.3248
vt 0.3653 0.3667
vt 0.4025 0.2682
vt 0.3653 0.3667
vt 0.3215 0.3234
vt 0.9892 0.4972
vt 0.9077 0.4977
vt 0.8757 0.3418
vt 0.9892 0.4972
vt 0.8757 0.3418
vt 0.9509 0.3102
vt 0.8757 0.3418
vt 0.7865 0.2102
vt 0.8438 0.1522
vt 0.8757 0.3418
vt 0.8438 0.1522
vt 0.9509 0.3102
vt 0.8438 0.1522
vt 0.7865 0.2102
vt 0.6538 0.1224
vt 0.8438 0.1522
vt 0.6538 0.1224
vt 0.6845 0.0469
vt 0.8757 0.3418
vt 0.9077 0.4977
vt 0.8292 0.4982
vt 0.8757 0.3418
vt 0.8292 0.4982
vt 0.8033 0.3722
vt 0.8292 0.4982
vt 0.7514 0.4986
vt 0.7315 0.4026
vt 0.8292 0.4982
vt 0.7315 0.4026
vt 0.8033 0.3722
vt 0.7315 0.4026
vt 0.6764 0.3215
vt 0.7313 0.266
vt 0.7315 0.4026
vt 0.7313 0.266
vt 0.8033 0.3722
vt 0.7313 0.266
vt 0.7865 0.2102
vt 0.8757 0.3418
vt 0.7313 0.266
vt 0.8757 0.3418
vt 0.8033 0.3722
vt 0.6538 0.1224
vt 0.7865 0.2102
vt 0.7313 0.266
vt 0.6538 0.1224
vt 0.7313 0.266
vt 0.6242 0.195
vt 0.7313 0.266
vt 0.6764 0.3215
vt 0.5948 0.2672
vt 0.7313 0.266
vt 0.5948 0.2672
vt 0.6242 0.195
vt 0.6903 0.4989
vt 0.6454 0.4992
vt 0.6332 0.4439
vt 0.6903 0.4989
vt 0.6332 0.4439
vt 0.6749 0.4263
vt 0.6332 0.4439
vt 0.601 0.3976
vt 0.6331 0.3653
vt 0.6332 0.4439
vt 0.6331 0.3653
vt 0.6749 0.4263
vt 0.6331 0.3653
vt 0.6764 0.3215
vt 0.7315 0.4026
vt 0.6331 0.3653
vt 0.7315 0.4026
vt 0.6749 0.4263
vt 0.7315 0.4026
vt 0.7514 0.4986
vt 0.6903 0.4989
vt 0.7315 0.4026
vt 0.6903 0.4989
vt 0.6749 0.4263
vt 0.6331 0.3653
vt 0.601 0.3976
vt 0.5544 0.3658
vt 0.6331 0.3653
vt 0.5544 0.3658
vt 0.5716 0.3241
vt 0.5948 0.2672
vt 0.6764 0.3215
vt 0.6331 0.3653
vt 0.5948 0.2672
vt 0.6331 0.3653
vt 0.5716 0.3241
vt 0.3418 0.1241
vt 0.3101 0.049
vt 0.4971 0.0107
vt 0.3418 0.1241
vt 0.4971 0.0107
vt 0.4976 0.0922
vt 0.6538 0.1224
vt 0.4976 0.0922
vt 0.4971 0.0107
vt 0.6538 0.1224
vt 0.4971 0.0107
vt 0.6845 0.0469
vt 0.498 0.1705
vt 0.3722 0.1964
vt 0.3418 0.1241
vt 0.498 0.1705
vt 0.3418 0.1241
vt 0.4976 0.0922
vt 0.498 0.1705
vt 0.4976 0.0922
vt 0.6538 0.1224
vt 0.498 0.1705
vt 0.6538 0.1224
vt 0.6242 0.195
vt 0.4025 0.2682
vt 0.3722 0.1964
vt 0.498 0.1705
vt 0.4025 0.2682
vt 0.498 0.1705
vt 0.4985 0.2484
vt 0.5948 0.2672
vt 0.4985 0.2484
vt 0.498 0.1705
vt 0.5948 0.2672
vt 0.498 0.1705
vt 0.6242 0.195
vt 0.4989 0.3095
vt 0.4263 0.3248
vt 0.4025 0.2682
vt 0.4989 0.3095
vt 0.4025 0.2682
vt 0.4985 0.2484
vt 0.4989 0.3095
vt 0.4985 0.2484
vt 0.5948 0.2672
vt 0.4989 0.3095
vt 0.5948 0.2672
vt 0.5716 0.3241
vt 0.4439 0.3664
vt 0.4263 0.3248
vt 0.4989 0.3095
vt 0.4439 0.3664
vt 0.4989 0.3095
vt 0.4991 0.3543
vt 0.5544 0.3658
vt 0.4991 0.3543
vt 0.4989 0.3095
vt 0.5544 0.3658
vt 0.4989 0.3095
vt 0.5716 0.3241
vt 0.0106 0.5028
vt 0.0921 0.5023
vt 0.1241 0.6582
vt 0.0106 0.5028
vt 0.1241 0.6582
vt 0.0489 0.6898
vt 0.1241 0.6582
vt 0.2133 0.7898
vt 0.156 0.8478
vt 0.1241 0.6582
vt 0.156 0.8478
vt 0.0489 0.6898
vt 0.156 0.8478
vt 0.2133 0.7898
vt 0.346 0.8776
vt 0.156 0.8478
vt 0.346 0.8776
vt 0.3153 0.9531
vt 0.1241 0.6582
vt 0.0921 0.5023
vt 0.1706 0.5018
vt 0.1241 0.6582
vt 0.1706 0.5018
vt 0.1965 0.6278
vt 0.1706 0.5018
vt 0.2484 0.5014
vt 0.2683 0.5974
vt 0.1706 0.5018
vt 0.2683 0.5974
vt 0.1965 0.6278
vt 0.2683 0.5974
vt 0.3234 0.6786
vt 0.2685 0.7341
vt 0.2683 0.5974
vt 0.2685 0.7341
vt 0.1965 0.6278
vt 0.2685 0.7341
vt 0.2133 0.7898
vt 0.1241 0.6582
vt 0.2685 0.7341
vt 0.1241 0.6582
vt 0.1965 0.6278
vt 0.346 0.8776
vt 0.2133 0.7898
vt 0.2685 0.7341
vt 0.346 0.8776
vt 0.2685 0.7341
vt 0.3756 0.805
vt 0.2685 0.7341
vt 0.3234 0.6786
vt 0.405 0.7328
vt 0.2685 0.7341
vt 0.405 0.7328
vt 0.3756 0.805
vt 0.3095 0.5011
vt 0.3544 0.5008
vt 0.3666 0.5561
vt 0.3095 0.5011
vt 0.3666 0.5561
vt 0.3248 0.5737
vt 0.3666 0.5561
vt 0.3988 0.6025
vt 0.3667 0.6348
vt 0.3666 0.5561
vt 0.3667 0.6348
vt 0.3248 0.5737
vt 0.3667 0.6348
vt 0.3234 0.6786
vt 0.2683 0.5974
vt 0.3667 0.6348
vt 0.2683 0.5974
vt 0.3248 0.5737
vt 0.2683 0.5974
vt 0.2484 0.5014
vt 0.3095 0.5011
vt 0.2683 0.5974
vt 0.3095 0.5011
vt 0.3248 0.5737
vt 0.3667 0.6348
vt 0.3988 0.6025
vt 0.4454 0.6342
vt 0.3667 0.6348
vt 0.4454 0.6342
vt 0.4282 0.676
vt 0.405 0.7328
vt 0.3234 0.6786
vt 0.3667 0.6348
vt 0.405 0.7328
vt 0.3667 0.6348
vt 0.4282 0.676
vt 0.9892 0.4972
vt 0.9529 0.6847
vt 0.8774 0.654
vt 0.9892 0.4972
vt 0.8774 0.654
vt 0.9077 0.4977
vt 0.8774 0.654
vt 0.9529 0.6847
vt 0.8478 0.844
vt 0.8774 0.654
vt 0.8478 0.844
vt 0.7898 0.7866
vt 0.8478 0.844
vt 0.6896 0.951
vt 0.658 0.8759
vt 0.8478 0.844
vt 0.658 0.8759
vt 0.7898 0.7866
vt 0.8774 0.654
vt 0.8047 0.6244
vt 0.8292 0.4982
vt 0.8774 0.654
vt 0.8292 0.4982
vt 0.9077 0.4977
vt 0.8292 0.4982
vt 0.8047 0.6244
vt 0.7325 0.5948
vt 0.8292 0.4982
vt 0.7325 0.5948
vt 0.7514 0.4986
vt 0.7325 0.5948
vt 0.8047 0.6244
vt 0.7338 0.7314
vt 0.7325 0.5948
vt 0.7338 0.7314
vt 0.6783 0.6766
vt 0.7338 0.7314
vt 0.8047 0.6244
vt 0.8774 0.654
vt 0.7338 0.7314
vt 0.8774 0.654
vt 0.7898 0.7866
vt 0.658 0.8759
vt 0.6276 0.8036
vt 0.7338 0.7314
vt 0.658 0.8759
vt 0.7338 0.7314
vt 0.7898 0.7866
vt 0.7338 0.7314
vt 0.6276 0.8036
vt 0.5973 0.7318
vt 0.7338 0.7314
vt 0.5973 0.7318
vt 0.6783 0.6766
vt 0.6903 0.4989
vt 0.6757 0.5718
vt 0.6337 0.5546
vt 0.6903 0.4989
vt 0.6337 0.5546
vt 0.6454 0.4992
vt 0.6337 0.5546
vt 0.6757 0.5718
vt 0.6345 0.6333
vt 0.6337 0.5546
vt 0.6345 0.6333
vt 0.602 0.6013
vt 0.6345 0.6333
vt 0.6757 0.5718
vt 0.7325 0.5948
vt 0.6345 0.6333
vt 0.7325 0.5948
vt 0.6783 0.6766
vt 0.7325 0.5948
vt 0.6757 0.5718
vt 0.6903 0.4989
vt 0.7325 0.5948
vt 0.6903 0.4989
vt 0.7514 0.4986
vt 0.6345 0.6333
vt 0.5735 0.6752
vt 0.5558 0.6336
vt 0.6345 0.6333
vt 0.5558 0.6336
vt 0.602 0.6013
vt 0.5973 0.7318
vt 0.5735 0.6752
vt 0.6345 0.6333
vt 0.5973 0.7318
vt 0.6345 0.6333
vt 0.6783 0.6766
vt 0.346 0.8776
vt 0.5022 0.9079
vt 0.5027 0.9893
vt 0.346 0.8776
vt 0.5027 0.9893
vt 0.3153 0.9531
vt 0.658 0.8759
vt 0.6896 0.951
vt 0.5027 0.9893
vt 0.658 0.8759
vt 0.5027 0.9893
vt 0.5022 0.9079
vt 0.5018 0.8296
vt 0.5022 0.9079
vt 0.346 0.8776
vt 0.5018 0.8296
vt 0.346 0.8776
vt 0.3756 0.805
vt 0.5018 0.8296
vt 0.6276 0.8036
vt 0.658 0.8759
vt 0.5018 0.8296
vt 0.658 0.8759
vt 0.5022 0.9079
vt 0.405 0.7328
vt 0.5013 0.7516
vt 0.5018 0.8296
vt 0.405 0.7328
vt 0.5018 0.8296
vt 0.3756 0.805
vt 0.5973 0.7318
vt 0.6276 0.8036
vt 0.5018 0.8296
vt 0.5973 0.7318
vt 0.5018 0.8296
vt 0.5013 0.7516
vt 0.5009 0.6906
vt 0.5013 0.7516
vt 0.405 0.7328
vt 0.5009 0.6906
vt 0.405 0.7328
vt 0.4282 0.676
vt 0.5009 0.6906
vt 0.5735 0.6752
vt 0.5973 0.7318
vt 0.5009 0.6906
vt 0.5973 0.7318
vt 0.5013 0.7516
vt 0.4454 0.6342
vt 0.5007 0.6457
vt 0.5009 0.6906
vt 0.4454 0.6342
vt 0.5009 0.6906
vt 0.4282 0.676
vt 0.0106 0.5028
vt 0.0921 0.5023
vt 0.1224 0.346
vt 0.0106 0.5028
vt 0.1224 0.346
vt 0.0469 0.3153
vt 0.1224 0.346
vt 0.210124 0.2134
vt 0.152 0.156
vt 0.1224 0.346
vt 0.152 0.156
vt 0.0469 0.3153
vt 0.152 0.156
vt 0.210124 0.2134
vt 0.3418 0.1241
vt 0.152 0.156
vt 0.3418 0.1241
vt 0.3101 0.049
vt 0.9892 0.4972
vt 0.9509 0.3102
vt 0.8757 0.3418
vt 0.9892 0.4972
vt 0.8757 0.3418
vt 0.9077 0.4977
vt 0.8757 0.3418
vt 0.9509 0.3102
vt 0.8438 0.1522
vt 0.8757 0.3418
vt 0.8438 0.1522
vt 0.7865 0.2102
vt 0.8438 0.1522
vt 0.6845 0.0469
vt 0.6538 0.1224
vt 0.8438 0.1522
vt 0.6538 0.1224
vt 0.7865 0.2102
vt 0.3418 0.1241
vt 0.4976 0.0922
vt 0.4971 0.0107
vt 0.3418 0.1241
vt 0.4971 0.0107
vt 0.3101 0.049
vt 0.6538 0.1224
vt 0.6845 0.0469
vt 0.4971 0.0107
vt 0.6538 0.1224
vt 0.4971 0.0107
vt 0.4976 0.0922
vt 0.0106 0.5028
vt 0.0489 0.6898
vt 0.1241 0.6582
vt 0.0106 0.5028
vt 0.1241 0.6582
vt 0.0921 0.5023
vt 0.1241 0.6582
vt 0.0489 0.6898
vt 0.156 0.8478
vt 0.1241 0.6582
vt 0.156 0.8478
vt 0.2133 0.7898
vt 0.156 0.8478
vt 0.3153 0.9531
vt 0.346 0.8776
vt 0.156 0.8478
vt 0.346 0.8776
vt 0.2133 0.7898
vt 0.9892 0.4972
vt 0.9077 0.4977
vt 0.8774 0.654
vt 0.9892 0.4972
vt 0.8774 0.654
vt 0.9529 0.6847
vt 0.8774 0.654
vt 0.7898 0.7866
vt 0.8478 0.844
vt 0.8774 0.654
vt 0.8478 0.844
vt 0.9529 0.6847
vt 0.8478 0.844
vt 0.7898 0.7866
vt 0.658 0.8759
vt 0.8478 0.844
vt 0.658 0.8759
vt 0.6896 0.951
vt 0.346 0.8776
vt 0.3153 0.9531
vt 0.5027 0.9893
vt 0.346 0.8776
vt 0.5027 0.9893
vt 0.5022 0.9079
vt 0.658 0.8759
vt 0.5022 0.9079
vt 0.5027 0.9893
vt 0.658 0.8759
vt 0.5027 0.9893
vt 0.6896 0.951
vt 0.5007 0.6457
vt 0.5558 0.6336
vt 0.5735 0.6752
vt 0.5007 0.6457
vt 0.5735 0.6752
vt 0.5009 0.6906
vt 0.8757 0.3418
vt 0.7313 0.266
vt 0.8292 0.4982
vt 0.8757 0.3418
vt 0.8292 0.4982
vt 0.9077 0.4977
vt 0.6538 0.1224
vt 0.7313 0.266
vt 0.8757 0.3418
vt 0.6538 0.1224
vt 0.8757 0.3418
vt 0.7865 0.2102
vt 0.1224 0.346
vt 0.0921 0.5023
vt 0.1706 0.5018
vt 0.1224 0.346
vt 0.1706 0.5018
vt 0.2659 0.2686
vt 0.3418 0.1241
vt 0.210124 0.2134
vt 0.1224 0.346
vt 0.3418 0.1241
vt 0.1224 0.346
vt 0.2659 0.2686
vt 0.498 0.1705
vt 0.7313 0.266
vt 0.6538 0.1224
vt 0.498 0.1705
vt 0.6538 0.1224
vt 0.4976 0.0922
vt 0.498 0.1705
vt 0.4976 0.0922
vt 0.3418 0.1241
vt 0.498 0.1705
vt 0.3418 0.1241
vt 0.2659 0.2686
vt 0.8292 0.4982
vt 0.7313 0.266
vt 0.498 0.1705
vt 0.8292 0.4982
vt 0.498 0.1705
vt 0.6764 0.3215
vt 0.1706 0.5018
vt 0.3215 0.3234
vt 0.498 0.1705
vt 0.1706 0.5018
vt 0.498 0.1705
vt 0.2659 0.2686
vt 0.8774 0.654
vt 0.9077 0.4977
vt 0.8292 0.4982
vt 0.8774 0.654
vt 0.8292 0.4982
vt 0.7338 0.7314
vt 0.658 0.8759
vt 0.7898 0.7866
vt 0.8774 0.654
vt 0.658 0.8759
vt 0.8774 0.654
vt 0.7338 0.7314
vt 0.1241 0.6582
vt 0.2685 0.7341
vt 0.1706 0.5018
vt 0.1241 0.6582
vt 0.1706 0.5018
vt 0.0921 0.5023
vt 0.346 0.8776
vt 0.2685 0.7341
vt 0.1241 0.6582
vt 0.346 0.8776
vt 0.1241 0.6582
vt 0.2133 0.7898
vt 0.5018 0.8296
vt 0.5022 0.9079
vt 0.658 0.8759
vt 0.5018 0.8296
vt 0.658 0.8759
vt 0.7338 0.7314
vt 0.5018 0.8296
vt 0.2685 0.7341
vt 0.346 0.8776
vt 0.5018 0.8296
vt 0.346 0.8776
vt 0.5022 0.9079
vt 0.8292 0.4982
vt 0.6783 0.6766
vt 0.5018 0.8296
vt 0.8292 0.4982
vt 0.5018 0.8296
vt 0.7338 0.7314
vt 0.1706 0.5018
vt 0.2685 0.7341
vt 0.5018 0.8296
vt 0.1706 0.5018
vt 0.5018 0.8296
vt 0.3234 0.6786
f 1/1 2/2 3/3
f 1/4 3/5 4/6
f 3/7 2/8 5/9
f 3/10 5/11 6/12
f 5/13 2/14 7/15
f 5/16 7/17 8/18
f 7/19 2/20 1/21
f 7/22 1/23 9/24
f 5/25 10/26 11/27
f 5/28 11/29 6/30
f 12/31 10/32 5/33
f 12/34 5/35 8/36
f 3/37 13/38 14/39
f 3/40 14/41 4/42
f 11/43 13/44 3/45
f 11/46 3/47 6/48
f 15/49 16/50 17/51
f 15/52 17/53 18/54
f 17/55 19/56 20/57
f 17/58 20/59 18/60
f 20/61 21/62 22/63
f 20/64 22/65 18/66
f 22/67 23/68 15/69
f 22/70 15/71 18/72
f 20/73 19/74 24/75
f 20/76 24/77 25/78
f 26/79 21/80 20/81
f 26/82 20/83 25/84
f 17/85 16/86 27/87
f 17/88 27/89 28/90
f 24/91 19/92 17/93
f 24/94 17/95 28/96
f 29/97 10/98 12/99
f 29/100 12/101 30/102
f 29/103 30/104 26/105
f 29/106 26/107 25/108
f 11/109 10/110 29/111
f 11/112 29/113 31/114
f 24/115 31/116 29/117
f 24/118 29/119 25/120
f 32/121 13/122 11/123
f 32/124 11/125 31/126
f 32/127 31/128 24/129
f 32/130 24/131 28/132
f 14/133 13/134 32/135
f 14/136 32/137 33/138
f 27/139 33/140 32/141
f 27/142 32/143 28/144
f 1/145 4/146 34/147
f 1/148 34/149 35/150
f 34/151 36/152 37/153
f 34/154 37/155 35/156
f 37/157 38/158 39/159
f 37/160 39/161 35/162
f 39/163 9/164 1/165
f 39/166 1/167 35/168
f 37/169 36/170 40/171
f 37/172 40/173 41/174
f 42/175 38/176 37/177
f 42/178 37/179 41/180
f 34/181 4/182 14/183
f 34/184 14/185 43/186
f 40/187 36/188 34/189
f 40/190 34/191 43/192
f 15/193 44/194 45/195
f 15/196 45/197 16/198
f 45/199 44/200 46/201
f 45/202 46/203 47/204
f 46/205 44/206 48/207
f 46/208 48/209 49/210
f 48/211 44/212 15/213
f 48/214 15/215 23/216
f 46/217 50/218 51/219
f 46/220 51/221 47/222
f 52/223 50/224 46/225
f 52/226 46/227 49/228
f 45/229 53/230 27/231
f 45/232 27/233 16/234
f 51/235 53/236 45/237
f 51/238 45/239 47/240
f 54/241 55/242 42/243
f 54/244 42/245 41/246
f 54/247 50/248 52/249
f 54/250 52/251 55/252
f 40/253 56/254 54/255
f 40/256 54/257 41/258
f 51/259 50/260 54/261
f 51/262 54/263 56/264
f 57/265 56/266 40/267
f 57/268 40/269 43/270
f 57/271 53/272 51/273
f 57/274 51/275 56/276
f 14/277 33/278 57/279
f 14/280 57/281 43/282
f 27/283 53/284 57/285
f 27/286 57/287 33/288
f 58/289 59/290 60/291
f 58/292 60/293 61/294
f 60/295 59/296 62/297
f 60/298 62/299 63/300
f 62/301 64/302 65/303
f 62/304 65/305 63/306
f 60/307 66/308 67/309
f 60/310 67/311 61/312
f 67/313 66/314 68/315
f 67/316 68/317 69/318
f 68/319 66/320 70/321
f 68/322 70/323 71/324
f 70/325 66/326 60/327
f 70/328 60/329 63/330
f 65/331 72/332 70/333
f 65/334 70/335 63/336
f 70/337 72/338 73/339
f 70/340 73/341 71/342
f 74/343 75/344 7/345
f 74/346 7/347 9/348
f 7/349 75/350 76/351
f 7/352 76/353 8/354
f 76/355 75/356 68/357
f 76/358 68/359 71/360
f 68/361 75/362 74/363
f 68/364 74/365 69/366
f 76/367 77/368 12/369
f 76/370 12/371 8/372
f 73/373 77/374 76/375
f 73/376 76/377 71/378
f 78/379 79/380 80/381
f 78/382 80/383 81/384
f 80/385 82/386 83/387
f 80/388 83/389 81/390
f 83/391 82/392 84/393
f 83/394 84/395 85/396
f 80/397 79/398 86/399
f 80/400 86/401 87/402
f 86/403 88/404 89/405
f 86/406 89/407 87/408
f 89/409 90/410 91/411
f 89/412 91/413 87/414
f 91/415 82/416 80/417
f 91/418 80/419 87/420
f 84/421 82/422 91/423
f 84/424 91/425 92/426
f 91/427 90/428 93/429
f 91/430 93/431 92/432
f 94/433 23/434 22/435
f 94/436 22/437 95/438
f 22/439 21/440 96/441
f 22/442 96/443 95/444
f 96/445 90/446 89/447
f 96/448 89/449 95/450
f 89/451 88/452 94/453
f 89/454 94/455 95/456
f 96/457 21/458 26/459
f 96/460 26/461 97/462
f 93/463 90/464 96/465
f 93/466 96/467 97/468
f 65/469 64/470 98/471
f 65/472 98/473 99/474
f 84/475 99/476 98/477
f 84/478 98/479 85/480
f 100/481 72/482 65/483
f 100/484 65/485 99/486
f 100/487 99/488 84/489
f 100/490 84/491 92/492
f 73/493 72/494 100/495
f 73/496 100/497 101/498
f 93/499 101/500 100/501
f 93/502 100/503 92/504
f 102/505 77/506 73/507
f 102/508 73/509 101/510
f 102/511 101/512 93/513
f 102/514 93/515 97/516
f 12/517 77/518 102/519
f 12/520 102/521 30/522
f 26/523 30/524 102/525
f 26/526 102/527 97/528
f 58/529 61/530 103/531
f 58/532 103/533 104/534
f 103/535 105/536 106/537
f 103/538 106/539 104/540
f 106/541 105/542 107/543
f 106/544 107/545 108/546
f 103/547 61/548 67/549
f 103/550 67/551 109/552
f 67/553 69/554 110/555
f 67/556 110/557 109/558
f 110/559 111/560 112/561
f 110/562 112/563 109/564
f 112/565 105/566 103/567
f 112/568 103/569 109/570
f 107/571 105/572 112/573
f 107/574 112/575 113/576
f 112/577 111/578 114/579
f 112/580 114/581 113/582
f 74/583 9/584 39/585
f 74/586 39/587 115/588
f 39/589 38/590 116/591
f 39/592 116/593 115/594
f 116/595 111/596 110/597
f 116/598 110/599 115/600
f 110/601 69/602 74/603
f 110/604 74/605 115/606
f 116/607 38/608 42/609
f 116/610 42/611 117/612
f 114/613 111/614 116/615
f 114/616 116/617 117/618
f 78/619 118/620 119/621
f 78/622 119/623 79/624
f 119/625 118/626 120/627
f 119/628 120/629 121/630
f 120/631 122/632 123/633
f 120/634 123/635 121/636
f 119/637 124/638 86/639
f 119/640 86/641 79/642
f 86/643 124/644 125/645
f 86/646 125/647 88/648
f 125/649 124/650 126/651
f 125/652 126/653 127/654
f 126/655 124/656 119/657
f 126/658 119/659 121/660
f 123/661 128/662 126/663
f 123/664 126/665 121/666
f 126/667 128/668 129/669
f 126/670 129/671 127/672
f 94/673 130/674 48/675
f 94/676 48/677 23/678
f 48/679 130/680 131/681
f 48/682 131/683 49/684
f 131/685 130/686 125/687
f 131/688 125/689 127/690
f 125/691 130/692 94/693
f 125/694 94/695 88/696
f 131/697 132/698 52/699
f 131/700 52/701 49/702
f 129/703 132/704 131/705
f 129/706 131/707 127/708
f 107/709 133/710 134/711
f 107/712 134/713 108/714
f 123/715 122/716 134/717
f 123/718 134/719 133/720
f 135/721 133/722 107/723
f 135/724 107/725 113/726
f 135/727 128/728 123/729
f 135/730 123/731 133/732
f 114/733 136/734 135/735
f 114/736 135/737 113/738
f 129/739 128/740 135/741
f 129/742 135/743 136/744
f 137/745 136/746 114/747
f 137/748 114/749 117/750
f 137/751 132/752 129/753
f 137/754 129/755 136/756
f 42/757 55/758 137/759
f 42/760 137/761 117/762
f 58/763 138/764 139/765
f 58/766 139/767 59/768
f 139/769 140/770 62/771
f 139/772 62/773 59/774
f 62/775 140/776 141/777
f 62/778 141/779 64/780
f 78/781 81/782 142/783
f 78/784 142/785 143/786
f 142/787 81/788 83/789
f 142/790 83/791 144/792
f 83/793 85/794 145/795
f 83/796 145/797 144/798
f 141/799 146/800 98/801
f 141/802 98/803 64/804
f 145/805 85/806 98/807
f 145/808 98/809 146/810
f 58/811 104/812 147/813
f 58/814 147/815 138/816
f 147/817 104/818 106/819
f 147/820 106/821 148/822
f 106/823 108/824 149/825
f 106/826 149/827 148/828
f 78/829 143/830 150/831
f 78/832 150/833 118/834
f 150/835 151/836 120/837
f 150/838 120/839 118/840
f 120/841 151/842 152/843
f 120/844 152/845 122/846
f 149/847 108/848 134/849
f 149/850 134/851 153/852
f 152/853 153/854 134/855
f 152/856 134/857 122/858
f 55/859 52/860 132/861
f 55/862 132/863 137/864
f 142/865 154/866 155/867
f 142/868 155/869 143/870
f 145/871 154/872 142/873
f 145/874 142/875 144/876
f 139/877 138/878 156/879
f 139/880 156/881 157/882
f 141/883 140/884 139/885
f 141/886 139/887 157/888
f 158/889 154/890 145/891
f 158/892 145/893 146/894
f 158/895 146/896 141/897
f 158/898 141/899 157/900
f 155/901 154/902 158/903
f 155/904 158/905 161/906
f 156/907 159/908 158/909
f 156/910 158/911 157/912
f 150/913 143/914 155/915
f 150/916 155/917 163/918
f 152/919 151/920 150/921
f 152/922 150/923 163/924
f 147/925 164/926 156/927
f 147/928 156/929 138/930
f 149/931 164/932 147/933
f 149/934 147/935 148/936
f 165/937 153/938 152/939
f 165/940 152/941 163/942
f 165/943 164/944 149/945
f 165/946 149/947 153/948
f 155/949 162/950 165/951
f 155/952 165/953 163/954
f 156/955 164/956 165/957
f 156/958 165/959 160/960
