# Exported from robot_room_v2.usdc, material /root/_materials/Mat3d66_9313820_16_87737
v 14.5335 9.07266 2.11473
v 14.5335 8.9784 2.11473
v 14.5335 8.9784 0.614935
v 14.5335 9.07266 0.614935
v 14.5335 9.07266 0.654935
v 14.5335 9.0184 0.654935
v 14.5335 9.0184 2.07473
v 14.5335 9.07266 2.07473
v 14.5735 9.07266 2.11473
v 14.5735 8.9784 2.11473
v 14.5735 8.9784 0.614935
v 14.5735 9.07266 0.614935
v 14.5735 9.07266 0.654935
v 14.5735 9.0184 0.654935
v 14.5735 9.0184 2.07473
v 14.5735 9.07266 2.07473
v 14.7243 9.07266 2.11473
v 14.7243 8.9784 2.11473
v 14.7243 8.9784 0.614935
v 14.7243 9.07266 0.614935
v 14.7243 9.07266 0.654935
v 14.7243 9.0184 0.654935
v 14.7243 9.0184 2.07473
v 14.7243 9.07266 2.07473
v 14.7643 9.07266 2.11473
v 14.7643 8.9784 2.11473
v 14.7643 8.9784 0.614935
v 14.7643 9.07266 0.614935
v 14.7643 9.07266 0.654935
v 14.7643 9.0184 0.654935
v 14.7643 9.0184 2.07473
v 14.7643 9.07266 2.07473
v -7.23777 9.07266 2.11473
v -7.23777 8.9784 2.11473
v -7.23777 8.9784 0.614935
v -7.23777 9.07266 0.614935
v -7.23777 9.07266 0.654935
v -7.23777 9.0184 0.654935
v -7.23777 9.0184 2.07473
v -7.23777 9.07266 2.07473
v -7.27777 9.07266 2.11473
v -7.27777 8.9784 2.11473
v -7.27777 8.9784 0.614935
v -7.27777 9.07266 0.614935
v -7.27777 9.07266 0.654935
v -7.27777 9.0184 0.654935
v -7.27777 9.0184 2.07473
v -7.27777 9.07266 2.07473
v -7.42857 9.07266 2.11473
v -7.42857 8.9784 2.11473
v -7.42857 8.9784 0.614935
v -7.42857 9.07266 0.614935
v -7.42857 9.07266 0.654935
v -7.42857 9.0184 0.654935
v -7.42857 9.0184 2.07473
v -7.42857 9.07266 2.07473
v -7.46857 9.07266 2.11473
v -7.46857 8.9784 2.11473
v -7.46857 8.9784 0.614935
v -7.46857 9.07266 0.614935
v -7.46857 9.07266 0.654935
v -7.46857 9.0184 0.654935
v -7.46857 9.0184 2.07473
v -7.46857 9.07266 2.07473
f 1 2 10
f 1 10 9
f 2 3 11
f 2 11 10
f 3 4 12
f 3 12 11
f 4 5 13
f 4 13 12
f 5 6 14
f 5 14 13
f 6 7 15
f 6 15 14
f 7 8 16
f 7 16 15
f 8 1 9
f 8 9 16
f 3 5 4
f 3 6 5
f 2 6 3
f 2 7 6
f 1 7 2
f 1 8 7
f 11 12 13
f 11 13 14
f 10 11 14
f 10 14 15
f 9 10 15
f 9 15 16
f 17 18 26
f 17 26 25
f 18 19 27
f 18 27 26
f 19 20 28
f 19 28 27
f 20 21 29
f 20 29 28
f 21 22 30
f 21 30 29
f 22 23 31
f 22 31 30
f 23 24 32
f 23 32 31
f 24 17 25
f 24 25 32
f 19 21 20
f 19 22 21
f 18 22 19
f 18 23 22
f 17 23 18
f 17 24 23
f 27 28 29
f 27 29 30
f 26 27 30
f 26 30 31
f 25 26 31
f 25 31 32
f 33 34 42
f 33 42 41
f 34 35 43
f 34 43 42
f 35 36 44
f 35 44 43
f 36 37 45
f 36 45 44
f 37 38 46
f 37 46 45
f 38 39 47
f 38 47 46
f 39 40 48
f 39 48 47
f 40 33 41
f 40 41 48
f 35 37 36
f 35 38 37
f 34 38 35
f 34 39 38
f 33 39 34
f 33 40 39
f 43 44 45
f 43 45 46
f 42 43 46
f 42 46 47
f 41 42 47
f 41 47 48
f 49 50 58
f 49 58 57
f 50 51 59
f 50 59 58
f 51 52 60
f 51 60 59
f 52 53 61
f 52 61 60
f 53 54 62
f 53 62 61
f 54 55 63
f 54 63 62
f 55 56 64
f 55 64 63
f 56 49 57
f 56 57 64
f 51 53 52
f 51 54 53
f 50 54 51
f 50 55 54
f 49 55 50
f 49 56 55
f 59 60 61
f 59 61 62
f 58 59 62
f 58 62 63
f 57 58 63
f 57 63 64
