# Exported from robot_room_v2.usdc, material /root/_materials/___30
v -8.15213 9.0363 0.349
v -8.65013 9.0363 0.349
v -8.65013 -5.5417 0.349
v -8.65213 -5.5417 0.349
v -8.65213 9.0383 0.349
v -8.15213 9.0383 0.349
v -8.15213 9.0363 0.449
v -8.65013 9.0363 0.449
v -8.65013 -5.5417 0.449
v -8.65213 -5.5417 0.449
v -8.65213 9.0383 0.449
v -8.15213 9.0383 0.449
v 15.4479 9.0363 0.349
v 15.9459 9.0363 0.349
v 15.9459 -5.5417 0.349
v 15.9479 -5.5417 0.349
v 15.9479 9.0383 0.349
v 15.4479 9.0383 0.349
v 15.4479 9.0363 0.449
v 15.9459 9.0363 0.449
v 15.9459 -5.5417 0.449
v 15.9479 -5.5417 0.449
v 15.9479 9.0383 0.449
v 15.4479 9.0383 0.449
f 1 2 8
f 1 8 7
f 2 3 9
f 2 9 8
f 3 4 10
f 3 10 9
f 4 5 11
f 4 11 10
f 5 6 12
f 5 12 11
f 6 1 7
f 6 7 12
f 5 1 6
f 5 2 1
f 4 2 5
f 4 3 2
f 11 12 7
f 11 7 8
f 10 11 8
f 10 8 9
f 13 14 20
f 13 20 19
f 14 15 21
f 14 21 20
f 15 16 22
f 15 22 21
f 16 17 23
f 16 23 22
f 17 18 24
f 17 24 23
f 18 13 19
f 18 19 24
f 17 13 18
f 17 14 13
f 16 14 17
f 16 15 14
f 23 24 19
f 23 19 20
f 22 23 20
f 22 20 21
