# Exported from robot_room_v2.usdc, material /root/_materials/Mat3d66_9313820_34_87230
v 1.07153 -0.0876984 3.34141
v 1.07153 0.920297 3.34141
v 1.07153 0.920297 0.342
v 1.07153 -0.0876984 0.342
v 1.05659 -0.0876984 3.34141
v 1.05659 0.920297 3.34141
v 1.05659 0.920297 0.342
v 1.05659 -0.0876984 0.342
v 1.05235 -0.0806984 3.33441
v 1.05235 0.913297 3.33441
v 1.05235 0.913297 0.349
v 1.05235 -0.0806986 0.349
v 1.07153 -0.0876983 3.342
v 1.07153 0.920297 3.342
v 1.05659 0.920297 3.342
v 1.05659 -0.0876983 3.342
v 1.07153 0.920295 3.34841
v 1.07153 1.83349 3.34841
v 1.07153 1.83349 0.349
v 1.07153 0.920295 0.349
v 1.05659 0.920295 3.34841
v 1.05659 1.83349 3.34841
v 1.05659 1.83349 0.349
v 1.05659 0.920295 0.349
v 1.05235 0.927295 3.34141
v 1.05235 1.82649 3.34141
v 1.05235 1.82649 0.356
v 1.05235 0.927295 0.356
v 1.07153 0.920295 3.349
v 1.07153 1.83349 3.349
v 1.05659 1.83349 3.349
v 1.05659 0.920295 3.349
v 3.02161 1.85267 3.34141
v 4.18873 1.85267 3.34141
v 4.18873 1.85267 0.342
v 3.02161 1.85267 0.342
v 3.02161 1.83773 3.34141
v 4.18873 1.83773 3.34141
v 4.18873 1.83773 0.342
v 3.02161 1.83773 0.342
v 3.02861 1.83349 3.33441
v 4.18173 1.83349 3.33441
v 4.18173 1.83349 0.349
v 3.02861 1.83349 0.349
v 3.02161 1.85267 3.342
v 4.18873 1.85267 3.342
v 4.18873 1.83773 3.342
v 3.02161 1.83773 3.342
v 2.43581 2.09267 3.34141
v 3.61488 2.09267 3.34141
v 3.61488 2.09267 0.342
v 2.43581 2.09267 0.342
v 2.43581 2.10761 3.34141
v 3.61488 2.10761 3.34141
v 3.61488 2.10761 0.342
v 2.43581 2.10761 0.342
v 2.44281 2.11185 3.33441
v 3.60788 2.11185 3.33441
v 3.60788 2.11185 0.349
v 2.44281 2.11185 0.349
v 2.43581 2.09267 3.342
v 3.61488 2.09267 3.342
v 3.61488 2.10761 3.342
v 2.43581 2.10761 3.342
v 1.2687 2.09267 3.34841
v 2.43583 2.09267 3.34841
v 2.43583 2.09267 0.349
v 1.2687 2.09267 0.349
v 1.2687 2.10761 3.34841
v 2.43583 2.10761 3.34841
v 2.43583 2.10761 0.349
v 1.2687 2.10761 0.349
v 1.2757 2.11185 3.34141
v 2.42883 2.11185 3.34141
v 2.42883 2.11185 0.356
v 1.2757 2.11185 0.356
v 1.2687 2.09267 3.349
v 2.43583 2.09267 3.349
v 2.43583 2.10761 3.349
v 1.2687 2.10761 3.349
v 1.19153 1.07943 3.34841
v 1.19153 1.83736 3.34841
v 1.19153 1.83736 0.349
v 1.19153 1.07943 0.349
v 1.20647 1.07943 3.34841
v 1.20647 1.83736 3.34841
v 1.20647 1.83736 0.349
v 1.20647 1.07943 0.349
v 1.21071 1.08643 3.34141
v 1.21071 1.83036 3.34141
v 1.21071 1.83036 0.356
v 1.21071 1.08642 0.356
v 1.19153 1.07943 3.349
v 1.19153 1.83736 3.349
v 1.20647 1.83736 3.349
v 1.20647 1.07943 3.349
v 1.19153 -0.0876979 3.34141
v 1.19153 1.07943 3.34141
v 1.19153 1.07943 0.342
v 1.19153 -0.087698 0.342
v 1.20647 -0.0876979 3.34141
v 1.20647 1.07943 3.34141
v 1.20647 1.07943 0.342
v 1.20647 -0.087698 0.342
v 1.21071 -0.0806979 3.33441
v 1.21071 1.07243 3.33441
v 1.21071 1.07243 0.349
v 1.21071 -0.0806982 0.349
v 1.19153 -0.0876979 3.342
v 1.19153 1.07943 3.342
v 1.20647 1.07943 3.342
v 1.20647 -0.0876979 3.342
v 3.87403 3.06284 3.34841
v 3.87403 2.09267 3.34841
v 3.87403 2.09267 0.349
v 3.87403 3.06284 0.349
v 3.88897 3.06284 3.34841
v 3.88897 2.09267 3.34841
v 3.88897 2.09267 0.349
v 3.88897 3.06284 0.349
v 3.89321 3.05584 3.34141
v 3.89321 2.09967 3.34141
v 3.89321 2.09967 0.356
v 3.89321 3.05584 0.356
v 3.87403 3.06284 3.349
v 3.87403 2.09267 3.349
v 3.88897 2.09267 3.349
v 3.88897 3.06284 3.349
v 5.09351 2.09267 3.34841
v 6.26063 2.09267 3.34841
v 6.26063 2.09267 0.349
v 5.09351 2.09267 0.349
v 5.09351 2.10761 3.34841
v 6.26063 2.10761 3.34841
v 6.26063 2.10761 0.349
v 5.09351 2.10761 0.349
v 5.10051 2.11185 3.34141
v 6.25363 2.11185 3.34141
v 6.25363 2.11185 0.356
v 5.10051 2.11185 0.356
v 5.09351 2.09267 3.349
v 6.26063 2.09267 3.349
v 6.26063 2.10761 3.349
v 5.09351 2.10761 3.349
v 6.5229 1.85267 3.34841
v 7.42595 1.85267 3.34841
v 7.42595 1.85267 0.349
v 6.5229 1.85267 0.349
v 6.5229 1.83773 3.34841
v 7.42595 1.83773 3.34841
v 7.42595 1.83773 0.349
v 6.5229 1.83773 0.349
v 6.5299 1.83349 3.34141
v 7.41895 1.83349 3.34141
v 7.41895 1.83349 0.356
v 6.5299 1.83349 0.356
v 6.5229 1.85267 3.349
v 7.42595 1.85267 3.349
v 7.42595 1.83773 3.349
v 6.5229 1.83773 3.349
v 4.18871 1.85267 3.34141
v 5.35583 1.85267 3.34141
v 5.35583 1.85267 0.342
v 4.18871 1.85267 0.342
v 4.18871 1.83773 3.34141
v 5.35583 1.83773 3.34141
v 5.35583 1.83773 0.342
v 4.18871 1.83773 0.342
v 4.19571 1.83349 3.33441
v 5.34883 1.83349 3.33441
v 5.34883 1.83349 0.349
v 4.19571 1.83349 0.349
v 4.18871 1.85267 3.342
v 5.35583 1.85267 3.342
v 5.35583 1.83773 3.342
v 4.18871 1.83773 3.342
v 1.85441 1.85267 3.34841
v 3.02153 1.85267 3.34841
v 3.02153 1.85267 0.349
v 1.85441 1.85267 0.349
v 1.85441 1.83773 3.34841
v 3.02153 1.83773 3.34841
v 3.02153 1.83773 0.349
v 1.85441 1.83773 0.349
v 1.86141 1.83349 3.34141
v 3.01453 1.83349 3.34141
v 3.01453 1.83349 0.356
v 1.86141 1.83349 0.356
v 1.85441 1.85267 3.349
v 3.02153 1.85267 3.349
v 3.02153 1.83773 3.349
v 1.85441 1.83773 3.349
v 3.63403 2.09267 3.34841
v 3.63403 3.06284 3.34841
v 3.63403 3.06284 0.349
v 3.63403 2.09267 0.349
v 3.61909 2.09267 3.34841
v 3.61909 3.06284 3.34841
v 3.61909 3.06284 0.349
v 3.61909 2.09267 0.349
v 3.61485 2.09967 3.34141
v 3.61485 3.05584 3.34141
v 3.61485 3.05584 0.356
v 3.61485 2.09967 0.356
v 3.63403 2.09267 3.349
v 3.63403 3.06284 3.349
v 3.61909 3.06284 3.349
v 3.61909 2.09267 3.349
v 1.19154 1.85267 3.34841
v 1.85443 1.85267 3.34841
v 1.85443 1.85267 0.349
v 1.19154 1.85267 0.349
v 1.19154 1.83773 3.34841
v 1.85443 1.83773 3.34841
v 1.85443 1.83773 0.349
v 1.19154 1.83773 0.349
v 1.19854 1.83349 3.34141
v 1.84743 1.83349 3.34141
v 1.84743 1.83349 0.356
v 1.19854 1.83349 0.356
v 1.19154 1.85267 3.349
v 1.85443 1.85267 3.349
v 1.85443 1.83773 3.349
v 1.19154 1.83773 3.349
v 5.35581 1.85267 3.34841
v 6.52293 1.85267 3.34841
v 6.52293 1.85267 0.349
v 5.35581 1.85267 0.349
v 5.35581 1.83773 3.34841
v 6.52293 1.83773 3.34841
v 6.52293 1.83773 0.349
v 5.35581 1.83773 0.349
v 5.36281 1.83349 3.34141
v 6.51593 1.83349 3.34141
v 6.51593 1.83349 0.356
v 5.36281 1.83349 0.356
v 5.35581 1.85267 3.349
v 6.52293 1.85267 3.349
v 6.52293 1.83773 3.349
v 5.35581 1.83773 3.349
v 3.89328 2.09267 3.34841
v 5.09353 2.09267 3.34841
v 5.09353 2.09267 0.349
v 3.89328 2.09267 0.349
v 3.89328 2.10761 3.34841
v 5.09353 2.10761 3.34841
v 5.09353 2.10761 0.349
v 3.89328 2.10761 0.349
v 3.90028 2.11185 3.34141
v 5.08653 2.11185 3.34141
v 5.08653 2.11185 0.356
v 3.90028 2.11185 0.356
v 3.89328 2.09267 3.349
v 5.09353 2.09267 3.349
v 5.09353 2.10761 3.349
v 3.89328 2.10761 3.349
v 6.25711 2.09267 3.34841
v 7.42423 2.09267 3.34841
v 7.42423 2.09267 0.349
v 6.25711 2.09267 0.349
v 6.25711 2.10761 3.34841
v 7.42423 2.10761 3.34841
v 7.42423 2.10761 0.349
v 6.25711 2.10761 0.349
v 6.26411 2.11185 3.34141
v 7.41723 2.11185 3.34141
v 7.41723 2.11185 0.356
v 6.26411 2.11185 0.356
v 6.25711 2.09267 3.349
v 7.42423 2.09267 3.349
v 7.42423 2.10761 3.349
v 6.25711 2.10761 3.349
v 1.07157 1.85267 3.34841
v 0.101572 1.85267 3.34841
v 0.101572 1.85267 0.349
v 1.07157 1.85267 0.349
v 1.07157 1.83773 3.34841
v 0.101572 1.83773 3.34841
v 0.101572 1.83773 0.349
v 1.07157 1.83773 0.349
v 1.06457 1.83349 3.34141
v 0.108572 1.83349 3.34141
v 0.108572 1.83349 0.356
v 1.06457 1.83349 0.356
v 1.07157 1.85267 3.349
v 0.101571 1.85267 3.349
v 0.101571 1.83773 3.349
v 1.07157 1.83773 3.349
v 0.101611 2.09267 3.34841
v 1.26874 2.09267 3.34841
v 1.26874 2.09267 0.349
v 0.101611 2.09267 0.349
v 0.101611 2.10761 3.34841
v 1.26874 2.10761 3.34841
v 1.26874 2.10761 0.349
v 0.101611 2.10761 0.349
v 0.108611 2.11185 3.34141
v 1.26174 2.11185 3.34141
v 1.26174 2.11185 0.356
v 0.108611 2.11185 0.356
v 0.101611 2.09267 3.349
v 1.26874 2.09267 3.349
v 1.26874 2.10761 3.349
v 0.101611 2.10761 3.349
vt 2.74063 -0.712498
vt 2.76563 -0.712498
vt 2.76563 -2.1714
vt 2.76563 -2.1714
vt 2.74063 -2.1714
vt 2.74063 -0.712498
vt 2.74062 -1.20454
vt 2.74063 2.23864
vt 2.76563 2.23864
vt 2.76563 2.23864
vt 2.76562 -1.20454
vt 2.74062 -1.20454
vt 2.74063 -2.1714
vt 2.74062 -0.712499
vt 2.76562 -0.712499
vt 2.76562 -0.712499
vt 2.76563 -2.1714
vt 2.74063 -2.1714
vt -1.74063 2.23864
vt -1.74063 -1.20454
vt -1.76563 -1.20454
vt -1.76563 -1.20454
vt -1.76563 2.23864
vt -1.74063 2.23864
vt 1.7125 -1.20454
vt 1.7125 2.23864
vt 3.1714 2.23864
vt 3.1714 2.23864
vt 3.1714 -1.20454
vt 1.7125 -1.20454
vt -2.16265 2.23068
vt -0.721248 2.23068
vt -0.721249 -1.19659
vt -0.721249 -1.19659
vt -2.16266 -1.19659
vt -2.16265 2.23068
vt -2.1714 2.23864
vt -0.712498 2.23864
vt -0.721248 2.23068
vt -0.721248 2.23068
vt -2.16265 2.23068
vt -2.1714 2.23864
vt -0.712498 2.23864
vt -0.712499 -1.20454
vt -0.721249 -1.19659
vt -0.721249 -1.19659
vt -0.721248 2.23068
vt -0.712498 2.23864
vt -0.712499 -1.20454
vt -2.1714 -1.20454
vt -2.16266 -1.19659
vt -2.16266 -1.19659
vt -0.721249 -1.19659
vt -0.712499 -1.20454
vt -2.1714 -1.20454
vt -2.1714 2.23864
vt -2.16265 2.23068
vt -2.16265 2.23068
vt -2.16266 -1.19659
vt -2.1714 -1.20454
vt -2.1714 2.23864
vt -2.1714 2.23931
vt -0.712498 2.23931
vt -0.712498 2.23931
vt -0.712498 2.23864
vt -2.1714 2.23864
vt -1.76563 2.23864
vt -1.76563 2.23931
vt -1.74063 2.23931
vt -1.74063 2.23931
vt -1.74063 2.23864
vt -1.76563 2.23864
vt 1.7125 2.23864
vt 1.7125 2.23931
vt 3.1714 2.23931
vt 3.1714 2.23931
vt 3.1714 2.23864
vt 1.7125 2.23864
vt 2.74063 2.23864
vt 2.74063 2.23931
vt 2.76563 2.23931
vt 2.76563 2.23931
vt 2.76563 2.23864
vt 2.74063 2.23864
vt 2.74063 -0.712498
vt 2.76563 -0.712498
vt 2.76563 -2.1714
vt 2.76563 -2.1714
vt 2.74063 -2.1714
vt 2.74063 -0.712498
vt 2.74062 -1.20454
vt 2.74063 2.23864
vt 2.76563 2.23864
vt 2.76563 2.23864
vt 2.76562 -1.20454
vt 2.74062 -1.20454
vt 2.74063 -2.1714
vt 2.74062 -0.712499
vt 2.76562 -0.712499
vt 2.76562 -0.712499
vt 2.76563 -2.1714
vt 2.74063 -2.1714
vt -1.74063 2.23864
vt -1.74063 -1.20454
vt -1.76563 -1.20454
vt -1.76563 -1.20454
vt -1.76563 2.23864
vt -1.74063 2.23864
vt 1.7125 -1.20454
vt 1.7125 2.23864
vt 3.1714 2.23864
vt 3.1714 2.23864
vt 3.1714 -1.20454
vt 1.7125 -1.20454
vt -2.16265 2.23068
vt -0.721248 2.23068
vt -0.721249 -1.19659
vt -0.721249 -1.19659
vt -2.16266 -1.19659
vt -2.16265 2.23068
vt -2.1714 2.23864
vt -0.712498 2.23864
vt -0.721248 2.23068
vt -0.721248 2.23068
vt -2.16265 2.23068
vt -2.1714 2.23864
vt -0.712498 2.23864
vt -0.712499 -1.20454
vt -0.721249 -1.19659
vt -0.721249 -1.19659
vt -0.721248 2.23068
vt -0.712498 2.23864
vt -0.712499 -1.20454
vt -2.1714 -1.20454
vt -2.16266 -1.19659
vt -2.16266 -1.19659
vt -0.721249 -1.19659
vt -0.712499 -1.20454
vt -2.1714 -1.20454
vt -2.1714 2.23864
vt -2.16265 2.23068
vt -2.16265 2.23068
vt -2.16266 -1.19659
vt -2.1714 -1.20454
vt -2.1714 2.23864
vt -2.1714 2.23931
vt -0.712498 2.23931
vt -0.712498 2.23931
vt -0.712498 2.23864
vt -2.1714 2.23864
vt -1.76563 2.23864
vt -1.76563 2.23931
vt -1.74063 2.23931
vt -1.74063 2.23931
vt -1.74063 2.23864
vt -1.76563 2.23864
vt 1.7125 2.23864
vt 1.7125 2.23931
vt 3.1714 2.23931
vt 3.1714 2.23931
vt 3.1714 2.23864
vt 1.7125 2.23864
vt 2.74063 2.23864
vt 2.74063 2.23931
vt 2.76563 2.23931
vt 2.76563 2.23931
vt 2.76563 2.23864
vt 2.74063 2.23864
vt 2.74063 -0.712498
vt 2.76563 -0.712498
vt 2.76563 -2.1714
vt 2.76563 -2.1714
vt 2.74063 -2.1714
vt 2.74063 -0.712498
vt 2.74062 -1.20454
vt 2.74063 2.23864
vt 2.76563 2.23864
vt 2.76563 2.23864
vt 2.76562 -1.20454
vt 2.74062 -1.20454
vt 2.74063 -2.1714
vt 2.74062 -0.712499
vt 2.76562 -0.712499
vt 2.76562 -0.712499
vt 2.76563 -2.1714
vt 2.74063 -2.1714
vt -1.74063 2.23864
vt -1.74063 -1.20454
vt -1.76563 -1.20454
vt -1.76563 -1.20454
vt -1.76563 2.23864
vt -1.74063 2.23864
vt 1.7125 -1.20454
vt 1.7125 2.23864
vt 3.1714 2.23864
vt 3.1714 2.23864
vt 3.1714 -1.20454
vt 1.7125 -1.20454
vt -2.16265 2.23068
vt -0.721248 2.23068
vt -0.721249 -1.19659
vt -0.721249 -1.19659
vt -2.16266 -1.19659
vt -2.16265 2.23068
vt -2.1714 2.23864
vt -0.712498 2.23864
vt -0.721248 2.23068
vt -0.721248 2.23068
vt -2.16265 2.23068
vt -2.1714 2.23864
vt -0.712498 2.23864
vt -0.712499 -1.20454
vt -0.721249 -1.19659
vt -0.721249 -1.19659
vt -0.721248 2.23068
vt -0.712498 2.23864
vt -0.712499 -1.20454
vt -2.1714 -1.20454
vt -2.16266 -1.19659
vt -2.16266 -1.19659
vt -0.721249 -1.19659
vt -0.712499 -1.20454
vt -2.1714 -1.20454
vt -2.1714 2.23864
vt -2.16265 2.23068
vt -2.16265 2.23068
vt -2.16266 -1.19659
vt -2.1714 -1.20454
vt -2.1714 2.23864
vt -2.1714 2.23931
vt -0.712498 2.23931
vt -0.712498 2.23931
vt -0.712498 2.23864
vt -2.1714 2.23864
vt -1.76563 2.23864
vt -1.76563 2.23931
vt -1.74063 2.23931
vt -1.74063 2.23931
vt -1.74063 2.23864
vt -1.76563 2.23864
vt 1.7125 2.23864
vt 1.7125 2.23931
vt 3.1714 2.23931
vt 3.1714 2.23931
vt 3.1714 2.23864
vt 1.7125 2.23864
vt 2.74063 2.23864
vt 2.74063 2.23931
vt 2.76563 2.23931
vt 2.76563 2.23931
vt 2.76563 2.23864
vt 2.74063 2.23864
vt 2.74063 -0.712498
vt 2.76563 -0.712498
vt 2.76563 -2.1714
vt 2.76563 -2.1714
vt 2.74063 -2.1714
vt 2.74063 -0.712498
vt 2.74062 -1.20454
vt 2.74063 2.23864
vt 2.76563 2.23864
vt 2.76563 2.23864
vt 2.76562 -1.20454
vt 2.74062 -1.20454
vt 2.74063 -2.1714
vt 2.74062 -0.712499
vt 2.76562 -0.712499
vt 2.76562 -0.712499
vt 2.76563 -2.1714
vt 2.74063 -2.1714
vt -1.74063 2.23864
vt -1.74063 -1.20454
vt -1.76563 -1.20454
vt -1.76563 -1.20454
vt -1.76563 2.23864
vt -1.74063 2.23864
vt 1.7125 -1.20454
vt 1.7125 2.23864
vt 3.1714 2.23864
vt 3.1714 2.23864
vt 3.1714 -1.20454
vt 1.7125 -1.20454
vt -2.16265 2.23068
vt -0.721248 2.23068
vt -0.721249 -1.19659
vt -0.721249 -1.19659
vt -2.16266 -1.19659
vt -2.16265 2.23068
vt -2.1714 2.23864
vt -0.712498 2.23864
vt -0.721248 2.23068
vt -0.721248 2.23068
vt -2.16265 2.23068
vt -2.1714 2.23864
vt -0.712498 2.23864
vt -0.712499 -1.20454
vt -0.721249 -1.19659
vt -0.721249 -1.19659
vt -0.721248 2.23068
vt -0.712498 2.23864
vt -0.712499 -1.20454
vt -2.1714 -1.20454
vt -2.16266 -1.19659
vt -2.16266 -1.19659
vt -0.721249 -1.19659
vt -0.712499 -1.20454
vt -2.1714 -1.20454
vt -2.1714 2.23864
vt -2.16265 2.23068
vt -2.16265 2.23068
vt -2.16266 -1.19659
vt -2.1714 -1.20454
vt -2.1714 2.23864
vt -2.1714 2.23931
vt -0.712498 2.23931
vt -0.712498 2.23931
vt -0.712498 2.23864
vt -2.1714 2.23864
vt -1.76563 2.23864
vt -1.76563 2.23931
vt -1.74063 2.23931
vt -1.74063 2.23931
vt -1.74063 2.23864
vt -1.76563 2.23864
vt 1.7125 2.23864
vt 1.7125 2.23931
vt 3.1714 2.23931
vt 3.1714 2.23931
vt 3.1714 2.23864
vt 1.7125 2.23864
vt 2.74063 2.23864
vt 2.74063 2.23931
vt 2.76563 2.23931
vt 2.76563 2.23931
vt 2.76563 2.23864
vt 2.74063 2.23864
vt 2.74063 -0.712498
vt 2.76563 -0.712498
vt 2.76563 -2.1714
vt 2.76563 -2.1714
vt 2.74063 -2.1714
vt 2.74063 -0.712498
vt 2.74062 -1.20454
vt 2.74063 2.23864
vt 2.76563 2.23864
vt 2.76563 2.23864
vt 2.76562 -1.20454
vt 2.74062 -1.20454
vt 2.74063 -2.1714
vt 2.74062 -0.712499
vt 2.76562 -0.712499
vt 2.76562 -0.712499
vt 2.76563 -2.1714
vt 2.74063 -2.1714
vt -1.74063 2.23864
vt -1.74063 -1.20454
vt -1.76563 -1.20454
vt -1.76563 -1.20454
vt -1.76563 2.23864
vt -1.74063 2.23864
vt 1.7125 -1.20454
vt 1.7125 2.23864
vt 3.1714 2.23864
vt 3.1714 2.23864
vt 3.1714 -1.20454
vt 1.7125 -1.20454
vt -2.16265 2.23068
vt -0.721248 2.23068
vt -0.721249 -1.19659
vt -0.721249 -1.19659
vt -2.16266 -1.19659
vt -2.16265 2.23068
vt -2.1714 2.23864
vt -0.712498 2.23864
vt -0.721248 2.23068
vt -0.721248 2.23068
vt -2.16265 2.23068
vt -2.1714 2.23864
vt -0.712498 2.23864
vt -0.712499 -1.20454
vt -0.721249 -1.19659
vt -0.721249 -1.19659
vt -0.721248 2.23068
vt -0.712498 2.23864
vt -0.712499 -1.20454
vt -2.1714 -1.20454
vt -2.16266 -1.19659
vt -2.16266 -1.19659
vt -0.721249 -1.19659
vt -0.712499 -1.20454
vt -2.1714 -1.20454
vt -2.1714 2.23864
vt -2.16265 2.23068
vt -2.16265 2.23068
vt -2.16266 -1.19659
vt -2.1714 -1.20454
vt -2.1714 2.23864
vt -2.1714 2.23931
vt -0.712498 2.23931
vt -0.712498 2.23931
vt -0.712498 2.23864
vt -2.1714 2.23864
vt -1.76563 2.23864
vt -1.76563 2.23931
vt -1.74063 2.23931
vt -1.74063 2.23931
vt -1.74063 2.23864
vt -1.76563 2.23864
vt 1.7125 2.23864
vt 1.7125 2.23931
vt 3.1714 2.23931
vt 3.1714 2.23931
vt 3.1714 2.23864
vt 1.7125 2.23864
vt 2.74063 2.23864
vt 2.74063 2.23931
vt 2.76563 2.23931
vt 2.76563 2.23931
vt 2.76563 2.23864
vt 2.74063 2.23864
vt 2.74063 -0.712498
vt 2.76563 -0.712498
vt 2.76563 -2.1714
vt 2.76563 -2.1714
vt 2.74063 -2.1714
vt 2.74063 -0.712498
vt 2.74062 -1.20454
vt 2.74063 2.23864
vt 2.76563 2.23864
vt 2.76563 2.23864
vt 2.76562 -1.20454
vt 2.74062 -1.20454
vt 2.74063 -2.1714
vt 2.74062 -0.712499
vt 2.76562 -0.712499
vt 2.76562 -0.712499
vt 2.76563 -2.1714
vt 2.74063 -2.1714
vt -1.74063 2.23864
vt -1.74063 -1.20454
vt -1.76563 -1.20454
vt -1.76563 -1.20454
vt -1.76563 2.23864
vt -1.74063 2.23864
vt 1.7125 -1.20454
vt 1.7125 2.23864
vt 3.1714 2.23864
vt 3.1714 2.23864
vt 3.1714 -1.20454
vt 1.7125 -1.20454
vt -2.16265 2.23068
vt -0.721248 2.23068
vt -0.721249 -1.19659
vt -0.721249 -1.19659
vt -2.16266 -1.19659
vt -2.16265 2.23068
vt -2.1714 2.23864
vt -0.712498 2.23864
vt -0.721248 2.23068
vt -0.721248 2.23068
vt -2.16265 2.23068
vt -2.1714 2.23864
vt -0.712498 2.23864
vt -0.712499 -1.20454
vt -0.721249 -1.19659
vt -0.721249 -1.19659
vt -0.721248 2.23068
vt -0.712498 2.23864
vt -0.712499 -1.20454
vt -2.1714 -1.20454
vt -2.16266 -1.19659
vt -2.16266 -1.19659
vt -0.721249 -1.19659
vt -0.712499 -1.20454
vt -2.1714 -1.20454
vt -2.1714 2.23864
vt -2.16265 2.23068
vt -2.16265 2.23068
vt -2.16266 -1.19659
vt -2.1714 -1.20454
vt -2.1714 2.23864
vt -2.1714 2.23931
vt -0.712498 2.23931
vt -0.712498 2.23931
vt -0.712498 2.23864
vt -2.1714 2.23864
vt -1.76563 2.23864
vt -1.76563 2.23931
vt -1.74063 2.23931
vt -1.74063 2.23931
vt -1.74063 2.23864
vt -1.76563 2.23864
vt 1.7125 2.23864
vt 1.7125 2.23931
vt 3.1714 2.23931
vt 3.1714 2.23931
vt 3.1714 2.23864
vt 1.7125 2.23864
vt 2.74063 2.23864
vt 2.74063 2.23931
vt 2.76563 2.23931
vt 2.76563 2.23931
vt 2.76563 2.23864
vt 2.74063 2.23864
vt 2.74063 -0.712498
vt 2.76563 -0.712498
vt 2.76563 -2.1714
vt 2.76563 -2.1714
vt 2.74063 -2.1714
vt 2.74063 -0.712498
vt 2.74062 -1.20454
vt 2.74063 2.23864
vt 2.76563 2.23864
vt 2.76563 2.23864
vt 2.76562 -1.20454
vt 2.74062 -1.20454
vt 2.74063 -2.1714
vt 2.74062 -0.712499
vt 2.76562 -0.712499
vt 2.76562 -0.712499
vt 2.76563 -2.1714
vt 2.74063 -2.1714
vt -1.74063 2.23864
vt -1.74063 -1.20454
vt -1.76563 -1.20454
vt -1.76563 -1.20454
vt -1.76563 2.23864
vt -1.74063 2.23864
vt 1.7125 -1.20454
vt 1.7125 2.23864
vt 3.1714 2.23864
vt 3.1714 2.23864
vt 3.1714 -1.20454
vt 1.7125 -1.20454
vt -2.16265 2.23068
vt -0.721248 2.23068
vt -0.721249 -1.19659
vt -0.721249 -1.19659
vt -2.16266 -1.19659
vt -2.16265 2.23068
vt -2.1714 2.23864
vt -0.712498 2.23864
vt -0.721248 2.23068
vt -0.721248 2.23068
vt -2.16265 2.23068
vt -2.1714 2.23864
vt -0.712498 2.23864
vt -0.712499 -1.20454
vt -0.721249 -1.19659
vt -0.721249 -1.19659
vt -0.721248 2.23068
vt -0.712498 2.23864
vt -0.712499 -1.20454
vt -2.1714 -1.20454
vt -2.16266 -1.19659
vt -2.16266 -1.19659
vt -0.721249 -1.19659
vt -0.712499 -1.20454
vt -2.1714 -1.20454
vt -2.1714 2.23864
vt -2.16265 2.23068
vt -2.16265 2.23068
vt -2.16266 -1.19659
vt -2.1714 -1.20454
vt -2.1714 2.23864
vt -2.1714 2.23931
vt -0.712498 2.23931
vt -0.712498 2.23931
vt -0.712498 2.23864
vt -2.1714 2.23864
vt -1.76563 2.23864
vt -1.76563 2.23931
vt -1.74063 2.23931
vt -1.74063 2.23931
vt -1.74063 2.23864
vt -1.76563 2.23864
vt 1.7125 2.23864
vt 1.7125 2.23931
vt 3.1714 2.23931
vt 3.1714 2.23931
vt 3.1714 2.23864
vt 1.7125 2.23864
vt 2.74063 2.23864
vt 2.74063 2.23931
vt 2.76563 2.23931
vt 2.76563 2.23931
vt 2.76563 2.23864
vt 2.74063 2.23864
vt 2.74063 -0.712498
vt 2.76563 -0.712498
vt 2.76563 -2.1714
vt 2.76563 -2.1714
vt 2.74063 -2.1714
vt 2.74063 -0.712498
vt 2.74062 -1.20454
vt 2.74063 2.23864
vt 2.76563 2.23864
vt 2.76563 2.23864
vt 2.76562 -1.20454
vt 2.74062 -1.20454
vt 2.74063 -2.1714
vt 2.74062 -0.712499
vt 2.76562 -0.712499
vt 2.76562 -0.712499
vt 2.76563 -2.1714
vt 2.74063 -2.1714
vt -1.74063 2.23864
vt -1.74063 -1.20454
vt -1.76563 -1.20454
vt -1.76563 -1.20454
vt -1.76563 2.23864
vt -1.74063 2.23864
vt 1.7125 -1.20454
vt 1.7125 2.23864
vt 3.1714 2.23864
vt 3.1714 2.23864
vt 3.1714 -1.20454
vt 1.7125 -1.20454
vt -2.16265 2.23068
vt -0.721248 2.23068
vt -0.721249 -1.19659
vt -0.721249 -1.19659
vt -2.16266 -1.19659
vt -2.16265 2.23068
vt -2.1714 2.23864
vt -0.712498 2.23864
vt -0.721248 2.23068
vt -0.721248 2.23068
vt -2.16265 2.23068
vt -2.1714 2.23864
vt -0.712498 2.23864
vt -0.712499 -1.20454
vt -0.721249 -1.19659
vt -0.721249 -1.19659
vt -0.721248 2.23068
vt -0.712498 2.23864
vt -0.712499 -1.20454
vt -2.1714 -1.20454
vt -2.16266 -1.19659
vt -2.16266 -1.19659
vt -0.721249 -1.19659
vt -0.712499 -1.20454
vt -2.1714 -1.20454
vt -2.1714 2.23864
vt -2.16265 2.23068
vt -2.16265 2.23068
vt -2.16266 -1.19659
vt -2.1714 -1.20454
vt -2.1714 2.23864
vt -2.1714 2.23931
vt -0.712498 2.23931
vt -0.712498 2.23931
vt -0.712498 2.23864
vt -2.1714 2.23864
vt -1.76563 2.23864
vt -1.76563 2.23931
vt -1.74063 2.23931
vt -1.74063 2.23931
vt -1.74063 2.23864
vt -1.76563 2.23864
vt 1.7125 2.23864
vt 1.7125 2.23931
vt 3.1714 2.23931
vt 3.1714 2.23931
vt 3.1714 2.23864
vt 1.7125 2.23864
vt 2.74063 2.23864
vt 2.74063 2.23931
vt 2.76563 2.23931
vt 2.76563 2.23931
vt 2.76563 2.23864
vt 2.74063 2.23864
vt 2.74063 -0.712498
vt 2.76563 -0.712498
vt 2.76563 -2.1714
vt 2.76563 -2.1714
vt 2.74063 -2.1714
vt 2.74063 -0.712498
vt 2.74062 -1.20454
vt 2.74063 2.23864
vt 2.76563 2.23864
vt 2.76563 2.23864
vt 2.76562 -1.20454
vt 2.74062 -1.20454
vt 2.74063 -2.1714
vt 2.74062 -0.712499
vt 2.76562 -0.712499
vt 2.76562 -0.712499
vt 2.76563 -2.1714
vt 2.74063 -2.1714
vt -1.74063 2.23864
vt -1.74063 -1.20454
vt -1.76563 -1.20454
vt -1.76563 -1.20454
vt -1.76563 2.23864
vt -1.74063 2.23864
vt 1.7125 -1.20454
vt 1.7125 2.23864
vt 3.1714 2.23864
vt 3.1714 2.23864
vt 3.1714 -1.20454
vt 1.7125 -1.20454
vt -2.16265 2.23068
vt -0.721248 2.23068
vt -0.721249 -1.19659
vt -0.721249 -1.19659
vt -2.16266 -1.19659
vt -2.16265 2.23068
vt -2.1714 2.23864
vt -0.712498 2.23864
vt -0.721248 2.23068
vt -0.721248 2.23068
vt -2.16265 2.23068
vt -2.1714 2.23864
vt -0.712498 2.23864
vt -0.712499 -1.20454
vt -0.721249 -1.19659
vt -0.721249 -1.19659
vt -0.721248 2.23068
vt -0.712498 2.23864
vt -0.712499 -1.20454
vt -2.1714 -1.20454
vt -2.16266 -1.19659
vt -2.16266 -1.19659
vt -0.721249 -1.19659
vt -0.712499 -1.20454
vt -2.1714 -1.20454
vt -2.1714 2.23864
vt -2.16265 2.23068
vt -2.16265 2.23068
vt -2.16266 -1.19659
vt -2.1714 -1.20454
vt -2.1714 2.23864
vt -2.1714 2.23931
vt -0.712498 2.23931
vt -0.712498 2.23931
vt -0.712498 2.23864
vt -2.1714 2.23864
vt -1.76563 2.23864
vt -1.76563 2.23931
vt -1.74063 2.23931
vt -1.74063 2.23931
vt -1.74063 2.23864
vt -1.76563 2.23864
vt 1.7125 2.23864
vt 1.7125 2.23931
vt 3.1714 2.23931
vt 3.1714 2.23931
vt 3.1714 2.23864
vt 1.7125 2.23864
vt 2.74063 2.23864
vt 2.74063 2.23931
vt 2.76563 2.23931
vt 2.76563 2.23931
vt 2.76563 2.23864
vt 2.74063 2.23864
vt 2.74063 -0.712498
vt 2.76563 -0.712498
vt 2.76563 -2.1714
vt 2.76563 -2.1714
vt 2.74063 -2.1714
vt 2.74063 -0.712498
vt 2.74062 -1.20454
vt 2.74063 2.23864
vt 2.76563 2.23864
vt 2.76563 2.23864
vt 2.76562 -1.20454
vt 2.74062 -1.20454
vt 2.74063 -2.1714
vt 2.74062 -0.712499
vt 2.76562 -0.712499
vt 2.76562 -0.712499
vt 2.76563 -2.1714
vt 2.74063 -2.1714
vt -1.74063 2.23864
vt -1.74063 -1.20454
vt -1.76563 -1.20454
vt -1.76563 -1.20454
vt -1.76563 2.23864
vt -1.74063 2.23864
vt 1.7125 -1.20454
vt 1.7125 2.23864
vt 3.1714 2.23864
vt 3.1714 2.23864
vt 3.1714 -1.20454
vt 1.7125 -1.20454
vt -2.16265 2.23068
vt -0.721248 2.23068
vt -0.721249 -1.19659
vt -0.721249 -1.19659
vt -2.16266 -1.19659
vt -2.16265 2.23068
vt -2.1714 2.23864
vt -0.712498 2.23864
vt -0.721248 2.23068
vt -0.721248 2.23068
vt -2.16265 2.23068
vt -2.1714 2.23864
vt -0.712498 2.23864
vt -0.712499 -1.20454
vt -0.721249 -1.19659
vt -0.721249 -1.19659
vt -0.721248 2.23068
vt -0.712498 2.23864
vt -0.712499 -1.20454
vt -2.1714 -1.20454
vt -2.16266 -1.19659
vt -2.16266 -1.19659
vt -0.721249 -1.19659
vt -0.712499 -1.20454
vt -2.1714 -1.20454
vt -2.1714 2.23864
vt -2.16265 2.23068
vt -2.16265 2.23068
vt -2.16266 -1.19659
vt -2.1714 -1.20454
vt -2.1714 2.23864
vt -2.1714 2.23931
vt -0.712498 2.23931
vt -0.712498 2.23931
vt -0.712498 2.23864
vt -2.1714 2.23864
vt -1.76563 2.23864
vt -1.76563 2.23931
vt -1.74063 2.23931
vt -1.74063 2.23931
vt -1.74063 2.23864
vt -1.76563 2.23864
vt 1.7125 2.23864
vt 1.7125 2.23931
vt 3.1714 2.23931
vt 3.1714 2.23931
vt 3.1714 2.23864
vt 1.7125 2.23864
vt 2.74063 2.23864
vt 2.74063 2.23931
vt 2.76563 2.23931
vt 2.76563 2.23931
vt 2.76563 2.23864
vt 2.74063 2.23864
vt 2.74063 -0.712498
vt 2.76563 -0.712498
vt 2.76563 -2.1714
vt 2.76563 -2.1714
vt 2.74063 -2.1714
vt 2.74063 -0.712498
vt 2.74062 -1.20454
vt 2.74063 2.23864
vt 2.76563 2.23864
vt 2.76563 2.23864
vt 2.76562 -1.20454
vt 2.74062 -1.20454
vt 2.74063 -2.1714
vt 2.74062 -0.712499
vt 2.76562 -0.712499
vt 2.76562 -0.712499
vt 2.76563 -2.1714
vt 2.74063 -2.1714
vt -1.74063 2.23864
vt -1.74063 -1.20454
vt -1.76563 -1.20454
vt -1.76563 -1.20454
vt -1.76563 2.23864
vt -1.74063 2.23864
vt 1.7125 -1.20454
vt 1.7125 2.23864
vt 3.1714 2.23864
vt 3.1714 2.23864
vt 3.1714 -1.20454
vt 1.7125 -1.20454
vt -2.16265 2.23068
vt -0.721248 2.23068
vt -0.721249 -1.19659
vt -0.721249 -1.19659
vt -2.16266 -1.19659
vt -2.16265 2.23068
vt -2.1714 2.23864
vt -0.712498 2.23864
vt -0.721248 2.23068
vt -0.721248 2.23068
vt -2.16265 2.23068
vt -2.1714 2.23864
vt -0.712498 2.23864
vt -0.712499 -1.20454
vt -0.721249 -1.19659
vt -0.721249 -1.19659
vt -0.721248 2.23068
vt -0.712498 2.23864
vt -0.712499 -1.20454
vt -2.1714 -1.20454
vt -2.16266 -1.19659
vt -2.16266 -1.19659
vt -0.721249 -1.19659
vt -0.712499 -1.20454
vt -2.1714 -1.20454
vt -2.1714 2.23864
vt -2.16265 2.23068
vt -2.16265 2.23068
vt -2.16266 -1.19659
vt -2.1714 -1.20454
vt -2.1714 2.23864
vt -2.1714 2.23931
vt -0.712498 2.23931
vt -0.712498 2.23931
vt -0.712498 2.23864
vt -2.1714 2.23864
vt -1.76563 2.23864
vt -1.76563 2.23931
vt -1.74063 2.23931
vt -1.74063 2.23931
vt -1.74063 2.23864
vt -1.76563 2.23864
vt 1.7125 2.23864
vt 1.7125 2.23931
vt 3.1714 2.23931
vt 3.1714 2.23931
vt 3.1714 2.23864
vt 1.7125 2.23864
vt 2.74063 2.23864
vt 2.74063 2.23931
vt 2.76563 2.23931
vt 2.76563 2.23931
vt 2.76563 2.23864
vt 2.74063 2.23864
vt 2.74063 -0.712498
vt 2.76563 -0.712498
vt 2.76563 -2.1714
vt 2.76563 -2.1714
vt 2.74063 -2.1714
vt 2.74063 -0.712498
vt 2.74062 -1.20454
vt 2.74063 2.23864
vt 2.76563 2.23864
vt 2.76563 2.23864
vt 2.76562 -1.20454
vt 2.74062 -1.20454
vt 2.74063 -2.1714
vt 2.74062 -0.712499
vt 2.76562 -0.712499
vt 2.76562 -0.712499
vt 2.76563 -2.1714
vt 2.74063 -2.1714
vt -1.74063 2.23864
vt -1.74063 -1.20454
vt -1.76563 -1.20454
vt -1.76563 -1.20454
vt -1.76563 2.23864
vt -1.74063 2.23864
vt 1.7125 -1.20454
vt 1.7125 2.23864
vt 3.1714 2.23864
vt 3.1714 2.23864
vt 3.1714 -1.20454
vt 1.7125 -1.20454
vt -2.16265 2.23068
vt -0.721248 2.23068
vt -0.721249 -1.19659
vt -0.721249 -1.19659
vt -2.16266 -1.19659
vt -2.16265 2.23068
vt -2.1714 2.23864
vt -0.712498 2.23864
vt -0.721248 2.23068
vt -0.721248 2.23068
vt -2.16265 2.23068
vt -2.1714 2.23864
vt -0.712498 2.23864
vt -0.712499 -1.20454
vt -0.721249 -1.19659
vt -0.721249 -1.19659
vt -0.721248 2.23068
vt -0.712498 2.23864
vt -0.712499 -1.20454
vt -2.1714 -1.20454
vt -2.16266 -1.19659
vt -2.16266 -1.19659
vt -0.721249 -1.19659
vt -0.712499 -1.20454
vt -2.1714 -1.20454
vt -2.1714 2.23864
vt -2.16265 2.23068
vt -2.16265 2.23068
vt -2.16266 -1.19659
vt -2.1714 -1.20454
vt -2.1714 2.23864
vt -2.1714 2.23931
vt -0.712498 2.23931
vt -0.712498 2.23931
vt -0.712498 2.23864
vt -2.1714 2.23864
vt -1.76563 2.23864
vt -1.76563 2.23931
vt -1.74063 2.23931
vt -1.74063 2.23931
vt -1.74063 2.23864
vt -1.76563 2.23864
vt 1.7125 2.23864
vt 1.7125 2.23931
vt 3.1714 2.23931
vt 3.1714 2.23931
vt 3.1714 2.23864
vt 1.7125 2.23864
vt 2.74063 2.23864
vt 2.74063 2.23931
vt 2.76563 2.23931
vt 2.76563 2.23931
vt 2.76563 2.23864
vt 2.74063 2.23864
vt 2.74063 -0.712498
vt 2.76563 -0.712498
vt 2.76563 -2.1714
vt 2.76563 -2.1714
vt 2.74063 -2.1714
vt 2.74063 -0.712498
vt 2.74062 -1.20454
vt 2.74063 2.23864
vt 2.76563 2.23864
vt 2.76563 2.23864
vt 2.76562 -1.20454
vt 2.74062 -1.20454
vt 2.74063 -2.1714
vt 2.74062 -0.712499
vt 2.76562 -0.712499
vt 2.76562 -0.712499
vt 2.76563 -2.1714
vt 2.74063 -2.1714
vt -1.74063 2.23864
vt -1.74063 -1.20454
vt -1.76563 -1.20454
vt -1.76563 -1.20454
vt -1.76563 2.23864
vt -1.74063 2.23864
vt 1.7125 -1.20454
vt 1.7125 2.23864
vt 3.1714 2.23864
vt 3.1714 2.23864
vt 3.1714 -1.20454
vt 1.7125 -1.20454
vt -2.16265 2.23068
vt -0.721248 2.23068
vt -0.721249 -1.19659
vt -0.721249 -1.19659
vt -2.16266 -1.19659
vt -2.16265 2.23068
vt -2.1714 2.23864
vt -0.712498 2.23864
vt -0.721248 2.23068
vt -0.721248 2.23068
vt -2.16265 2.23068
vt -2.1714 2.23864
vt -0.712498 2.23864
vt -0.712499 -1.20454
vt -0.721249 -1.19659
vt -0.721249 -1.19659
vt -0.721248 2.23068
vt -0.712498 2.23864
vt -0.712499 -1.20454
vt -2.1714 -1.20454
vt -2.16266 -1.19659
vt -2.16266 -1.19659
vt -0.721249 -1.19659
vt -0.712499 -1.20454
vt -2.1714 -1.20454
vt -2.1714 2.23864
vt -2.16265 2.23068
vt -2.16265 2.23068
vt -2.16266 -1.19659
vt -2.1714 -1.20454
vt -2.1714 2.23864
vt -2.1714 2.23931
vt -0.712498 2.23931
vt -0.712498 2.23931
vt -0.712498 2.23864
vt -2.1714 2.23864
vt -1.76563 2.23864
vt -1.76563 2.23931
vt -1.74063 2.23931
vt -1.74063 2.23931
vt -1.74063 2.23864
vt -1.76563 2.23864
vt 1.7125 2.23864
vt 1.7125 2.23931
vt 3.1714 2.23931
vt 3.1714 2.23931
vt 3.1714 2.23864
vt 1.7125 2.23864
vt 2.74063 2.23864
vt 2.74063 2.23931
vt 2.76563 2.23931
vt 2.76563 2.23931
vt 2.76563 2.23864
vt 2.74063 2.23864
vt 2.74063 -0.712498
vt 2.76563 -0.712498
vt 2.76563 -2.1714
vt 2.76563 -2.1714
vt 2.74063 -2.1714
vt 2.74063 -0.712498
vt 2.74062 -1.20454
vt 2.74063 2.23864
vt 2.76563 2.23864
vt 2.76563 2.23864
vt 2.76562 -1.20454
vt 2.74062 -1.20454
vt 2.74063 -2.1714
vt 2.74062 -0.712499
vt 2.76562 -0.712499
vt 2.76562 -0.712499
vt 2.76563 -2.1714
vt 2.74063 -2.1714
vt -1.74063 2.23864
vt -1.74063 -1.20454
vt -1.76563 -1.20454
vt -1.76563 -1.20454
vt -1.76563 2.23864
vt -1.74063 2.23864
vt 1.7125 -1.20454
vt 1.7125 2.23864
vt 3.1714 2.23864
vt 3.1714 2.23864
vt 3.1714 -1.20454
vt 1.7125 -1.20454
vt -2.16265 2.23068
vt -0.721248 2.23068
vt -0.721249 -1.19659
vt -0.721249 -1.19659
vt -2.16266 -1.19659
vt -2.16265 2.23068
vt -2.1714 2.23864
vt -0.712498 2.23864
vt -0.721248 2.23068
vt -0.721248 2.23068
vt -2.16265 2.23068
vt -2.1714 2.23864
vt -0.712498 2.23864
vt -0.712499 -1.20454
vt -0.721249 -1.19659
vt -0.721249 -1.19659
vt -0.721248 2.23068
vt -0.712498 2.23864
vt -0.712499 -1.20454
vt -2.1714 -1.20454
vt -2.16266 -1.19659
vt -2.16266 -1.19659
vt -0.721249 -1.19659
vt -0.712499 -1.20454
vt -2.1714 -1.20454
vt -2.1714 2.23864
vt -2.16265 2.23068
vt -2.16265 2.23068
vt -2.16266 -1.19659
vt -2.1714 -1.20454
vt -2.1714 2.23864
vt -2.1714 2.23931
vt -0.712498 2.23931
vt -0.712498 2.23931
vt -0.712498 2.23864
vt -2.1714 2.23864
vt -1.76563 2.23864
vt -1.76563 2.23931
vt -1.74063 2.23931
vt -1.74063 2.23931
vt -1.74063 2.23864
vt -1.76563 2.23864
vt 1.7125 2.23864
vt 1.7125 2.23931
vt 3.1714 2.23931
vt 3.1714 2.23931
vt 3.1714 2.23864
vt 1.7125 2.23864
vt 2.74063 2.23864
vt 2.74063 2.23931
vt 2.76563 2.23931
vt 2.76563 2.23931
vt 2.76563 2.23864
vt 2.74063 2.23864
vt 2.74063 -0.712498
vt 2.76563 -0.712498
vt 2.76563 -2.1714
vt 2.76563 -2.1714
vt 2.74063 -2.1714
vt 2.74063 -0.712498
vt 2.74062 -1.20454
vt 2.74063 2.23864
vt 2.76563 2.23864
vt 2.76563 2.23864
vt 2.76562 -1.20454
vt 2.74062 -1.20454
vt 2.74063 -2.1714
vt 2.74062 -0.712499
vt 2.76562 -0.712499
vt 2.76562 -0.712499
vt 2.76563 -2.1714
vt 2.74063 -2.1714
vt -1.74063 2.23864
vt -1.74063 -1.20454
vt -1.76563 -1.20454
vt -1.76563 -1.20454
vt -1.76563 2.23864
vt -1.74063 2.23864
vt 1.7125 -1.20454
vt 1.7125 2.23864
vt 3.1714 2.23864
vt 3.1714 2.23864
vt 3.1714 -1.20454
vt 1.7125 -1.20454
vt -2.16265 2.23068
vt -0.721248 2.23068
vt -0.721249 -1.19659
vt -0.721249 -1.19659
vt -2.16266 -1.19659
vt -2.16265 2.23068
vt -2.1714 2.23864
vt -0.712498 2.23864
vt -0.721248 2.23068
vt -0.721248 2.23068
vt -2.16265 2.23068
vt -2.1714 2.23864
vt -0.712498 2.23864
vt -0.712499 -1.20454
vt -0.721249 -1.19659
vt -0.721249 -1.19659
vt -0.721248 2.23068
vt -0.712498 2.23864
vt -0.712499 -1.20454
vt -2.1714 -1.20454
vt -2.16266 -1.19659
vt -2.16266 -1.19659
vt -0.721249 -1.19659
vt -0.712499 -1.20454
vt -2.1714 -1.20454
vt -2.1714 2.23864
vt -2.16265 2.23068
vt -2.16265 2.23068
vt -2.16266 -1.19659
vt -2.1714 -1.20454
vt -2.1714 2.23864
vt -2.1714 2.23931
vt -0.712498 2.23931
vt -0.712498 2.23931
vt -0.712498 2.23864
vt -2.1714 2.23864
vt -1.76563 2.23864
vt -1.76563 2.23931
vt -1.74063 2.23931
vt -1.74063 2.23931
vt -1.74063 2.23864
vt -1.76563 2.23864
vt 1.7125 2.23864
vt 1.7125 2.23931
vt 3.1714 2.23931
vt 3.1714 2.23931
vt 3.1714 2.23864
vt 1.7125 2.23864
vt 2.74063 2.23864
vt 2.74063 2.23931
vt 2.76563 2.23931
vt 2.76563 2.23931
vt 2.76563 2.23864
vt 2.74063 2.23864
vt 2.74063 -0.712498
vt 2.76563 -0.712498
vt 2.76563 -2.1714
vt 2.76563 -2.1714
vt 2.74063 -2.1714
vt 2.74063 -0.712498
vt 2.74062 -1.20454
vt 2.74063 2.23864
vt 2.76563 2.23864
vt 2.76563 2.23864
vt 2.76562 -1.20454
vt 2.74062 -1.20454
vt 2.74063 -2.1714
vt 2.74062 -0.712499
vt 2.76562 -0.712499
vt 2.76562 -0.712499
vt 2.76563 -2.1714
vt 2.74063 -2.1714
vt -1.74063 2.23864
vt -1.74063 -1.20454
vt -1.76563 -1.20454
vt -1.76563 -1.20454
vt -1.76563 2.23864
vt -1.74063 2.23864
vt 1.7125 -1.20454
vt 1.7125 2.23864
vt 3.1714 2.23864
vt 3.1714 2.23864
vt 3.1714 -1.20454
vt 1.7125 -1.20454
vt -2.16265 2.23068
vt -0.721248 2.23068
vt -0.721249 -1.19659
vt -0.721249 -1.19659
vt -2.16266 -1.19659
vt -2.16265 2.23068
vt -2.1714 2.23864
vt -0.712498 2.23864
vt -0.721248 2.23068
vt -0.721248 2.23068
vt -2.16265 2.23068
vt -2.1714 2.23864
vt -0.712498 2.23864
vt -0.712499 -1.20454
vt -0.721249 -1.19659
vt -0.721249 -1.19659
vt -0.721248 2.23068
vt -0.712498 2.23864
vt -0.712499 -1.20454
vt -2.1714 -1.20454
vt -2.16266 -1.19659
vt -2.16266 -1.19659
vt -0.721249 -1.19659
vt -0.712499 -1.20454
vt -2.1714 -1.20454
vt -2.1714 2.23864
vt -2.16265 2.23068
vt -2.16265 2.23068
vt -2.16266 -1.19659
vt -2.1714 -1.20454
vt -2.1714 2.23864
vt -2.1714 2.23931
vt -0.712498 2.23931
vt -0.712498 2.23931
vt -0.712498 2.23864
vt -2.1714 2.23864
vt -1.76563 2.23864
vt -1.76563 2.23931
vt -1.74063 2.23931
vt -1.74063 2.23931
vt -1.74063 2.23864
vt -1.76563 2.23864
vt 1.7125 2.23864
vt 1.7125 2.23931
vt 3.1714 2.23931
vt 3.1714 2.23931
vt 3.1714 2.23864
vt 1.7125 2.23864
vt 2.74063 2.23864
vt 2.74063 2.23931
vt 2.76563 2.23931
vt 2.76563 2.23931
vt 2.76563 2.23864
vt 2.74063 2.23864
vt 2.74063 -0.712498
vt 2.76563 -0.712498
vt 2.76563 -2.1714
vt 2.76563 -2.1714
vt 2.74063 -2.1714
vt 2.74063 -0.712498
vt 2.74062 -1.20454
vt 2.74063 2.23864
vt 2.76563 2.23864
vt 2.76563 2.23864
vt 2.76562 -1.20454
vt 2.74062 -1.20454
vt 2.74063 -2.1714
vt 2.74062 -0.712499
vt 2.76562 -0.712499
vt 2.76562 -0.712499
vt 2.76563 -2.1714
vt 2.74063 -2.1714
vt -1.74063 2.23864
vt -1.74063 -1.20454
vt -1.76563 -1.20454
vt -1.76563 -1.20454
vt -1.76563 2.23864
vt -1.74063 2.23864
vt 1.7125 -1.20454
vt 1.7125 2.23864
vt 3.1714 2.23864
vt 3.1714 2.23864
vt 3.1714 -1.20454
vt 1.7125 -1.20454
vt -2.16265 2.23068
vt -0.721248 2.23068
vt -0.721249 -1.19659
vt -0.721249 -1.19659
vt -2.16266 -1.19659
vt -2.16265 2.23068
vt -2.1714 2.23864
vt -0.712498 2.23864
vt -0.721248 2.23068
vt -0.721248 2.23068
vt -2.16265 2.23068
vt -2.1714 2.23864
vt -0.712498 2.23864
vt -0.712499 -1.20454
vt -0.721249 -1.19659
vt -0.721249 -1.19659
vt -0.721248 2.23068
vt -0.712498 2.23864
vt -0.712499 -1.20454
vt -2.1714 -1.20454
vt -2.16266 -1.19659
vt -2.16266 -1.19659
vt -0.721249 -1.19659
vt -0.712499 -1.20454
vt -2.1714 -1.20454
vt -2.1714 2.23864
vt -2.16265 2.23068
vt -2.16265 2.23068
vt -2.16266 -1.19659
vt -2.1714 -1.20454
vt -2.1714 2.23864
vt -2.1714 2.23931
vt -0.712498 2.23931
vt -0.712498 2.23931
vt -0.712498 2.23864
vt -2.1714 2.23864
vt -1.76563 2.23864
vt -1.76563 2.23931
vt -1.74063 2.23931
vt -1.74063 2.23931
vt -1.74063 2.23864
vt -1.76563 2.23864
vt 1.7125 2.23864
vt 1.7125 2.23931
vt 3.1714 2.23931
vt 3.1714 2.23931
vt 3.1714 2.23864
vt 1.7125 2.23864
vt 2.74063 2.23864
vt 2.74063 2.23931
vt 2.76563 2.23931
vt 2.76563 2.23931
vt 2.76563 2.23864
vt 2.74063 2.23864
vt 2.74063 -0.712498
vt 2.76563 -0.712498
vt 2.76563 -2.1714
vt 2.76563 -2.1714
vt 2.74063 -2.1714
vt 2.74063 -0.712498
vt 2.74062 -1.20454
vt 2.74063 2.23864
vt 2.76563 2.23864
vt 2.76563 2.23864
vt 2.76562 -1.20454
vt 2.74062 -1.20454
vt 2.74063 -2.1714
vt 2.74062 -0.712499
vt 2.76562 -0.712499
vt 2.76562 -0.712499
vt 2.76563 -2.1714
vt 2.74063 -2.1714
vt -1.74063 2.23864
vt -1.74063 -1.20454
vt -1.76563 -1.20454
vt -1.76563 -1.20454
vt -1.76563 2.23864
vt -1.74063 2.23864
vt 1.7125 -1.20454
vt 1.7125 2.23864
vt 3.1714 2.23864
vt 3.1714 2.23864
vt 3.1714 -1.20454
vt 1.7125 -1.20454
vt -2.16265 2.23068
vt -0.721248 2.23068
vt -0.721249 -1.19659
vt -0.721249 -1.19659
vt -2.16266 -1.19659
vt -2.16265 2.23068
vt -2.1714 2.23864
vt -0.712498 2.23864
vt -0.721248 2.23068
vt -0.721248 2.23068
vt -2.16265 2.23068
vt -2.1714 2.23864
vt -0.712498 2.23864
vt -0.712499 -1.20454
vt -0.721249 -1.19659
vt -0.721249 -1.19659
vt -0.721248 2.23068
vt -0.712498 2.23864
vt -0.712499 -1.20454
vt -2.1714 -1.20454
vt -2.16266 -1.19659
vt -2.16266 -1.19659
vt -0.721249 -1.19659
vt -0.712499 -1.20454
vt -2.1714 -1.20454
vt -2.1714 2.23864
vt -2.16265 2.23068
vt -2.16265 2.23068
vt -2.16266 -1.19659
vt -2.1714 -1.20454
vt -2.1714 2.23864
vt -2.1714 2.23931
vt -0.712498 2.23931
vt -0.712498 2.23931
vt -0.712498 2.23864
vt -2.1714 2.23864
vt -1.76563 2.23864
vt -1.76563 2.23931
vt -1.74063 2.23931
vt -1.74063 2.23931
vt -1.74063 2.23864
vt -1.76563 2.23864
vt 1.7125 2.23864
vt 1.7125 2.23931
vt 3.1714 2.23931
vt 3.1714 2.23931
vt 3.1714 2.23864
vt 1.7125 2.23864
vt 2.74063 2.23864
vt 2.74063 2.23931
vt 2.76563 2.23931
vt 2.76563 2.23931
vt 2.76563 2.23864
vt 2.74063 2.23864
vt 2.74063 -0.712498
vt 2.76563 -0.712498
vt 2.76563 -2.1714
vt 2.76563 -2.1714
vt 2.74063 -2.1714
vt 2.74063 -0.712498
vt 2.74062 -1.20454
vt 2.74063 2.23864
vt 2.76563 2.23864
vt 2.76563 2.23864
vt 2.76562 -1.20454
vt 2.74062 -1.20454
vt 2.74063 -2.1714
vt 2.74062 -0.712499
vt 2.76562 -0.712499
vt 2.76562 -0.712499
vt 2.76563 -2.1714
vt 2.74063 -2.1714
vt -1.74063 2.23864
vt -1.74063 -1.20454
vt -1.76563 -1.20454
vt -1.76563 -1.20454
vt -1.76563 2.23864
vt -1.74063 2.23864
vt 1.7125 -1.20454
vt 1.7125 2.23864
vt 3.1714 2.23864
vt 3.1714 2.23864
vt 3.1714 -1.20454
vt 1.7125 -1.20454
vt -2.16265 2.23068
vt -0.721248 2.23068
vt -0.721249 -1.19659
vt -0.721249 -1.19659
vt -2.16266 -1.19659
vt -2.16265 2.23068
vt -2.1714 2.23864
vt -0.712498 2.23864
vt -0.721248 2.23068
vt -0.721248 2.23068
vt -2.16265 2.23068
vt -2.1714 2.23864
vt -0.712498 2.23864
vt -0.712499 -1.20454
vt -0.721249 -1.19659
vt -0.721249 -1.19659
vt -0.721248 2.23068
vt -0.712498 2.23864
vt -0.712499 -1.20454
vt -2.1714 -1.20454
vt -2.16266 -1.19659
vt -2.16266 -1.19659
vt -0.721249 -1.19659
vt -0.712499 -1.20454
vt -2.1714 -1.20454
vt -2.1714 2.23864
vt -2.16265 2.23068
vt -2.16265 2.23068
vt -2.16266 -1.19659
vt -2.1714 -1.20454
vt -2.1714 2.23864
vt -2.1714 2.23931
vt -0.712498 2.23931
vt -0.712498 2.23931
vt -0.712498 2.23864
vt -2.1714 2.23864
vt -1.76563 2.23864
vt -1.76563 2.23931
vt -1.74063 2.23931
vt -1.74063 2.23931
vt -1.74063 2.23864
vt -1.76563 2.23864
vt 1.7125 2.23864
vt 1.7125 2.23931
vt 3.1714 2.23931
vt 3.1714 2.23931
vt 3.1714 2.23864
vt 1.7125 2.23864
vt 2.74063 2.23864
vt 2.74063 2.23931
vt 2.76563 2.23931
vt 2.76563 2.23931
vt 2.76563 2.23864
vt 2.74063 2.23864
f 15/1 14/2 13/3
f 13/4 16/5 15/6
f 7/7 6/8 2/9
f 2/10 3/11 7/12
f 8/13 7/14 3/15
f 3/16 4/17 8/18
f 5/19 8/20 4/21
f 4/22 1/23 5/24
f 3/25 2/26 1/27
f 1/28 4/29 3/30
f 9/31 10/32 11/33
f 11/34 12/35 9/36
f 5/37 6/38 10/39
f 10/40 9/41 5/42
f 6/43 7/44 11/45
f 11/46 10/47 6/48
f 7/49 8/50 12/51
f 12/52 11/53 7/54
f 8/55 5/56 9/57
f 9/58 12/59 8/60
f 1/61 13/62 14/63
f 14/64 2/65 1/66
f 2/67 14/68 15/69
f 15/70 6/71 2/72
f 6/73 15/74 16/75
f 16/76 5/77 6/78
f 5/79 16/80 13/81
f 13/82 1/83 5/84
f 31/85 30/86 29/87
f 29/88 32/89 31/90
f 23/91 22/92 18/93
f 18/94 19/95 23/96
f 24/97 23/98 19/99
f 19/100 20/101 24/102
f 21/103 24/104 20/105
f 20/106 17/107 21/108
f 19/109 18/110 17/111
f 17/112 20/113 19/114
f 25/115 26/116 27/117
f 27/118 28/119 25/120
f 21/121 22/122 26/123
f 26/124 25/125 21/126
f 22/127 23/128 27/129
f 27/130 26/131 22/132
f 23/133 24/134 28/135
f 28/136 27/137 23/138
f 24/139 21/140 25/141
f 25/142 28/143 24/144
f 17/145 29/146 30/147
f 30/148 18/149 17/150
f 18/151 30/152 31/153
f 31/154 22/155 18/156
f 22/157 31/158 32/159
f 32/160 21/161 22/162
f 21/163 32/164 29/165
f 29/166 17/167 21/168
f 47/169 46/170 45/171
f 45/172 48/173 47/174
f 39/175 38/176 34/177
f 34/178 35/179 39/180
f 40/181 39/182 35/183
f 35/184 36/185 40/186
f 37/187 40/188 36/189
f 36/190 33/191 37/192
f 35/193 34/194 33/195
f 33/196 36/197 35/198
f 41/199 42/200 43/201
f 43/202 44/203 41/204
f 37/205 38/206 42/207
f 42/208 41/209 37/210
f 38/211 39/212 43/213
f 43/214 42/215 38/216
f 39/217 40/218 44/219
f 44/220 43/221 39/222
f 40/223 37/224 41/225
f 41/226 44/227 40/228
f 33/229 45/230 46/231
f 46/232 34/233 33/234
f 34/235 46/236 47/237
f 47/238 38/239 34/240
f 38/241 47/242 48/243
f 48/244 37/245 38/246
f 37/247 48/248 45/249
f 45/250 33/251 37/252
f 63/253 62/254 61/255
f 61/256 64/257 63/258
f 55/259 54/260 50/261
f 50/262 51/263 55/264
f 56/265 55/266 51/267
f 51/268 52/269 56/270
f 53/271 56/272 52/273
f 52/274 49/275 53/276
f 51/277 50/278 49/279
f 49/280 52/281 51/282
f 57/283 58/284 59/285
f 59/286 60/287 57/288
f 53/289 54/290 58/291
f 58/292 57/293 53/294
f 54/295 55/296 59/297
f 59/298 58/299 54/300
f 55/301 56/302 60/303
f 60/304 59/305 55/306
f 56/307 53/308 57/309
f 57/310 60/311 56/312
f 49/313 61/314 62/315
f 62/316 50/317 49/318
f 50/319 62/320 63/321
f 63/322 54/323 50/324
f 54/325 63/326 64/327
f 64/328 53/329 54/330
f 53/331 64/332 61/333
f 61/334 49/335 53/336
f 79/337 78/338 77/339
f 77/340 80/341 79/342
f 71/343 70/344 66/345
f 66/346 67/347 71/348
f 72/349 71/350 67/351
f 67/352 68/353 72/354
f 69/355 72/356 68/357
f 68/358 65/359 69/360
f 67/361 66/362 65/363
f 65/364 68/365 67/366
f 73/367 74/368 75/369
f 75/370 76/371 73/372
f 69/373 70/374 74/375
f 74/376 73/377 69/378
f 70/379 71/380 75/381
f 75/382 74/383 70/384
f 71/385 72/386 76/387
f 76/388 75/389 71/390
f 72/391 69/392 73/393
f 73/394 76/395 72/396
f 65/397 77/398 78/399
f 78/400 66/401 65/402
f 66/403 78/404 79/405
f 79/406 70/407 66/408
f 70/409 79/410 80/411
f 80/412 69/413 70/414
f 69/415 80/416 77/417
f 77/418 65/419 69/420
f 95/421 94/422 93/423
f 93/424 96/425 95/426
f 87/427 86/428 82/429
f 82/430 83/431 87/432
f 88/433 87/434 83/435
f 83/436 84/437 88/438
f 85/439 88/440 84/441
f 84/442 81/443 85/444
f 83/445 82/446 81/447
f 81/448 84/449 83/450
f 89/451 90/452 91/453
f 91/454 92/455 89/456
f 85/457 86/458 90/459
f 90/460 89/461 85/462
f 86/463 87/464 91/465
f 91/466 90/467 86/468
f 87/469 88/470 92/471
f 92/472 91/473 87/474
f 88/475 85/476 89/477
f 89/478 92/479 88/480
f 81/481 93/482 94/483
f 94/484 82/485 81/486
f 82/487 94/488 95/489
f 95/490 86/491 82/492
f 86/493 95/494 96/495
f 96/496 85/497 86/498
f 85/499 96/500 93/501
f 93/502 81/503 85/504
f 111/505 110/506 109/507
f 109/508 112/509 111/510
f 103/511 102/512 98/513
f 98/514 99/515 103/516
f 104/517 103/518 99/519
f 99/520 100/521 104/522
f 101/523 104/524 100/525
f 100/526 97/527 101/528
f 99/529 98/530 97/531
f 97/532 100/533 99/534
f 105/535 106/536 107/537
f 107/538 108/539 105/540
f 101/541 102/542 106/543
f 106/544 105/545 101/546
f 102/547 103/548 107/549
f 107/550 106/551 102/552
f 103/553 104/554 108/555
f 108/556 107/557 103/558
f 104/559 101/560 105/561
f 105/562 108/563 104/564
f 97/565 109/566 110/567
f 110/568 98/569 97/570
f 98/571 110/572 111/573
f 111/574 102/575 98/576
f 102/577 111/578 112/579
f 112/580 101/581 102/582
f 101/583 112/584 109/585
f 109/586 97/587 101/588
f 127/589 126/590 125/591
f 125/592 128/593 127/594
f 119/595 118/596 114/597
f 114/598 115/599 119/600
f 120/601 119/602 115/603
f 115/604 116/605 120/606
f 117/607 120/608 116/609
f 116/610 113/611 117/612
f 115/613 114/614 113/615
f 113/616 116/617 115/618
f 121/619 122/620 123/621
f 123/622 124/623 121/624
f 117/625 118/626 122/627
f 122/628 121/629 117/630
f 118/631 119/632 123/633
f 123/634 122/635 118/636
f 119/637 120/638 124/639
f 124/640 123/641 119/642
f 120/643 117/644 121/645
f 121/646 124/647 120/648
f 113/649 125/650 126/651
f 126/652 114/653 113/654
f 114/655 126/656 127/657
f 127/658 118/659 114/660
f 118/661 127/662 128/663
f 128/664 117/665 118/666
f 117/667 128/668 125/669
f 125/670 113/671 117/672
f 143/673 142/674 141/675
f 141/676 144/677 143/678
f 135/679 134/680 130/681
f 130/682 131/683 135/684
f 136/685 135/686 131/687
f 131/688 132/689 136/690
f 133/691 136/692 132/693
f 132/694 129/695 133/696
f 131/697 130/698 129/699
f 129/700 132/701 131/702
f 137/703 138/704 139/705
f 139/706 140/707 137/708
f 133/709 134/710 138/711
f 138/712 137/713 133/714
f 134/715 135/716 139/717
f 139/718 138/719 134/720
f 135/721 136/722 140/723
f 140/724 139/725 135/726
f 136/727 133/728 137/729
f 137/730 140/731 136/732
f 129/733 141/734 142/735
f 142/736 130/737 129/738
f 130/739 142/740 143/741
f 143/742 134/743 130/744
f 134/745 143/746 144/747
f 144/748 133/749 134/750
f 133/751 144/752 141/753
f 141/754 129/755 133/756
f 159/757 158/758 157/759
f 157/760 160/761 159/762
f 151/763 150/764 146/765
f 146/766 147/767 151/768
f 152/769 151/770 147/771
f 147/772 148/773 152/774
f 149/775 152/776 148/777
f 148/778 145/779 149/780
f 147/781 146/782 145/783
f 145/784 148/785 147/786
f 153/787 154/788 155/789
f 155/790 156/791 153/792
f 149/793 150/794 154/795
f 154/796 153/797 149/798
f 150/799 151/800 155/801
f 155/802 154/803 150/804
f 151/805 152/806 156/807
f 156/808 155/809 151/810
f 152/811 149/812 153/813
f 153/814 156/815 152/816
f 145/817 157/818 158/819
f 158/820 146/821 145/822
f 146/823 158/824 159/825
f 159/826 150/827 146/828
f 150/829 159/830 160/831
f 160/832 149/833 150/834
f 149/835 160/836 157/837
f 157/838 145/839 149/840
f 175/841 174/842 173/843
f 173/844 176/845 175/846
f 167/847 166/848 162/849
f 162/850 163/851 167/852
f 168/853 167/854 163/855
f 163/856 164/857 168/858
f 165/859 168/860 164/861
f 164/862 161/863 165/864
f 163/865 162/866 161/867
f 161/868 164/869 163/870
f 169/871 170/872 171/873
f 171/874 172/875 169/876
f 165/877 166/878 170/879
f 170/880 169/881 165/882
f 166/883 167/884 171/885
f 171/886 170/887 166/888
f 167/889 168/890 172/891
f 172/892 171/893 167/894
f 168/895 165/896 169/897
f 169/898 172/899 168/900
f 161/901 173/902 174/903
f 174/904 162/905 161/906
f 162/907 174/908 175/909
f 175/910 166/911 162/912
f 166/913 175/914 176/915
f 176/916 165/917 166/918
f 165/919 176/920 173/921
f 173/922 161/923 165/924
f 191/925 190/926 189/927
f 189/928 192/929 191/930
f 183/931 182/932 178/933
f 178/934 179/935 183/936
f 184/937 183/938 179/939
f 179/940 180/941 184/942
f 181/943 184/944 180/945
f 180/946 177/947 181/948
f 179/949 178/950 177/951
f 177/952 180/953 179/954
f 185/955 186/956 187/957
f 187/958 188/959 185/960
f 181/961 182/962 186/963
f 186/964 185/965 181/966
f 182/967 183/968 187/969
f 187/970 186/971 182/972
f 183/973 184/974 188/975
f 188/976 187/977 183/978
f 184/979 181/980 185/981
f 185/982 188/983 184/984
f 177/985 189/986 190/987
f 190/988 178/989 177/990
f 178/991 190/992 191/993
f 191/994 182/995 178/996
f 182/997 191/998 192/999
f 192/1000 181/1001 182/1002
f 181/1003 192/1004 189/1005
f 189/1006 177/1007 181/1008
f 207/1009 206/1010 205/1011
f 205/1012 208/1013 207/1014
f 199/1015 198/1016 194/1017
f 194/1018 195/1019 199/1020
f 200/1021 199/1022 195/1023
f 195/1024 196/1025 200/1026
f 197/1027 200/1028 196/1029
f 196/1030 193/1031 197/1032
f 195/1033 194/1034 193/1035
f 193/1036 196/1037 195/1038
f 201/1039 202/1040 203/1041
f 203/1042 204/1043 201/1044
f 197/1045 198/1046 202/1047
f 202/1048 201/1049 197/1050
f 198/1051 199/1052 203/1053
f 203/1054 202/1055 198/1056
f 199/1057 200/1058 204/1059
f 204/1060 203/1061 199/1062
f 200/1063 197/1064 201/1065
f 201/1066 204/1067 200/1068
f 193/1069 205/1070 206/1071
f 206/1072 194/1073 193/1074
f 194/1075 206/1076 207/1077
f 207/1078 198/1079 194/1080
f 198/1081 207/1082 208/1083
f 208/1084 197/1085 198/1086
f 197/1087 208/1088 205/1089
f 205/1090 193/1091 197/1092
f 223/1093 222/1094 221/1095
f 221/1096 224/1097 223/1098
f 215/1099 214/1100 210/1101
f 210/1102 211/1103 215/1104
f 216/1105 215/1106 211/1107
f 211/1108 212/1109 216/1110
f 213/1111 216/1112 212/1113
f 212/1114 209/1115 213/1116
f 211/1117 210/1118 209/1119
f 209/1120 212/1121 211/1122
f 217/1123 218/1124 219/1125
f 219/1126 220/1127 217/1128
f 213/1129 214/1130 218/1131
f 218/1132 217/1133 213/1134
f 214/1135 215/1136 219/1137
f 219/1138 218/1139 214/1140
f 215/1141 216/1142 220/1143
f 220/1144 219/1145 215/1146
f 216/1147 213/1148 217/1149
f 217/1150 220/1151 216/1152
f 209/1153 221/1154 222/1155
f 222/1156 210/1157 209/1158
f 210/1159 222/1160 223/1161
f 223/1162 214/1163 210/1164
f 214/1165 223/1166 224/1167
f 224/1168 213/1169 214/1170
f 213/1171 224/1172 221/1173
f 221/1174 209/1175 213/1176
f 239/1177 238/1178 237/1179
f 237/1180 240/1181 239/1182
f 231/1183 230/1184 226/1185
f 226/1186 227/1187 231/1188
f 232/1189 231/1190 227/1191
f 227/1192 228/1193 232/1194
f 229/1195 232/1196 228/1197
f 228/1198 225/1199 229/1200
f 227/1201 226/1202 225/1203
f 225/1204 228/1205 227/1206
f 233/1207 234/1208 235/1209
f 235/1210 236/1211 233/1212
f 229/1213 230/1214 234/1215
f 234/1216 233/1217 229/1218
f 230/1219 231/1220 235/1221
f 235/1222 234/1223 230/1224
f 231/1225 232/1226 236/1227
f 236/1228 235/1229 231/1230
f 232/1231 229/1232 233/1233
f 233/1234 236/1235 232/1236
f 225/1237 237/1238 238/1239
f 238/1240 226/1241 225/1242
f 226/1243 238/1244 239/1245
f 239/1246 230/1247 226/1248
f 230/1249 239/1250 240/1251
f 240/1252 229/1253 230/1254
f 229/1255 240/1256 237/1257
f 237/1258 225/1259 229/1260
f 255/1261 254/1262 253/1263
f 253/1264 256/1265 255/1266
f 247/1267 246/1268 242/1269
f 242/1270 243/1271 247/1272
f 248/1273 247/1274 243/1275
f 243/1276 244/1277 248/1278
f 245/1279 248/1280 244/1281
f 244/1282 241/1283 245/1284
f 243/1285 242/1286 241/1287
f 241/1288 244/1289 243/1290
f 249/1291 250/1292 251/1293
f 251/1294 252/1295 249/1296
f 245/1297 246/1298 250/1299
f 250/1300 249/1301 245/1302
f 246/1303 247/1304 251/1305
f 251/1306 250/1307 246/1308
f 247/1309 248/1310 252/1311
f 252/1312 251/1313 247/1314
f 248/1315 245/1316 249/1317
f 249/1318 252/1319 248/1320
f 241/1321 253/1322 254/1323
f 254/1324 242/1325 241/1326
f 242/1327 254/1328 255/1329
f 255/1330 246/1331 242/1332
f 246/1333 255/1334 256/1335
f 256/1336 245/1337 246/1338
f 245/1339 256/1340 253/1341
f 253/1342 241/1343 245/1344
f 271/1345 270/1346 269/1347
f 269/1348 272/1349 271/1350
f 263/1351 262/1352 258/1353
f 258/1354 259/1355 263/1356
f 264/1357 263/1358 259/1359
f 259/1360 260/1361 264/1362
f 261/1363 264/1364 260/1365
f 260/1366 257/1367 261/1368
f 259/1369 258/1370 257/1371
f 257/1372 260/1373 259/1374
f 265/1375 266/1376 267/1377
f 267/1378 268/1379 265/1380
f 261/1381 262/1382 266/1383
f 266/1384 265/1385 261/1386
f 262/1387 263/1388 267/1389
f 267/1390 266/1391 262/1392
f 263/1393 264/1394 268/1395
f 268/1396 267/1397 263/1398
f 264/1399 261/1400 265/1401
f 265/1402 268/1403 264/1404
f 257/1405 269/1406 270/1407
f 270/1408 258/1409 257/1410
f 258/1411 270/1412 271/1413
f 271/1414 262/1415 258/1416
f 262/1417 271/1418 272/1419
f 272/1420 261/1421 262/1422
f 261/1423 272/1424 269/1425
f 269/1426 257/1427 261/1428
f 287/1429 286/1430 285/1431
f 285/1432 288/1433 287/1434
f 279/1435 278/1436 274/1437
f 274/1438 275/1439 279/1440
f 280/1441 279/1442 275/1443
f 275/1444 276/1445 280/1446
f 277/1447 280/1448 276/1449
f 276/1450 273/1451 277/1452
f 275/1453 274/1454 273/1455
f 273/1456 276/1457 275/1458
f 281/1459 282/1460 283/1461
f 283/1462 284/1463 281/1464
f 277/1465 278/1466 282/1467
f 282/1468 281/1469 277/1470
f 278/1471 279/1472 283/1473
f 283/1474 282/1475 278/1476
f 279/1477 280/1478 284/1479
f 284/1480 283/1481 279/1482
f 280/1483 277/1484 281/1485
f 281/1486 284/1487 280/1488
f 273/1489 285/1490 286/1491
f 286/1492 274/1493 273/1494
f 274/1495 286/1496 287/1497
f 287/1498 278/1499 274/1500
f 278/1501 287/1502 288/1503
f 288/1504 277/1505 278/1506
f 277/1507 288/1508 285/1509
f 285/1510 273/1511 277/1512
f 303/1513 302/1514 301/1515
f 301/1516 304/1517 303/1518
f 295/1519 294/1520 290/1521
f 290/1522 291/1523 295/1524
f 296/1525 295/1526 291/1527
f 291/1528 292/1529 296/1530
f 293/1531 296/1532 292/1533
f 292/1534 289/1535 293/1536
f 291/1537 290/1538 289/1539
f 289/1540 292/1541 291/1542
f 297/1543 298/1544 299/1545
f 299/1546 300/1547 297/1548
f 293/1549 294/1550 298/1551
f 298/1552 297/1553 293/1554
f 294/1555 295/1556 299/1557
f 299/1558 298/1559 294/1560
f 295/1561 296/1562 300/1563
f 300/1564 299/1565 295/1566
f 296/1567 293/1568 297/1569
f 297/1570 300/1571 296/1572
f 289/1573 301/1574 302/1575
f 302/1576 290/1577 289/1578
f 290/1579 302/1580 303/1581
f 303/1582 294/1583 290/1584
f 294/1585 303/1586 304/1587
f 304/1588 293/1589 294/1590
f 293/1591 304/1592 301/1593
f 301/1594 289/1595 293/1596
