# Exported from robot_room_v2.usdc, material /root/_materials/___256
v 9.1242 2.46267 1.529
v 9.1242 2.09267 1.529
v 8.6242 2.09267 1.529
v 8.6242 1.85267 1.529
v 9.1242 1.85267 1.529
v 9.1242 -2.04807 1.529
v 2.69152 -2.04807 1.529
v 2.69152 -2.28807 1.529
v 9.3642 -2.28807 1.529
v 9.3642 2.46267 1.529
v 9.1242 2.46267 1.549
v 9.1242 2.09267 1.549
v 8.6242 2.09267 1.549
v 8.6242 1.85267 1.549
v 9.1242 1.85267 1.549
v 9.1242 -2.04807 1.549
v 2.69152 -2.04807 1.549
v 2.69152 -2.28807 1.549
v 9.3642 -2.28807 1.549
v 9.3642 2.46267 1.549
v -2.30844 3.72267 1.529
v -2.06844 3.72267 1.529
v -2.06844 5.29267 1.529
v 3.63406 5.29267 1.529
v 3.63406 4.2625 1.529
v 3.87406 4.2625 1.529
v 3.87406 5.29267 1.529
v 9.12424 5.29267 1.529
v 9.12424 3.66267 1.529
v 9.36424 3.66267 1.529
v 9.36424 5.53267 1.529
v -2.30844 5.53267 1.529
v -2.30844 3.72267 1.549
v -2.06844 3.72267 1.549
v -2.06844 5.29267 1.549
v 3.63406 5.29267 1.549
v 3.63406 4.2625 1.549
v 3.87406 4.2625 1.549
v 3.87406 5.29267 1.549
v 9.12424 5.29267 1.549
v 9.12424 3.66267 1.549
v 9.36424 3.66267 1.549
v 9.36424 5.53267 1.549
v -2.30844 5.53267 1.549
v 1.07153 -1.5377 1.529
v 1.07153 -2.04807 1.529
v 0.771533 -2.04807 1.529
v 0.771533 -2.28807 1.529
v 1.49153 -2.28807 1.529
v 1.49153 -2.04807 1.529
v 1.19153 -2.04807 1.529
v 1.19153 -1.5377 1.529
v 1.07153 -1.5377 1.549
v 1.07153 -2.04807 1.549
v 0.771533 -2.04807 1.549
v 0.771533 -2.28807 1.549
v 1.49153 -2.28807 1.549
v 1.49153 -2.04807 1.549
v 1.19153 -2.04807 1.549
v 1.19153 -1.5377 1.549
v -2.06847 2.52267 1.529
v -2.30847 2.52267 1.529
v -2.30847 -2.28807 1.529
v -0.428467 -2.28807 1.529
v -0.428467 -2.04807 1.529
v -2.06847 -2.04807 1.529
v -2.06847 1.85267 1.529
v -1.09847 1.85267 1.529
v -1.09847 2.09267 1.529
v -2.06847 2.09267 1.529
v -2.06847 2.52267 1.549
v -2.30847 2.52267 1.549
v -2.30847 -2.28807 1.549
v -0.428467 -2.28807 1.549
v -0.428467 -2.04807 1.549
v -2.06847 -2.04807 1.549
v -2.06847 1.85267 1.549
v -1.09847 1.85267 1.549
v -1.09847 2.09267 1.549
v -2.06847 2.09267 1.549
vt -2.39486 0.488889
vt -1.98375 0.488889
vt -1.98375 0.511111
vt -2.39486 0.488889
vt -1.98375 0.511111
vt -2.39486 0.511111
vt -1.5363 0.488889
vt -0.980747 0.488889
vt -0.980747 0.511111
vt -1.5363 0.488889
vt -0.980747 0.511111
vt -1.5363 0.511111
vt -1.98375 0.488889
vt -1.71708 0.488889
vt -1.71708 0.511111
vt -1.98375 0.488889
vt -1.71708 0.511111
vt -1.98375 0.511111
vt 1.98075 0.488889
vt 2.5363 0.488889
vt 2.5363 0.511111
vt 1.98075 0.488889
vt 2.5363 0.511111
vt 1.98075 0.511111
vt -1.71708 0.488889
vt 2.61708 0.488889
vt 2.61708 0.511111
vt -1.71708 0.488889
vt 2.61708 0.511111
vt -1.71708 0.511111
vt -1.5363 0.488889
vt 5.61112 0.488889
vt 5.61112 0.511111
vt -1.5363 0.488889
vt 5.61112 0.511111
vt -1.5363 0.511111
vt 2.61707 0.488889
vt 2.88374 0.488889
vt 2.88374 0.511111
vt 2.61707 0.488889
vt 2.88374 0.511111
vt 2.61707 0.511111
vt -4.61112 0.488889
vt 2.80297 0.488889
vt 2.80297 0.511111
vt -4.61112 0.488889
vt 2.80297 0.511111
vt -4.61112 0.511111
vt -1.88374 0.488889
vt 3.39486 0.488889
vt 3.39486 0.511111
vt -1.88374 0.488889
vt 3.39486 0.511111
vt -1.88374 0.511111
vt -1.80297 0.488889
vt -1.5363 0.488889
vt -1.5363 0.511111
vt -1.80297 0.488889
vt -1.5363 0.511111
vt -1.80297 0.511111
vt -1.80297 -1.88374
vt -1.5363 3.39486
vt -1.80297 3.39486
vt -1.80297 -1.88374
vt -1.5363 2.98375
vt -1.5363 3.39486
vt 5.61112 -1.61707
vt -1.80297 -1.88374
vt 5.61112 -1.88374
vt -1.5363 -1.61708
vt -1.80297 -1.88374
vt 5.61112 -1.61707
vt -0.980747 2.98375
vt -1.5363 2.71708
vt -0.980747 2.71708
vt -1.5363 2.98375
vt -1.5363 2.71708
vt -0.980747 2.98375
vt -1.80297 -1.88374
vt -1.5363 2.71708
vt -1.5363 2.98375
vt -1.80297 -1.88374
vt -1.5363 -1.61708
vt -1.5363 2.71708
vt 2.80297 -1.88374
vt 2.80297 3.39486
vt 2.5363 3.39486
vt 2.80297 -1.88374
vt 2.5363 3.39486
vt 2.5363 2.98375
vt -4.61112 -1.61707
vt -4.61112 -1.88374
vt 2.80297 -1.88374
vt 2.5363 -1.61708
vt -4.61112 -1.61707
vt 2.80297 -1.88374
vt 1.98075 2.98375
vt 1.98075 2.71708
vt 2.5363 2.71708
vt 2.5363 2.98375
vt 1.98075 2.98375
vt 2.5363 2.71708
vt 2.80297 -1.88374
vt 2.5363 2.98375
vt 2.5363 2.71708
vt 2.80297 -1.88374
vt 2.5363 2.71708
vt 2.5363 -1.61708
vt -8.72223 0.5
vt -8.45556 0.5
vt -8.45556 0.522222
vt -8.72223 0.5
vt -8.45556 0.522222
vt -8.72223 0.522222
vt -0.838796 0.5
vt 0.905649 0.5
vt 0.905649 0.522222
vt -0.838796 0.5
vt 0.905649 0.522222
vt -0.838796 0.522222
vt -8.45557 0.5
vt -2.11945 0.5
vt -2.11945 0.522222
vt -8.45557 0.5
vt -2.11945 0.522222
vt -8.45557 0.522222
vt 0.0943529 0.5
vt 1.23898 0.5
vt 1.23898 0.522222
vt 0.0943529 0.5
vt 1.23898 0.522222
vt 0.0943529 0.522222
vt -2.11945 0.5
vt -1.85278 0.5
vt -1.85278 0.522222
vt -2.11945 0.5
vt -1.85278 0.522222
vt -2.11945 0.522222
vt -0.238981 0.5
vt 0.905647 0.5
vt 0.905647 0.522222
vt -0.238981 0.5
vt 0.905647 0.522222
vt -0.238981 0.522222
vt -1.85278 0.5
vt 3.98075 0.5
vt 3.98075 0.522222
vt -1.85278 0.5
vt 3.98075 0.522222
vt -1.85278 0.522222
vt 0.0943538 0.5
vt 1.90546 0.5
vt 1.90546 0.522222
vt 0.0943538 0.5
vt 1.90546 0.522222
vt 0.0943538 0.522222
vt 3.98075 0.5
vt 4.24742 0.5
vt 4.24742 0.522222
vt 3.98075 0.5
vt 4.24742 0.522222
vt 3.98075 0.522222
vt -0.905465 0.5
vt 1.17231 0.5
vt 1.17231 0.522222
vt -0.905465 0.5
vt 1.17231 0.522222
vt -0.905465 0.522222
vt -3.24742 0.5
vt 9.72223 0.5
vt 9.72223 0.522222
vt -3.24742 0.5
vt 9.72223 0.522222
vt -3.24742 0.522222
vt -0.172316 0.5
vt 1.8388 0.5
vt 1.8388 0.522222
vt -0.172316 0.5
vt 1.8388 0.522222
vt -0.172316 0.522222
vt 9.72223 -0.838796
vt 9.45557 0.905649
vt 9.45556 -0.838796
vt 9.72223 1.17232
vt 9.45557 0.905649
vt 9.72223 -0.838796
vt -3.24742 1.17231
vt 9.45557 0.905649
vt 9.72223 1.17232
vt -3.24742 1.17231
vt 3.11945 0.905647
vt 9.45557 0.905649
vt -2.98075 -0.905465
vt -3.24742 1.17231
vt -3.24742 -0.905465
vt -2.98075 0.905646
vt -3.24742 1.17231
vt -2.98075 -0.905465
vt -2.98075 0.905646
vt 3.11945 0.905647
vt -3.24742 1.17231
vt 2.85278 0.905647
vt 3.11945 0.905647
vt -2.98075 0.905646
vt 2.85278 -0.238981
vt 3.11945 0.905647
vt 2.85278 0.905647
vt 2.85278 -0.238981
vt 3.11945 -0.238981
vt 3.11945 0.905647
vt -8.72223 -0.838796
vt -8.45556 -0.838796
vt -8.45557 0.905649
vt -8.72223 1.17232
vt -8.72223 -0.838796
vt -8.45557 0.905649
vt 4.24742 1.17231
vt -8.72223 1.17232
vt -8.45557 0.905649
vt 4.24742 1.17231
vt -8.45557 0.905649
vt -2.11945 0.905647
vt 3.98075 -0.905465
vt 4.24742 -0.905465
vt 4.24742 1.17231
vt 3.98075 0.905646
vt 3.98075 -0.905465
vt 4.24742 1.17231
vt 3.98075 0.905646
vt 4.24742 1.17231
vt -2.11945 0.905647
vt -1.85278 0.905647
vt 3.98075 0.905646
vt -2.11945 0.905647
vt -1.85278 -0.238981
vt -1.85278 0.905647
vt -2.11945 0.905647
vt -1.85278 -0.238981
vt -2.11945 0.905647
vt -2.11945 -0.238981
vt -0.644651 0.488889
vt -0.0775728 0.488889
vt -0.0775728 0.511111
vt -0.644651 0.488889
vt -0.0775728 0.511111
vt -0.644651 0.511111
vt 0.566666 0.488889
vt 0.9 0.488889
vt 0.9 0.511111
vt 0.566666 0.488889
vt 0.9 0.511111
vt 0.566666 0.511111
vt -0.0775731 0.488889
vt 0.189094 0.488889
vt 0.189094 0.511111
vt -0.0775731 0.488889
vt 0.189094 0.511111
vt -0.0775731 0.511111
vt 0.1 0.488889
vt 0.9 0.488889
vt 0.9 0.511111
vt 0.1 0.488889
vt 0.9 0.511111
vt 0.1 0.511111
vt 0.810906 0.488889
vt 1.07757 0.488889
vt 1.07757 0.511111
vt 0.810906 0.488889
vt 1.07757 0.511111
vt 0.810906 0.511111
vt 0.0999996 0.488889
vt 0.433333 0.488889
vt 0.433333 0.511111
vt 0.0999996 0.488889
vt 0.433333 0.511111
vt 0.0999996 0.511111
vt 1.07757 0.488889
vt 1.64465 0.488889
vt 1.64465 0.511111
vt 1.07757 0.488889
vt 1.64465 0.511111
vt 1.07757 0.511111
vt 0.433333 0.488889
vt 0.566666 0.488889
vt 0.566666 0.511111
vt 0.433333 0.488889
vt 0.566666 0.511111
vt 0.433333 0.511111
vt 0.433333 1.07757
vt 0.566666 1.64465
vt 0.433333 1.64465
vt 0.433333 1.07757
vt 0.566666 1.07757
vt 0.566666 1.64465
vt 0.0999997 0.810906
vt 0.433333 1.07757
vt 0.0999996 1.07757
vt 0.9 0.810906
vt 0.433333 1.07757
vt 0.0999997 0.810906
vt 0.9 0.810906
vt 0.566666 1.07757
vt 0.433333 1.07757
vt 0.9 0.810906
vt 0.9 1.07757
vt 0.566666 1.07757
vt 0.566667 1.07757
vt 0.566667 1.64465
vt 0.433334 1.64465
vt 0.566667 1.07757
vt 0.433334 1.64465
vt 0.433334 1.07757
vt 0.9 0.810906
vt 0.9 1.07757
vt 0.566667 1.07757
vt 0.1 0.810906
vt 0.9 0.810906
vt 0.566667 1.07757
vt 0.1 0.810906
vt 0.566667 1.07757
vt 0.433334 1.07757
vt 0.1 0.810906
vt 0.433334 1.07757
vt 0.1 1.07757
vt 1.27778 0.488889
vt 1.54444 0.488889
vt 1.54444 0.511111
vt 1.27778 0.488889
vt 1.54444 0.511111
vt 1.27778 0.511111
vt -2.46152 0.488889
vt 2.88374 0.488889
vt 2.88374 0.511111
vt -2.46152 0.488889
vt 2.88374 0.511111
vt -2.46152 0.511111
vt -0.544444 0.488889
vt 1.54444 0.488889
vt 1.54444 0.511111
vt -0.544444 0.488889
vt 1.54444 0.511111
vt -0.544444 0.511111
vt -1.88374 0.488889
vt -1.61708 0.488889
vt -1.61708 0.511111
vt -1.88374 0.488889
vt -1.61708 0.511111
vt -1.88374 0.511111
vt -0.544445 0.488889
vt 1.27778 0.488889
vt 1.27778 0.511111
vt -0.544445 0.488889
vt 1.27778 0.511111
vt -0.544445 0.511111
vt -1.61708 0.488889
vt 2.71708 0.488889
vt 2.71708 0.511111
vt -1.61708 0.488889
vt 2.71708 0.511111
vt -1.61708 0.511111
vt -0.277776 0.488889
vt 0.800001 0.488889
vt 0.800001 0.511111
vt -0.277776 0.488889
vt 0.800001 0.511111
vt -0.277776 0.511111
vt 2.71708 0.488889
vt 2.98375 0.488889
vt 2.98375 0.511111
vt 2.71708 0.488889
vt 2.98375 0.511111
vt 2.71708 0.511111
vt 0.199999 0.488889
vt 1.27778 0.488889
vt 1.27778 0.511111
vt 0.199999 0.488889
vt 1.27778 0.511111
vt 0.199999 0.511111
vt 2.98375 0.488889
vt 3.46152 0.488889
vt 3.46152 0.511111
vt 2.98375 0.488889
vt 3.46152 0.511111
vt 2.98375 0.511111
vt 0.199999 2.71708
vt 1.27778 2.98375
vt 0.199999 2.98375
vt 1.27778 2.71708
vt 1.27778 2.98375
vt 0.199999 2.71708
vt -0.544445 -1.88374
vt 1.27778 -1.61708
vt -0.544445 -1.61708
vt 1.54444 -1.88374
vt 1.27778 -1.61708
vt -0.544445 -1.88374
vt 1.54444 3.46152
vt 1.27778 -1.61708
vt 1.54444 -1.88374
vt 1.54444 3.46152
vt 1.27778 2.71708
vt 1.27778 -1.61708
vt 1.54444 3.46152
vt 1.27778 2.98375
vt 1.27778 2.71708
vt 1.54444 3.46152
vt 1.27778 3.46152
vt 1.27778 2.98375
vt 0.800001 2.71708
vt 0.800001 2.98375
vt -0.277776 2.98375
vt -0.277776 2.71708
vt 0.800001 2.71708
vt -0.277776 2.98375
vt 1.54444 -1.88374
vt 1.54444 -1.61708
vt -0.277778 -1.61708
vt -0.544444 -1.88374
vt 1.54444 -1.88374
vt -0.277778 -1.61708
vt -0.544443 3.46152
vt -0.544444 -1.88374
vt -0.277778 -1.61708
vt -0.544443 3.46152
vt -0.277778 -1.61708
vt -0.277776 2.71708
vt -0.544443 3.46152
vt -0.277776 2.71708
vt -0.277776 2.98375
vt -0.544443 3.46152
vt -0.277776 2.98375
vt -0.277776 3.46152
f 1/1 2/2 12/3
f 1/4 12/5 11/6
f 2/7 3/8 13/9
f 2/10 13/11 12/12
f 3/13 4/14 14/15
f 3/16 14/17 13/18
f 4/19 5/20 15/21
f 4/22 15/23 14/24
f 5/25 6/26 16/27
f 5/28 16/29 15/30
f 6/31 7/32 17/33
f 6/34 17/35 16/36
f 7/37 8/38 18/39
f 7/40 18/41 17/42
f 8/43 9/44 19/45
f 8/46 19/47 18/48
f 9/49 10/50 20/51
f 9/52 20/53 19/54
f 10/55 1/56 11/57
f 10/58 11/59 20/60
f 9/61 1/62 10/63
f 9/64 2/65 1/66
f 7/67 9/68 8/69
f 6/70 9/71 7/72
f 3/73 5/74 4/75
f 2/76 5/77 3/78
f 9/79 5/80 2/81
f 9/82 6/83 5/84
f 19/85 20/86 11/87
f 19/88 11/89 12/90
f 17/91 18/92 19/93
f 16/94 17/95 19/96
f 13/97 14/98 15/99
f 12/100 13/101 15/102
f 19/103 12/104 15/105
f 19/106 15/107 16/108
f 21/109 22/110 34/111
f 21/112 34/113 33/114
f 22/115 23/116 35/117
f 22/118 35/119 34/120
f 23/121 24/122 36/123
f 23/124 36/125 35/126
f 24/127 25/128 37/129
f 24/130 37/131 36/132
f 25/133 26/134 38/135
f 25/136 38/137 37/138
f 26/139 27/140 39/141
f 26/142 39/143 38/144
f 27/145 28/146 40/147
f 27/148 40/149 39/150
f 28/151 29/152 41/153
f 28/154 41/155 40/156
f 29/157 30/158 42/159
f 29/160 42/161 41/162
f 30/163 31/164 43/165
f 30/166 43/167 42/168
f 31/169 32/170 44/171
f 31/172 44/173 43/174
f 32/175 21/176 33/177
f 32/178 33/179 44/180
f 21/181 23/182 22/183
f 32/184 23/185 21/186
f 31/187 23/188 32/189
f 31/190 24/191 23/192
f 29/193 31/194 30/195
f 28/196 31/197 29/198
f 28/199 24/200 31/201
f 27/202 24/203 28/204
f 26/205 24/206 27/207
f 26/208 25/209 24/210
f 33/211 34/212 35/213
f 44/214 33/215 35/216
f 43/217 44/218 35/219
f 43/220 35/221 36/222
f 41/223 42/224 43/225
f 40/226 41/227 43/228
f 40/229 43/230 36/231
f 39/232 40/233 36/234
f 38/235 39/236 36/237
f 38/238 36/239 37/240
f 45/241 46/242 54/243
f 45/244 54/245 53/246
f 46/247 47/248 55/249
f 46/250 55/251 54/252
f 47/253 48/254 56/255
f 47/256 56/257 55/258
f 48/259 49/260 57/261
f 48/262 57/263 56/264
f 49/265 50/266 58/267
f 49/268 58/269 57/270
f 50/271 51/272 59/273
f 50/274 59/275 58/276
f 51/277 52/278 60/279
f 51/280 60/281 59/282
f 52/283 45/284 53/285
f 52/286 53/287 60/288
f 51/289 45/290 52/291
f 51/292 46/293 45/294
f 49/295 51/296 50/297
f 48/298 51/299 49/300
f 48/301 46/302 51/303
f 48/304 47/305 46/306
f 59/307 60/308 53/309
f 59/310 53/311 54/312
f 57/313 58/314 59/315
f 56/316 57/317 59/318
f 56/319 59/320 54/321
f 56/322 54/323 55/324
f 61/325 62/326 72/327
f 61/328 72/329 71/330
f 62/331 63/332 73/333
f 62/334 73/335 72/336
f 63/337 64/338 74/339
f 63/340 74/341 73/342
f 64/343 65/344 75/345
f 64/346 75/347 74/348
f 65/349 66/350 76/351
f 65/352 76/353 75/354
f 66/355 67/356 77/357
f 66/358 77/359 76/360
f 67/361 68/362 78/363
f 67/364 78/365 77/366
f 68/367 69/368 79/369
f 68/370 79/371 78/372
f 69/373 70/374 80/375
f 69/376 80/377 79/378
f 70/379 61/380 71/381
f 70/382 71/383 80/384
f 68/385 70/386 69/387
f 67/388 70/389 68/390
f 64/391 66/392 65/393
f 63/394 66/395 64/396
f 62/397 66/398 63/399
f 62/400 67/401 66/402
f 62/403 70/404 67/405
f 62/406 61/407 70/408
f 78/409 79/410 80/411
f 77/412 78/413 80/414
f 74/415 75/416 76/417
f 73/418 74/419 76/420
f 72/421 73/422 76/423
f 72/424 76/425 77/426
f 72/427 77/428 80/429
f 72/430 80/431 71/432
