# Exported from robot_room_v2.usdc, material /root/_materials/Mat3d66_8455843_10_96099
v 5.73316 3.60452 3.24441
v 5.74622 3.60436 3.24434
v 5.74723 3.60435 3.24166
v 5.74781 3.60434 3.2389
v 5.74775 3.60434 3.23611
v 5.74698 3.60435 3.23337
v 5.74579 3.60436 3.2308
v 5.74445 3.60438 3.22852
v 5.74332 3.60439 3.22671
v 5.74205 3.60441 3.2252
v 5.73986 3.60444 3.22358
v 5.74054 3.60443 3.22221
v 5.74077 3.60443 3.22073
v 5.74073 3.60443 3.21919
v 5.74033 3.60443 3.21767
v 5.73949 3.60444 3.21625
v 5.7384 3.60446 3.21499
v 5.73728 3.60447 3.21395
v 5.73608 3.60448 3.21318
v 5.73459 3.6045 3.21272
v 5.73299 3.60452 3.21273
v 5.73276 3.60662 3.24441
v 5.74488 3.61132 3.24435
v 5.74582 3.61169 3.24167
v 5.74636 3.61191 3.2389
v 5.7463 3.61189 3.23612
v 5.74559 3.61162 3.23338
v 5.74447 3.6112 3.2308
v 5.74323 3.61072 3.22852
v 5.74218 3.61032 3.22672
v 5.74101 3.60986 3.2252
v 5.73897 3.60908 3.22359
v 5.7396 3.60932 3.22222
v 5.73981 3.60941 3.22074
v 5.73978 3.6094 3.21919
v 5.7394 3.60926 3.21768
v 5.73862 3.60896 3.21626
v 5.73761 3.60857 3.215
v 5.73657 3.60817 3.21395
v 5.73545 3.60774 3.21319
v 5.73407 3.6072 3.21273
v 5.73258 3.60662 3.21273
v 5.73156 3.60842 3.24442
v 5.7409 3.61726 3.24437
v 5.74162 3.61795 3.24169
v 5.74203 3.61836 3.23893
v 5.74198 3.61833 3.23614
v 5.74143 3.61782 3.2334
v 5.74057 3.61702 3.23083
v 5.73961 3.61612 3.22855
v 5.7388 3.61537 3.22674
v 5.73789 3.61451 3.22522
v 5.73632 3.61303 3.2236
v 5.7368 3.6135 3.22223
v 5.73696 3.61366 3.22075
v 5.73693 3.61364 3.21921
v 5.73664 3.61337 3.21769
v 5.73604 3.61281 3.21627
v 5.73526 3.61208 3.21501
v 5.73446 3.61132 3.21397
v 5.73359 3.61051 3.2132
v 5.73253 3.6095 3.21273
v 5.73138 3.60842 3.21274
v 5.72974 3.60963 3.24443
v 5.73488 3.62127 3.2444
v 5.73527 3.62218 3.24173
v 5.73549 3.62272 3.23897
v 5.73546 3.62268 3.23618
v 5.73514 3.62201 3.23344
v 5.73466 3.62095 3.23086
v 5.73413 3.61977 3.22858
v 5.73368 3.61878 3.22676
v 5.73318 3.61765 3.22525
v 5.73231 3.61571 3.22363
v 5.73257 3.61632 3.22226
v 5.73266 3.61653 3.22078
v 5.73264 3.6165 3.21923
v 5.73247 3.61615 3.21771
v 5.73214 3.61541 3.21629
v 5.7317 3.61445 3.21503
v 5.73126 3.61345 3.21398
v 5.73078 3.61238 3.21321
v 5.73019 3.61106 3.21275
v 5.72956 3.60963 3.21275
v 5.72758 3.61007 3.24444
v 5.72774 3.62274 3.24444
v 5.72774 3.62373 3.24177
v 5.72773 3.62432 3.23901
v 5.72771 3.62427 3.23622
v 5.72769 3.62354 3.23348
v 5.72766 3.6224 3.2309
v 5.72763 3.62111 3.22861
v 5.72761 3.62003 3.2268
v 5.72759 3.6188 3.22528
v 5.72755 3.61669 3.22365
v 5.72755 3.61735 3.22229
v 5.72755 3.61758 3.22081
v 5.72754 3.61755 3.21926
v 5.72752 3.61717 3.21774
v 5.72751 3.61636 3.21632
v 5.72749 3.61532 3.21505
v 5.72747 3.61423 3.214
v 5.72745 3.61307 3.21323
v 5.72743 3.61163 3.21276
v 5.72741 3.61007 3.21276
v 5.72542 3.60968 3.24445
v 5.72057 3.62145 3.24448
v 5.72017 3.62237 3.24181
v 5.71993 3.62291 3.23905
v 5.71993 3.62287 3.23626
v 5.7202 3.62219 3.23352
v 5.72062 3.62113 3.23094
v 5.7211 3.61993 3.22865
v 5.72151 3.61893 3.22683
v 5.72197 3.61779 3.22531
v 5.72277 3.61582 3.22368
v 5.72251 3.61644 3.22231
v 5.72241 3.61666 3.22083
v 5.72241 3.61663 3.21929
v 5.72255 3.61628 3.21777
v 5.72285 3.61552 3.21635
v 5.72325 3.61455 3.21507
v 5.72366 3.61355 3.21403
v 5.7241 3.61247 3.21325
v 5.72465 3.61113 3.21278
v 5.72524 3.60968 3.21277
v 5.72357 3.60851 3.24446
v 5.71445 3.61759 3.24451
v 5.71372 3.6183 3.24185
v 5.71328 3.61872 3.23909
v 5.7133 3.61869 3.2363
v 5.71381 3.61816 3.23355
v 5.71462 3.61734 3.23097
v 5.71554 3.61642 3.22868
v 5.71631 3.61564 3.22686
v 5.71718 3.61477 3.22533
v 5.71869 3.61325 3.2237
v 5.71821 3.61373 3.22234
v 5.71803 3.61389 3.22086
v 5.71805 3.61387 3.21931
v 5.71831 3.6136 3.21779
v 5.71889 3.61302 3.21637
v 5.71963 3.61227 3.21509
v 5.72041 3.6115 3.21404
v 5.72124 3.61066 3.21327
v 5.72228 3.60963 3.21279
v 5.7234 3.60852 3.21278
v 5.72232 3.60675 3.24447
v 5.71032 3.61175 3.24454
v 5.70937 3.61214 3.24187
v 5.7088 3.61237 3.23911
v 5.70883 3.61235 3.23632
v 5.7095 3.61207 3.23358
v 5.71058 3.61161 3.23099
v 5.71178 3.61111 3.2287
v 5.7128 3.61068 3.22688
v 5.71395 3.6102 3.22535
v 5.71594 3.60936 3.22372
v 5.71531 3.60963 3.22235
v 5.71508 3.60972 3.22087
v 5.7151 3.6097 3.21933
v 5.71545 3.60955 3.21781
v 5.71621 3.60924 3.21638
v 5.7172 3.60882 3.21511
v 5.71821 3.6084 3.21405
v 5.71931 3.60794 3.21328
v 5.72068 3.60737 3.2128
v 5.72215 3.60675 3.21279
v 5.72187 3.60466 3.24447
v 5.70881 3.60482 3.24454
v 5.70777 3.60483 3.24188
v 5.70716 3.60484 3.23912
v 5.70719 3.60484 3.23633
v 5.70793 3.60483 3.23359
v 5.7091 3.60482 3.231
v 5.71041 3.6048 3.22871
v 5.71151 3.60479 3.22688
v 5.71277 3.60477 3.22536
v 5.71494 3.60475 3.22372
v 5.71425 3.60475 3.22236
v 5.714 3.60476 3.22088
v 5.71402 3.60476 3.21934
v 5.71441 3.60475 3.21781
v 5.71523 3.60474 3.21639
v 5.7163 3.60473 3.21511
v 5.71741 3.60472 3.21406
v 5.71861 3.6047 3.21328
v 5.72009 3.60468 3.2128
v 5.72169 3.60466 3.21279
v 5.72227 3.60256 3.24447
v 5.71015 3.59786 3.24454
v 5.70919 3.59749 3.24187
v 5.70861 3.59727 3.23911
v 5.70864 3.59729 3.23632
v 5.70932 3.59756 3.23358
v 5.71041 3.59799 3.23099
v 5.71163 3.59846 3.2287
v 5.71265 3.59887 3.22688
v 5.71381 3.59932 3.22535
v 5.71583 3.60011 3.22372
v 5.71519 3.59986 3.22235
v 5.71496 3.59977 3.22087
v 5.71498 3.59978 3.21933
v 5.71533 3.59993 3.21781
v 5.7161 3.60023 3.21638
v 5.71709 3.60061 3.21511
v 5.71812 3.60102 3.21405
v 5.71923 3.60145 3.21328
v 5.72061 3.60198 3.2128
v 5.7221 3.60256 3.21279
v 5.72348 3.60076 3.24446
v 5.71413 3.59192 3.24451
v 5.71339 3.59123 3.24185
v 5.71294 3.59082 3.23909
v 5.71296 3.59085 3.2363
v 5.71348 3.59136 3.23355
v 5.71431 3.59216 3.23097
v 5.71525 3.59306 3.22868
v 5.71604 3.59382 3.22686
v 5.71693 3.59467 3.22533
v 5.71848 3.59615 3.2237
v 5.71798 3.59568 3.22234
v 5.71781 3.59552 3.22086
v 5.71782 3.59554 3.21931
v 5.71809 3.59581 3.21779
v 5.71868 3.59637 3.21637
v 5.71945 3.59711 3.21509
v 5.72024 3.59786 3.21404
v 5.72109 3.59867 3.21327
v 5.72215 3.59968 3.21279
v 5.7233 3.60077 3.21278
v 5.72529 3.59955 3.24445
v 5.72015 3.58791 3.24448
v 5.71973 3.587 3.24181
v 5.71948 3.58646 3.23905
v 5.71948 3.5865 3.23626
v 5.71977 3.58717 3.23352
v 5.72022 3.58823 3.23094
v 5.72073 3.58941 3.22865
v 5.72116 3.59041 3.22683
v 5.72164 3.59153 3.22531
v 5.72249 3.59348 3.22368
v 5.72222 3.59287 3.22231
v 5.72211 3.59265 3.22083
v 5.72212 3.59268 3.21929
v 5.72226 3.59303 3.21777
v 5.72258 3.59377 3.21635
v 5.723 3.59474 3.21507
v 5.72344 3.59573 3.21403
v 5.7239 3.5968 3.21325
v 5.72449 3.59813 3.21278
v 5.72512 3.59956 3.21277
v 5.72745 3.59911 3.24444
v 5.72729 3.58644 3.24444
v 5.72726 3.58545 3.24177
v 5.72724 3.58486 3.23901
v 5.72723 3.58491 3.23622
v 5.72722 3.58564 3.23348
v 5.72722 3.58679 3.2309
v 5.72722 3.58807 3.22861
v 5.72723 3.58916 3.2268
v 5.72723 3.59038 3.22528
v 5.72725 3.5925 3.22365
v 5.72724 3.59183 3.22229
v 5.72722 3.5916 3.22081
v 5.72722 3.59163 3.21926
v 5.72721 3.59201 3.21774
v 5.72722 3.59282 3.21632
v 5.72722 3.59387 3.21505
v 5.72723 3.59495 3.214
v 5.72724 3.59611 3.21323
v 5.72725 3.59756 3.21276
v 5.72727 3.59911 3.21276
v 5.72961 3.5995 3.24443
v 5.73447 3.58773 3.2444
v 5.73483 3.58681 3.24173
v 5.73504 3.58627 3.23897
v 5.73501 3.58631 3.23618
v 5.73471 3.58699 3.23344
v 5.73426 3.58806 3.23086
v 5.73375 3.58925 3.22858
v 5.73333 3.59026 3.22676
v 5.73285 3.59139 3.22525
v 5.73203 3.59336 3.22363
v 5.73228 3.59274 3.22226
v 5.73236 3.59253 3.22078
v 5.73234 3.59255 3.21923
v 5.73219 3.59291 3.21771
v 5.73187 3.59366 3.21629
v 5.73146 3.59463 3.21503
v 5.73104 3.59564 3.21398
v 5.73059 3.59672 3.21321
v 5.73003 3.59806 3.21275
v 5.72944 3.5995 3.21275
v 5.73146 3.60067 3.24442
v 5.74058 3.59159 3.24437
v 5.74128 3.59088 3.24169
v 5.74169 3.59046 3.23893
v 5.74164 3.5905 3.23614
v 5.7411 3.59102 3.2334
v 5.74026 3.59184 3.23083
v 5.73932 3.59276 3.22855
v 5.73853 3.59354 3.22674
v 5.73764 3.59442 3.22522
v 5.73611 3.59593 3.2236
v 5.73658 3.59545 3.22223
v 5.73674 3.59529 3.22075
v 5.73671 3.59531 3.21921
v 5.73642 3.59558 3.21769
v 5.73583 3.59616 3.21627
v 5.73507 3.59691 3.21501
v 5.73429 3.59769 3.21397
v 5.73345 3.59852 3.2132
v 5.7324 3.59956 3.21273
v 5.73129 3.60067 3.21274
v 5.73271 3.60243 3.24441
v 5.74471 3.59743 3.24435
v 5.74563 3.59704 3.24167
v 5.74617 3.59681 3.2389
v 5.74611 3.59683 3.23612
v 5.74541 3.59712 3.23338
v 5.74431 3.59757 3.2308
v 5.74307 3.59808 3.22852
v 5.74204 3.5985 3.22672
v 5.74087 3.59899 3.2252
v 5.73886 3.59982 3.22359
v 5.73948 3.59956 3.22222
v 5.73969 3.59947 3.22074
v 5.73965 3.59948 3.21919
v 5.73929 3.59963 3.21768
v 5.73851 3.59995 3.21626
v 5.73751 3.60036 3.215
v 5.73648 3.60079 3.21395
v 5.73537 3.60125 3.21319
v 5.734 3.60182 3.21273
v 5.73253 3.60243 3.21273
v 5.81459 3.63053 3.24663
v 5.81383 3.58332 3.24718
v 5.81449 3.58263 3.18868
v 5.81525 3.62984 3.18814
v 5.81768 3.63048 3.24666
v 5.81692 3.58327 3.24721
v 5.81757 3.58258 3.18872
v 5.81834 3.62979 3.18817
v 5.81515 3.62405 3.1882
v 5.81458 3.58854 3.18862
v 5.81492 3.58818 3.15833
v 5.81549 3.62369 3.15792
v 5.81824 3.624 3.18824
v 5.81767 3.58849 3.18865
v 5.81801 3.58813 3.15837
v 5.81858 3.62364 3.15795
v 5.63437 3.63126 3.24674
v 5.6336 3.58405 3.24729
v 5.63426 3.58336 3.18879
v 5.63502 3.63057 3.18825
v 5.63745 3.63121 3.24677
v 5.63669 3.584 3.24732
v 5.63735 3.58331 3.18883
v 5.63811 3.63052 3.18828
v 5.63493 3.62478 3.18831
v 5.63436 3.58926 3.18873
v 5.6347 3.58891 3.15844
v 5.63527 3.62442 3.15803
v 5.63802 3.62473 3.18835
v 5.63744 3.58921 3.18876
v 5.63778 3.58886 3.15848
v 5.63836 3.62437 3.15806
v 4.507 -0.175756 2.82465
v 4.50776 -0.12855 2.8252
v 4.50711 -0.127861 2.7667
v 4.50634 -0.175067 2.76616
v 4.50391 -0.175707 2.82468
v 4.50468 -0.128501 2.82523
v 4.50402 -0.127812 2.76674
v 4.50326 -0.175017 2.76619
v 4.50644 -0.16928 2.76622
v 4.50701 -0.133765 2.76664
v 4.50667 -0.133408 2.73635
v 4.5061 -0.168923 2.73594
v 4.50335 -0.169231 2.76626
v 4.50392 -0.133716 2.76667
v 4.50358 -0.133359 2.73639
v 4.50301 -0.168874 2.73597
v 4.32678 -0.175026 2.82454
v 4.32754 -0.127821 2.82509
v 4.32688 -0.127131 2.76659
v 4.32612 -0.174337 2.76605
v 4.32369 -0.174977 2.82457
v 4.32445 -0.127771 2.82512
v 4.3238 -0.127082 2.76663
v 4.32303 -0.174288 2.76608
v 4.32621 -0.16855 2.76611
v 4.32679 -0.133036 2.76653
v 4.32645 -0.132679 2.73624
v 4.32587 -0.168193 2.73583
v 4.32313 -0.168501 2.76615
v 4.3237 -0.132986 2.76656
v 4.32336 -0.132629 2.73628
v 4.32279 -0.168144 2.73586
v 4.40821 -0.149025 2.82232
v 4.39515 -0.148864 2.82225
v 4.39414 -0.148852 2.81957
v 4.39355 -0.148844 2.81681
v 4.39362 -0.148845 2.81402
v 4.39438 -0.148855 2.81128
v 4.39558 -0.148869 2.80871
v 4.39692 -0.148886 2.80643
v 4.39805 -0.1489 2.80462
v 4.39931 -0.148915 2.80311
v 4.4015 -0.148943 2.80149
v 4.40083 -0.148934 2.80012
v 4.4006 -0.148931 2.79864
v 4.40064 -0.148932 2.7971
v 4.40104 -0.148937 2.79558
v 4.40188 -0.148947 2.79416
v 4.40296 -0.148961 2.7929
v 4.40408 -0.148974 2.79186
v 4.40529 -0.148989 2.79109
v 4.40678 -0.149008 2.79063
v 4.40838 -0.149027 2.79064
v 4.40861 -0.151128 2.82232
v 4.39649 -0.155827 2.82226
v 4.39555 -0.156196 2.81958
v 4.39501 -0.156413 2.81681
v 4.39507 -0.156396 2.81403
v 4.39578 -0.156125 2.81129
v 4.39689 -0.1557 2.80871
v 4.39814 -0.155223 2.80643
v 4.39918 -0.154821 2.80463
v 4.40036 -0.154367 2.80311
v 4.4024 -0.153583 2.8015
v 4.40177 -0.15383 2.80013
v 4.40155 -0.153915 2.79865
v 4.40159 -0.153904 2.7971
v 4.40196 -0.153763 2.79558
v 4.40275 -0.153463 2.79417
v 4.40375 -0.153075 2.79291
v 4.40479 -0.152674 2.79186
v 4.40591 -0.152242 2.7911
v 4.4073 -0.151706 2.79063
v 4.40878 -0.15113 2.79064
v 4.40981 -0.152921 2.82233
v 4.40047 -0.161766 2.82228
v 4.39975 -0.16246 2.8196
v 4.39934 -0.162868 2.81684
v 4.39938 -0.162836 2.81405
v 4.39994 -0.162326 2.81131
v 4.4008 -0.161525 2.80874
v 4.40176 -0.160627 2.80646
v 4.40257 -0.159871 2.80465
v 4.40348 -0.159017 2.80313
v 4.40505 -0.15754 2.80151
v 4.40457 -0.158005 2.80014
v 4.4044 -0.158166 2.79866
v 4.40443 -0.158145 2.79712
v 4.40472 -0.157879 2.7956
v 4.40533 -0.157315 2.79418
v 4.40611 -0.156583 2.79292
v 4.40691 -0.155829 2.79188
v 4.40777 -0.155016 2.79111
v 4.40884 -0.154008 2.79064
v 4.40999 -0.152923 2.79065
v 4.41163 -0.154131 2.82234
v 4.40649 -0.165776 2.82231
v 4.4061 -0.166689 2.81964
v 4.40588 -0.167226 2.81688
v 4.40591 -0.167185 2.81409
v 4.40622 -0.166512 2.81135
v 4.4067 -0.165459 2.80877
v 4.40724 -0.164276 2.80649
v 4.40769 -0.16328 2.80467
v 4.40819 -0.162156 2.80316
v 4.40906 -0.160211 2.80154
v 4.4088 -0.160823 2.80017
v 4.40871 -0.161035 2.79869
v 4.40873 -0.161008 2.79714
v 4.40889 -0.160658 2.79562
v 4.40923 -0.159915 2.7942
v 4.40966 -0.158952 2.79294
v 4.41011 -0.157959 2.79189
v 4.41058 -0.156888 2.79112
v 4.41117 -0.155561 2.79066
v 4.4118 -0.154133 2.79066
v 4.41378 -0.154575 2.82235
v 4.41363 -0.167246 2.82235
v 4.41363 -0.168239 2.81968
v 4.41364 -0.168823 2.81692
v 4.41365 -0.168779 2.81413
v 4.41368 -0.168047 2.81139
v 4.41371 -0.166901 2.80881
v 4.41373 -0.165614 2.80652
v 4.41376 -0.164531 2.80471
v 4.41378 -0.163307 2.80319
v 4.41382 -0.161191 2.80156
v 4.41382 -0.161857 2.8002
v 4.41382 -0.162087 2.79872
v 4.41383 -0.162057 2.79717
v 4.41384 -0.161677 2.79565
v 4.41386 -0.160868 2.79423
v 4.41388 -0.15982 2.79296
v 4.4139 -0.15874 2.79191
v 4.41392 -0.157575 2.79114
v 4.41394 -0.156131 2.79067
v 4.41396 -0.154577 2.79067
v 4.41595 -0.154185 2.82236
v 4.4208 -0.165952 2.82239
v 4.4212 -0.166875 2.81972
v 4.42144 -0.167418 2.81696
v 4.42143 -0.167376 2.81417
v 4.42117 -0.166697 2.81143
v 4.42074 -0.165632 2.80885
v 4.42026 -0.164437 2.80656
v 4.41986 -0.163431 2.80474
v 4.4194 -0.162295 2.80322
v 4.4186 -0.160329 2.80159
v 4.41886 -0.160948 2.80022
v 4.41896 -0.161162 2.79874
v 4.41895 -0.161134 2.7972
v 4.41882 -0.160781 2.79568
v 4.41851 -0.16003 2.79426
v 4.41812 -0.159056 2.79298
v 4.41771 -0.158053 2.79193
v 4.41727 -0.156971 2.79116
v 4.41672 -0.15563 2.79069
v 4.41612 -0.154187 2.79068
v 4.4178 -0.153019 2.82237
v 4.42692 -0.162093 2.82242
v 4.42765 -0.162805 2.81976
v 4.42808 -0.163223 2.817
v 4.42807 -0.163191 2.81421
v 4.42755 -0.162667 2.81146
v 4.42674 -0.161846 2.80888
v 4.42583 -0.160925 2.80659
v 4.42506 -0.160149 2.80477
v 4.42419 -0.159273 2.80324
v 4.42267 -0.157757 2.80161
v 4.42316 -0.158234 2.80025
v 4.42333 -0.158399 2.79877
v 4.42332 -0.158378 2.79722
v 4.42305 -0.158106 2.7957
v 4.42248 -0.157527 2.79428
v 4.42173 -0.156776 2.793
v 4.42096 -0.156002 2.79195
v 4.42013 -0.155168 2.79118
v 4.41909 -0.154134 2.7907
v 4.41797 -0.153021 2.79069
v 4.41904 -0.151257 2.82238
v 4.43104 -0.156255 2.82245
v 4.432 -0.156647 2.81978
v 4.43257 -0.156877 2.81702
v 4.43254 -0.15686 2.81423
v 4.43186 -0.156571 2.81149
v 4.43079 -0.156119 2.8089
v 4.42959 -0.155612 2.80661
v 4.42857 -0.155184 2.80479
v 4.42742 -0.154702 2.80326
v 4.42542 -0.153867 2.80163
v 4.42606 -0.15413 2.80026
v 4.42629 -0.154221 2.79878
v 4.42627 -0.154209 2.79724
v 4.42592 -0.154059 2.79572
v 4.42516 -0.15374 2.79429
v 4.42417 -0.153327 2.79302
v 4.42315 -0.152901 2.79196
v 4.42205 -0.152441 2.79119
v 4.42069 -0.151872 2.79071
v 4.41922 -0.151259 2.7907
v 4.4195 -0.149165 2.82238
v 4.43255 -0.149326 2.82245
v 4.43359 -0.149339 2.81979
v 4.43421 -0.149347 2.81703
v 4.43418 -0.149346 2.81424
v 4.43344 -0.149337 2.8115
v 4.43227 -0.149323 2.80891
v 4.43096 -0.149307 2.80662
v 4.42985 -0.149293 2.80479
v 4.4286 -0.149277 2.80327
v 4.42643 -0.149251 2.80163
v 4.42712 -0.149259 2.80027
v 4.42737 -0.149262 2.79879
v 4.42734 -0.149262 2.79725
v 4.42696 -0.149257 2.79572
v 4.42614 -0.149247 2.7943
v 4.42506 -0.149234 2.79302
v 4.42395 -0.14922 2.79197
v 4.42276 -0.149205 2.79119
v 4.42127 -0.149187 2.79071
v 4.41967 -0.149167 2.7907
v 4.41909 -0.147063 2.82238
v 4.43122 -0.142363 2.82245
v 4.43218 -0.141994 2.81978
v 4.43276 -0.141778 2.81702
v 4.43273 -0.141795 2.81423
v 4.43204 -0.142067 2.81149
v 4.43096 -0.142492 2.8089
v 4.42974 -0.14297 2.80661
v 4.42871 -0.143372 2.80479
v 4.42755 -0.143825 2.80326
v 4.42554 -0.144611 2.80163
v 4.42618 -0.144364 2.80026
v 4.42641 -0.144278 2.79878
v 4.42639 -0.14429 2.79724
v 4.42603 -0.144431 2.79572
v 4.42527 -0.144731 2.79429
v 4.42427 -0.14512 2.79302
v 4.42324 -0.145521 2.79196
v 4.42213 -0.145953 2.79119
v 4.42076 -0.146488 2.79071
v 4.41927 -0.147065 2.7907
v 4.41789 -0.14527 2.82237
v 4.42723 -0.136424 2.82242
v 4.42798 -0.135731 2.81976
v 4.42843 -0.135323 2.817
v 4.42841 -0.135355 2.81421
v 4.42789 -0.135866 2.81146
v 4.42705 -0.136667 2.80888
v 4.42612 -0.137565 2.80659
v 4.42533 -0.138322 2.80477
v 4.42444 -0.139176 2.80324
v 4.42288 -0.140654 2.80161
v 4.42338 -0.140189 2.80025
v 4.42356 -0.140028 2.79877
v 4.42355 -0.140049 2.79722
v 4.42327 -0.140315 2.7957
v 4.42269 -0.14088 2.79428
v 4.42192 -0.141611 2.793
v 4.42113 -0.142366 2.79195
v 4.42027 -0.143179 2.79118
v 4.41921 -0.144187 2.7907
v 4.41807 -0.145272 2.79069
v 4.41607 -0.144059 2.82236
v 4.42122 -0.132415 2.82239
v 4.42163 -0.131502 2.81972
v 4.42189 -0.130965 2.81696
v 4.42188 -0.131007 2.81417
v 4.4216 -0.131679 2.81143
v 4.42115 -0.132734 2.80885
v 4.42064 -0.133916 2.80656
v 4.42021 -0.134912 2.80474
v 4.41972 -0.136037 2.80322
v 4.41887 -0.137982 2.80159
v 4.41915 -0.13737 2.80022
v 4.41925 -0.137158 2.79874
v 4.41925 -0.137186 2.7972
v 4.4191 -0.137536 2.79568
v 4.41878 -0.138279 2.79426
v 4.41836 -0.139243 2.79298
v 4.41793 -0.140236 2.79194
v 4.41746 -0.141306 2.79116
v 4.41688 -0.142633 2.79069
v 4.41625 -0.144061 2.79068
v 4.41392 -0.143615 2.82235
v 4.41408 -0.130945 2.82235
v 4.4141 -0.129951 2.81968
v 4.41413 -0.129368 2.81692
v 4.41414 -0.129413 2.81413
v 4.41415 -0.130145 2.81139
v 4.41415 -0.131292 2.80881
v 4.41414 -0.132578 2.80652
v 4.41414 -0.133662 2.80471
v 4.41413 -0.134886 2.80319
v 4.41412 -0.137002 2.80156
v 4.41413 -0.136337 2.8002
v 4.41414 -0.136106 2.79872
v 4.41415 -0.136136 2.79717
v 4.41415 -0.136517 2.79565
v 4.41415 -0.137326 2.79423
v 4.41415 -0.138374 2.79296
v 4.41414 -0.139455 2.79191
v 4.41413 -0.14062 2.79114
v 4.41411 -0.142063 2.79067
v 4.41409 -0.143617 2.79067
v 4.41175 -0.144006 2.82234
v 4.4069 -0.132238 2.82231
v 4.40654 -0.131315 2.81964
v 4.40633 -0.130773 2.81688
v 4.40636 -0.130815 2.81409
v 4.40666 -0.131495 2.81135
v 4.40711 -0.13256 2.80877
v 4.40761 -0.133755 2.80649
v 4.40804 -0.134762 2.80467
v 4.40852 -0.135898 2.80316
v 4.40934 -0.137864 2.80154
v 4.40909 -0.137246 2.80017
v 4.40901 -0.137032 2.79869
v 4.40903 -0.13706 2.79714
v 4.40918 -0.137413 2.79562
v 4.4095 -0.138165 2.7942
v 4.40991 -0.139138 2.79294
v 4.41033 -0.140142 2.79189
v 4.41078 -0.141224 2.79112
v 4.41133 -0.142565 2.79066
v 4.41193 -0.144008 2.79066
v 4.40991 -0.145171 2.82233
v 4.40079 -0.136097 2.82228
v 4.40009 -0.135386 2.8196
v 4.39968 -0.134968 2.81684
v 4.39973 -0.135 2.81405
v 4.40027 -0.135525 2.81131
v 4.40111 -0.136346 2.80874
v 4.40205 -0.137268 2.80646
v 4.40284 -0.138044 2.80465
v 4.40373 -0.13892 2.80313
v 4.40526 -0.140436 2.80151
v 4.40479 -0.139959 2.80014
v 4.40463 -0.139794 2.79866
v 4.40466 -0.139816 2.79712
v 4.40494 -0.140088 2.7956
v 4.40553 -0.140668 2.79418
v 4.40629 -0.141418 2.79292
v 4.40708 -0.142192 2.79188
v 4.40792 -0.143026 2.79111
v 4.40896 -0.14406 2.79064
v 4.41008 -0.145173 2.79065
v 4.40866 -0.146934 2.82232
v 4.39666 -0.141936 2.82226
v 4.39573 -0.141544 2.81958
v 4.39519 -0.141314 2.81681
v 4.39525 -0.141332 2.81403
v 4.39596 -0.141621 2.81129
v 4.39706 -0.142073 2.80871
v 4.39829 -0.142581 2.80643
v 4.39933 -0.143008 2.80463
v 4.4005 -0.143491 2.80311
v 4.40251 -0.144326 2.8015
v 4.40189 -0.144063 2.80013
v 4.40168 -0.143973 2.79865
v 4.40171 -0.143985 2.7971
v 4.40208 -0.144135 2.79558
v 4.40286 -0.144454 2.79417
v 4.40386 -0.144867 2.79291
v 4.40489 -0.145294 2.79186
v 4.40599 -0.145753 2.7911
v 4.40736 -0.146323 2.79063
v 4.40884 -0.146936 2.79064
v 1.99705 3.63078 3.23141
v 1.99629 3.58357 3.23196
v 1.99694 3.58288 3.17346
v 1.99771 3.63009 3.17292
v 2.00014 3.63073 3.23144
v 1.99937 3.58352 3.23199
v 2.00003 3.58283 3.1735
v 2.00079 3.63004 3.17295
v 1.99761 3.6243 3.17298
v 1.99704 3.58879 3.1734
v 1.99738 3.58843 3.14311
v 1.99795 3.62394 3.1427
v 2.0007 3.62425 3.17302
v 2.00013 3.58874 3.17343
v 2.00047 3.58838 3.14315
v 2.00104 3.62389 3.14273
v 1.91598 3.60452 3.22919
v 1.92903 3.60436 3.22912
v 1.93004 3.60435 3.22644
v 1.93063 3.60434 3.22368
v 1.93057 3.60434 3.22089
v 1.9298 3.60435 3.21815
v 1.9286 3.60436 3.21558
v 1.92726 3.60438 3.2133
v 1.92614 3.60439 3.21149
v 1.92487 3.60441 3.20998
v 1.92268 3.60444 3.20836
v 1.92336 3.60443 3.20699
v 1.92359 3.60442 3.20551
v 1.92355 3.60443 3.20397
v 1.92315 3.60443 3.20245
v 1.9223 3.60444 3.20103
v 1.92122 3.60445 3.19977
v 1.9201 3.60447 3.19873
v 1.91889 3.60448 3.19796
v 1.9174 3.6045 3.1975
v 1.9158 3.60452 3.19751
v 1.91557 3.60662 3.22919
v 1.92769 3.61132 3.22913
v 1.92863 3.61169 3.22645
v 1.92917 3.61191 3.22369
v 1.92912 3.61189 3.2209
v 1.9284 3.61162 3.21816
v 1.92729 3.61119 3.21559
v 1.92605 3.61072 3.21331
v 1.925 3.61031 3.2115
v 1.92382 3.60986 3.20998
v 1.92179 3.60908 3.20837
v 1.92242 3.60932 3.207
v 1.92263 3.60941 3.20552
v 1.92259 3.6094 3.20398
v 1.92222 3.60926 3.20246
v 1.92144 3.60896 3.20104
v 1.92043 3.60857 3.19978
v 1.91939 3.60817 3.19873
v 1.91827 3.60774 3.19797
v 1.91688 3.6072 3.19751
v 1.9154 3.60662 3.19751
v 1.91437 3.60841 3.2292
v 1.92371 3.61726 3.22915
v 1.92443 3.61795 3.22647
v 1.92485 3.61836 3.22371
v 1.9248 3.61833 3.22092
v 1.92424 3.61782 3.21818
v 1.92338 3.61702 3.21561
v 1.92242 3.61612 3.21333
v 1.92161 3.61536 3.21152
v 1.9207 3.61451 3.21
v 1.91913 3.61303 3.20838
v 1.91962 3.6135 3.20702
v 1.91978 3.61366 3.20553
v 1.91975 3.61364 3.20399
v 1.91946 3.61337 3.20247
v 1.91885 3.61281 3.20105
v 1.91807 3.61208 3.19979
v 1.91727 3.61132 3.19875
v 1.91641 3.61051 3.19798
v 1.91534 3.6095 3.19752
v 1.9142 3.60842 3.19752
v 1.91255 3.60962 3.22921
v 1.91769 3.62127 3.22918
v 1.91808 3.62218 3.22651
v 1.9183 3.62272 3.22375
v 1.91827 3.62268 3.22096
v 1.91796 3.62201 3.21822
v 1.91748 3.62095 3.21564
v 1.91694 3.61977 3.21336
v 1.91649 3.61877 3.21155
v 1.91599 3.61765 3.21003
v 1.91512 3.6157 3.20841
v 1.91539 3.61632 3.20704
v 1.91547 3.61653 3.20556
v 1.91545 3.6165 3.20402
v 1.91529 3.61615 3.2025
v 1.91495 3.61541 3.20108
v 1.91452 3.61445 3.19981
v 1.91407 3.61345 3.19876
v 1.9136 3.61238 3.19799
v 1.91301 3.61106 3.19753
v 1.91238 3.60963 3.19753
v 1.9104 3.61007 3.22922
v 1.91055 3.62274 3.22922
v 1.91055 3.62373 3.22655
v 1.91054 3.62432 3.22379
v 1.91053 3.62427 3.221
v 1.9105 3.62354 3.21826
v 1.91048 3.62239 3.21568
v 1.91045 3.62111 3.21339
v 1.91042 3.62002 3.21158
v 1.9104 3.6188 3.21006
v 1.91036 3.61668 3.20843
v 1.91037 3.61735 3.20707
v 1.91036 3.61758 3.20559
v 1.91035 3.61755 3.20404
v 1.91034 3.61717 3.20252
v 1.91032 3.61636 3.2011
v 1.9103 3.61531 3.19983
v 1.91028 3.61423 3.19879
v 1.91026 3.61307 3.19801
v 1.91024 3.61162 3.19754
v 1.91022 3.61007 3.19754
v 1.90823 3.60968 3.22924
v 1.90338 3.62145 3.22926
v 1.90298 3.62237 3.22659
v 1.90275 3.62291 3.22383
v 1.90275 3.62287 3.22105
v 1.90301 3.62219 3.2183
v 1.90344 3.62113 3.21572
v 1.90392 3.61993 3.21343
v 1.90432 3.61892 3.21161
v 1.90478 3.61779 3.21009
v 1.90558 3.61582 3.20846
v 1.90532 3.61644 3.2071
v 1.90523 3.61666 3.20561
v 1.90523 3.61663 3.20407
v 1.90537 3.61627 3.20255
v 1.90567 3.61552 3.20113
v 1.90606 3.61455 3.19986
v 1.90647 3.61355 3.19881
v 1.90691 3.61246 3.19803
v 1.90746 3.61112 3.19756
v 1.90806 3.60968 3.19756
v 1.90639 3.60851 3.22925
v 1.89726 3.61759 3.2293
v 1.89653 3.6183 3.22663
v 1.8961 3.61872 3.22387
v 1.89612 3.61868 3.22108
v 1.89663 3.61816 3.21834
v 1.89744 3.61734 3.21575
v 1.89835 3.61642 3.21346
v 1.89912 3.61564 3.21164
v 1.89999 3.61477 3.21012
v 1.90151 3.61325 3.20848
v 1.90102 3.61373 3.20712
v 1.90085 3.61389 3.20564
v 1.90086 3.61387 3.2041
v 1.90113 3.6136 3.20257
v 1.9017 3.61302 3.20115
v 1.90245 3.61227 3.19988
v 1.90322 3.6115 3.19882
v 1.90406 3.61066 3.19805
v 1.90509 3.60963 3.19757
v 1.90621 3.60852 3.19757
v 1.90514 3.60675 3.22925
v 1.89314 3.61175 3.22932
v 1.89218 3.61214 3.22665
v 1.89161 3.61237 3.22389
v 1.89164 3.61235 3.22111
v 1.89232 3.61206 3.21836
v 1.89339 3.61161 3.21577
v 1.8946 3.61111 3.21348
v 1.89561 3.61068 3.21166
v 1.89676 3.6102 3.21013
v 1.89876 3.60936 3.2085
v 1.89812 3.60962 3.20713
v 1.89789 3.60971 3.20565
v 1.89791 3.6097 3.20411
v 1.89827 3.60955 3.20259
v 1.89902 3.60923 3.20116
v 1.90001 3.60882 3.19989
v 1.90103 3.60839 3.19884
v 1.90213 3.60793 3.19806
v 1.90349 3.60737 3.19758
v 1.90496 3.60675 3.19757
v 1.90468 3.60466 3.22925
v 1.89163 3.60482 3.22933
v 1.89059 3.60483 3.22666
v 1.88997 3.60484 3.2239
v 1.89 3.60484 3.22111
v 1.89074 3.60483 3.21837
v 1.89191 3.60482 3.21578
v 1.89322 3.6048 3.21349
v 1.89433 3.60479 3.21167
v 1.89558 3.60477 3.21014
v 1.89775 3.60474 3.2085
v 1.89706 3.60475 3.20714
v 1.89681 3.60476 3.20566
v 1.89684 3.60476 3.20412
v 1.89722 3.60475 3.20259
v 1.89805 3.60474 3.20117
v 1.89912 3.60473 3.19989
v 1.90023 3.60471 3.19884
v 1.90142 3.6047 3.19806
v 1.90291 3.60468 3.19758
v 1.90451 3.60466 3.19757
v 1.90509 3.60256 3.22925
v 1.89297 3.59786 3.22932
v 1.892 3.59749 3.22665
v 1.89143 3.59727 3.22389
v 1.89145 3.59729 3.22111
v 1.89214 3.59756 3.21836
v 1.89322 3.59799 3.21577
v 1.89444 3.59846 3.21348
v 1.89547 3.59887 3.21166
v 1.89663 3.59932 3.21013
v 1.89864 3.6001 3.2085
v 1.898 3.59986 3.20713
v 1.89777 3.59977 3.20565
v 1.89779 3.59978 3.20411
v 1.89815 3.59992 3.20259
v 1.89891 3.60022 3.20116
v 1.89991 3.60061 3.19989
v 1.90094 3.60101 3.19884
v 1.90205 3.60145 3.19806
v 1.90343 3.60198 3.19758
v 1.90491 3.60256 3.19757
v 1.90629 3.60076 3.22925
v 1.89695 3.59192 3.2293
v 1.8962 3.59122 3.22663
v 1.89575 3.59082 3.22387
v 1.89577 3.59085 3.22108
v 1.8963 3.59136 3.21834
v 1.89713 3.59216 3.21575
v 1.89806 3.59306 3.21346
v 1.89885 3.59382 3.21164
v 1.89975 3.59467 3.21012
v 1.9013 3.59615 3.20848
v 1.9008 3.59568 3.20712
v 1.90062 3.59552 3.20564
v 1.90063 3.59554 3.2041
v 1.90091 3.59581 3.20257
v 1.9015 3.59637 3.20115
v 1.90226 3.5971 3.19988
v 1.90305 3.59786 3.19882
v 1.90391 3.59867 3.19805
v 1.90497 3.59968 3.19757
v 1.90611 3.60077 3.19757
v 1.90811 3.59955 3.22924
v 1.90297 3.58791 3.22926
v 1.90255 3.587 3.22659
v 1.9023 3.58646 3.22383
v 1.9023 3.5865 3.22105
v 1.90258 3.58717 3.2183
v 1.90303 3.58823 3.21572
v 1.90354 3.58941 3.21343
v 1.90397 3.59041 3.21161
v 1.90446 3.59153 3.21009
v 1.90531 3.59348 3.20846
v 1.90503 3.59286 3.2071
v 1.90493 3.59265 3.20561
v 1.90493 3.59268 3.20407
v 1.90508 3.59303 3.20255
v 1.9054 3.59377 3.20113
v 1.90582 3.59474 3.19986
v 1.90625 3.59573 3.19881
v 1.90672 3.5968 3.19803
v 1.9073 3.59813 3.19756
v 1.90793 3.59955 3.19756
v 1.91026 3.59911 3.22922
v 1.91011 3.58644 3.22922
v 1.91008 3.58544 3.22655
v 1.91006 3.58486 3.22379
v 1.91004 3.58491 3.221
v 1.91004 3.58564 3.21826
v 1.91004 3.58679 3.21568
v 1.91004 3.58807 3.21339
v 1.91004 3.58916 3.21158
v 1.91005 3.59038 3.21006
v 1.91007 3.5925 3.20843
v 1.91005 3.59183 3.20707
v 1.91004 3.5916 3.20559
v 1.91003 3.59163 3.20404
v 1.91003 3.59201 3.20252
v 1.91003 3.59282 3.2011
v 1.91004 3.59387 3.19983
v 1.91004 3.59495 3.19879
v 1.91005 3.59611 3.19801
v 1.91007 3.59756 3.19754
v 1.91009 3.59911 3.19754
v 1.91243 3.5995 3.22921
v 1.91728 3.58773 3.22918
v 1.91765 3.58681 3.22651
v 1.91785 3.58627 3.22375
v 1.91782 3.58631 3.22096
v 1.91753 3.58699 3.21822
v 1.91707 3.58805 3.21564
v 1.91657 3.58925 3.21336
v 1.91614 3.59026 3.21154
v 1.91567 3.59139 3.21003
v 1.91485 3.59336 3.20841
v 1.91509 3.59274 3.20704
v 1.91517 3.59253 3.20556
v 1.91515 3.59255 3.20402
v 1.915 3.59291 3.2025
v 1.91468 3.59366 3.20108
v 1.91427 3.59463 3.19981
v 1.91385 3.59564 3.19876
v 1.9134 3.59672 3.19799
v 1.91285 3.59806 3.19753
v 1.91225 3.5995 3.19753
v 1.91427 3.60066 3.2292
v 1.9234 3.59159 3.22915
v 1.9241 3.59088 3.22647
v 1.9245 3.59046 3.22371
v 1.92445 3.59049 3.22092
v 1.92391 3.59102 3.21818
v 1.92307 3.59184 3.21561
v 1.92213 3.59276 3.21333
v 1.92134 3.59354 3.21152
v 1.92045 3.59441 3.21
v 1.91892 3.59593 3.20838
v 1.91939 3.59545 3.20702
v 1.91955 3.59529 3.20553
v 1.91952 3.59531 3.20399
v 1.91924 3.59558 3.20247
v 1.91865 3.59616 3.20105
v 1.91789 3.59691 3.19979
v 1.9171 3.59769 3.19875
v 1.91626 3.59852 3.19798
v 1.91522 3.59955 3.19752
v 1.9141 3.60067 3.19752
v 1.91552 3.60243 3.22919
v 1.92752 3.59743 3.22913
v 1.92845 3.59704 3.22645
v 1.92899 3.59681 3.22369
v 1.92893 3.59683 3.2209
v 1.92822 3.59711 3.21816
v 1.92712 3.59757 3.21559
v 1.92589 3.59807 3.21331
v 1.92485 3.5985 3.2115
v 1.92369 3.59898 3.20998
v 1.92167 3.59982 3.20837
v 1.92229 3.59956 3.207
v 1.9225 3.59947 3.20552
v 1.92247 3.59948 3.20398
v 1.9221 3.59963 3.20246
v 1.92133 3.59995 3.20104
v 1.92033 3.60036 3.19978
v 1.9193 3.60079 3.19873
v 1.91819 3.60125 3.19797
v 1.91682 3.60182 3.19751
v 1.91535 3.60243 3.19751
v 1.81683 3.63151 3.23152
v 1.81606 3.5843 3.23206
v 1.81672 3.58361 3.17357
v 1.81748 3.63082 3.17303
v 1.81991 3.63146 3.23155
v 1.81915 3.58425 3.2321
v 1.81981 3.58356 3.17361
v 1.82057 3.63077 3.17306
v 1.81739 3.62503 3.17309
v 1.81681 3.58951 3.1735
v 1.81715 3.58916 3.14322
v 1.81773 3.62467 3.14281
v 1.82048 3.62498 3.17313
v 1.8199 3.58946 3.17354
v 1.82024 3.58911 3.14325
v 1.82082 3.62462 3.14284
f 23 22 1
f 1 2 23
f 24 23 2
f 2 3 24
f 25 24 3
f 3 4 25
f 26 25 4
f 4 5 26
f 27 26 5
f 5 6 27
f 28 27 6
f 6 7 28
f 29 28 7
f 7 8 29
f 30 29 8
f 8 9 30
f 31 30 9
f 9 10 31
f 32 31 10
f 10 11 32
f 33 32 11
f 11 12 33
f 34 33 12
f 12 13 34
f 35 34 13
f 13 14 35
f 36 35 14
f 14 15 36
f 37 36 15
f 15 16 37
f 38 37 16
f 16 17 38
f 39 38 17
f 17 18 39
f 40 39 18
f 18 19 40
f 41 40 19
f 19 20 41
f 42 41 20
f 20 21 42
f 44 43 22
f 22 23 44
f 45 44 23
f 23 24 45
f 46 45 24
f 24 25 46
f 47 46 25
f 25 26 47
f 48 47 26
f 26 27 48
f 49 48 27
f 27 28 49
f 50 49 28
f 28 29 50
f 51 50 29
f 29 30 51
f 52 51 30
f 30 31 52
f 53 52 31
f 31 32 53
f 54 53 32
f 32 33 54
f 55 54 33
f 33 34 55
f 56 55 34
f 34 35 56
f 57 56 35
f 35 36 57
f 58 57 36
f 36 37 58
f 59 58 37
f 37 38 59
f 60 59 38
f 38 39 60
f 61 60 39
f 39 40 61
f 62 61 40
f 40 41 62
f 63 62 41
f 41 42 63
f 65 64 43
f 43 44 65
f 66 65 44
f 44 45 66
f 67 66 45
f 45 46 67
f 68 67 46
f 46 47 68
f 69 68 47
f 47 48 69
f 70 69 48
f 48 49 70
f 71 70 49
f 49 50 71
f 72 71 50
f 50 51 72
f 73 72 51
f 51 52 73
f 74 73 52
f 52 53 74
f 75 74 53
f 53 54 75
f 76 75 54
f 54 55 76
f 77 76 55
f 55 56 77
f 78 77 56
f 56 57 78
f 79 78 57
f 57 58 79
f 80 79 58
f 58 59 80
f 81 80 59
f 59 60 81
f 82 81 60
f 60 61 82
f 83 82 61
f 61 62 83
f 84 83 62
f 62 63 84
f 86 85 64
f 64 65 86
f 87 86 65
f 65 66 87
f 88 87 66
f 66 67 88
f 89 88 67
f 67 68 89
f 90 89 68
f 68 69 90
f 91 90 69
f 69 70 91
f 92 91 70
f 70 71 92
f 93 92 71
f 71 72 93
f 94 93 72
f 72 73 94
f 95 94 73
f 73 74 95
f 96 95 74
f 74 75 96
f 97 96 75
f 75 76 97
f 98 97 76
f 76 77 98
f 99 98 77
f 77 78 99
f 100 99 78
f 78 79 100
f 101 100 79
f 79 80 101
f 102 101 80
f 80 81 102
f 103 102 81
f 81 82 103
f 104 103 82
f 82 83 104
f 105 104 83
f 83 84 105
f 107 106 85
f 85 86 107
f 108 107 86
f 86 87 108
f 109 108 87
f 87 88 109
f 110 109 88
f 88 89 110
f 111 110 89
f 89 90 111
f 112 111 90
f 90 91 112
f 113 112 91
f 91 92 113
f 114 113 92
f 92 93 114
f 115 114 93
f 93 94 115
f 116 115 94
f 94 95 116
f 117 116 95
f 95 96 117
f 118 117 96
f 96 97 118
f 119 118 97
f 97 98 119
f 120 119 98
f 98 99 120
f 121 120 99
f 99 100 121
f 122 121 100
f 100 101 122
f 123 122 101
f 101 102 123
f 124 123 102
f 102 103 124
f 125 124 103
f 103 104 125
f 126 125 104
f 104 105 126
f 128 127 106
f 106 107 128
f 129 128 107
f 107 108 129
f 130 129 108
f 108 109 130
f 131 130 109
f 109 110 131
f 132 131 110
f 110 111 132
f 133 132 111
f 111 112 133
f 134 133 112
f 112 113 134
f 135 134 113
f 113 114 135
f 136 135 114
f 114 115 136
f 137 136 115
f 115 116 137
f 138 137 116
f 116 117 138
f 139 138 117
f 117 118 139
f 140 139 118
f 118 119 140
f 141 140 119
f 119 120 141
f 142 141 120
f 120 121 142
f 143 142 121
f 121 122 143
f 144 143 122
f 122 123 144
f 145 144 123
f 123 124 145
f 146 145 124
f 124 125 146
f 147 146 125
f 125 126 147
f 149 148 127
f 127 128 149
f 150 149 128
f 128 129 150
f 151 150 129
f 129 130 151
f 152 151 130
f 130 131 152
f 153 152 131
f 131 132 153
f 154 153 132
f 132 133 154
f 155 154 133
f 133 134 155
f 156 155 134
f 134 135 156
f 157 156 135
f 135 136 157
f 158 157 136
f 136 137 158
f 159 158 137
f 137 138 159
f 160 159 138
f 138 139 160
f 161 160 139
f 139 140 161
f 162 161 140
f 140 141 162
f 163 162 141
f 141 142 163
f 164 163 142
f 142 143 164
f 165 164 143
f 143 144 165
f 166 165 144
f 144 145 166
f 167 166 145
f 145 146 167
f 168 167 146
f 146 147 168
f 170 169 148
f 148 149 170
f 171 170 149
f 149 150 171
f 172 171 150
f 150 151 172
f 173 172 151
f 151 152 173
f 174 173 152
f 152 153 174
f 175 174 153
f 153 154 175
f 176 175 154
f 154 155 176
f 177 176 155
f 155 156 177
f 178 177 156
f 156 157 178
f 179 178 157
f 157 158 179
f 180 179 158
f 158 159 180
f 181 180 159
f 159 160 181
f 182 181 160
f 160 161 182
f 183 182 161
f 161 162 183
f 184 183 162
f 162 163 184
f 185 184 163
f 163 164 185
f 186 185 164
f 164 165 186
f 187 186 165
f 165 166 187
f 188 187 166
f 166 167 188
f 189 188 167
f 167 168 189
f 191 190 169
f 169 170 191
f 192 191 170
f 170 171 192
f 193 192 171
f 171 172 193
f 194 193 172
f 172 173 194
f 195 194 173
f 173 174 195
f 196 195 174
f 174 175 196
f 197 196 175
f 175 176 197
f 198 197 176
f 176 177 198
f 199 198 177
f 177 178 199
f 200 199 178
f 178 179 200
f 201 200 179
f 179 180 201
f 202 201 180
f 180 181 202
f 203 202 181
f 181 182 203
f 204 203 182
f 182 183 204
f 205 204 183
f 183 184 205
f 206 205 184
f 184 185 206
f 207 206 185
f 185 186 207
f 208 207 186
f 186 187 208
f 209 208 187
f 187 188 209
f 210 209 188
f 188 189 210
f 212 211 190
f 190 191 212
f 213 212 191
f 191 192 213
f 214 213 192
f 192 193 214
f 215 214 193
f 193 194 215
f 216 215 194
f 194 195 216
f 217 216 195
f 195 196 217
f 218 217 196
f 196 197 218
f 219 218 197
f 197 198 219
f 220 219 198
f 198 199 220
f 221 220 199
f 199 200 221
f 222 221 200
f 200 201 222
f 223 222 201
f 201 202 223
f 224 223 202
f 202 203 224
f 225 224 203
f 203 204 225
f 226 225 204
f 204 205 226
f 227 226 205
f 205 206 227
f 228 227 206
f 206 207 228
f 229 228 207
f 207 208 229
f 230 229 208
f 208 209 230
f 231 230 209
f 209 210 231
f 233 232 211
f 211 212 233
f 234 233 212
f 212 213 234
f 235 234 213
f 213 214 235
f 236 235 214
f 214 215 236
f 237 236 215
f 215 216 237
f 238 237 216
f 216 217 238
f 239 238 217
f 217 218 239
f 240 239 218
f 218 219 240
f 241 240 219
f 219 220 241
f 242 241 220
f 220 221 242
f 243 242 221
f 221 222 243
f 244 243 222
f 222 223 244
f 245 244 223
f 223 224 245
f 246 245 224
f 224 225 246
f 247 246 225
f 225 226 247
f 248 247 226
f 226 227 248
f 249 248 227
f 227 228 249
f 250 249 228
f 228 229 250
f 251 250 229
f 229 230 251
f 252 251 230
f 230 231 252
f 254 253 232
f 232 233 254
f 255 254 233
f 233 234 255
f 256 255 234
f 234 235 256
f 257 256 235
f 235 236 257
f 258 257 236
f 236 237 258
f 259 258 237
f 237 238 259
f 260 259 238
f 238 239 260
f 261 260 239
f 239 240 261
f 262 261 240
f 240 241 262
f 263 262 241
f 241 242 263
f 264 263 242
f 242 243 264
f 265 264 243
f 243 244 265
f 266 265 244
f 244 245 266
f 267 266 245
f 245 246 267
f 268 267 246
f 246 247 268
f 269 268 247
f 247 248 269
f 270 269 248
f 248 249 270
f 271 270 249
f 249 250 271
f 272 271 250
f 250 251 272
f 273 272 251
f 251 252 273
f 275 274 253
f 253 254 275
f 276 275 254
f 254 255 276
f 277 276 255
f 255 256 277
f 278 277 256
f 256 257 278
f 279 278 257
f 257 258 279
f 280 279 258
f 258 259 280
f 281 280 259
f 259 260 281
f 282 281 260
f 260 261 282
f 283 282 261
f 261 262 283
f 284 283 262
f 262 263 284
f 285 284 263
f 263 264 285
f 286 285 264
f 264 265 286
f 287 286 265
f 265 266 287
f 288 287 266
f 266 267 288
f 289 288 267
f 267 268 289
f 290 289 268
f 268 269 290
f 291 290 269
f 269 270 291
f 292 291 270
f 270 271 292
f 293 292 271
f 271 272 293
f 294 293 272
f 272 273 294
f 296 295 274
f 274 275 296
f 297 296 275
f 275 276 297
f 298 297 276
f 276 277 298
f 299 298 277
f 277 278 299
f 300 299 278
f 278 279 300
f 301 300 279
f 279 280 301
f 302 301 280
f 280 281 302
f 303 302 281
f 281 282 303
f 304 303 282
f 282 283 304
f 305 304 283
f 283 284 305
f 306 305 284
f 284 285 306
f 307 306 285
f 285 286 307
f 308 307 286
f 286 287 308
f 309 308 287
f 287 288 309
f 310 309 288
f 288 289 310
f 311 310 289
f 289 290 311
f 312 311 290
f 290 291 312
f 313 312 291
f 291 292 313
f 314 313 292
f 292 293 314
f 315 314 293
f 293 294 315
f 317 316 295
f 295 296 317
f 318 317 296
f 296 297 318
f 319 318 297
f 297 298 319
f 320 319 298
f 298 299 320
f 321 320 299
f 299 300 321
f 322 321 300
f 300 301 322
f 323 322 301
f 301 302 323
f 324 323 302
f 302 303 324
f 325 324 303
f 303 304 325
f 326 325 304
f 304 305 326
f 327 326 305
f 305 306 327
f 328 327 306
f 306 307 328
f 329 328 307
f 307 308 329
f 330 329 308
f 308 309 330
f 331 330 309
f 309 310 331
f 332 331 310
f 310 311 332
f 333 332 311
f 311 312 333
f 334 333 312
f 312 313 334
f 335 334 313
f 313 314 335
f 336 335 314
f 314 315 336
f 2 1 316
f 316 317 2
f 3 2 317
f 317 318 3
f 4 3 318
f 318 319 4
f 5 4 319
f 319 320 5
f 6 5 320
f 320 321 6
f 7 6 321
f 321 322 7
f 8 7 322
f 322 323 8
f 9 8 323
f 323 324 9
f 10 9 324
f 324 325 10
f 11 10 325
f 325 326 11
f 12 11 326
f 326 327 12
f 13 12 327
f 327 328 13
f 14 13 328
f 328 329 14
f 15 14 329
f 329 330 15
f 16 15 330
f 330 331 16
f 17 16 331
f 331 332 17
f 18 17 332
f 332 333 18
f 19 18 333
f 333 334 19
f 20 19 334
f 334 335 20
f 21 20 335
f 335 336 21
f 342 341 337
f 337 338 342
f 343 342 338
f 338 339 343
f 344 343 339
f 339 340 344
f 341 344 340
f 340 337 341
f 350 349 345
f 345 346 350
f 351 350 346
f 346 347 351
f 352 351 347
f 347 348 352
f 349 352 348
f 348 345 349
f 339 338 337
f 337 340 339
f 347 346 345
f 345 348 347
f 341 342 343
f 343 344 341
f 349 350 351
f 351 352 349
f 358 357 353
f 353 354 358
f 359 358 354
f 354 355 359
f 360 359 355
f 355 356 360
f 357 360 356
f 356 353 357
f 366 365 361
f 361 362 366
f 367 366 362
f 362 363 367
f 368 367 363
f 363 364 368
f 365 368 364
f 364 361 365
f 355 354 353
f 353 356 355
f 363 362 361
f 361 364 363
f 357 358 359
f 359 360 357
f 365 366 367
f 367 368 365
f 374 373 369
f 369 370 374
f 375 374 370
f 370 371 375
f 376 375 371
f 371 372 376
f 373 376 372
f 372 369 373
f 382 381 377
f 377 378 382
f 383 382 378
f 378 379 383
f 384 383 379
f 379 380 384
f 381 384 380
f 380 377 381
f 371 370 369
f 369 372 371
f 379 378 377
f 377 380 379
f 373 374 375
f 375 376 373
f 381 382 383
f 383 384 381
f 390 389 385
f 385 386 390
f 391 390 386
f 386 387 391
f 392 391 387
f 387 388 392
f 389 392 388
f 388 385 389
f 398 397 393
f 393 394 398
f 399 398 394
f 394 395 399
f 400 399 395
f 395 396 400
f 397 400 396
f 396 393 397
f 387 386 385
f 385 388 387
f 395 394 393
f 393 396 395
f 389 390 391
f 391 392 389
f 397 398 399
f 399 400 397
f 423 422 401
f 401 402 423
f 424 423 402
f 402 403 424
f 425 424 403
f 403 404 425
f 426 425 404
f 404 405 426
f 427 426 405
f 405 406 427
f 428 427 406
f 406 407 428
f 429 428 407
f 407 408 429
f 430 429 408
f 408 409 430
f 431 430 409
f 409 410 431
f 432 431 410
f 410 411 432
f 433 432 411
f 411 412 433
f 434 433 412
f 412 413 434
f 435 434 413
f 413 414 435
f 436 435 414
f 414 415 436
f 437 436 415
f 415 416 437
f 438 437 416
f 416 417 438
f 439 438 417
f 417 418 439
f 440 439 418
f 418 419 440
f 441 440 419
f 419 420 441
f 442 441 420
f 420 421 442
f 444 443 422
f 422 423 444
f 445 444 423
f 423 424 445
f 446 445 424
f 424 425 446
f 447 446 425
f 425 426 447
f 448 447 426
f 426 427 448
f 449 448 427
f 427 428 449
f 450 449 428
f 428 429 450
f 451 450 429
f 429 430 451
f 452 451 430
f 430 431 452
f 453 452 431
f 431 432 453
f 454 453 432
f 432 433 454
f 455 454 433
f 433 434 455
f 456 455 434
f 434 435 456
f 457 456 435
f 435 436 457
f 458 457 436
f 436 437 458
f 459 458 437
f 437 438 459
f 460 459 438
f 438 439 460
f 461 460 439
f 439 440 461
f 462 461 440
f 440 441 462
f 463 462 441
f 441 442 463
f 465 464 443
f 443 444 465
f 466 465 444
f 444 445 466
f 467 466 445
f 445 446 467
f 468 467 446
f 446 447 468
f 469 468 447
f 447 448 469
f 470 469 448
f 448 449 470
f 471 470 449
f 449 450 471
f 472 471 450
f 450 451 472
f 473 472 451
f 451 452 473
f 474 473 452
f 452 453 474
f 475 474 453
f 453 454 475
f 476 475 454
f 454 455 476
f 477 476 455
f 455 456 477
f 478 477 456
f 456 457 478
f 479 478 457
f 457 458 479
f 480 479 458
f 458 459 480
f 481 480 459
f 459 460 481
f 482 481 460
f 460 461 482
f 483 482 461
f 461 462 483
f 484 483 462
f 462 463 484
f 486 485 464
f 464 465 486
f 487 486 465
f 465 466 487
f 488 487 466
f 466 467 488
f 489 488 467
f 467 468 489
f 490 489 468
f 468 469 490
f 491 490 469
f 469 470 491
f 492 491 470
f 470 471 492
f 493 492 471
f 471 472 493
f 494 493 472
f 472 473 494
f 495 494 473
f 473 474 495
f 496 495 474
f 474 475 496
f 497 496 475
f 475 476 497
f 498 497 476
f 476 477 498
f 499 498 477
f 477 478 499
f 500 499 478
f 478 479 500
f 501 500 479
f 479 480 501
f 502 501 480
f 480 481 502
f 503 502 481
f 481 482 503
f 504 503 482
f 482 483 504
f 505 504 483
f 483 484 505
f 507 506 485
f 485 486 507
f 508 507 486
f 486 487 508
f 509 508 487
f 487 488 509
f 510 509 488
f 488 489 510
f 511 510 489
f 489 490 511
f 512 511 490
f 490 491 512
f 513 512 491
f 491 492 513
f 514 513 492
f 492 493 514
f 515 514 493
f 493 494 515
f 516 515 494
f 494 495 516
f 517 516 495
f 495 496 517
f 518 517 496
f 496 497 518
f 519 518 497
f 497 498 519
f 520 519 498
f 498 499 520
f 521 520 499
f 499 500 521
f 522 521 500
f 500 501 522
f 523 522 501
f 501 502 523
f 524 523 502
f 502 503 524
f 525 524 503
f 503 504 525
f 526 525 504
f 504 505 526
f 528 527 506
f 506 507 528
f 529 528 507
f 507 508 529
f 530 529 508
f 508 509 530
f 531 530 509
f 509 510 531
f 532 531 510
f 510 511 532
f 533 532 511
f 511 512 533
f 534 533 512
f 512 513 534
f 535 534 513
f 513 514 535
f 536 535 514
f 514 515 536
f 537 536 515
f 515 516 537
f 538 537 516
f 516 517 538
f 539 538 517
f 517 518 539
f 540 539 518
f 518 519 540
f 541 540 519
f 519 520 541
f 542 541 520
f 520 521 542
f 543 542 521
f 521 522 543
f 544 543 522
f 522 523 544
f 545 544 523
f 523 524 545
f 546 545 524
f 524 525 546
f 547 546 525
f 525 526 547
f 549 548 527
f 527 528 549
f 550 549 528
f 528 529 550
f 551 550 529
f 529 530 551
f 552 551 530
f 530 531 552
f 553 552 531
f 531 532 553
f 554 553 532
f 532 533 554
f 555 554 533
f 533 534 555
f 556 555 534
f 534 535 556
f 557 556 535
f 535 536 557
f 558 557 536
f 536 537 558
f 559 558 537
f 537 538 559
f 560 559 538
f 538 539 560
f 561 560 539
f 539 540 561
f 562 561 540
f 540 541 562
f 563 562 541
f 541 542 563
f 564 563 542
f 542 543 564
f 565 564 543
f 543 544 565
f 566 565 544
f 544 545 566
f 567 566 545
f 545 546 567
f 568 567 546
f 546 547 568
f 570 569 548
f 548 549 570
f 571 570 549
f 549 550 571
f 572 571 550
f 550 551 572
f 573 572 551
f 551 552 573
f 574 573 552
f 552 553 574
f 575 574 553
f 553 554 575
f 576 575 554
f 554 555 576
f 577 576 555
f 555 556 577
f 578 577 556
f 556 557 578
f 579 578 557
f 557 558 579
f 580 579 558
f 558 559 580
f 581 580 559
f 559 560 581
f 582 581 560
f 560 561 582
f 583 582 561
f 561 562 583
f 584 583 562
f 562 563 584
f 585 584 563
f 563 564 585
f 586 585 564
f 564 565 586
f 587 586 565
f 565 566 587
f 588 587 566
f 566 567 588
f 589 588 567
f 567 568 589
f 591 590 569
f 569 570 591
f 592 591 570
f 570 571 592
f 593 592 571
f 571 572 593
f 594 593 572
f 572 573 594
f 595 594 573
f 573 574 595
f 596 595 574
f 574 575 596
f 597 596 575
f 575 576 597
f 598 597 576
f 576 577 598
f 599 598 577
f 577 578 599
f 600 599 578
f 578 579 600
f 601 600 579
f 579 580 601
f 602 601 580
f 580 581 602
f 603 602 581
f 581 582 603
f 604 603 582
f 582 583 604
f 605 604 583
f 583 584 605
f 606 605 584
f 584 585 606
f 607 606 585
f 585 586 607
f 608 607 586
f 586 587 608
f 609 608 587
f 587 588 609
f 610 609 588
f 588 589 610
f 612 611 590
f 590 591 612
f 613 612 591
f 591 592 613
f 614 613 592
f 592 593 614
f 615 614 593
f 593 594 615
f 616 615 594
f 594 595 616
f 617 616 595
f 595 596 617
f 618 617 596
f 596 597 618
f 619 618 597
f 597 598 619
f 620 619 598
f 598 599 620
f 621 620 599
f 599 600 621
f 622 621 600
f 600 601 622
f 623 622 601
f 601 602 623
f 624 623 602
f 602 603 624
f 625 624 603
f 603 604 625
f 626 625 604
f 604 605 626
f 627 626 605
f 605 606 627
f 628 627 606
f 606 607 628
f 629 628 607
f 607 608 629
f 630 629 608
f 608 609 630
f 631 630 609
f 609 610 631
f 633 632 611
f 611 612 633
f 634 633 612
f 612 613 634
f 635 634 613
f 613 614 635
f 636 635 614
f 614 615 636
f 637 636 615
f 615 616 637
f 638 637 616
f 616 617 638
f 639 638 617
f 617 618 639
f 640 639 618
f 618 619 640
f 641 640 619
f 619 620 641
f 642 641 620
f 620 621 642
f 643 642 621
f 621 622 643
f 644 643 622
f 622 623 644
f 645 644 623
f 623 624 645
f 646 645 624
f 624 625 646
f 647 646 625
f 625 626 647
f 648 647 626
f 626 627 648
f 649 648 627
f 627 628 649
f 650 649 628
f 628 629 650
f 651 650 629
f 629 630 651
f 652 651 630
f 630 631 652
f 654 653 632
f 632 633 654
f 655 654 633
f 633 634 655
f 656 655 634
f 634 635 656
f 657 656 635
f 635 636 657
f 658 657 636
f 636 637 658
f 659 658 637
f 637 638 659
f 660 659 638
f 638 639 660
f 661 660 639
f 639 640 661
f 662 661 640
f 640 641 662
f 663 662 641
f 641 642 663
f 664 663 642
f 642 643 664
f 665 664 643
f 643 644 665
f 666 665 644
f 644 645 666
f 667 666 645
f 645 646 667
f 668 667 646
f 646 647 668
f 669 668 647
f 647 648 669
f 670 669 648
f 648 649 670
f 671 670 649
f 649 650 671
f 672 671 650
f 650 651 672
f 673 672 651
f 651 652 673
f 675 674 653
f 653 654 675
f 676 675 654
f 654 655 676
f 677 676 655
f 655 656 677
f 678 677 656
f 656 657 678
f 679 678 657
f 657 658 679
f 680 679 658
f 658 659 680
f 681 680 659
f 659 660 681
f 682 681 660
f 660 661 682
f 683 682 661
f 661 662 683
f 684 683 662
f 662 663 684
f 685 684 663
f 663 664 685
f 686 685 664
f 664 665 686
f 687 686 665
f 665 666 687
f 688 687 666
f 666 667 688
f 689 688 667
f 667 668 689
f 690 689 668
f 668 669 690
f 691 690 669
f 669 670 691
f 692 691 670
f 670 671 692
f 693 692 671
f 671 672 693
f 694 693 672
f 672 673 694
f 696 695 674
f 674 675 696
f 697 696 675
f 675 676 697
f 698 697 676
f 676 677 698
f 699 698 677
f 677 678 699
f 700 699 678
f 678 679 700
f 701 700 679
f 679 680 701
f 702 701 680
f 680 681 702
f 703 702 681
f 681 682 703
f 704 703 682
f 682 683 704
f 705 704 683
f 683 684 705
f 706 705 684
f 684 685 706
f 707 706 685
f 685 686 707
f 708 707 686
f 686 687 708
f 709 708 687
f 687 688 709
f 710 709 688
f 688 689 710
f 711 710 689
f 689 690 711
f 712 711 690
f 690 691 712
f 713 712 691
f 691 692 713
f 714 713 692
f 692 693 714
f 715 714 693
f 693 694 715
f 717 716 695
f 695 696 717
f 718 717 696
f 696 697 718
f 719 718 697
f 697 698 719
f 720 719 698
f 698 699 720
f 721 720 699
f 699 700 721
f 722 721 700
f 700 701 722
f 723 722 701
f 701 702 723
f 724 723 702
f 702 703 724
f 725 724 703
f 703 704 725
f 726 725 704
f 704 705 726
f 727 726 705
f 705 706 727
f 728 727 706
f 706 707 728
f 729 728 707
f 707 708 729
f 730 729 708
f 708 709 730
f 731 730 709
f 709 710 731
f 732 731 710
f 710 711 732
f 733 732 711
f 711 712 733
f 734 733 712
f 712 713 734
f 735 734 713
f 713 714 735
f 736 735 714
f 714 715 736
f 402 401 716
f 716 717 402
f 403 402 717
f 717 718 403
f 404 403 718
f 718 719 404
f 405 404 719
f 719 720 405
f 406 405 720
f 720 721 406
f 407 406 721
f 721 722 407
f 408 407 722
f 722 723 408
f 409 408 723
f 723 724 409
f 410 409 724
f 724 725 410
f 411 410 725
f 725 726 411
f 412 411 726
f 726 727 412
f 413 412 727
f 727 728 413
f 414 413 728
f 728 729 414
f 415 414 729
f 729 730 415
f 416 415 730
f 730 731 416
f 417 416 731
f 731 732 417
f 418 417 732
f 732 733 418
f 419 418 733
f 733 734 419
f 420 419 734
f 734 735 420
f 421 420 735
f 735 736 421
f 742 741 737
f 737 738 742
f 743 742 738
f 738 739 743
f 744 743 739
f 739 740 744
f 741 744 740
f 740 737 741
f 750 749 745
f 745 746 750
f 751 750 746
f 746 747 751
f 752 751 747
f 747 748 752
f 749 752 748
f 748 745 749
f 739 738 737
f 737 740 739
f 747 746 745
f 745 748 747
f 741 742 743
f 743 744 741
f 749 750 751
f 751 752 749
f 775 774 753
f 753 754 775
f 776 775 754
f 754 755 776
f 777 776 755
f 755 756 777
f 778 777 756
f 756 757 778
f 779 778 757
f 757 758 779
f 780 779 758
f 758 759 780
f 781 780 759
f 759 760 781
f 782 781 760
f 760 761 782
f 783 782 761
f 761 762 783
f 784 783 762
f 762 763 784
f 785 784 763
f 763 764 785
f 786 785 764
f 764 765 786
f 787 786 765
f 765 766 787
f 788 787 766
f 766 767 788
f 789 788 767
f 767 768 789
f 790 789 768
f 768 769 790
f 791 790 769
f 769 770 791
f 792 791 770
f 770 771 792
f 793 792 771
f 771 772 793
f 794 793 772
f 772 773 794
f 796 795 774
f 774 775 796
f 797 796 775
f 775 776 797
f 798 797 776
f 776 777 798
f 799 798 777
f 777 778 799
f 800 799 778
f 778 779 800
f 801 800 779
f 779 780 801
f 802 801 780
f 780 781 802
f 803 802 781
f 781 782 803
f 804 803 782
f 782 783 804
f 805 804 783
f 783 784 805
f 806 805 784
f 784 785 806
f 807 806 785
f 785 786 807
f 808 807 786
f 786 787 808
f 809 808 787
f 787 788 809
f 810 809 788
f 788 789 810
f 811 810 789
f 789 790 811
f 812 811 790
f 790 791 812
f 813 812 791
f 791 792 813
f 814 813 792
f 792 793 814
f 815 814 793
f 793 794 815
f 817 816 795
f 795 796 817
f 818 817 796
f 796 797 818
f 819 818 797
f 797 798 819
f 820 819 798
f 798 799 820
f 821 820 799
f 799 800 821
f 822 821 800
f 800 801 822
f 823 822 801
f 801 802 823
f 824 823 802
f 802 803 824
f 825 824 803
f 803 804 825
f 826 825 804
f 804 805 826
f 827 826 805
f 805 806 827
f 828 827 806
f 806 807 828
f 829 828 807
f 807 808 829
f 830 829 808
f 808 809 830
f 831 830 809
f 809 810 831
f 832 831 810
f 810 811 832
f 833 832 811
f 811 812 833
f 834 833 812
f 812 813 834
f 835 834 813
f 813 814 835
f 836 835 814
f 814 815 836
f 838 837 816
f 816 817 838
f 839 838 817
f 817 818 839
f 840 839 818
f 818 819 840
f 841 840 819
f 819 820 841
f 842 841 820
f 820 821 842
f 843 842 821
f 821 822 843
f 844 843 822
f 822 823 844
f 845 844 823
f 823 824 845
f 846 845 824
f 824 825 846
f 847 846 825
f 825 826 847
f 848 847 826
f 826 827 848
f 849 848 827
f 827 828 849
f 850 849 828
f 828 829 850
f 851 850 829
f 829 830 851
f 852 851 830
f 830 831 852
f 853 852 831
f 831 832 853
f 854 853 832
f 832 833 854
f 855 854 833
f 833 834 855
f 856 855 834
f 834 835 856
f 857 856 835
f 835 836 857
f 859 858 837
f 837 838 859
f 860 859 838
f 838 839 860
f 861 860 839
f 839 840 861
f 862 861 840
f 840 841 862
f 863 862 841
f 841 842 863
f 864 863 842
f 842 843 864
f 865 864 843
f 843 844 865
f 866 865 844
f 844 845 866
f 867 866 845
f 845 846 867
f 868 867 846
f 846 847 868
f 869 868 847
f 847 848 869
f 870 869 848
f 848 849 870
f 871 870 849
f 849 850 871
f 872 871 850
f 850 851 872
f 873 872 851
f 851 852 873
f 874 873 852
f 852 853 874
f 875 874 853
f 853 854 875
f 876 875 854
f 854 855 876
f 877 876 855
f 855 856 877
f 878 877 856
f 856 857 878
f 880 879 858
f 858 859 880
f 881 880 859
f 859 860 881
f 882 881 860
f 860 861 882
f 883 882 861
f 861 862 883
f 884 883 862
f 862 863 884
f 885 884 863
f 863 864 885
f 886 885 864
f 864 865 886
f 887 886 865
f 865 866 887
f 888 887 866
f 866 867 888
f 889 888 867
f 867 868 889
f 890 889 868
f 868 869 890
f 891 890 869
f 869 870 891
f 892 891 870
f 870 871 892
f 893 892 871
f 871 872 893
f 894 893 872
f 872 873 894
f 895 894 873
f 873 874 895
f 896 895 874
f 874 875 896
f 897 896 875
f 875 876 897
f 898 897 876
f 876 877 898
f 899 898 877
f 877 878 899
f 901 900 879
f 879 880 901
f 902 901 880
f 880 881 902
f 903 902 881
f 881 882 903
f 904 903 882
f 882 883 904
f 905 904 883
f 883 884 905
f 906 905 884
f 884 885 906
f 907 906 885
f 885 886 907
f 908 907 886
f 886 887 908
f 909 908 887
f 887 888 909
f 910 909 888
f 888 889 910
f 911 910 889
f 889 890 911
f 912 911 890
f 890 891 912
f 913 912 891
f 891 892 913
f 914 913 892
f 892 893 914
f 915 914 893
f 893 894 915
f 916 915 894
f 894 895 916
f 917 916 895
f 895 896 917
f 918 917 896
f 896 897 918
f 919 918 897
f 897 898 919
f 920 919 898
f 898 899 920
f 922 921 900
f 900 901 922
f 923 922 901
f 901 902 923
f 924 923 902
f 902 903 924
f 925 924 903
f 903 904 925
f 926 925 904
f 904 905 926
f 927 926 905
f 905 906 927
f 928 927 906
f 906 907 928
f 929 928 907
f 907 908 929
f 930 929 908
f 908 909 930
f 931 930 909
f 909 910 931
f 932 931 910
f 910 911 932
f 933 932 911
f 911 912 933
f 934 933 912
f 912 913 934
f 935 934 913
f 913 914 935
f 936 935 914
f 914 915 936
f 937 936 915
f 915 916 937
f 938 937 916
f 916 917 938
f 939 938 917
f 917 918 939
f 940 939 918
f 918 919 940
f 941 940 919
f 919 920 941
f 943 942 921
f 921 922 943
f 944 943 922
f 922 923 944
f 945 944 923
f 923 924 945
f 946 945 924
f 924 925 946
f 947 946 925
f 925 926 947
f 948 947 926
f 926 927 948
f 949 948 927
f 927 928 949
f 950 949 928
f 928 929 950
f 951 950 929
f 929 930 951
f 952 951 930
f 930 931 952
f 953 952 931
f 931 932 953
f 954 953 932
f 932 933 954
f 955 954 933
f 933 934 955
f 956 955 934
f 934 935 956
f 957 956 935
f 935 936 957
f 958 957 936
f 936 937 958
f 959 958 937
f 937 938 959
f 960 959 938
f 938 939 960
f 961 960 939
f 939 940 961
f 962 961 940
f 940 941 962
f 964 963 942
f 942 943 964
f 965 964 943
f 943 944 965
f 966 965 944
f 944 945 966
f 967 966 945
f 945 946 967
f 968 967 946
f 946 947 968
f 969 968 947
f 947 948 969
f 970 969 948
f 948 949 970
f 971 970 949
f 949 950 971
f 972 971 950
f 950 951 972
f 973 972 951
f 951 952 973
f 974 973 952
f 952 953 974
f 975 974 953
f 953 954 975
f 976 975 954
f 954 955 976
f 977 976 955
f 955 956 977
f 978 977 956
f 956 957 978
f 979 978 957
f 957 958 979
f 980 979 958
f 958 959 980
f 981 980 959
f 959 960 981
f 982 981 960
f 960 961 982
f 983 982 961
f 961 962 983
f 985 984 963
f 963 964 985
f 986 985 964
f 964 965 986
f 987 986 965
f 965 966 987
f 988 987 966
f 966 967 988
f 989 988 967
f 967 968 989
f 990 989 968
f 968 969 990
f 991 990 969
f 969 970 991
f 992 991 970
f 970 971 992
f 993 992 971
f 971 972 993
f 994 993 972
f 972 973 994
f 995 994 973
f 973 974 995
f 996 995 974
f 974 975 996
f 997 996 975
f 975 976 997
f 998 997 976
f 976 977 998
f 999 998 977
f 977 978 999
f 1000 999 978
f 978 979 1000
f 1001 1000 979
f 979 980 1001
f 1002 1001 980
f 980 981 1002
f 1003 1002 981
f 981 982 1003
f 1004 1003 982
f 982 983 1004
f 1006 1005 984
f 984 985 1006
f 1007 1006 985
f 985 986 1007
f 1008 1007 986
f 986 987 1008
f 1009 1008 987
f 987 988 1009
f 1010 1009 988
f 988 989 1010
f 1011 1010 989
f 989 990 1011
f 1012 1011 990
f 990 991 1012
f 1013 1012 991
f 991 992 1013
f 1014 1013 992
f 992 993 1014
f 1015 1014 993
f 993 994 1015
f 1016 1015 994
f 994 995 1016
f 1017 1016 995
f 995 996 1017
f 1018 1017 996
f 996 997 1018
f 1019 1018 997
f 997 998 1019
f 1020 1019 998
f 998 999 1020
f 1021 1020 999
f 999 1000 1021
f 1022 1021 1000
f 1000 1001 1022
f 1023 1022 1001
f 1001 1002 1023
f 1024 1023 1002
f 1002 1003 1024
f 1025 1024 1003
f 1003 1004 1025
f 1027 1026 1005
f 1005 1006 1027
f 1028 1027 1006
f 1006 1007 1028
f 1029 1028 1007
f 1007 1008 1029
f 1030 1029 1008
f 1008 1009 1030
f 1031 1030 1009
f 1009 1010 1031
f 1032 1031 1010
f 1010 1011 1032
f 1033 1032 1011
f 1011 1012 1033
f 1034 1033 1012
f 1012 1013 1034
f 1035 1034 1013
f 1013 1014 1035
f 1036 1035 1014
f 1014 1015 1036
f 1037 1036 1015
f 1015 1016 1037
f 1038 1037 1016
f 1016 1017 1038
f 1039 1038 1017
f 1017 1018 1039
f 1040 1039 1018
f 1018 1019 1040
f 1041 1040 1019
f 1019 1020 1041
f 1042 1041 1020
f 1020 1021 1042
f 1043 1042 1021
f 1021 1022 1043
f 1044 1043 1022
f 1022 1023 1044
f 1045 1044 1023
f 1023 1024 1045
f 1046 1045 1024
f 1024 1025 1046
f 1048 1047 1026
f 1026 1027 1048
f 1049 1048 1027
f 1027 1028 1049
f 1050 1049 1028
f 1028 1029 1050
f 1051 1050 1029
f 1029 1030 1051
f 1052 1051 1030
f 1030 1031 1052
f 1053 1052 1031
f 1031 1032 1053
f 1054 1053 1032
f 1032 1033 1054
f 1055 1054 1033
f 1033 1034 1055
f 1056 1055 1034
f 1034 1035 1056
f 1057 1056 1035
f 1035 1036 1057
f 1058 1057 1036
f 1036 1037 1058
f 1059 1058 1037
f 1037 1038 1059
f 1060 1059 1038
f 1038 1039 1060
f 1061 1060 1039
f 1039 1040 1061
f 1062 1061 1040
f 1040 1041 1062
f 1063 1062 1041
f 1041 1042 1063
f 1064 1063 1042
f 1042 1043 1064
f 1065 1064 1043
f 1043 1044 1065
f 1066 1065 1044
f 1044 1045 1066
f 1067 1066 1045
f 1045 1046 1067
f 1069 1068 1047
f 1047 1048 1069
f 1070 1069 1048
f 1048 1049 1070
f 1071 1070 1049
f 1049 1050 1071
f 1072 1071 1050
f 1050 1051 1072
f 1073 1072 1051
f 1051 1052 1073
f 1074 1073 1052
f 1052 1053 1074
f 1075 1074 1053
f 1053 1054 1075
f 1076 1075 1054
f 1054 1055 1076
f 1077 1076 1055
f 1055 1056 1077
f 1078 1077 1056
f 1056 1057 1078
f 1079 1078 1057
f 1057 1058 1079
f 1080 1079 1058
f 1058 1059 1080
f 1081 1080 1059
f 1059 1060 1081
f 1082 1081 1060
f 1060 1061 1082
f 1083 1082 1061
f 1061 1062 1083
f 1084 1083 1062
f 1062 1063 1084
f 1085 1084 1063
f 1063 1064 1085
f 1086 1085 1064
f 1064 1065 1086
f 1087 1086 1065
f 1065 1066 1087
f 1088 1087 1066
f 1066 1067 1088
f 754 753 1068
f 1068 1069 754
f 755 754 1069
f 1069 1070 755
f 756 755 1070
f 1070 1071 756
f 757 756 1071
f 1071 1072 757
f 758 757 1072
f 1072 1073 758
f 759 758 1073
f 1073 1074 759
f 760 759 1074
f 1074 1075 760
f 761 760 1075
f 1075 1076 761
f 762 761 1076
f 1076 1077 762
f 763 762 1077
f 1077 1078 763
f 764 763 1078
f 1078 1079 764
f 765 764 1079
f 1079 1080 765
f 766 765 1080
f 1080 1081 766
f 767 766 1081
f 1081 1082 767
f 768 767 1082
f 1082 1083 768
f 769 768 1083
f 1083 1084 769
f 770 769 1084
f 1084 1085 770
f 771 770 1085
f 1085 1086 771
f 772 771 1086
f 1086 1087 772
f 773 772 1087
f 1087 1088 773
f 1094 1093 1089
f 1089 1090 1094
f 1095 1094 1090
f 1090 1091 1095
f 1096 1095 1091
f 1091 1092 1096
f 1093 1096 1092
f 1092 1089 1093
f 1102 1101 1097
f 1097 1098 1102
f 1103 1102 1098
f 1098 1099 1103
f 1104 1103 1099
f 1099 1100 1104
f 1101 1104 1100
f 1100 1097 1101
f 1091 1090 1089
f 1089 1092 1091
f 1099 1098 1097
f 1097 1100 1099
f 1093 1094 1095
f 1095 1096 1093
f 1101 1102 1103
f 1103 1104 1101
